<svg xmlns="http://www.w3.org/2000/svg" version="1.1" xmlns:xlink="http://www.w3.org/1999/xlink" xmlns:svgjs="http://svgjs.dev/svgjs" viewBox="0 0 800 800"><defs><linearGradient x1="50%" y1="0%" x2="50%" y2="100%" id="ffflurry-grad" gradientTransform="rotate(270)"><stop stop-color="#172554" stop-opacity="1" offset="0%"></stop><stop stop-color="hsl(205, 69%, 60%)" stop-opacity="1" offset="45%"></stop><stop stop-color="hsl(205, 69%, 80%)" stop-opacity="1" offset="100%"></stop></linearGradient></defs><rect width="100%" height="100%" fill="#172554"></rect><g fill="url(#ffflurry-grad)"><rect width="211" height="1" x="144.5" y="626.5" rx="0.5" transform="rotate(181, 250, 627)" opacity="0.42"></rect><rect width="213" height="1" x="542.5" y="254.5" rx="0.5" transform="rotate(181, 649, 255)" opacity="0.77"></rect><rect width="516" height="1" x="363" y="454.5" rx="0.5" transform="rotate(181, 621, 455)" opacity="0.71"></rect><rect width="427" height="1" x="487.5" y="87.5" rx="0.5" transform="rotate(181, 701, 88)" opacity="0.24"></rect><rect width="591" height="1" x="129.5" y="135.5" rx="0.5" transform="rotate(181, 425, 136)" opacity="0.80"></rect><rect width="699" height="1" x="-17.5" y="400.5" rx="0.5" transform="rotate(181, 332, 401)" opacity="0.93"></rect><rect width="291" height="1" x="-46.5" y="710.5" rx="0.5" transform="rotate(181, 99, 711)" opacity="0.89"></rect><rect width="756" height="1" x="-288" y="449.5" rx="0.5" transform="rotate(181, 90, 450)" opacity="0.46"></rect><rect width="514" height="1" x="173" y="686.5" rx="0.5" transform="rotate(181, 430, 687)" opacity="0.88"></rect><rect width="641" height="1" x="-176.5" y="150.5" rx="0.5" transform="rotate(181, 144, 151)" opacity="0.96"></rect><rect width="802" height="1" x="277" y="677.5" rx="0.5" transform="rotate(181, 678, 678)" opacity="0.88"></rect></g></svg>
