<svg xmlns="http://www.w3.org/2000/svg" version="1.1" xmlns:xlink="http://www.w3.org/1999/xlink" xmlns:svgjs="http://svgjs.dev/svgjs" viewBox="0 0 800 800"><defs><linearGradient x1="50%" y1="0%" x2="50%" y2="100%" id="ffflurry-grad" gradientTransform="rotate(270)"><stop stop-color="rgba(255,255,255,0)" stop-opacity="1" offset="0%"></stop><stop stop-color="#dbeafe" stop-opacity="1" offset="45%"></stop><stop stop-color="#60a5fa" stop-opacity="1" offset="100%"></stop></linearGradient></defs><rect width="100%" height="100%" fill="rgba(255,255,255,0)"></rect><g fill="url(#ffflurry-grad)"><rect width="1019" height="2" x="55.5" y="114" rx="1" transform="rotate(360, 565, 115)" opacity="0.28"></rect><rect width="420" height="2" x="85" y="712" rx="1" transform="rotate(360, 295, 713)" opacity="0.65"></rect><rect width="488" height="2" x="-157" y="688" rx="1" transform="rotate(360, 87, 689)" opacity="0.87"></rect><rect width="553" height="2" x="-183.5" y="450" rx="1" transform="rotate(360, 93, 451)" opacity="0.60"></rect><rect width="460" height="2" x="331" y="697" rx="1" transform="rotate(360, 561, 698)" opacity="0.42"></rect><rect width="822" height="2" x="88" y="425" rx="1" transform="rotate(360, 499, 426)" opacity="0.64"></rect><rect width="678" height="2" x="-164" y="87" rx="1" transform="rotate(360, 175, 88)" opacity="0.46"></rect><rect width="303" height="2" x="573.5" y="596" rx="1" transform="rotate(360, 725, 597)" opacity="0.12"></rect><rect width="851" height="2" x="272.5" y="305" rx="1" transform="rotate(360, 698, 306)" opacity="0.63"></rect><rect width="960" height="2" x="-253" y="267" rx="1" transform="rotate(360, 227, 268)" opacity="0.38"></rect><rect width="803" height="2" x="-85.5" y="517" rx="1" transform="rotate(360, 316, 518)" opacity="0.99"></rect></g></svg>
