<svg xmlns="http://www.w3.org/2000/svg" version="1.1" xmlns:xlink="http://www.w3.org/1999/xlink" xmlns:svgjs="http://svgjs.dev/svgjs" viewBox="0 0 800 800"><defs><linearGradient x1="50%" y1="0%" x2="50%" y2="100%" id="ffflurry-grad" gradientTransform="rotate(270)"><stop stop-color="rgba(255,255,255,0)" stop-opacity="1" offset="0%"></stop><stop stop-color="#bfdbfe" stop-opacity="1" offset="45%"></stop><stop stop-color="#dbeafe" stop-opacity="1" offset="100%"></stop></linearGradient></defs><rect width="100%" height="100%" fill="rgba(255,255,255,0)"></rect><g fill="url(#ffflurry-grad)"><rect width="286" height="2" x="117" y="159" rx="1" transform="rotate(360, 260, 160)" opacity="0.47"></rect><rect width="584" height="2" x="77" y="417" rx="1" transform="rotate(360, 369, 418)" opacity="0.61"></rect><rect width="316" height="2" x="360" y="71" rx="1" transform="rotate(360, 518, 72)" opacity="0.94"></rect><rect width="549" height="2" x="-199.5" y="104" rx="1" transform="rotate(360, 75, 105)" opacity="0.64"></rect><rect width="253" height="2" x="230.5" y="59" rx="1" transform="rotate(360, 357, 60)" opacity="0.64"></rect><rect width="451" height="2" x="175.5" y="204" rx="1" transform="rotate(360, 401, 205)" opacity="0.33"></rect><rect width="252" height="2" x="105" y="278" rx="1" transform="rotate(360, 231, 279)" opacity="0.17"></rect><rect width="79" height="2" x="683.5" y="380" rx="1" transform="rotate(360, 723, 381)" opacity="0.16"></rect><rect width="122" height="2" x="464" y="237" rx="1" transform="rotate(360, 525, 238)" opacity="0.20"></rect><rect width="579" height="2" x="286.5" y="350" rx="1" transform="rotate(360, 576, 351)" opacity="0.95"></rect><rect width="662" height="2" x="372" y="126" rx="1" transform="rotate(360, 703, 127)" opacity="0.81"></rect><rect width="688" height="2" x="288" y="721" rx="1" transform="rotate(360, 632, 722)" opacity="0.19"></rect><rect width="686" height="2" x="-238" y="643" rx="1" transform="rotate(360, 105, 644)" opacity="0.98"></rect><rect width="474" height="2" x="290" y="528" rx="1" transform="rotate(360, 527, 529)" opacity="0.10"></rect><rect width="478" height="2" x="465" y="563" rx="1" transform="rotate(360, 704, 564)" opacity="0.99"></rect><rect width="722" height="2" x="-297" y="296" rx="1" transform="rotate(360, 64, 297)" opacity="0.84"></rect><rect width="304" height="2" x="596" y="758" rx="1" transform="rotate(360, 748, 759)" opacity="0.45"></rect><rect width="320" height="2" x="133" y="686" rx="1" transform="rotate(360, 293, 687)" opacity="0.43"></rect><rect width="223" height="2" x="364.5" y="697" rx="1" transform="rotate(360, 476, 698)" opacity="0.61"></rect><rect width="396" height="2" x="5" y="51" rx="1" transform="rotate(360, 203, 52)" opacity="0.41"></rect><rect width="167" height="2" x="67.5" y="443" rx="1" transform="rotate(360, 151, 444)" opacity="0.82"></rect><rect width="284" height="2" x="614" y="661" rx="1" transform="rotate(360, 756, 662)" opacity="0.87"></rect></g></svg>
