<svg xmlns="http://www.w3.org/2000/svg" version="1.1" xmlns:xlink="http://www.w3.org/1999/xlink" xmlns:svgjs="http://svgjs.dev/svgjs" viewBox="0 0 800 800"><defs><linearGradient x1="50%" y1="0%" x2="50%" y2="100%" id="ffflurry-grad" gradientTransform="rotate(270)"><stop stop-color="rgba(0,0,0,0)" stop-opacity="1" offset="0%"></stop><stop stop-color="#ffedd5" stop-opacity="1" offset="45%"></stop><stop stop-color="#cffafe" stop-opacity="1" offset="100%"></stop></linearGradient></defs><rect width="100%" height="100%" fill="rgba(0,0,0,0)"></rect><g fill="url(#ffflurry-grad)"><rect width="221" height="1" x="-32.5" y="182.5" rx="0.5" transform="rotate(360, 78, 183)" opacity="0.07"></rect><rect width="177" height="1" x="58.5" y="427.5" rx="0.5" transform="rotate(360, 147, 428)" opacity="1.00"></rect><rect width="255" height="1" x="513.5" y="135.5" rx="0.5" transform="rotate(360, 641, 136)" opacity="0.45"></rect><rect width="287" height="1" x="534.5" y="695.5" rx="0.5" transform="rotate(360, 678, 696)" opacity="0.76"></rect><rect width="212" height="1" x="276" y="727.5" rx="0.5" transform="rotate(360, 382, 728)" opacity="0.31"></rect><rect width="172" height="1" x="68" y="654.5" rx="0.5" transform="rotate(360, 154, 655)" opacity="0.68"></rect><rect width="147" height="1" x="395.5" y="559.5" rx="0.5" transform="rotate(360, 469, 560)" opacity="0.54"></rect><rect width="236" height="1" x="564" y="431.5" rx="0.5" transform="rotate(360, 682, 432)" opacity="0.96"></rect><rect width="124" height="1" x="253" y="186.5" rx="0.5" transform="rotate(360, 315, 187)" opacity="0.22"></rect><rect width="138" height="1" x="181" y="55.5" rx="0.5" transform="rotate(360, 250, 56)" opacity="0.85"></rect><rect width="130" height="1" x="365" y="323.5" rx="0.5" transform="rotate(360, 430, 324)" opacity="0.38"></rect></g></svg>
