<svg xmlns="http://www.w3.org/2000/svg" version="1.1" xmlns:xlink="http://www.w3.org/1999/xlink" xmlns:svgjs="http://svgjs.dev/svgjs" viewBox="0 0 800 800"><defs><linearGradient x1="50%" y1="0%" x2="50%" y2="100%" id="ffflurry-grad" gradientTransform="rotate(270)"><stop stop-color="rgba(255,255,255,0)" stop-opacity="1" offset="0%"></stop><stop stop-color="#dbeafe" stop-opacity="1" offset="45%"></stop><stop stop-color="#60a5fa" stop-opacity="1" offset="100%"></stop></linearGradient></defs><rect width="100%" height="100%" fill="rgba(255,255,255,0)"></rect><g fill="url(#ffflurry-grad)"><rect width="405" height="2" x="497.5" y="529" rx="1" transform="rotate(360, 700, 530)" opacity="0.65"></rect><rect width="294" height="2" x="112" y="499" rx="1" transform="rotate(360, 259, 500)" opacity="0.18"></rect><rect width="610" height="2" x="8" y="88" rx="1" transform="rotate(360, 313, 89)" opacity="0.70"></rect><rect width="733" height="2" x="285.5" y="112" rx="1" transform="rotate(360, 652, 113)" opacity="0.68"></rect><rect width="273" height="2" x="487.5" y="320" rx="1" transform="rotate(360, 624, 321)" opacity="0.83"></rect><rect width="980" height="2" x="-416" y="404" rx="1" transform="rotate(360, 74, 405)" opacity="0.27"></rect><rect width="969" height="2" x="-28.5" y="478" rx="1" transform="rotate(360, 456, 479)" opacity="0.63"></rect><rect width="389" height="2" x="13.5" y="223" rx="1" transform="rotate(360, 208, 224)" opacity="0.97"></rect><rect width="623" height="2" x="391.5" y="720" rx="1" transform="rotate(360, 703, 721)" opacity="0.46"></rect><rect width="736" height="2" x="-181" y="703" rx="1" transform="rotate(360, 187, 704)" opacity="0.31"></rect><rect width="780" height="2" x="111" y="691" rx="1" transform="rotate(360, 501, 692)" opacity="0.86"></rect></g></svg>
