<svg width="1024" height="1024" viewBox="0 0 1024 1024" fill="none" xmlns="http://www.w3.org/2000/svg">
<rect width="1024" height="1024" fill="black"/>
<path d="M512.805 148C705.641 148 861.964 310.745 861.964 511.5C861.964 712.256 705.64 875 512.805 875C319.97 875 163.646 712.255 163.646 511.5C163.646 310.744 319.97 148 512.805 148Z" fill="#1157DF"/>
<path d="M372.281 436.752C396.937 431.761 445.09 425.22 465.774 424.015C489.106 422.638 547.021 422.983 568.367 424.532C607.088 427.458 659.047 436.408 687.508 445.358C693.962 447.251 701.739 449.661 704.883 450.349C710.509 451.898 745.259 464.979 755.352 469.454C791.095 485.117 844.543 515.754 841.564 518.68C840.571 519.885 791.922 515.582 784.641 513.861C780.339 512.656 769.087 507.665 759.489 502.845C711.667 477.888 683.206 467.733 622.974 453.964C594.016 447.423 539.74 442.604 509.624 443.981C459.155 446.391 417.787 455.341 374.763 473.069C349.777 483.224 348.069 485.487 361.857 497.682C367.938 503.061 366.078 501.509 368.972 503.706C376.625 509.515 384.071 513.686 390.483 516.271C416.959 526.942 455.349 535.892 486.458 540.711C541.561 549.317 542.72 549.317 752.87 549.317C831.565 549.382 934.761 558.179 935.174 558.179C935.587 558.179 936 558.882 936 558.882C884.182 555.599 798.033 567.049 775.209 568.939C658.22 578.921 602.455 581.675 544.374 580.643C480.997 579.438 440.125 574.619 397.102 563.603C339.352 548.801 299.473 528.319 273.659 499.919C261.083 485.978 251.486 469.799 255.126 468.594C290.868 456.89 343.985 442.432 372.281 436.752Z" fill="white"/>
<path d="M172.061 492.691C153.263 494.536 135.088 501.846 118.153 512.828C92.5442 532.179 88 536.346 88 536.346C109.892 515.607 155.741 519.907 164.975 521.197C175.545 522.674 188.908 524.223 199.671 528.507C210.387 531.963 232.213 544.369 236.596 548.457C243.215 553.405 278.129 575.824 296.166 582.708C334.556 597.338 389.824 605.428 450.056 605.084C487.619 604.911 487.288 604.223 445.92 597.683C371.456 585.806 316.519 564.12 272.338 529.007C264.892 523.328 255.625 515.926 251.654 512.828C242.553 505.599 230.308 499.575 217.567 495.961C207.638 493.207 190.984 490.833 172.061 492.691Z" fill="white"/>
</svg>
