<svg width="512" height="512" viewBox="0 0 512 512" fill="none" xmlns="http://www.w3.org/2000/svg">
<g filter="url(#filter0_d_64_227)">
<path fill-rule="evenodd" clip-rule="evenodd" d="M462 178.314C462 173.423 462.002 168.531 461.972 163.64C461.947 159.519 461.9 155.4 461.788 151.281C461.546 142.305 461.016 133.251 459.42 124.375C457.801 115.37 455.157 106.99 450.991 98.8083C446.895 90.7669 441.544 83.4084 435.16 77.0289C428.778 70.6494 421.417 65.3024 413.373 61.209C405.183 57.0415 396.793 54.3985 387.779 52.78C378.902 51.186 369.846 50.6575 360.869 50.415C356.748 50.3035 352.626 50.2565 348.504 50.231C343.61 50.201 338.716 50.2035 333.822 50.2035L276.998 50H234.499L178.681 50.2035C173.777 50.2035 168.874 50.201 163.97 50.231C159.839 50.2565 155.71 50.3035 151.581 50.415C142.583 50.6575 133.507 51.1865 124.608 52.7825C115.582 54.4005 107.18 57.0425 98.9791 61.207C90.9177 65.3009 83.5413 70.6484 77.1453 77.0289C70.7503 83.4079 65.3899 90.7649 61.2864 98.8048C57.1084 106.99 54.4595 115.376 52.8365 124.385C51.2385 133.258 50.709 142.309 50.4655 151.281C50.3545 155.4 50.3065 159.52 50.2815 163.64C50.2515 168.532 50 174.608 50 179.5L50.0015 234.544L50 277.499L50.254 333.713C50.254 338.611 50.252 343.509 50.2815 348.407C50.3065 352.533 50.3545 356.658 50.466 360.783C50.709 369.771 51.2395 378.837 52.839 387.726C54.4615 396.742 57.1099 405.135 61.2844 413.327C65.3884 421.38 70.7498 428.748 77.1453 435.136C83.5408 441.525 90.9152 446.879 98.9751 450.978C107.181 455.151 115.587 457.798 124.619 459.418C133.513 461.014 142.587 461.544 151.581 461.786C155.71 461.898 159.84 461.945 163.971 461.97C168.874 462 173.777 461.999 178.681 461.999L235.003 462H277.608L333.822 461.998C338.716 461.998 343.61 462 348.504 461.97C352.626 461.945 356.748 461.898 360.869 461.786C369.849 461.543 378.908 461.014 387.789 459.416C396.798 457.796 405.184 455.15 413.369 450.98C421.415 446.881 428.777 441.526 435.16 435.136C441.543 428.749 446.893 421.382 450.989 413.33C455.158 405.134 457.802 396.738 459.422 387.715C461.017 378.83 461.546 369.767 461.788 360.783C461.9 356.658 461.947 352.533 461.972 348.407C462.002 343.509 462 338.611 462 333.713C462 333.713 461.997 278.492 461.997 277.499V234.499C461.997 233.766 462 178.314 462 178.314" fill="#172554"/>
</g>
<mask id="mask0_64_227" style="mask-type:luminance" maskUnits="userSpaceOnUse" x="50" y="50" width="412" height="412">
<path fill-rule="evenodd" clip-rule="evenodd" d="M462 178.314C462 173.423 462.002 168.531 461.972 163.64C461.947 159.519 461.9 155.4 461.788 151.281C461.546 142.305 461.016 133.251 459.42 124.375C457.801 115.37 455.157 106.99 450.991 98.8083C446.895 90.7669 441.544 83.4084 435.16 77.0289C428.778 70.6494 421.417 65.3024 413.373 61.209C405.183 57.0415 396.793 54.3985 387.779 52.78C378.902 51.186 369.846 50.6575 360.869 50.415C356.748 50.3035 352.626 50.2565 348.504 50.231C343.61 50.201 338.716 50.2035 333.822 50.2035L276.998 50H234.499L178.681 50.2035C173.777 50.2035 168.874 50.201 163.97 50.231C159.839 50.2565 155.71 50.3035 151.581 50.415C142.583 50.6575 133.507 51.1865 124.608 52.7825C115.582 54.4005 107.18 57.0425 98.9791 61.207C90.9177 65.3009 83.5413 70.6484 77.1453 77.0289C70.7503 83.4079 65.3899 90.7649 61.2864 98.8048C57.1084 106.99 54.4595 115.376 52.8365 124.385C51.2385 133.258 50.709 142.309 50.4655 151.281C50.3545 155.4 50.3065 159.52 50.2815 163.64C50.2515 168.532 50 174.608 50 179.5L50.0015 234.544L50 277.499L50.254 333.713C50.254 338.611 50.252 343.509 50.2815 348.407C50.3065 352.533 50.3545 356.658 50.466 360.783C50.709 369.771 51.2395 378.837 52.839 387.726C54.4615 396.742 57.1099 405.135 61.2844 413.327C65.3884 421.38 70.7498 428.748 77.1453 435.136C83.5408 441.525 90.9152 446.879 98.9751 450.978C107.181 455.151 115.587 457.798 124.619 459.418C133.513 461.014 142.587 461.544 151.581 461.786C155.71 461.898 159.84 461.945 163.971 461.97C168.874 462 173.777 461.999 178.681 461.999L235.003 462H277.608L333.822 461.998C338.716 461.998 343.61 462 348.504 461.97C352.626 461.945 356.748 461.898 360.869 461.786C369.849 461.543 378.908 461.014 387.789 459.416C396.798 457.796 405.184 455.15 413.369 450.98C421.415 446.881 428.777 441.526 435.16 435.136C441.543 428.749 446.893 421.382 450.989 413.33C455.158 405.134 457.802 396.738 459.422 387.715C461.017 378.83 461.546 369.767 461.788 360.783C461.9 356.658 461.947 352.533 461.972 348.407C462.002 343.509 462 338.611 462 333.713C462 333.713 461.997 278.492 461.997 277.499V234.499C461.997 233.766 462 178.314 462 178.314" fill="white"/>
</mask>
<g mask="url(#mask0_64_227)">
</g>
<g filter="url(#filter1_d_64_227)">
<path d="M211.133 225.295C203.783 225.708 186.671 227.948 177.909 229.657C167.854 231.602 148.979 236.553 136.277 240.561C134.983 240.973 138.394 246.513 142.863 251.288C152.036 261.012 166.208 268.026 186.73 273.095C202.018 276.867 216.543 278.517 239.064 278.93C259.704 279.284 279.52 278.341 321.094 274.922C338.583 273.484 371.628 273.064 388.974 273.772C406.792 274.479 413.487 275.3 425.983 277.339C435.465 278.886 452.885 282.422 453.988 282.864C455.972 283.306 454.693 282.599 453.105 281.759C452.127 281.242 450.165 280.403 448.401 279.755C438.346 275.924 427.115 273.213 413.002 271.209C390.187 268.94 382.537 267.536 313.155 268.203C238.476 268.203 238.064 268.203 218.483 265.256C207.428 263.606 193.786 260.541 184.378 256.887C182.099 256.002 179.453 254.573 176.733 252.584C175.705 251.832 176.366 252.363 174.205 250.521C169.305 246.345 169.912 245.57 178.791 242.093C194.08 236.022 208.781 232.957 226.716 232.132C237.418 231.661 256.705 233.311 266.995 235.551C288.399 240.266 298.514 243.743 315.507 252.289C318.918 253.94 322.917 255.649 324.445 256.062C327.033 256.651 344.321 258.124 344.674 257.712C345.732 256.71 326.739 246.219 314.037 240.855C310.45 239.323 298.102 234.844 296.103 234.313C294.985 234.077 292.222 233.252 289.928 232.604C279.814 229.539 261.35 226.474 247.59 225.472C240.005 224.942 219.424 224.824 211.133 225.295Z" fill="white"/>
</g>
<g filter="url(#filter2_d_64_227)">
<path d="M105.405 248.543C96.6617 250.143 91.747 251.739 86.2314 254.287C82.9454 255.768 73.7918 260.923 73.205 261.575C73.0289 261.753 71.738 262.642 70.2711 263.59C64.3447 267.442 56.7166 274.019 58.1836 274.019C58.3009 274.019 61.5282 272.419 65.2835 270.464C79.7182 262.997 91.6884 259.62 104.011 259.56C110.23 259.56 112.519 259.797 116.45 260.923C120.499 262.049 127.981 266.094 129.535 267.501C131.882 269.204 144.263 276.923 150.659 279.293C164.272 284.33 183.871 287.115 205.229 286.996C218.549 286.937 218.432 286.7 203.762 284.448C177.357 280.36 157.876 272.893 142.21 260.805C139.569 258.849 136.283 256.301 134.875 255.235C131.648 252.746 127.306 250.672 122.787 249.428C119.267 248.479 112.272 247.286 105.405 248.543Z" fill="white"/>
</g>
<defs>
<filter id="filter0_d_64_227" x="45" y="50" width="422" height="422" filterUnits="userSpaceOnUse" color-interpolation-filters="sRGB">
<feFlood flood-opacity="0" result="BackgroundImageFix"/>
<feColorMatrix in="SourceAlpha" type="matrix" values="0 0 0 0 0 0 0 0 0 0 0 0 0 0 0 0 0 0 127 0" result="hardAlpha"/>
<feOffset dy="5"/>
<feGaussianBlur stdDeviation="2.5"/>
<feColorMatrix type="matrix" values="0 0 0 0 0 0 0 0 0 0 0 0 0 0 0 0 0 0 0.3 0"/>
<feBlend mode="normal" in2="BackgroundImageFix" result="effect1_dropShadow_64_227"/>
<feBlend mode="normal" in="SourceGraphic" in2="effect1_dropShadow_64_227" result="shape"/>
</filter>
<filter id="filter1_d_64_227" x="132" y="225" width="327" height="66" filterUnits="userSpaceOnUse" color-interpolation-filters="sRGB">
<feFlood flood-opacity="0" result="BackgroundImageFix"/>
<feColorMatrix in="SourceAlpha" type="matrix" values="0 0 0 0 0 0 0 0 0 0 0 0 0 0 0 0 0 0 127 0" result="hardAlpha"/>
<feOffset dy="4"/>
<feGaussianBlur stdDeviation="2"/>
<feComposite in2="hardAlpha" operator="out"/>
<feColorMatrix type="matrix" values="0 0 0 0 0 0 0 0 0 0 0 0 0 0 0 0 0 0 0.25 0"/>
<feBlend mode="normal" in2="BackgroundImageFix" result="effect1_dropShadow_64_227"/>
<feBlend mode="normal" in="SourceGraphic" in2="effect1_dropShadow_64_227" result="shape"/>
</filter>
<filter id="filter2_d_64_227" x="54" y="248" width="165" height="47" filterUnits="userSpaceOnUse" color-interpolation-filters="sRGB">
<feFlood flood-opacity="0" result="BackgroundImageFix"/>
<feColorMatrix in="SourceAlpha" type="matrix" values="0 0 0 0 0 0 0 0 0 0 0 0 0 0 0 0 0 0 127 0" result="hardAlpha"/>
<feOffset dy="4"/>
<feGaussianBlur stdDeviation="2"/>
<feComposite in2="hardAlpha" operator="out"/>
<feColorMatrix type="matrix" values="0 0 0 0 0 0 0 0 0 0 0 0 0 0 0 0 0 0 0.25 0"/>
<feBlend mode="normal" in2="BackgroundImageFix" result="effect1_dropShadow_64_227"/>
<feBlend mode="normal" in="SourceGraphic" in2="effect1_dropShadow_64_227" result="shape"/>
</filter>
</defs>
</svg>
