<svg width="1024" height="1024" viewBox="0 0 1024 1024" fill="none" xmlns="http://www.w3.org/2000/svg">
<path fill-rule="evenodd" clip-rule="evenodd" d="M924 356.627C924 346.845 924.004 337.062 923.944 327.279C923.895 319.038 923.8 310.799 923.576 302.562C923.092 284.609 922.033 266.502 918.84 248.749C915.602 230.741 910.314 213.98 901.981 197.617C893.789 181.534 883.088 166.817 870.32 154.058C857.555 141.299 842.834 130.605 826.746 122.418C810.366 114.083 793.587 108.797 775.558 105.56C757.803 102.372 739.691 101.315 721.738 100.83C713.495 100.607 705.253 100.513 697.008 100.462C687.22 100.402 677.432 100.407 667.644 100.407L553.997 100H468.997L357.361 100.407C347.554 100.407 337.747 100.402 327.94 100.462C319.678 100.513 311.42 100.607 303.161 100.83C285.167 101.315 267.014 102.373 249.217 105.565C231.164 108.801 214.36 114.085 197.958 122.414C181.835 130.602 167.083 141.297 154.291 154.058C141.501 166.816 130.78 181.53 122.573 197.61C114.217 213.981 108.919 230.752 105.673 248.77C102.477 266.516 101.418 284.617 100.931 302.562C100.709 310.8 100.613 319.039 100.563 327.279C100.503 337.063 100 349.216 100 358.999L100.003 469.089L100 554.998L100.508 667.427C100.508 677.223 100.504 687.019 100.563 696.815C100.613 705.067 100.709 713.317 100.932 721.566C101.418 739.542 102.479 757.675 105.678 775.452C108.923 793.484 114.22 810.269 122.569 826.653C130.777 842.759 141.5 857.495 154.291 870.272C167.082 883.049 181.83 893.757 197.95 901.956C214.362 910.302 231.174 915.595 249.238 918.836C267.027 922.029 285.174 923.088 303.161 923.573C311.42 923.796 319.679 923.891 327.941 923.941C337.748 924.001 347.554 923.997 357.361 923.997L470.006 924H555.217L667.644 923.996C677.432 923.996 687.22 924.001 697.008 923.941C705.253 923.891 713.495 923.796 721.738 923.573C739.698 923.087 757.816 922.027 775.579 918.832C793.597 915.591 810.368 910.3 826.739 901.959C842.831 893.761 857.554 883.051 870.32 870.272C883.086 857.497 893.786 842.763 901.978 826.66C910.316 810.268 915.604 793.475 918.844 775.431C922.034 757.661 923.092 739.535 923.577 721.566C923.8 713.316 923.895 705.066 923.944 696.815C924.005 687.019 924 677.223 924 667.427C924 667.427 923.994 556.983 923.994 554.998V468.999C923.994 467.533 924 356.627 924 356.627" fill="#1450C4"/>
<rect x="100" y="100" width="824" height="824" fill="url(#paint0_angular_65_212)"/>
<rect x="100" y="100" width="824" height="824" fill="#1450C4" style="mix-blend-mode:darken"/>
<g filter="url(#filter0_d_65_212)">
<g filter="url(#filter1_d_65_212)">
<path d="M422.266 450.591C407.565 451.416 373.342 455.895 355.819 459.314C335.708 463.204 297.957 473.105 272.554 481.121C269.967 481.946 276.788 493.027 285.726 502.575C304.072 522.025 332.415 536.052 373.46 546.19C404.037 553.734 433.085 557.035 478.128 557.86C519.408 558.567 559.041 556.681 642.187 549.844C677.165 546.968 743.255 546.129 777.949 547.543C813.583 548.958 826.974 550.599 851.966 554.677C870.929 557.771 905.77 564.844 907.975 565.728C911.944 566.612 909.386 565.198 906.211 563.518C904.255 562.483 900.331 560.807 896.803 559.51C876.692 551.848 854.23 546.426 826.004 542.418C780.374 537.88 765.073 535.072 626.311 536.406C476.952 536.406 476.129 536.406 436.966 530.512C414.857 527.212 387.572 521.082 368.755 513.773C364.198 512.003 358.906 509.147 353.467 505.168C351.41 503.664 352.732 504.726 348.41 501.043C338.61 492.691 339.824 491.141 357.583 484.186C388.16 472.045 417.562 465.915 453.431 464.265C474.835 463.322 513.41 466.622 533.991 471.102C576.799 480.532 597.027 487.487 631.015 504.579C637.836 507.88 645.833 511.298 648.891 512.123C654.066 513.302 688.641 516.249 689.347 515.424C691.464 513.42 653.478 492.437 628.075 481.711C620.901 478.646 596.204 469.687 592.205 468.626C589.971 468.155 584.443 466.504 579.857 465.208C559.629 459.078 522.701 452.948 495.181 450.944C480.01 449.883 438.848 449.648 422.266 450.591Z" fill="white"/>
</g>
<g filter="url(#filter2_d_65_212)">
<path d="M210.809 497.085C193.323 500.285 183.494 503.477 172.463 508.573C165.891 511.536 147.584 521.847 146.41 523.15C146.058 523.506 143.476 525.284 140.542 527.18C128.689 534.883 113.433 548.038 116.367 548.038C116.602 548.038 123.056 544.838 130.567 540.927C159.436 525.995 183.377 519.239 208.021 519.121C220.461 519.121 225.038 519.595 232.9 521.847C240.998 524.098 255.962 532.187 259.071 535.002C263.765 538.409 288.527 553.845 301.318 558.586C328.545 568.66 367.741 574.23 410.458 573.993C437.098 573.874 436.863 573.4 407.524 568.897C354.715 560.719 315.753 545.786 284.419 521.61C279.138 517.699 272.566 512.603 269.75 510.469C263.295 505.492 254.611 501.344 245.575 498.855C238.533 496.959 224.543 494.572 210.809 497.085Z" fill="white"/>
</g>
</g>
<defs>
<filter id="filter0_d_65_212" x="116" y="450" width="800.5" height="130.5" filterUnits="userSpaceOnUse" color-interpolation-filters="sRGB">
<feFlood flood-opacity="0" result="BackgroundImageFix"/>
<feColorMatrix in="SourceAlpha" type="matrix" values="0 0 0 0 0 0 0 0 0 0 0 0 0 0 0 0 0 0 127 0" result="hardAlpha"/>
<feOffset dx="4" dy="4"/>
<feGaussianBlur stdDeviation="1.25"/>
<feComposite in2="hardAlpha" operator="out"/>
<feColorMatrix type="matrix" values="0 0 0 0 0.0509523 0 0 0 0 0.0861349 0 0 0 0 0.204248 0 0 0 0.2 0"/>
<feBlend mode="normal" in2="BackgroundImageFix" result="effect1_dropShadow_65_212"/>
<feBlend mode="normal" in="SourceGraphic" in2="effect1_dropShadow_65_212" result="shape"/>
</filter>
<filter id="filter1_d_65_212" x="268" y="450" width="646" height="124" filterUnits="userSpaceOnUse" color-interpolation-filters="sRGB">
<feFlood flood-opacity="0" result="BackgroundImageFix"/>
<feColorMatrix in="SourceAlpha" type="matrix" values="0 0 0 0 0 0 0 0 0 0 0 0 0 0 0 0 0 0 127 0" result="hardAlpha"/>
<feOffset dy="4"/>
<feGaussianBlur stdDeviation="2"/>
<feComposite in2="hardAlpha" operator="out"/>
<feColorMatrix type="matrix" values="0 0 0 0 0 0 0 0 0 0 0 0 0 0 0 0 0 0 0.25 0"/>
<feBlend mode="normal" in2="BackgroundImageFix" result="effect1_dropShadow_65_212"/>
<feBlend mode="normal" in="SourceGraphic" in2="effect1_dropShadow_65_212" result="shape"/>
</filter>
<filter id="filter2_d_65_212" x="112" y="496" width="322" height="86" filterUnits="userSpaceOnUse" color-interpolation-filters="sRGB">
<feFlood flood-opacity="0" result="BackgroundImageFix"/>
<feColorMatrix in="SourceAlpha" type="matrix" values="0 0 0 0 0 0 0 0 0 0 0 0 0 0 0 0 0 0 127 0" result="hardAlpha"/>
<feOffset dy="4"/>
<feGaussianBlur stdDeviation="2"/>
<feComposite in2="hardAlpha" operator="out"/>
<feColorMatrix type="matrix" values="0 0 0 0 0 0 0 0 0 0 0 0 0 0 0 0 0 0 0.25 0"/>
<feBlend mode="normal" in2="BackgroundImageFix" result="effect1_dropShadow_65_212"/>
<feBlend mode="normal" in="SourceGraphic" in2="effect1_dropShadow_65_212" result="shape"/>
</filter>
<radialGradient id="paint0_angular_65_212" cx="0" cy="0" r="1" gradientUnits="userSpaceOnUse" gradientTransform="translate(512 512) rotate(77.06) scale(392.98)">
<stop offset="0.26" stop-color="#1450C4" stop-opacity="0.15"/>
<stop offset="0.879961" stop-color="#1450C4"/>
</radialGradient>
</defs>
</svg>
