<svg width="144" height="144" viewBox="0 0 144 144" fill="none" xmlns="http://www.w3.org/2000/svg">
<path fill-rule="evenodd" clip-rule="evenodd" d="M129.937 50.1507C129.937 48.7751 129.938 47.3994 129.93 46.0236C129.923 44.8647 129.909 43.7061 129.878 42.5478C129.81 40.0232 129.661 37.4769 129.212 34.9804C128.757 32.4479 128.013 30.0909 126.841 27.7898C125.689 25.5282 124.184 23.4586 122.389 21.6644C120.594 19.8702 118.524 18.3663 116.261 17.215C113.958 16.0429 111.598 15.2996 109.063 14.8444C106.566 14.3961 104.019 14.2474 101.494 14.1792C100.335 14.1479 99.1761 14.1346 98.0167 14.1275C96.6403 14.119 95.2638 14.1197 93.8874 14.1197L77.9058 14.0625H65.9527L50.2539 14.1197C48.8748 14.1197 47.4957 14.119 46.1166 14.1275C44.9548 14.1346 43.7935 14.1479 42.6321 14.1792C40.1016 14.2474 37.5488 14.3962 35.0461 14.8451C32.5074 15.3001 30.1444 16.0432 27.8379 17.2145C25.5706 18.3659 23.496 19.8699 21.6971 21.6644C19.8985 23.4585 18.3909 25.5276 17.2368 27.7889C16.0618 30.091 15.3167 32.4494 14.8603 34.9833C14.4108 37.4789 14.2619 40.0243 14.1934 42.5478C14.1622 43.7063 14.1487 44.8649 14.1417 46.0236C14.1332 47.3995 14.0625 49.1085 14.0625 50.4842L14.0629 65.9656L14.0625 78.0466L14.1339 93.8569C14.1339 95.2345 14.1334 96.612 14.1417 97.9896C14.1487 99.15 14.1622 100.31 14.1936 101.47C14.2619 103.998 14.4111 106.548 14.861 109.048C15.3173 111.584 16.0622 113.944 17.2362 116.248C18.3905 118.513 19.8984 120.585 21.6971 122.382C23.4958 124.179 25.5699 125.685 27.8368 126.838C30.1447 128.011 32.5088 128.756 35.0491 129.211C37.5506 129.66 40.1025 129.809 42.6321 129.877C43.7935 129.909 44.9549 129.922 46.1167 129.929C47.4958 129.938 48.8748 129.937 50.2539 129.937L66.0946 129.938H78.0773L93.8874 129.937C95.2638 129.937 96.6403 129.938 98.0167 129.929C99.1761 129.922 100.335 129.909 101.494 129.877C104.02 129.809 106.568 129.66 109.066 129.211C111.6 128.755 113.958 128.011 116.26 126.838C118.523 125.685 120.594 124.179 122.389 122.382C124.184 120.586 125.689 118.514 126.841 116.249C128.013 113.944 128.757 111.582 129.212 109.045C129.661 106.546 129.81 103.997 129.878 101.47C129.909 100.31 129.923 99.1499 129.93 97.9896C129.938 96.612 129.937 95.2345 129.937 93.8569C129.937 93.8569 129.937 78.3258 129.937 78.0466V65.9529C129.937 65.7468 129.937 50.1507 129.937 50.1507" fill="#1450C4"/>
<rect x="14.0625" y="14.0625" width="115.875" height="115.875" fill="url(#paint0_angular_65_199)"/>
<rect x="14.0625" y="14.0625" width="115.875" height="115.875" fill="#1450C4" style="mix-blend-mode:darken"/>
<g filter="url(#filter0_d_65_199)">
<g filter="url(#filter1_d_65_199)">
<path d="M59.3811 63.3643C57.3138 63.4804 52.5012 64.1103 50.037 64.591C47.209 65.138 41.9002 66.5305 38.3279 67.6577C37.9641 67.7737 38.9233 69.3319 40.1802 70.6746C42.7602 73.4098 46.7459 75.3824 52.5177 76.808C56.8177 77.8689 60.9026 78.333 67.2368 78.449C73.0417 78.5485 78.6151 78.2833 90.3076 77.3218C95.2264 76.9174 104.52 76.7994 109.399 76.9983C114.41 77.1972 116.293 77.428 119.808 78.0015C122.474 78.4366 127.374 79.4312 127.684 79.5555C128.242 79.6799 127.882 79.481 127.436 79.2447C127.161 79.0992 126.609 78.8635 126.113 78.6811C123.285 77.6036 120.126 76.8411 116.157 76.2775C109.74 75.6393 107.588 75.2445 88.0749 75.4321C67.0714 75.4321 66.9556 75.4321 61.4484 74.6033C58.3392 74.1391 54.5023 73.2771 51.8562 72.2494C51.2154 72.0005 50.4711 71.5988 49.7063 71.0393C49.417 70.8277 49.6029 70.9771 48.9951 70.4591C47.6171 69.2846 47.7878 69.0667 50.2851 68.0887C54.585 66.3813 58.7196 65.5193 63.7637 65.2872C66.7737 65.1546 72.1982 65.6187 75.0924 66.2487C81.1124 67.5748 83.9569 68.5528 88.7365 70.9564C89.6957 71.4206 90.8203 71.9013 91.2503 72.0173C91.978 72.1831 96.8402 72.5975 96.9394 72.4815C97.2371 72.1997 91.8953 69.249 88.323 67.7406C87.3142 67.3096 83.8412 66.0497 83.2789 65.9005C82.9646 65.8342 82.1873 65.6022 81.5423 65.4198C78.6978 64.5578 73.5048 63.6959 69.6348 63.4141C67.5014 63.2649 61.713 63.2317 59.3811 63.3643Z" fill="white"/>
</g>
<g filter="url(#filter2_d_65_199)">
<path d="M29.6451 69.9026C27.1861 70.3526 25.8039 70.8015 24.2526 71.5181C23.3284 71.9348 20.7539 73.3847 20.5889 73.568C20.5394 73.618 20.1763 73.868 19.7638 74.1347C18.0969 75.218 15.9516 77.0679 16.3641 77.0679C16.3971 77.0679 17.3048 76.6179 18.361 76.0679C22.4207 73.968 25.7874 73.018 29.253 73.0014C31.0023 73.0014 31.6459 73.068 32.7516 73.3847C33.8903 73.7013 35.9946 74.8388 36.4318 75.2346C37.0919 75.7138 40.5741 77.8845 42.3729 78.5511C46.2016 79.9678 51.7136 80.7511 57.7207 80.7177C61.4669 80.7011 61.4339 80.6344 57.3081 80.0011C49.8818 78.8511 44.4028 76.7512 39.9965 73.3514C39.2538 72.8014 38.3296 72.0847 37.9336 71.7848C37.0259 71.0848 35.8047 70.5015 34.534 70.1515C33.5438 69.8848 31.5764 69.5492 29.6451 69.9026Z" fill="white"/>
</g>
</g>
<defs>
<filter id="filter0_d_65_199" x="16.3125" y="63.2812" width="118.156" height="23.9375" filterUnits="userSpaceOnUse" color-interpolation-filters="sRGB">
<feFlood flood-opacity="0" result="BackgroundImageFix"/>
<feColorMatrix in="SourceAlpha" type="matrix" values="0 0 0 0 0 0 0 0 0 0 0 0 0 0 0 0 0 0 127 0" result="hardAlpha"/>
<feOffset dx="4" dy="4"/>
<feGaussianBlur stdDeviation="1.25"/>
<feComposite in2="hardAlpha" operator="out"/>
<feColorMatrix type="matrix" values="0 0 0 0 0.0509523 0 0 0 0 0.0861349 0 0 0 0 0.204248 0 0 0 0.2 0"/>
<feBlend mode="normal" in2="BackgroundImageFix" result="effect1_dropShadow_65_199"/>
<feBlend mode="normal" in="SourceGraphic" in2="effect1_dropShadow_65_199" result="shape"/>
</filter>
<filter id="filter1_d_65_199" x="34.25" y="63.2812" width="97.7188" height="24.3125" filterUnits="userSpaceOnUse" color-interpolation-filters="sRGB">
<feFlood flood-opacity="0" result="BackgroundImageFix"/>
<feColorMatrix in="SourceAlpha" type="matrix" values="0 0 0 0 0 0 0 0 0 0 0 0 0 0 0 0 0 0 127 0" result="hardAlpha"/>
<feOffset dy="4"/>
<feGaussianBlur stdDeviation="2"/>
<feComposite in2="hardAlpha" operator="out"/>
<feColorMatrix type="matrix" values="0 0 0 0 0 0 0 0 0 0 0 0 0 0 0 0 0 0 0.25 0"/>
<feBlend mode="normal" in2="BackgroundImageFix" result="effect1_dropShadow_65_199"/>
<feBlend mode="normal" in="SourceGraphic" in2="effect1_dropShadow_65_199" result="shape"/>
</filter>
<filter id="filter2_d_65_199" x="12.3125" y="69.75" width="52.1562" height="18.9688" filterUnits="userSpaceOnUse" color-interpolation-filters="sRGB">
<feFlood flood-opacity="0" result="BackgroundImageFix"/>
<feColorMatrix in="SourceAlpha" type="matrix" values="0 0 0 0 0 0 0 0 0 0 0 0 0 0 0 0 0 0 127 0" result="hardAlpha"/>
<feOffset dy="4"/>
<feGaussianBlur stdDeviation="2"/>
<feComposite in2="hardAlpha" operator="out"/>
<feColorMatrix type="matrix" values="0 0 0 0 0 0 0 0 0 0 0 0 0 0 0 0 0 0 0.25 0"/>
<feBlend mode="normal" in2="BackgroundImageFix" result="effect1_dropShadow_65_199"/>
<feBlend mode="normal" in="SourceGraphic" in2="effect1_dropShadow_65_199" result="shape"/>
</filter>
<radialGradient id="paint0_angular_65_199" cx="0" cy="0" r="1" gradientUnits="userSpaceOnUse" gradientTransform="translate(72 72) rotate(77.06) scale(55.2628)">
<stop offset="0.26" stop-color="#1450C4" stop-opacity="0.15"/>
<stop offset="0.879961" stop-color="#1450C4"/>
</radialGradient>
</defs>
</svg>
