<svg width="144" height="144" viewBox="0 0 144 144" fill="none" xmlns="http://www.w3.org/2000/svg">
<path d="M72.6339 11C104.697 11 130.69 38.0868 130.69 71.5C130.69 104.913 104.697 132 72.6339 132C40.5705 132 14.578 104.913 14.578 71.5C14.578 38.0868 40.5705 11 72.6339 11Z" fill="#1157DF"/>
<path d="M49.2685 59.0591C53.368 58.2284 61.3746 57.1398 64.8138 56.9393C68.6933 56.7101 78.3231 56.7674 81.8724 57.0252C88.3106 57.5122 96.95 59.0018 101.682 60.4915C102.755 60.8066 104.049 61.2076 104.571 61.3222C105.507 61.5801 111.285 63.7572 112.963 64.502C118.906 67.1089 127.793 72.2081 127.298 72.6951C127.133 72.8956 119.044 72.1794 117.833 71.8929C117.118 71.6924 115.247 70.8617 113.651 70.0595C105.699 65.9057 100.967 64.2156 90.952 61.9238C86.137 60.8352 77.1125 60.0331 72.105 60.2623C63.7133 60.6634 56.8348 62.153 49.6812 65.1036C45.5266 66.7938 45.2426 67.1704 47.5351 69.2001C48.5462 70.0954 48.237 69.8371 48.7182 70.2028C49.9907 71.1696 51.2288 71.8638 52.295 72.294C56.6972 74.0701 63.0804 75.5597 68.253 76.3619C77.4151 77.7942 77.6079 77.7942 112.55 77.7942C125.635 77.8049 142.794 79.2691 142.863 79.2691C142.931 79.2691 143 79.3861 143 79.3861C134.384 78.8397 120.06 80.7454 116.265 81.0599C96.8124 82.7215 87.5403 83.1798 77.8829 83.0079C67.3451 82.8074 60.5492 82.0053 53.3956 80.1719C43.7932 77.7083 37.1624 74.2993 32.8702 69.5725C30.7792 67.2521 29.1834 64.5593 29.7887 64.3588C35.7317 62.4108 44.5636 60.0045 49.2685 59.0591Z" fill="white"/>
<path d="M15.9772 68.3694C12.8514 68.6765 9.82952 69.8932 7.01369 71.7211C2.75558 74.9418 2 75.6354 2 75.6354C5.64004 72.1835 13.2635 72.8992 14.7989 73.114C16.5564 73.3597 18.7783 73.6176 20.568 74.3307C22.3497 74.9059 25.9787 76.9706 26.7076 77.651C27.8082 78.4746 33.6135 82.2058 36.6125 83.3517C42.9957 85.7867 52.1854 87.1331 62.2004 87.0758C68.4461 87.0472 68.391 86.9326 61.5126 85.844C49.1313 83.8674 39.9967 80.2579 32.6505 74.4139C31.4124 73.4685 29.8717 72.2367 29.2113 71.7211C27.6981 70.5179 25.6621 69.5153 23.5435 68.9137C21.8927 68.4553 19.1236 68.0602 15.9772 68.3694Z" fill="white"/>
</svg>
