<svg width="512" height="512" viewBox="0 0 512 512" fill="none" xmlns="http://www.w3.org/2000/svg">
<rect width="512" height="512" fill="black"/>
<path d="M256.414 69C355.56 69 435.934 152.723 435.934 256C435.934 359.277 355.56 443 256.414 443C157.268 443 76.8936 359.277 76.8936 256C76.8936 152.723 157.268 69 256.414 69Z" fill="#1157DF"/>
<path d="M184.164 217.546C196.84 214.979 221.598 211.614 232.233 210.994C244.229 210.286 274.006 210.463 284.981 211.26C304.89 212.765 331.604 217.369 346.238 221.974C349.556 222.948 353.554 224.187 355.171 224.541C358.064 225.338 375.93 232.068 381.12 234.37C399.497 242.428 426.977 258.189 425.446 259.694C424.935 260.314 399.922 258.1 396.179 257.215C393.967 256.595 388.181 254.027 383.247 251.548C358.659 238.709 344.026 233.484 313.057 226.401C298.168 223.036 270.263 220.557 254.779 221.265C228.83 222.505 207.56 227.109 185.44 236.229C172.593 241.454 171.715 242.618 178.804 248.891C181.93 251.658 180.974 250.86 182.462 251.99C186.397 254.979 190.225 257.125 193.522 258.454C207.135 263.944 226.873 268.548 242.868 271.028C271.199 275.455 271.795 275.455 379.844 275.455C420.305 275.488 473.363 280.014 473.575 280.014C473.788 280.014 474 280.375 474 280.375C447.358 278.686 403.064 284.577 391.329 285.549C331.179 290.684 302.507 292.101 272.645 291.57C240.06 290.95 219.046 288.471 196.925 282.804C167.233 275.189 146.729 264.652 133.457 250.042C126.991 242.87 122.056 234.547 123.928 233.927C142.305 227.906 169.615 220.468 184.164 217.546Z" fill="white"/>
<path d="M81.2203 246.324C71.5548 247.273 62.2104 251.034 53.5033 256.683C40.3364 266.638 38 268.782 38 268.782C49.2557 258.113 72.8291 260.325 77.5767 260.989C83.0114 261.748 89.8819 262.545 95.416 264.749C100.925 266.527 112.147 272.909 114.401 275.012C117.804 277.558 135.755 289.091 145.029 292.633C164.767 300.159 193.183 304.32 224.152 304.143C243.464 304.055 243.294 303.701 222.025 300.336C183.739 294.226 155.493 283.07 132.778 265.007C128.949 262.085 124.185 258.277 122.143 256.683C117.464 252.964 111.168 249.865 104.617 248.006C99.5121 246.589 90.9494 245.368 81.2203 246.324Z" fill="white"/>
</svg>
