<svg width="1024" height="1024" viewBox="0 0 1024 1024" fill="none" xmlns="http://www.w3.org/2000/svg">
<path d="M437.678 461.491C425.454 462.177 396.995 465.902 382.424 468.745C365.701 471.98 334.308 480.214 313.184 486.879C311.033 487.565 316.705 496.779 324.137 504.719C339.394 520.893 362.962 532.558 397.093 540.988C422.52 547.261 446.675 550.006 484.131 550.692C518.458 551.28 548.5 548.5 620.556 544.026C649.685 542.218 704.6 540.937 733.45 542.113C763.082 543.289 774.217 544.654 794.999 548.045C810.769 550.618 839.741 556.5 841.574 557.235C844.875 557.97 842.748 556.794 840.107 555.397C838.481 554.536 835.218 553.143 832.284 552.064C815.561 545.693 796.882 541.184 773.411 537.851C735.466 534.077 722.743 531.743 607.354 532.852C483.153 532.852 482.469 532.852 449.903 527.951C431.517 525.206 408.829 520.109 393.181 514.031C389.392 512.56 384.991 510.184 380.468 506.876C378.757 505.625 379.857 506.508 376.263 503.445C368.114 496.5 369.123 495.211 383.891 489.428C409.317 479.331 433.766 474.234 463.594 472.862C481.393 472.078 513.47 474.822 530.584 478.547C566.182 486.389 583.003 492.172 611.266 506.386C616.938 509.13 623.588 511.973 626.131 512.659C630.434 513.639 659.186 516.09 659.772 515.404C661.533 513.737 629.945 496.289 608.821 487.369C602.855 484.821 582.318 477.371 578.993 476.489C577.135 476.097 572.538 474.724 568.724 473.646C551.904 468.549 521.196 463.452 498.312 461.785C485.696 460.903 451.467 460.707 437.678 461.491Z" fill="#A1A1AA"/>
<path d="M261.84 500.154C247.299 502.815 239.125 505.469 229.952 509.707C224.487 512.171 209.264 520.745 208.288 521.829C207.995 522.124 205.848 523.603 203.408 525.18C193.552 531.585 180.866 542.525 183.305 542.525C183.5 542.525 188.868 539.864 195.113 536.611C219.12 524.194 239.028 518.577 259.521 518.478C269.865 518.478 273.671 518.872 280.21 520.745C286.943 522.617 299.387 529.343 301.972 531.684C305.875 534.517 326.466 547.354 337.103 551.296C359.743 559.672 392.338 564.304 427.86 564.107C450.012 564.009 449.817 563.614 425.42 559.87C381.505 553.07 349.106 540.652 323.051 520.548C318.659 517.295 313.194 513.058 310.852 511.284C305.485 507.145 298.263 503.695 290.749 501.626C284.894 500.049 273.26 498.064 261.84 500.154Z" fill="#A1A1AA"/>
</svg>
