<svg width="144" height="144" viewBox="0 0 144 144" fill="none" xmlns="http://www.w3.org/2000/svg">
<rect width="144" height="144" fill="#1E1E1E"/>
<g clip-path="url(#clip0_0_1)">
<rect width="144" height="144" fill="black"/>
<path d="M58.2041 54.0951C55.8292 54.228 50.3003 54.9494 47.4693 55.4999C44.2204 56.1263 38.1215 57.7209 34.0175 59.0117C33.5995 59.1446 34.7015 60.929 36.1455 62.4666C39.1094 65.5988 43.6884 67.8578 50.3193 69.4903C55.2592 70.7052 59.9521 71.2367 67.229 71.3696C73.8979 71.4835 80.3008 71.1798 93.7335 70.0788C97.5525 69.775 110.453 69.6611 116.058 69.8889C121.815 70.1167 123.587 70.2004 127.624 70.8571C130.688 71.3554 136.317 72.4943 136.673 72.6367C137.314 72.7791 136.901 72.5513 136.388 72.2808C136.072 72.1141 135.438 71.8442 134.868 71.6354C131.619 70.4015 127.99 69.5283 123.43 68.8828C116.058 68.152 115.336 67.9337 91.1686 67.9147C67.039 67.9147 66.906 67.9147 60.5791 66.9656C57.0071 66.434 52.5992 65.4469 49.5593 64.27C48.823 63.985 47.968 63.5249 47.0893 62.8842C46.757 62.642 46.9706 62.8131 46.2723 62.2198C44.6892 60.8748 44.8853 60.6253 47.7543 59.5053C52.6942 57.55 57.4441 56.5629 63.239 56.2972C66.697 56.1453 72.9289 56.6768 76.2538 57.3982C83.1697 58.9168 86.4377 60.0368 91.9286 62.7893C93.0306 63.3208 94.3225 63.8714 94.8165 64.0042C95.6525 64.1941 101.238 64.6686 101.352 64.5358C101.694 64.213 95.5575 60.8341 91.4536 59.1066C90.2946 58.6131 86.3047 57.1704 85.6587 56.9995C85.2977 56.9236 84.4047 56.6578 83.6637 56.449C80.3958 55.4619 74.4299 54.4748 69.9839 54.1521C67.533 53.9812 60.8831 53.9433 58.2041 54.0951Z" fill="url(#paint0_linear_0_1)" fill-opacity="0.73"/>
<path d="M24.4797 61.6693C21.6488 62.1819 19.6538 62.7703 17.8678 63.5866C16.8039 64.0612 13.8399 65.7127 13.6499 65.9215C13.5929 65.9785 13.1749 66.2632 12.6999 66.5669C10.781 67.8008 8.31101 69.9079 8.786 69.9079C8.824 69.9079 9.86898 69.3954 11.085 68.7689C15.7589 66.3771 19.6348 65.2951 23.6248 65.2761C25.6387 65.2761 26.3797 65.352 27.6527 65.7127C28.9637 66.0734 31.3863 67.369 31.8896 67.8198C32.6496 68.3656 36.6585 70.8381 38.7295 71.5974C43.1374 73.2109 49.4833 74.1031 56.3992 74.0652C60.7121 74.0462 60.6741 73.9703 55.9242 73.2489C47.3744 71.9391 41.0665 69.5472 35.9935 65.6747C35.1386 65.0483 34.0746 64.232 33.6186 63.8903C32.5736 63.093 31.1676 62.4286 29.7047 62.03C28.5647 61.7263 26.5222 61.4605 24.4797 61.6693Z" fill="url(#paint1_linear_0_1)" fill-opacity="0.73"/>
<path d="M40.2495 76.0584C37.6655 76.8367 35.9366 78.697 35.7276 80.956C35.6516 81.6963 35.7276 82 36.0886 82.5316C36.6015 83.2719 38.1215 84.0312 39.6605 84.3349C41.6365 84.6956 42.3205 85.4739 41.2945 86.1573C40.8955 86.4041 40.5345 86.461 39.4705 86.3661C38.1975 86.2522 37.5705 86.0054 36.2406 85.0563C35.9746 84.8665 35.6896 85.0373 34.5686 86.0434C33.8276 86.6888 33.2196 87.3343 33.2196 87.4671C33.2196 87.6 33.5426 87.9227 33.9606 88.2075C36.4116 89.8969 40.3255 90.1247 43.0994 88.701C45.1894 87.638 46.6334 84.7526 45.8734 83.177C45.4554 82.3038 44.2584 81.5824 42.4155 81.1458C41.5795 80.937 40.7055 80.6712 40.4775 80.5573C39.9645 80.2726 39.9455 79.7601 40.4395 79.3045C40.9715 78.8299 42.7954 79.0007 43.9734 79.6651C44.4674 79.9309 44.9614 80.1587 45.0754 80.1587C45.4744 80.1587 47.7164 77.7479 47.6024 77.4441C47.5454 77.2923 46.9374 76.8936 46.2534 76.5519C45.1894 76.1248 44.6907 75.9164 43.0614 75.8686C41.7695 75.8306 40.8195 75.8875 40.2495 76.0584Z" fill="url(#paint2_linear_0_1)" fill-opacity="0.73"/>
<path d="M86.6467 76.0964C83.9108 76.8177 82.1628 78.792 82.1438 81.1459C82.1438 82.0381 82.2198 82.3038 82.6188 82.7214C83.2078 83.3479 84.1198 83.8224 85.3738 84.1262C87.5017 84.6767 88.1287 84.9614 88.1287 85.398C88.1287 86.7838 84.8988 86.7648 83.0748 85.379C82.3528 84.8285 82.2958 84.8285 81.9728 85.1513C81.8398 85.2651 81.2508 85.7967 80.6618 86.3092C80.0728 86.8218 79.5789 87.3153 79.5789 87.4102C79.5789 87.676 80.3008 88.2645 81.1938 88.739C82.3338 89.3465 83.7018 89.6502 85.2788 89.6502C88.6417 89.6502 91.1877 88.1885 92.1186 85.7397C92.9736 83.4238 92.3466 82.3038 89.7437 81.4686C86.8747 80.5764 86.5137 80.4055 86.4567 80.0448C86.3807 79.3994 86.6942 79.0672 87.7962 78.9723C88.7082 78.8964 89.0597 79.0577 90.1047 79.5703C90.7697 79.893 91.3777 80.1587 91.4537 80.1587C91.6817 80.1587 94.0186 77.8238 94.0186 77.596C94.0186 77.2164 92.5746 76.3811 91.4157 76.0774C90.0667 75.7167 87.9767 75.7357 86.6467 76.0964Z" fill="url(#paint3_linear_0_1)" fill-opacity="0.73"/>
<path d="M10.7239 76.2103C10.6669 76.3431 10.6099 76.6279 10.5529 76.8367C10.4389 77.3492 8.57697 83.7085 8.32998 84.4488C8.00698 85.436 7 89.0807 7 89.2705C7 89.3844 7.77899 89.4603 8.89997 89.4603C11.1039 89.4603 10.8759 89.6881 11.6739 86.7648L12.2249 84.7146H15.4929H18.7608L19.1598 83.4427C19.3688 82.7214 19.5968 82 19.6538 81.8102C19.7488 81.5065 19.5208 81.4875 16.4998 81.4875H13.2319L13.3459 80.9939C13.4219 80.7092 13.5359 80.2536 13.5929 79.9499L13.7069 79.3994H17.3548H21.0028L21.4208 78.0136C22.0857 75.7547 22.6367 75.9825 16.3098 75.9825C12.0539 75.9825 10.7619 76.0394 10.7239 76.2103Z" fill="url(#paint4_linear_0_1)" fill-opacity="0.73"/>
<path d="M25.9997 76.9317C24.9547 78.4123 19.8248 85.455 19.5778 85.7587C19.0458 86.4421 17.0698 89.2326 17.0698 89.3275C17.0698 89.4034 18.0008 89.4604 19.1218 89.4604H21.1928L22.0287 88.2265L22.8647 86.9926L25.4297 87.0306L27.9756 87.0875L28.1846 88.2265L28.3746 89.3655H30.4646C32.2126 89.3655 32.5546 89.3275 32.5166 89.0807C32.4976 88.9289 32.2126 86.9546 31.8896 84.7147C31.5476 82.4747 31.1486 79.6082 30.9776 78.3554L30.6546 76.0774L28.6596 76.0395L26.6647 75.9825L25.9997 76.9317ZM27.5956 82.6645C27.7286 83.8414 27.7002 84.0313 27.3772 84.0503C27.1872 84.0503 26.6647 84.0891 26.0377 84.0503C24.8122 83.9743 24.9547 83.9196 26.2277 82.152C27.3487 80.5954 27.3867 80.5954 27.5956 82.6645Z" fill="url(#paint5_linear_0_1)" fill-opacity="0.73"/>
<path d="M49.1081 76.0537C49.0131 76.2056 48.2294 79.1337 48.2294 79.3045C48.2294 79.3615 49.0749 79.3994 50.1768 79.3994C51.2788 79.3994 51.9581 79.3994 52.243 79.3994C52.243 79.4943 51.9533 80.5384 51.6493 81.5825C51.3453 82.6265 50.8513 84.297 50.5853 85.2841C50.3003 86.2713 49.9203 87.5621 49.7303 88.1316C49.5593 88.7011 49.4263 89.2895 49.4643 89.3655C49.3931 89.4604 50.4333 89.4604 51.4593 89.4604H53.3213L53.6063 88.5492C53.7583 88.0557 54.0813 86.9736 54.3093 86.1384C54.5373 85.3031 54.9743 83.8035 55.2593 82.8164C55.5632 81.8292 55.9052 80.6523 56.0192 80.1967L56.2282 79.3994H58.3562H60.4842L60.8072 78.1086C60.9972 77.4062 61.1872 76.6469 61.2632 76.4001L61.3772 75.9825H55.2973C51.9343 75.9825 49.0226 75.9208 49.1081 76.0537Z" fill="url(#paint6_linear_0_1)" fill-opacity="0.73"/>
<path d="M67.894 77.634C67.628 78.5642 67.267 79.7791 67.115 80.3486C66.735 81.6584 66.146 83.6706 65.861 84.5058C65.576 85.398 64.5691 89.1377 64.5691 89.3085C64.1416 89.3085 68.331 89.4984 68.445 89.2895C68.502 89.1946 68.768 88.3594 69.015 87.4482C69.927 84.1452 70.364 82.7784 70.535 82.7784C70.649 82.7784 71.5039 84.278 72.4349 86.1194L74.1639 89.4604H75.8929C77.3938 89.4604 77.6408 89.4224 77.7358 89.1187C77.7928 88.9478 78.3248 87.1255 78.9138 85.0943C79.5218 83.0631 80.1108 81.013 80.2438 80.5384C80.3768 80.0638 80.6998 78.9628 80.9848 78.0516C81.2508 77.1594 81.4788 76.3432 81.4788 76.2103C81.4788 76.0395 80.9088 75.9825 79.5218 75.9825H77.5458L77.3558 76.7798C76.8809 78.6591 75.6839 82.6265 75.5889 82.6265C75.5319 82.6265 74.7149 81.1269 73.7839 79.3045L72.0739 75.9825H70.231H68.388L67.894 77.634Z" fill="url(#paint7_linear_0_1)" fill-opacity="0.73"/>
<path d="M96.1276 77.3492C95.8996 78.1086 95.5386 79.2855 95.3296 79.9689C93.9616 84.4868 93.7336 86.1193 94.2846 87.4482C94.6456 88.3214 95.8046 89.2136 96.9256 89.4793C97.4766 89.6122 98.5548 89.6502 99.6995 89.6122C102.402 89.4793 103.803 88.777 105.228 87.2583C106.444 85.9865 106.881 84.9994 107.964 81.2977C108.439 79.6841 108.971 77.9187 109.123 77.3872C109.275 76.8557 109.385 76.2387 109.385 76.1248C108.815 76.0536 105.684 75.9065 105.475 76.2103C105.399 76.3431 105.133 77.1025 104.924 77.8808C104.696 78.6591 104.202 80.3675 103.822 81.6773C102.796 85.2082 101.996 86.0477 99.9465 86.1383C99.4098 86.1621 98.8825 86.0624 98.5785 85.6638C98.1035 85.0563 98.1035 84.4678 98.5595 82.8543C98.7685 82.1519 99.2815 80.3675 99.6995 78.8869C100.137 77.4062 100.479 76.1533 100.479 76.0964C100.479 76.0394 99.5855 75.9825 98.5025 75.9825H96.5266L96.1276 77.3492Z" fill="url(#paint8_linear_0_1)" fill-opacity="0.73"/>
<path d="M111.631 76.1153C111.555 76.2482 111.232 77.2923 109.693 82.5316C108.553 86.4231 107.888 88.8149 107.888 89.1376C107.888 89.4414 108.078 89.4603 109.807 89.4224L111.745 89.3654L111.992 88.5112C112.106 88.0366 112.353 87.1634 112.524 86.556L112.847 85.4739H113.645H114.462L115.222 87.4102L115.982 89.3654L118.205 89.4224C119.763 89.4603 120.428 89.4034 120.428 89.2515C120.428 89.1376 120.086 88.1695 119.649 87.1254C119.212 86.0624 118.832 85.0943 118.794 84.9804C118.737 84.8665 119.117 84.5817 119.611 84.316C121.435 83.3858 122.708 81.4685 122.86 79.3994C122.955 78.0516 122.442 77.2164 121.093 76.552C120.181 76.0964 119.972 76.0774 115.944 76.0204C113.626 75.9825 111.688 76.0204 111.631 76.1153ZM118.319 79.7031C119.079 80.2346 118.566 81.5445 117.35 82.1709C116.818 82.4556 114.063 82.5506 113.911 82.2848C113.873 82.2089 114.006 81.5255 114.196 80.7662L114.576 79.3994H116.229C117.445 79.3994 117.996 79.4753 118.319 79.7031Z" fill="url(#paint9_linear_0_1)" fill-opacity="0.73"/>
<path d="M125.311 77.5391C125.064 78.4123 124.532 80.2157 124.133 81.5825C123.753 82.9492 123.145 85.0374 122.784 86.2333C122.442 87.4292 122.1 88.6441 122.024 88.9478L121.91 89.4604L127.572 89.4224L133.234 89.3655L133.671 87.8658C133.899 87.0306 134.07 86.3282 134.032 86.2713C133.975 86.2333 132.36 86.2143 130.422 86.2333C126.47 86.2523 126.641 86.3282 127.154 84.9045L127.401 84.2401L130.707 84.1452L133.994 84.0503C133.994 84.0503 133.714 84.9045 134.336 83.0062C134.958 81.1079 135.319 81.1079 131.524 81.1079H128.37L128.503 80.3865C128.712 79.2286 128.864 79.1906 132.645 79.2286C134.507 79.2476 136.046 79.2286 136.084 79.1906C136.16 79.1147 136.958 76.2483 136.958 76.0774C136.958 76.0205 134.45 75.9825 131.372 75.9825H125.786L125.311 77.5391Z" fill="url(#paint10_linear_0_1)" fill-opacity="0.73"/>
<path d="M63.9801 76.6089C63.2201 77.1214 63.0301 77.8997 63.5431 78.4692C63.7901 78.735 64.1321 78.8299 64.8351 78.8299C66.659 78.8299 67.894 77.4062 66.887 76.495C66.355 76.0014 64.7781 76.0774 63.9801 76.6089Z" fill="url(#paint11_linear_0_1)" fill-opacity="0.73"/>
<path d="M62.9541 80.7282C62.4411 80.8231 61.3581 80.9516 60.5791 80.9655C59.5151 80.9845 59.296 80.8943 59.1731 81.2218C59.0021 81.6774 59.0021 81.6774 59.7241 81.6774C60.2751 81.6774 60.4366 81.7485 60.3891 82.057C60.3539 82.2854 59.4961 83.7845 58.3941 85.398C57.2351 87.1255 56.3754 88.0841 56.3992 88.796C56.3992 89.5743 57.1401 89.897 58.6981 89.8021C59.7621 89.7261 60.2181 89.5743 61.0161 89.0807C62.3271 88.2644 63.6 87.3153 63.619 87.1255C63.638 86.7078 62.9921 86.8407 62.1561 87.4482C61.2061 88.1316 60.1991 88.5112 60.1991 88.1695C60.1991 87.9987 62.4601 84.5628 64.303 81.9241C64.759 81.2597 65.139 80.6902 65.139 80.6333C65.139 80.5004 64.132 80.5574 62.9541 80.7282Z" fill="url(#paint12_linear_0_1)" fill-opacity="0.73"/>
</g>
<defs>
<linearGradient id="paint0_linear_0_1" x1="87.4534" y1="81.6812" x2="88.6151" y2="43.5336" gradientUnits="userSpaceOnUse">
<stop offset="0.515" stop-color="#BBBBBB"/>
<stop offset="1" stop-color="#CCCCCC" stop-opacity="0"/>
</linearGradient>
<linearGradient id="paint1_linear_0_1" x1="35.126" y1="80.0754" x2="36.175" y2="54.6269" gradientUnits="userSpaceOnUse">
<stop offset="0.515" stop-color="#BBBBBB"/>
<stop offset="1" stop-color="#CCCCCC" stop-opacity="0"/>
</linearGradient>
<linearGradient id="paint2_linear_0_1" x1="40.6908" y1="96.2769" x2="45.1094" y2="68.8216" gradientUnits="userSpaceOnUse">
<stop offset="0.515" stop-color="#BBBBBB"/>
<stop offset="1" stop-color="#CCCCCC" stop-opacity="0"/>
</linearGradient>
<linearGradient id="paint3_linear_0_1" x1="87.0774" y1="96.3158" x2="91.5145" y2="68.7533" gradientUnits="userSpaceOnUse">
<stop offset="0.515" stop-color="#BBBBBB"/>
<stop offset="1" stop-color="#CCCCCC" stop-opacity="0"/>
</linearGradient>
<linearGradient id="paint4_linear_0_1" x1="14.6887" y1="95.9635" x2="18.8125" y2="69.0244" gradientUnits="userSpaceOnUse">
<stop offset="0.515" stop-color="#BBBBBB"/>
<stop offset="1" stop-color="#CCCCCC" stop-opacity="0"/>
</linearGradient>
<linearGradient id="paint5_linear_0_1" x1="25.0928" y1="95.9544" x2="29.0461" y2="68.985" gradientUnits="userSpaceOnUse">
<stop offset="0.515" stop-color="#BBBBBB"/>
<stop offset="1" stop-color="#CCCCCC" stop-opacity="0"/>
</linearGradient>
<linearGradient id="paint6_linear_0_1" x1="55.057" y1="95.9612" x2="59.675" y2="69.1794" gradientUnits="userSpaceOnUse">
<stop offset="0.515" stop-color="#BBBBBB"/>
<stop offset="1" stop-color="#CCCCCC" stop-opacity="0"/>
</linearGradient>
<linearGradient id="paint7_linear_0_1" x1="73.3356" y1="95.9544" x2="76.9538" y2="68.8892" gradientUnits="userSpaceOnUse">
<stop offset="0.515" stop-color="#BBBBBB"/>
<stop offset="1" stop-color="#CCCCCC" stop-opacity="0"/>
</linearGradient>
<linearGradient id="paint8_linear_0_1" x1="101.992" y1="96.2" x2="106.06" y2="68.9186" gradientUnits="userSpaceOnUse">
<stop offset="0.515" stop-color="#BBBBBB"/>
<stop offset="1" stop-color="#CCCCCC" stop-opacity="0"/>
</linearGradient>
<linearGradient id="paint9_linear_0_1" x1="115.669" y1="95.9081" x2="119.712" y2="69.0643" gradientUnits="userSpaceOnUse">
<stop offset="0.515" stop-color="#BBBBBB"/>
<stop offset="1" stop-color="#CCCCCC" stop-opacity="0"/>
</linearGradient>
<linearGradient id="paint10_linear_0_1" x1="129.724" y1="95.9544" x2="133.779" y2="69.0157" gradientUnits="userSpaceOnUse">
<stop offset="0.515" stop-color="#BBBBBB"/>
<stop offset="1" stop-color="#CCCCCC" stop-opacity="0"/>
</linearGradient>
<linearGradient id="paint11_linear_0_1" x1="65.3287" y1="80.1143" x2="65.9324" y2="74.7334" gradientUnits="userSpaceOnUse">
<stop offset="0.515" stop-color="#BBBBBB"/>
<stop offset="1" stop-color="#CCCCCC" stop-opacity="0"/>
</linearGradient>
<linearGradient id="paint12_linear_0_1" x1="60.9375" y1="94.279" x2="64.2024" y2="75.9361" gradientUnits="userSpaceOnUse">
<stop offset="0.515" stop-color="#BBBBBB"/>
<stop offset="1" stop-color="#CCCCCC" stop-opacity="0"/>
</linearGradient>
<clipPath id="clip0_0_1">
<rect width="144" height="144" fill="white"/>
</clipPath>
</defs>
</svg>
