<svg width="512" height="512" viewBox="0 0 512 512" fill="none" xmlns="http://www.w3.org/2000/svg">
<rect width="512" height="512" fill="#1E1E1E"/>
<rect width="512" height="512" fill="url(#paint0_radial_0_1)"/>
<rect width="481" height="134" transform="translate(16 189)" fill="black"/>
<rect width="481" height="134" transform="translate(16 189)" fill="black" fill-opacity="0.2"/>
<rect width="481" height="134" transform="translate(16 189)" fill="black" fill-opacity="0.2"/>
<path d="M206.948 192.338C198.504 192.811 178.845 195.376 168.78 197.333C157.228 199.56 135.543 205.23 120.951 209.819C119.465 210.292 123.383 216.636 128.517 222.104C139.056 233.24 155.336 241.272 178.913 247.077C196.477 251.396 213.163 253.286 239.036 253.759C262.748 254.164 285.514 253.084 333.275 249.169C346.853 248.089 392.723 247.684 412.651 248.494C433.12 249.304 439.419 249.601 453.775 251.936C464.668 253.708 484.681 257.758 485.948 258.264C488.228 258.77 486.758 257.96 484.935 256.998C483.811 256.406 481.557 255.446 479.53 254.704C467.978 250.316 455.075 247.212 438.862 244.917C412.651 242.318 410.084 241.542 324.155 241.475C238.361 241.475 237.888 241.475 215.392 238.1C202.692 236.21 187.019 232.7 176.211 228.516C173.593 227.502 170.553 225.866 167.429 223.588C166.247 222.727 167.006 223.335 164.524 221.226C158.895 216.444 159.592 215.557 169.793 211.574C187.357 204.622 204.246 201.113 224.85 200.168C237.145 199.628 259.303 201.518 271.125 204.082C295.715 209.482 307.334 213.464 326.857 223.251C330.775 225.141 335.369 227.098 337.125 227.571C340.098 228.246 359.959 229.933 360.364 229.46C361.58 228.313 339.76 216.299 325.168 210.157C321.047 208.402 306.861 203.272 304.564 202.665C303.281 202.395 300.106 201.45 297.471 200.708C285.852 197.198 264.64 193.688 248.832 192.541C240.117 191.933 216.473 191.798 206.948 192.338Z" fill="url(#paint1_linear_0_1)" fill-opacity="0.85"/>
<path d="M87.0391 219.269C76.9735 221.091 69.8803 223.183 63.5302 226.086C59.7471 227.773 49.2086 233.645 48.5331 234.388C48.3304 234.59 46.8442 235.603 45.1554 236.682C38.3324 241.07 29.5503 248.562 31.2392 248.562C31.3743 248.562 35.0898 246.739 39.4133 244.512C56.0316 236.007 69.8127 232.16 83.9992 232.093C91.1599 232.093 93.7946 232.363 98.3207 233.645C102.982 234.928 111.596 239.534 113.385 241.137C116.088 243.078 130.342 251.869 137.705 254.569C153.378 260.306 175.941 263.478 200.531 263.343C215.865 263.275 215.73 263.005 198.842 260.441C168.442 255.783 146.014 247.279 127.977 233.51C124.937 231.283 121.154 228.381 119.533 227.166C115.817 224.331 110.818 221.969 105.617 220.551C101.563 219.471 94.3012 218.526 87.0391 219.269Z" fill="url(#paint2_linear_0_1)" fill-opacity="0.85"/>
<path d="M143.109 270.43C133.922 273.197 127.774 279.812 127.031 287.844C126.761 290.476 127.031 291.556 128.315 293.446C130.139 296.078 135.543 298.778 141.015 299.858C148.041 301.14 150.473 303.907 146.825 306.337C145.406 307.215 144.123 307.417 140.34 307.08C135.813 306.675 133.584 305.797 128.855 302.422C127.91 301.747 126.896 302.355 122.911 305.932C120.276 308.227 118.114 310.522 118.114 310.994C118.114 311.467 119.263 312.614 120.749 313.627C129.463 319.634 143.379 320.444 153.242 315.381C160.673 311.602 165.808 301.342 163.105 295.74C161.619 292.636 157.363 290.071 150.81 288.518C147.838 287.776 144.731 286.831 143.92 286.426C142.096 285.414 142.028 283.591 143.785 281.971C145.676 280.284 152.162 280.892 156.35 283.254C158.106 284.199 159.863 285.009 160.268 285.009C161.687 285.009 169.658 276.437 169.253 275.357C169.05 274.817 166.888 273.4 164.456 272.185C160.673 270.666 158.9 269.925 153.107 269.755C148.514 269.62 145.136 269.822 143.109 270.43Z" fill="url(#paint3_linear_0_1)" fill-opacity="0.85"/>
<path d="M308.077 270.565C298.349 273.13 292.134 280.149 292.067 288.519C292.067 291.691 292.337 292.636 293.756 294.121C295.85 296.348 299.093 298.035 303.551 299.115C311.117 301.073 313.347 302.085 313.347 303.637C313.347 308.565 301.862 308.497 295.377 303.57C292.81 301.613 292.607 301.613 291.459 302.76C290.986 303.165 288.892 305.055 286.798 306.877C284.703 308.7 282.947 310.454 282.947 310.792C282.947 311.737 285.514 313.829 288.689 315.517C292.742 317.676 297.606 318.756 303.213 318.756C315.17 318.756 324.223 313.559 327.533 304.852C330.573 296.618 328.344 292.636 319.089 289.666C308.888 286.494 307.604 285.886 307.402 284.604C307.132 282.309 308.246 281.128 312.164 280.79C315.407 280.52 316.657 281.094 320.372 282.917C322.737 284.064 324.898 285.009 325.169 285.009C325.979 285.009 334.288 276.707 334.288 275.897C334.288 274.547 329.154 271.577 325.033 270.497C320.237 269.215 312.806 269.283 308.077 270.565Z" fill="url(#paint4_linear_0_1)" fill-opacity="0.85"/>
<path d="M38.1296 270.97C37.9269 271.442 37.7243 272.455 37.5216 273.197C37.1163 275.019 30.4959 297.63 29.6177 300.263C28.4693 303.772 24.8889 316.731 24.8889 317.406C24.8889 317.811 27.6586 318.081 31.6444 318.081C39.4807 318.081 38.67 318.891 41.5073 308.497L43.4664 301.208H55.0857H66.7051L68.1238 296.685C68.8669 294.121 69.6775 291.556 69.8802 290.881C70.2179 289.801 69.4073 289.733 58.6661 289.733H47.0468L47.4521 287.979C47.7223 286.966 48.1276 285.346 48.3303 284.266L48.7356 282.309H61.7061H74.6765L76.1627 277.382C78.5271 269.35 80.4862 270.16 57.9906 270.16C42.8584 270.16 38.2647 270.362 38.1296 270.97Z" fill="url(#paint5_linear_0_1)" fill-opacity="0.85"/>
<path d="M92.4433 273.535C88.7278 278.799 70.4881 303.84 69.6099 304.92C67.7184 307.35 60.6927 317.271 60.6927 317.609C60.6927 317.879 64.0029 318.081 67.9886 318.081H75.3521L78.3245 313.694L81.2968 309.307L90.4167 309.442L99.469 309.645L100.212 313.694L100.888 317.744H108.319C114.534 317.744 115.75 317.609 115.615 316.731C115.547 316.192 114.534 309.172 113.385 301.208C112.169 293.243 110.751 283.052 110.143 278.597L108.994 270.497L101.901 270.362L94.8077 270.16L92.4433 273.535ZM98.1179 293.918C98.5908 298.103 98.4895 298.778 97.341 298.845C96.6655 298.845 94.8077 298.983 92.5784 298.845C88.2212 298.575 88.7279 298.381 93.254 292.096C97.2397 286.561 97.3748 286.561 98.1179 293.918Z" fill="url(#paint6_linear_0_1)" fill-opacity="0.85"/>
<path d="M174.607 270.413C174.269 270.953 171.482 281.364 171.482 281.972C171.482 282.174 174.488 282.309 178.406 282.309C182.325 282.309 184.74 282.309 185.753 282.309C185.753 282.647 184.723 286.359 183.642 290.071C182.561 293.783 180.805 299.723 179.859 303.232C178.846 306.742 177.495 311.332 176.819 313.357C176.211 315.382 175.738 317.474 175.873 317.744C175.62 318.081 179.318 318.081 182.966 318.081H189.587L190.6 314.842C191.141 313.087 192.289 309.24 193.1 306.27C193.91 303.3 195.464 297.968 196.477 294.458C197.558 290.948 198.774 286.764 199.179 285.144L199.923 282.309H207.489H215.055L216.203 277.719C216.879 275.222 217.554 272.522 217.825 271.645L218.23 270.16H196.612C184.655 270.16 174.303 269.941 174.607 270.413Z" fill="url(#paint7_linear_0_1)" fill-opacity="0.85"/>
<path d="M241.401 276.032C240.455 279.339 239.172 283.659 238.631 285.684C237.28 290.341 235.186 297.495 234.173 300.465C233.159 303.637 229.579 316.934 229.579 317.541C228.059 317.541 242.955 318.216 243.36 317.474C243.563 317.136 244.508 314.167 245.387 310.927C248.629 299.183 250.183 294.323 250.791 294.323C251.196 294.323 254.236 299.655 257.546 306.202L263.694 318.081H269.841C275.178 318.081 276.056 317.946 276.394 316.866C276.597 316.259 278.488 309.779 280.582 302.558C282.744 295.336 284.838 288.046 285.311 286.359C285.784 284.671 286.933 280.757 287.946 277.517C288.892 274.345 289.702 271.442 289.702 270.97C289.702 270.362 287.676 270.16 282.744 270.16H275.719L275.043 272.995C273.354 279.677 269.098 293.783 268.76 293.783C268.558 293.783 265.653 288.451 262.343 281.972L256.263 270.16H249.71H243.157L241.401 276.032Z" fill="url(#paint8_linear_0_1)" fill-opacity="0.85"/>
<path d="M341.787 275.019C340.976 277.719 339.693 281.904 338.95 284.334C334.086 300.398 333.275 306.202 335.234 310.927C336.518 314.032 340.639 317.204 344.624 318.149C346.583 318.621 350.417 318.756 354.487 318.621C364.097 318.149 369.079 315.651 374.146 310.252C378.469 305.73 380.023 302.22 383.873 289.058C385.562 283.321 387.454 277.044 387.994 275.154C388.535 273.265 388.923 271.071 388.923 270.666C386.896 270.413 375.767 269.89 375.024 270.97C374.754 271.442 373.808 274.142 373.065 276.909C372.254 279.677 370.498 285.751 369.147 290.408C365.499 302.962 362.654 305.947 355.365 306.27C353.457 306.354 351.582 306 350.501 304.582C348.813 302.422 348.813 300.33 350.434 294.593C351.177 292.096 353.001 285.751 354.487 280.487C356.041 275.222 357.257 270.767 357.257 270.565C357.257 270.362 354.082 270.16 350.231 270.16H343.206L341.787 275.019Z" fill="url(#paint9_linear_0_1)" fill-opacity="0.85"/>
<path d="M396.911 270.632C396.641 271.105 395.492 274.817 390.021 293.446C385.967 307.282 383.603 315.786 383.603 316.934C383.603 318.014 384.278 318.081 390.426 317.946L397.316 317.744L398.195 314.706C398.6 313.019 399.478 309.914 400.086 307.754L401.235 303.907H404.072H406.977L409.679 310.792L412.381 317.744L420.285 317.946C425.824 318.081 428.189 317.879 428.189 317.339C428.189 316.934 426.973 313.492 425.419 309.779C423.865 306 422.514 302.557 422.379 302.152C422.176 301.747 423.528 300.735 425.284 299.79C431.769 296.483 436.295 289.666 436.836 282.309C437.174 277.517 435.35 274.547 430.553 272.185C427.311 270.565 426.568 270.497 412.246 270.295C404.004 270.16 397.114 270.295 396.911 270.632ZM420.69 283.389C423.392 285.279 421.568 289.936 417.245 292.163C415.353 293.176 405.558 293.513 405.018 292.568C404.883 292.298 405.355 289.868 406.031 287.169L407.382 282.309H413.259C417.583 282.309 419.542 282.579 420.69 283.389Z" fill="url(#paint10_linear_0_1)" fill-opacity="0.85"/>
<path d="M445.551 275.695C444.672 278.799 442.781 285.211 441.362 290.071C440.011 294.931 437.849 302.355 436.566 306.607C435.35 310.859 434.134 315.179 433.864 316.259L433.458 318.081L453.59 317.946L473.721 317.744L475.275 312.412C476.085 309.442 476.693 306.945 476.558 306.742C476.355 306.607 470.613 306.54 463.723 306.607C449.671 306.675 450.279 306.945 452.103 301.883L452.982 299.52L464.736 299.183L476.423 298.845C476.423 298.845 475.428 301.883 477.639 295.133C479.85 288.384 481.135 288.384 467.641 288.384H456.427L456.9 285.819C457.643 281.702 458.183 281.567 471.627 281.702C478.247 281.769 483.719 281.702 483.854 281.567C484.124 281.297 486.961 271.105 486.961 270.497C486.961 270.295 478.044 270.16 467.1 270.16H447.239L445.551 275.695Z" fill="url(#paint11_linear_0_1)" fill-opacity="0.85"/>
<path d="M227.485 272.387C224.783 274.21 224.107 276.977 225.931 279.002C226.809 279.947 228.025 280.284 230.525 280.284C237.01 280.284 241.401 275.222 237.821 271.982C235.929 270.227 230.322 270.497 227.485 272.387Z" fill="url(#paint12_linear_0_1)" fill-opacity="0.85"/>
<path d="M223.837 287.034C222.013 287.371 218.162 287.828 215.392 287.877C211.609 287.945 210.83 287.624 210.393 288.789C209.785 290.408 209.785 290.408 212.352 290.408C214.312 290.408 214.886 290.661 214.717 291.758C214.592 292.57 211.542 297.9 207.624 303.637C203.503 309.779 200.446 313.188 200.53 315.719C200.53 318.486 203.165 319.634 208.704 319.296C212.488 319.026 214.109 318.486 216.946 316.731C221.607 313.829 226.134 310.454 226.201 309.779C226.269 308.295 223.972 308.767 220.999 310.927C217.622 313.357 214.041 314.707 214.041 313.492C214.041 312.884 222.08 300.668 228.633 291.286C230.254 288.923 231.605 286.899 231.605 286.696C231.605 286.224 228.025 286.426 223.837 287.034Z" fill="url(#paint13_linear_0_1)" fill-opacity="0.85"/>
<defs>
<radialGradient id="paint0_radial_0_1" cx="0" cy="0" r="1" gradientUnits="userSpaceOnUse" gradientTransform="translate(256 92.4444) rotate(79.9118) scale(294.328)">
<stop stop-opacity="0"/>
<stop offset="0.496573"/>
</radialGradient>
<linearGradient id="paint1_linear_0_1" x1="310.945" y1="290.422" x2="323.273" y2="159.907" gradientUnits="userSpaceOnUse">
<stop offset="0.605" stop-color="#1450C4"/>
<stop offset="0.964991" stop-color="#191818" stop-opacity="0"/>
</linearGradient>
<linearGradient id="paint2_linear_0_1" x1="124.892" y1="284.713" x2="135.952" y2="198.215" gradientUnits="userSpaceOnUse">
<stop offset="0.605" stop-color="#1450C4"/>
<stop offset="0.964991" stop-color="#191818" stop-opacity="0"/>
</linearGradient>
<linearGradient id="paint3_linear_0_1" x1="144.678" y1="342.318" x2="183.495" y2="264.559" gradientUnits="userSpaceOnUse">
<stop offset="0.605" stop-color="#1450C4"/>
<stop offset="0.964991" stop-color="#191818" stop-opacity="0"/>
</linearGradient>
<linearGradient id="paint4_linear_0_1" x1="309.609" y1="342.456" x2="348.583" y2="264.4" gradientUnits="userSpaceOnUse">
<stop offset="0.605" stop-color="#1450C4"/>
<stop offset="0.964991" stop-color="#191818" stop-opacity="0"/>
</linearGradient>
<linearGradient id="paint5_linear_0_1" x1="52.2266" y1="341.204" x2="89.0659" y2="263.615" gradientUnits="userSpaceOnUse">
<stop offset="0.605" stop-color="#1450C4"/>
<stop offset="0.964991" stop-color="#191818" stop-opacity="0"/>
</linearGradient>
<linearGradient id="paint6_linear_0_1" x1="89.2187" y1="341.171" x2="125.015" y2="262.44" gradientUnits="userSpaceOnUse">
<stop offset="0.605" stop-color="#1450C4"/>
<stop offset="0.964991" stop-color="#191818" stop-opacity="0"/>
</linearGradient>
<linearGradient id="paint7_linear_0_1" x1="195.758" y1="341.196" x2="235.31" y2="267.242" gradientUnits="userSpaceOnUse">
<stop offset="0.605" stop-color="#1450C4"/>
<stop offset="0.964991" stop-color="#191818" stop-opacity="0"/>
</linearGradient>
<linearGradient id="paint8_linear_0_1" x1="260.749" y1="341.171" x2="294.363" y2="260.104" gradientUnits="userSpaceOnUse">
<stop offset="0.605" stop-color="#1450C4"/>
<stop offset="0.964991" stop-color="#191818" stop-opacity="0"/>
</linearGradient>
<linearGradient id="paint9_linear_0_1" x1="362.64" y1="342.045" x2="399.277" y2="262.811" gradientUnits="userSpaceOnUse">
<stop offset="0.605" stop-color="#1450C4"/>
<stop offset="0.964991" stop-color="#191818" stop-opacity="0"/>
</linearGradient>
<linearGradient id="paint10_linear_0_1" x1="411.267" y1="341.007" x2="447.574" y2="263.294" gradientUnits="userSpaceOnUse">
<stop offset="0.605" stop-color="#1450C4"/>
<stop offset="0.964991" stop-color="#191818" stop-opacity="0"/>
</linearGradient>
<linearGradient id="paint11_linear_0_1" x1="461.243" y1="341.171" x2="497.657" y2="263.163" gradientUnits="userSpaceOnUse">
<stop offset="0.605" stop-color="#1450C4"/>
<stop offset="0.964991" stop-color="#191818" stop-opacity="0"/>
</linearGradient>
<linearGradient id="paint12_linear_0_1" x1="232.28" y1="284.851" x2="238.112" y2="268.09" gradientUnits="userSpaceOnUse">
<stop offset="0.605" stop-color="#1450C4"/>
<stop offset="0.964991" stop-color="#191818" stop-opacity="0"/>
</linearGradient>
<linearGradient id="paint13_linear_0_1" x1="216.667" y1="335.214" x2="244.28" y2="285.196" gradientUnits="userSpaceOnUse">
<stop offset="0.605" stop-color="#1450C4"/>
<stop offset="0.964991" stop-color="#191818" stop-opacity="0"/>
</linearGradient>
</defs>
</svg>
