<svg width="74" height="107" viewBox="0 0 74 107" fill="none" xmlns="http://www.w3.org/2000/svg">
<rect width="74" height="107" fill="none"/>
<path d="M26.0047 80.1538L31.5607 104.925C31.7517 105.777 32.5077 106.382 33.3807 106.382H50.5937C51.4717 106.382 52.2307 105.769 52.4167 104.911L57.7707 80.1538H26.0047Z" fill="#538189"/>
<path d="M57.7707 80.1538C57.7707 81.0758 50.6597 81.8228 41.8877 81.8228C33.1157 81.8228 26.0047 81.0758 26.0047 80.1538C26.0047 79.2318 33.1157 78.4858 41.8877 78.4858C50.6597 78.4858 57.7707 79.2328 57.7707 80.1538Z" fill="#172554"/>
<path d="M44.6237 68.3589C50.8527 70.1209 59.2167 68.5138 61.3527 63.7998C63.4887 59.0868 61.3527 50.7168 66.8697 47.1608C66.8697 47.1608 52.9887 55.3849 44.6237 68.3589Z" fill="#FDBA74"/>
<path d="M52.3667 54.8139C51.9317 55.1969 51.2567 54.8738 51.2817 54.2938C51.4657 49.9888 52.1047 39.6698 57.6157 31.1208C64.0227 21.1808 71.6747 15.6638 72.9207 17.0878C74.1667 18.5118 69.8957 28.5198 68.4717 33.5708C67.0477 38.6218 62.5987 47.6978 58.3277 50.3678C55.6817 52.0218 53.5817 53.7438 52.3677 54.8148L52.3667 54.8139Z" fill="#FDBA74"/>
<path d="M62.3187 59.8748C63.3107 55.4388 70.1677 48.8968 73.1457 48.9198C73.1457 48.9198 69.0877 44.3978 65.2647 48.1828C61.4417 51.9688 62.3187 59.8748 62.3187 59.8748Z" fill="#FB923C"/>
<path d="M38.6417 68.5569C38.6417 68.5569 34.2127 59.9328 27.6727 54.9798C21.1327 50.0278 12.7237 40.8448 9.65368 33.7708C6.58368 26.6968 0.488681 21.9378 0.488681 21.9378C-1.11332 22.4258 1.55668 30.7448 3.69168 31.8358C5.82768 32.9268 10.0987 40.5768 13.3017 51.7898C16.5047 63.0028 27.7167 67.6649 32.8777 68.3589C34.7207 68.6069 36.0877 68.8449 37.0827 69.0489C37.6897 69.1729 38.2577 68.9559 38.6417 68.5569Z" fill="#FDBA74"/>
<path d="M9.65367 33.7718C12.7237 40.8458 21.1327 50.0288 27.6727 54.9808C34.2127 59.9328 38.6417 68.5578 38.6417 68.5578C38.9967 68.1888 39.1967 67.6638 39.1077 67.0978C38.2187 61.4088 35.4837 47.6928 28.9627 40.3668C20.5987 30.9698 11.7007 28.6568 9.56468 26.3428C7.42868 24.0288 2.08968 21.4518 0.488678 21.9398C0.488678 21.9398 6.58367 26.6988 9.65367 33.7728V33.7718Z" fill="#FFEDD5"/>
<path d="M47.0267 32.8378C46.7597 21.6258 49.6957 7.61184 48.5397 0.261841C47.8277 1.78284 46.2257 10.5388 43.2007 17.9948C40.1757 25.4518 36.9717 37.1978 38.2177 46.2738C39.1567 53.1118 41.1047 58.2298 41.8567 61.3668C41.9267 61.6598 42.0977 61.8778 42.3097 62.0278C43.8667 57.9828 47.2937 44.0498 47.0267 32.8378Z" fill="#FDBA74"/>
<path d="M43.8147 61.8128C45.9617 59.0328 49.6277 53.4158 51.5647 45.4818C54.4117 33.8168 52.4547 14.7278 51.5647 9.41284C50.6747 4.09784 49.2507 -1.25919 48.5397 0.262812C49.6967 7.61281 46.7597 21.6268 47.0267 32.8388C47.2937 44.0508 43.8667 57.9838 42.3097 62.0288C42.7627 62.3488 43.4217 62.3228 43.8147 61.8138V61.8128Z" fill="#FED7AA"/>
<path d="M41.8877 80.7398C41.7127 80.7398 41.5687 80.5968 41.5687 80.4218C41.5677 79.6408 41.5627 61.2398 43.8657 55.5418C43.9327 55.3788 44.1187 55.2998 44.2807 55.3658C44.4437 55.4318 44.5227 55.6178 44.4567 55.7808C42.1997 61.3638 42.2047 80.2308 42.2057 80.4208C42.2057 80.5968 42.0637 80.7398 41.8877 80.7398Z" fill="black"/>
<path d="M42.0287 73.5318C41.9827 73.5318 41.9347 73.5219 41.8897 73.4999C41.7307 73.4229 41.6647 73.2318 41.7417 73.0738C41.7547 73.0478 43.0537 70.3868 46.7457 64.7858C46.8417 64.6378 47.0397 64.5978 47.1867 64.6958C47.3337 64.7918 47.3737 64.9898 47.2777 65.1368C43.6137 70.6948 42.3277 73.3258 42.3157 73.3518C42.2607 73.4658 42.1467 73.5318 42.0287 73.5318Z" fill="black"/>
<path d="M41.8877 75.6678C41.7437 75.6678 41.6137 75.5698 41.5777 75.4248C40.5757 71.2918 34.8567 63.0478 29.9847 57.3908C29.8697 57.2578 29.8847 57.0568 30.0177 56.9418C30.1527 56.8288 30.3527 56.8418 30.4667 56.9748C34.5477 61.7128 41.0377 70.4968 42.1967 75.2738C42.2377 75.4448 42.1327 75.6168 41.9617 75.6588C41.9357 75.6648 41.9117 75.6678 41.8867 75.6678H41.8877Z" fill="black"/>
<path d="M42.3737 67.0758C42.3107 67.0758 42.2477 67.0578 42.1927 67.0188C42.0477 66.9188 42.0117 66.7208 42.1117 66.5758C42.2277 66.4068 53.8507 49.5318 59.8217 37.5888C59.9007 37.4318 60.0927 37.3688 60.2487 37.4468C60.4057 37.5258 60.4697 37.7168 60.3907 37.8738C54.3987 49.8568 42.7517 66.7688 42.6347 66.9378C42.5727 67.0278 42.4747 67.0758 42.3737 67.0758Z" fill="black"/>
<path d="M44.9297 52.5628C44.9027 52.5628 44.8737 52.5588 44.8457 52.5518C44.6767 52.5058 44.5767 52.3308 44.6227 52.1608C46.0447 46.9448 46.3167 39.6508 46.5807 32.5968C46.7227 28.7978 46.8567 25.2098 47.1597 21.9528C48.0257 12.6468 48.4437 6.62584 48.4477 6.56684C48.4597 6.39184 48.6057 6.25085 48.7877 6.27085C48.9627 6.28285 49.0957 6.43484 49.0837 6.61084C49.0797 6.67084 48.6607 12.6988 47.7947 22.0118C47.4937 25.2518 47.3597 28.8318 47.2187 32.6208C46.9537 39.7108 46.6797 47.0428 45.2387 52.3288C45.1997 52.4698 45.0717 52.5638 44.9317 52.5638L44.9297 52.5628Z" fill="black"/>
<path d="M27.6727 55.2988C27.5807 55.2988 27.4887 55.2588 27.4267 55.1818C23.7237 50.6558 20.7147 47.9218 18.2967 45.7248C15.3707 43.0658 13.0587 40.9658 11.0447 37.1438C7.44268 30.3068 4.79868 26.6938 4.77268 26.6588C4.66768 26.5168 4.69868 26.3178 4.83968 26.2138C4.98168 26.1078 5.18069 26.1388 5.28469 26.2808C5.31169 26.3168 7.98069 29.9628 11.6077 36.8468C13.5687 40.5698 15.7317 42.5338 18.7247 45.2538C21.1587 47.4638 24.1867 50.2158 27.9187 54.7788C28.0297 54.9148 28.0097 55.1158 27.8737 55.2268C27.8147 55.2758 27.7427 55.2988 27.6717 55.2988H27.6727Z" fill="black"/>
<path d="M62.2127 34.9568C62.1647 34.9568 62.1167 34.9458 62.0707 34.9228C61.9127 34.8448 61.8497 34.6538 61.9277 34.4958C62.1687 34.0108 67.8817 22.5638 70.8977 19.0158C71.0117 18.8828 71.2127 18.8658 71.3467 18.9798C71.4807 19.0938 71.4967 19.2948 71.3827 19.4288C68.4167 22.9178 62.5557 34.6608 62.4967 34.7788C62.4417 34.8908 62.3287 34.9558 62.2117 34.9558L62.2127 34.9568Z" fill="black"/>
<path d="M49.2177 62.5568C49.1457 62.5568 49.0747 62.5328 49.0157 62.4848C48.8797 62.3728 48.8597 62.1718 48.9717 62.0358C53.8677 56.0758 62.7197 49.5578 62.8087 49.4928C62.9487 49.3878 63.1497 49.4178 63.2537 49.5618C63.3577 49.7038 63.3277 49.9039 63.1857 50.0079C63.0977 50.0729 54.3097 56.5438 49.4647 62.4418C49.4007 62.5188 49.3107 62.5578 49.2187 62.5578L49.2177 62.5568Z" fill="black"/>
</svg>
