<svg width="90" height="60" viewBox="0 0 2513 878" fill="none" xmlns="http://www.w3.org/2000/svg">
   <path d="M0 24.1946L4.53678 850.592L566.72 847.379C625.868 841.385 692.418 827.256 738.929 791.051C764.467 771.17 789.927 744.86 806.602 711.095V848.891L1219.07 845.866C1552.59 823.506 1665.54 593.357 1663.87 442.497C1662.12 285.221 1557.81 43.5298 1182.4 25.7067L806.602 24.1946V526.8C784.393 477.731 736.651 429.974 634.016 401.479C711.863 357.072 746.929 287.803 738.74 215.105C730.949 145.945 701.513 51.8245 520.974 27.2189L0 24.1946ZM413.982 133.259C517.507 151.891 538.109 210.503 538.365 254.8C538.644 302.947 511.433 365.955 413.982 370.858L192.435 370.102V134.772L413.982 133.259ZM1006.6 134.015L1127.39 135.717C1365.92 132.8 1443 301.788 1442.13 438.149C1441.41 551.412 1395.86 739.742 1127.39 739.07L1003.57 737.558L1006.6 134.015ZM478.82 479.356C584.297 490.092 623.741 551.516 626.265 607.701C628.49 657.211 605.288 730.312 481.844 739.826H193.191V482.38L478.82 479.356Z" fill="#0B2972"></path>
   <path d="M2024.73 0C1755.12 0 1536.65 196.662 1536.65 439.095C1536.65 681.527 1755.12 878 2024.73 878C2294.34 878 2513 681.527 2513 439.095C2513 196.662 2294.34 0 2024.73 0ZM2027.38 99.0467C2182.94 99.0467 2309.03 249.959 2309.03 436.07C2309.03 622.182 2182.94 773.094 2027.38 773.094C1871.81 773.094 1745.72 622.182 1745.72 436.07C1745.72 249.959 1871.81 99.0467 2027.38 99.0467Z" fill="#FFB20C"></path>
</svg>