<svg width="1610" height="857" viewBox="0 0 1610 857" fill="none" xmlns="http://www.w3.org/2000/svg">
<rect width="1610" height="857" fill=""/>
<g filter="url(#filter0_d_0_1)">
<mask id="path-1-outside-1_0_1" maskUnits="userSpaceOnUse" x="4" y="0" width="1602" height="849" fill="none">
<rect fill="white" x="4" width="1602" height="849"/>
<path fill-rule="evenodd" clip-rule="evenodd" d="M366.232 831.437C236.232 813.436 141.59 711.16 98.4126 571.362C80.6747 513.502 78.1073 449.33 84.2923 382.237C95.7286 262.426 150.693 158.396 230.864 82.5358C231.214 82.1852 231.33 82.0683 231.447 82.4189C231.68 82.7696 232.381 83.1203 232.731 83.354C233.198 83.5878 233.314 83.3541 232.964 83.9385C147.892 161.903 93.278 285.921 87.3264 411.225C78.1074 590.18 164.93 748.681 295.047 803.267C316.869 812.501 339.742 819.515 363.548 823.138C365.182 825.242 366.115 828.164 366.232 831.437Z"/>
<path fill-rule="evenodd" clip-rule="evenodd" d="M42.1647 532.555C52.7841 545.179 69.7052 557.569 87.9099 552.776C88.8435 554.179 93.628 561.192 94.3282 562.244C95.1451 563.53 96.6622 564.816 97.8291 563.764C98.5293 563.296 99.1128 562.244 98.4126 560.608C95.7286 557.335 93.1612 553.945 90.1271 550.438C84.7591 522.035 76.9404 503.099 60.6028 483.929C41.6979 461.954 22.3262 452.136 10.3064 448.045C8.55598 447.577 6.92223 447.11 5.17178 446.525C4.00481 457.513 9.02277 473.526 12.9905 482.643C20.6925 501.346 29.0946 517.71 42.1647 532.555Z"/>
<path fill-rule="evenodd" clip-rule="evenodd" d="M198.539 132.447C197.022 133.031 188.153 135.369 187.102 133.616C186.752 133.148 187.219 131.395 188.036 131.278C191.303 130.927 194.921 130.694 198.072 129.992C203.79 111.992 219.661 104.16 234.248 101.121C251.752 97.6144 271.007 102.991 291.663 105.913C292.713 106.147 293.88 106.264 294.814 106.264C294.463 106.965 293.997 107.433 293.53 108.134C284.894 119.94 271.357 130.811 258.171 136.187C249.302 139.928 238.682 142.032 228.296 141.681C217.327 141.214 208.108 138.759 198.539 132.447Z"/>
<path fill-rule="evenodd" clip-rule="evenodd" d="M232.731 83.2372C233.431 83.4709 233.431 83.2372 234.715 82.5358C237.165 80.1981 239.266 78.7954 241.716 76.5745C255.72 76.6914 269.024 72.4835 281.627 64.0675C287.228 60.3271 292.83 55.7685 297.498 50.2747C308.7 38.2353 317.686 20.5852 321.771 4.45465C322.004 3.51955 322.121 2.9351 322.237 2C321.187 2.46755 320.254 2.93512 319.203 3.40267C296.564 12.5199 274.625 16.7279 256.42 34.378C244.05 46.1837 237.632 60.444 240.199 74.2368C237.399 76.4577 234.481 78.5617 231.797 81.1332C230.63 82.1852 232.031 83.2372 232.731 83.2372Z"/>
<path fill-rule="evenodd" clip-rule="evenodd" d="M150.343 207.84C148.826 208.658 140.307 213.1 139.023 211.58C138.44 210.996 138.673 209.126 139.49 208.775C142.641 207.606 146.375 206.788 149.526 205.385C150.693 192.644 157.811 180.722 171.932 172.54C193.521 161.085 218.027 162.955 241.133 160.968C242.3 160.851 243.35 160.851 244.4 160.734C244.05 161.435 243.7 162.02 243.467 162.721C235.765 176.046 223.278 190.423 210.558 198.606C202.04 204.333 191.537 208.658 181.034 210.762C169.948 212.983 160.495 211.697 150.343 207.84Z"/>
<path fill-rule="evenodd" clip-rule="evenodd" d="M37.2634 404.445C44.2653 420.225 56.8685 437.525 75.3066 438.694C75.8901 440.33 79.2743 447.928 79.7411 449.097C80.0912 450.733 81.2582 452.486 82.7752 451.785C83.4754 451.551 84.1756 450.616 84.0589 448.98C82.3084 444.772 80.0912 441.499 77.9906 437.174C79.6244 408.186 77.9907 387.029 66.9044 363.184C54.3012 335.715 37.03 319.935 26.4106 312.221C25.127 311.052 23.6099 310.117 22.0928 309.182C19.6422 320.403 20.4591 337.819 21.9761 347.872C24.6602 368.21 28.978 386.094 37.2634 404.445Z"/>
<path fill-rule="evenodd" clip-rule="evenodd" d="M57.9188 288.025C60.9529 304.857 68.5382 321.806 85.3426 329.17C85.576 330.923 87.4431 339.105 87.6765 340.391C87.6765 342.144 88.26 344.131 89.8937 343.897C90.3605 343.781 91.5275 343.313 91.6442 341.56C90.944 337.118 89.6603 332.092 88.8435 327.299C94.4449 306.844 97.479 288.142 96.5454 268.154C95.0284 239.984 84.5257 215.554 67.9547 195.917C66.671 194.515 65.7375 192.995 64.5705 191.709C59.9026 201.411 56.8685 218.009 56.0516 227.945C54.3012 248.049 54.4179 268.271 57.9188 288.025Z"/>
<path fill-rule="evenodd" clip-rule="evenodd" d="M100.28 181.774C99.813 199.073 104.014 218.477 118.484 229.698C118.368 231.451 118.018 239.867 118.018 241.036C117.784 242.672 117.901 244.659 119.535 245.01C120.118 245.01 121.169 244.893 121.519 243.257C121.869 238.932 121.985 232.269 122.219 227.477C134.589 206.437 141.24 183.527 141.474 157.344C141.941 127.07 134.472 107.784 128.52 95.6273C127.704 93.9909 126.887 92.3544 126.07 90.718C119.535 98.6664 113.35 113.862 110.549 123.213C104.948 142.149 100.863 161.903 100.28 181.774Z"/>
<path fill-rule="evenodd" clip-rule="evenodd" d="M164.463 84.7567C160.729 101.004 161.779 124.849 173.916 134.668C173.449 136.772 172.398 144.019 172.282 145.655C171.815 147.409 171.465 149.045 172.865 149.746C173.449 149.98 173.916 149.98 174.616 148.461C175.433 143.902 175.666 140.162 176.366 135.486C193.637 117.018 203.44 98.7833 208.925 73.8861C214.409 47.8201 213.593 27.1309 211.259 12.5199C211.025 10.7666 210.558 9.01329 210.092 7.14308C194.921 19.2994 184.185 35.3131 175.083 53.5476C170.181 63.4831 166.33 73.6523 164.463 84.7567Z"/>
<path fill-rule="evenodd" clip-rule="evenodd" d="M111.599 307.311C110.199 308.597 102.497 315.961 100.63 315.026C100.163 314.559 99.813 312.104 100.63 311.636C103.547 309.299 107.282 307.545 110.199 305.324C109.265 291.298 112.416 277.037 125.136 263.712C144.741 244.659 170.765 238.231 194.454 228.412C195.504 227.945 196.555 227.36 197.838 226.893C197.605 227.711 197.488 228.646 197.138 229.464C192.47 245.828 183.135 264.881 171.815 277.739C164.463 286.388 154.544 294.688 144.158 300.181C133.305 306.026 123.036 307.896 111.599 307.311Z"/>
<path fill-rule="evenodd" clip-rule="evenodd" d="M95.2618 421.511C94.2115 423.381 88.0266 433.434 86.0427 432.966C85.2259 432.966 84.409 430.511 84.9925 429.576C87.5598 426.187 90.8273 423.498 93.0445 419.992C89.0768 407.134 90.944 388.549 100.513 370.782C115.684 344.833 137.856 332.209 159.328 314.091C160.262 313.156 161.196 312.338 162.246 311.286C162.363 312.104 162.479 313.039 162.363 314.091C161.896 331.858 157.228 354.184 148.942 371.015C143.574 382.354 135.639 393.692 126.537 403.16C117.084 412.628 107.048 418.121 95.2618 421.511Z"/>
<path fill-rule="evenodd" clip-rule="evenodd" d="M105.998 533.49C105.181 535.711 100.98 547.633 98.8794 548.101C98.1792 547.984 96.7789 546.231 97.3624 544.945C99.1128 540.971 101.097 536.412 102.73 532.321C95.4952 525.424 93.0446 506.255 98.8794 486.15C108.565 456.694 130.154 434.603 147.542 410.173C148.359 409.004 149.176 407.835 149.993 406.666C150.226 407.485 150.343 408.42 150.576 409.355C153.61 426.537 153.377 449.33 148.709 467.916C145.558 480.306 140.073 493.982 132.955 505.67C125.603 518.061 116.851 526.593 105.998 533.49Z"/>
<path fill-rule="evenodd" clip-rule="evenodd" d="M79.9745 664.521C93.1612 673.171 116.734 679.717 132.955 669.08C134.239 670.015 141.007 674.106 141.824 674.807C142.991 675.976 144.625 676.794 145.675 675.158C146.258 674.457 146.608 673.288 145.441 672.002C142.057 669.664 138.323 668.145 134.705 665.807C122.335 640.092 109.032 622.675 88.6101 609.818C65.2707 594.856 45.7823 594.622 33.2957 594.622C31.5453 594.622 29.7948 594.739 28.0444 594.739C31.0785 620.104 62.4699 653.651 79.9745 664.521Z"/>
<path fill-rule="evenodd" clip-rule="evenodd" d="M144.741 644.65C144.625 646.287 143.808 653.534 142.641 657.975C142.291 659.261 142.174 661.132 140.424 660.43C139.723 660.313 139.023 658.794 139.023 658.092C139.84 653.768 140.54 648.858 140.89 644.533C132.838 639.39 126.537 622.558 125.253 601.869C126.653 570.66 140.657 542.373 151.86 512.917C152.21 511.632 152.677 510.229 153.143 508.826C153.61 509.528 153.844 510.229 154.31 510.93C161.779 526.36 167.497 547.984 167.964 567.504C168.431 580.245 166.564 595.09 162.829 608.882C158.862 623.026 153.027 634.13 144.741 644.65Z"/>
<path fill-rule="evenodd" clip-rule="evenodd" d="M151.393 771.24C166.564 774.279 187.102 773.578 199.939 757.213C203.206 757.681 208.458 758.499 211.842 758.733C212.776 758.85 213.476 758.148 213.826 756.98C214.059 756.161 213.826 755.109 212.309 754.291C208.458 753.473 204.607 753.473 200.522 752.772C183.485 732.784 167.381 721.563 144.158 717.355C117.318 712.445 94.5616 719.342 82.4251 724.368C80.7914 724.952 79.0409 725.654 77.5239 726.472C81.8417 736.174 94.4449 746.109 102.38 750.901C117.551 760.954 133.072 768.201 151.393 771.24Z"/>
<path fill-rule="evenodd" clip-rule="evenodd" d="M205.657 729.043C205.89 730.797 206.124 737.81 206.124 742.485C206.007 743.771 206.357 745.525 204.607 745.641C203.79 745.641 202.856 744.589 202.856 743.771C202.506 739.446 202.74 734.771 202.039 730.329C193.054 727.524 181.151 713.848 175.666 695.029C169.364 664.872 176.249 633.78 179.517 601.869C179.75 600.466 179.634 599.064 179.75 597.544C180.334 598.129 181.034 598.713 181.618 599.298C192.587 611.337 203.557 629.922 208.808 648.157C212.426 660.079 214.293 674.807 214.293 688.951C214.059 703.796 211.025 716.303 205.657 729.043Z"/>
<path fill-rule="evenodd" clip-rule="evenodd" d="M290.612 790.41C291.429 791.695 292.48 797.54 293.647 801.982C293.997 803.033 294.697 804.67 293.063 805.254C292.246 805.605 291.196 804.904 290.963 804.202C289.445 800.462 289.445 796.488 287.578 792.747C278.826 794.851 263.655 783.747 253.736 769.253C239.966 744.239 238.449 714.9 233.081 685.094C232.964 683.691 232.497 682.405 232.264 681.002C232.964 681.119 233.664 681.587 234.365 681.821C247.551 688.483 262.605 700.289 272.291 714.783C278.943 724.134 285.128 737.109 288.629 750.083C292.246 763.759 292.363 776.734 290.612 790.41Z"/>
<path fill-rule="evenodd" clip-rule="evenodd" d="M242.883 846.048C258.404 843.944 278.476 836.814 287.345 816.943C290.496 816.008 295.981 815.424 299.248 814.489C300.182 814.372 300.648 813.32 300.765 812.034C300.765 811.333 300.298 810.281 298.665 810.047C294.814 810.631 290.963 811.8 286.645 812.268C264.122 798.942 245.918 792.864 222.228 796.254C195.038 800.111 175.199 813.787 164.58 822.554C163.063 823.84 161.546 825.008 160.145 826.294C166.68 834.359 181.384 839.736 190.136 842.074C207.291 846.866 224.095 848.737 242.883 846.048Z"/>
<path fill-rule="evenodd" clip-rule="evenodd" d="M1243.77 831.437C1373.77 813.436 1468.41 711.16 1511.59 571.362C1529.33 513.502 1531.89 449.33 1525.71 382.237C1514.27 262.426 1459.31 158.396 1379.14 82.5358C1378.79 82.1852 1378.67 82.0683 1378.55 82.4189C1378.32 82.7696 1377.62 83.1203 1377.27 83.354C1376.8 83.5878 1376.69 83.3541 1377.04 83.9385C1462.11 161.903 1516.72 285.921 1522.67 411.225C1531.89 590.18 1445.07 748.681 1314.95 803.267C1293.13 812.501 1270.26 819.515 1246.45 823.138C1244.82 825.242 1243.88 828.164 1243.77 831.437Z"/>
<path fill-rule="evenodd" clip-rule="evenodd" d="M1567.84 532.555C1557.22 545.179 1540.29 557.569 1522.09 552.776C1521.16 554.179 1516.37 561.192 1515.67 562.244C1514.85 563.53 1513.34 564.816 1512.17 563.764C1511.47 563.296 1510.89 562.244 1511.59 560.608C1514.27 557.335 1516.84 553.945 1519.87 550.438C1525.24 522.035 1533.06 503.099 1549.4 483.929C1568.3 461.954 1587.67 452.136 1599.69 448.045C1601.44 447.577 1603.08 447.11 1604.83 446.525C1606 457.513 1600.98 473.526 1597.01 482.643C1589.31 501.346 1580.91 517.71 1567.84 532.555Z"/>
<path fill-rule="evenodd" clip-rule="evenodd" d="M1411.46 132.447C1412.98 133.031 1421.85 135.369 1422.9 133.616C1423.25 133.148 1422.78 131.395 1421.96 131.278C1418.7 130.927 1415.08 130.694 1411.93 129.992C1406.21 111.992 1390.34 104.16 1375.75 101.121C1358.25 97.6144 1338.99 102.991 1318.34 105.913C1317.29 106.147 1316.12 106.264 1315.19 106.264C1315.54 106.965 1316 107.433 1316.47 108.134C1325.11 119.94 1338.64 130.811 1351.83 136.187C1360.7 139.928 1371.32 142.032 1381.7 141.681C1392.67 141.214 1401.89 138.759 1411.46 132.447Z"/>
<path fill-rule="evenodd" clip-rule="evenodd" d="M1377.27 83.2372C1376.57 83.4709 1376.57 83.2372 1375.29 82.5358C1372.83 80.1981 1370.73 78.7954 1368.28 76.5745C1354.28 76.6914 1340.98 72.4835 1328.37 64.0675C1322.77 60.3271 1317.17 55.7685 1312.5 50.2747C1301.3 38.2353 1292.31 20.5852 1288.23 4.45465C1288 3.51955 1287.88 2.9351 1287.76 2C1288.81 2.46755 1289.75 2.93512 1290.8 3.40267C1313.44 12.5199 1335.37 16.7279 1353.58 34.378C1365.95 46.1837 1372.37 60.444 1369.8 74.2368C1372.6 76.4577 1375.52 78.5617 1378.2 81.1332C1379.37 82.1852 1377.97 83.2372 1377.27 83.2372Z"/>
<path fill-rule="evenodd" clip-rule="evenodd" d="M1459.66 207.84C1461.17 208.658 1469.69 213.1 1470.98 211.58C1471.56 210.996 1471.33 209.126 1470.51 208.775C1467.36 207.606 1463.62 206.788 1460.47 205.385C1459.31 192.644 1452.19 180.722 1438.07 172.54C1416.48 161.085 1391.97 162.955 1368.87 160.968C1367.7 160.851 1366.65 160.851 1365.6 160.734C1365.95 161.435 1366.3 162.02 1366.53 162.721C1374.24 176.046 1386.72 190.423 1399.44 198.606C1407.96 204.333 1418.46 208.658 1428.97 210.762C1440.05 212.983 1449.5 211.697 1459.66 207.84Z"/>
<path fill-rule="evenodd" clip-rule="evenodd" d="M1572.74 404.445C1565.73 420.225 1553.13 437.525 1534.69 438.694C1534.11 440.33 1530.73 447.928 1530.26 449.097C1529.91 450.733 1528.74 452.486 1527.22 451.785C1526.52 451.551 1525.82 450.616 1525.94 448.98C1527.69 444.772 1529.91 441.499 1532.01 437.174C1530.38 408.186 1532.01 387.029 1543.1 363.184C1555.7 335.715 1572.97 319.935 1583.59 312.221C1584.87 311.052 1586.39 310.117 1587.91 309.182C1590.36 320.403 1589.54 337.819 1588.02 347.872C1585.34 368.21 1581.02 386.094 1572.74 404.445Z"/>
<path fill-rule="evenodd" clip-rule="evenodd" d="M1552.08 288.025C1549.05 304.857 1541.46 321.806 1524.66 329.17C1524.42 330.923 1522.56 339.105 1522.32 340.391C1522.32 342.144 1521.74 344.131 1520.11 343.897C1519.64 343.781 1518.47 343.313 1518.36 341.56C1519.06 337.118 1520.34 332.092 1521.16 327.299C1515.56 306.844 1512.52 288.142 1513.45 268.154C1514.97 239.984 1525.47 215.554 1542.05 195.917C1543.33 194.515 1544.26 192.995 1545.43 191.709C1550.1 201.411 1553.13 218.009 1553.95 227.945C1555.7 248.049 1555.58 268.271 1552.08 288.025Z"/>
<path fill-rule="evenodd" clip-rule="evenodd" d="M1509.72 181.774C1510.19 199.073 1505.99 218.477 1491.52 229.698C1491.63 231.451 1491.98 239.867 1491.98 241.036C1492.22 242.672 1492.1 244.659 1490.47 245.01C1489.88 245.01 1488.83 244.893 1488.48 243.257C1488.13 238.932 1488.01 232.269 1487.78 227.477C1475.41 206.437 1468.76 183.527 1468.53 157.344C1468.06 127.07 1475.53 107.784 1481.48 95.6273C1482.3 93.9909 1483.11 92.3544 1483.93 90.718C1490.47 98.6664 1496.65 113.862 1499.45 123.213C1505.05 142.149 1509.14 161.903 1509.72 181.774Z"/>
<path fill-rule="evenodd" clip-rule="evenodd" d="M1445.54 84.7567C1449.27 101.004 1448.22 124.849 1436.08 134.668C1436.55 136.772 1437.6 144.019 1437.72 145.655C1438.19 147.409 1438.54 149.045 1437.13 149.746C1436.55 149.98 1436.08 149.98 1435.38 148.461C1434.57 143.902 1434.33 140.162 1433.63 135.486C1416.36 117.018 1406.56 98.7833 1401.08 73.8861C1395.59 47.8201 1396.41 27.1309 1398.74 12.5199C1398.97 10.7666 1399.44 9.01329 1399.91 7.14308C1415.08 19.2994 1425.82 35.3131 1434.92 53.5476C1439.82 63.4831 1443.67 73.6523 1445.54 84.7567Z"/>
<path fill-rule="evenodd" clip-rule="evenodd" d="M1498.4 307.311C1499.8 308.597 1507.5 315.961 1509.37 315.026C1509.84 314.559 1510.19 312.104 1509.37 311.636C1506.45 309.299 1502.72 307.545 1499.8 305.324C1500.73 291.298 1497.58 277.037 1484.86 263.712C1465.26 244.659 1439.24 238.231 1415.55 228.412C1414.5 227.945 1413.45 227.36 1412.16 226.893C1412.39 227.711 1412.51 228.646 1412.86 229.464C1417.53 245.828 1426.87 264.881 1438.19 277.739C1445.54 286.388 1455.46 294.688 1465.84 300.181C1476.69 306.026 1486.96 307.896 1498.4 307.311Z"/>
<path fill-rule="evenodd" clip-rule="evenodd" d="M1514.74 421.511C1515.79 423.381 1521.97 433.434 1523.96 432.966C1524.77 432.966 1525.59 430.511 1525.01 429.576C1522.44 426.187 1519.17 423.498 1516.96 419.992C1520.92 407.134 1519.06 388.549 1509.49 370.782C1494.32 344.833 1472.14 332.209 1450.67 314.091C1449.74 313.156 1448.8 312.338 1447.75 311.286C1447.64 312.104 1447.52 313.039 1447.64 314.091C1448.1 331.858 1452.77 354.184 1461.06 371.015C1466.43 382.354 1474.36 393.692 1483.46 403.16C1492.92 412.628 1502.95 418.121 1514.74 421.511Z"/>
<path fill-rule="evenodd" clip-rule="evenodd" d="M1504 533.49C1504.82 535.711 1509.02 547.633 1511.12 548.101C1511.82 547.984 1513.22 546.231 1512.64 544.945C1510.89 540.971 1508.9 536.412 1507.27 532.321C1514.5 525.424 1516.96 506.255 1511.12 486.15C1501.43 456.694 1479.85 434.603 1462.46 410.173C1461.64 409.004 1460.82 407.835 1460.01 406.666C1459.77 407.485 1459.66 408.42 1459.42 409.355C1456.39 426.537 1456.62 449.33 1461.29 467.916C1464.44 480.306 1469.93 493.982 1477.05 505.67C1484.4 518.061 1493.15 526.593 1504 533.49Z"/>
<path fill-rule="evenodd" clip-rule="evenodd" d="M1530.03 664.521C1516.84 673.171 1493.27 679.717 1477.05 669.08C1475.76 670.015 1468.99 674.106 1468.18 674.807C1467.01 675.976 1465.38 676.794 1464.33 675.158C1463.74 674.457 1463.39 673.288 1464.56 672.002C1467.94 669.664 1471.68 668.145 1475.29 665.807C1487.66 640.092 1500.97 622.675 1521.39 609.818C1544.73 594.856 1564.22 594.622 1576.7 594.622C1578.45 594.622 1580.21 594.739 1581.96 594.739C1578.92 620.104 1547.53 653.651 1530.03 664.521Z"/>
<path fill-rule="evenodd" clip-rule="evenodd" d="M1465.26 644.65C1465.38 646.287 1466.19 653.534 1467.36 657.975C1467.71 659.261 1467.83 661.132 1469.58 660.43C1470.28 660.313 1470.98 658.794 1470.98 658.092C1470.16 653.768 1469.46 648.858 1469.11 644.533C1477.16 639.39 1483.46 622.558 1484.75 601.869C1483.35 570.66 1469.34 542.373 1458.14 512.917C1457.79 511.632 1457.32 510.229 1456.86 508.826C1456.39 509.528 1456.16 510.229 1455.69 510.93C1448.22 526.36 1442.5 547.984 1442.04 567.504C1441.57 580.245 1443.44 595.09 1447.17 608.882C1451.14 623.026 1456.97 634.13 1465.26 644.65Z"/>
<path fill-rule="evenodd" clip-rule="evenodd" d="M1458.61 771.24C1443.44 774.279 1422.9 773.578 1410.06 757.213C1406.79 757.681 1401.54 758.499 1398.16 758.733C1397.22 758.85 1396.52 758.148 1396.17 756.98C1395.94 756.161 1396.17 755.109 1397.69 754.291C1401.54 753.473 1405.39 753.473 1409.48 752.772C1426.52 732.784 1442.62 721.563 1465.84 717.355C1492.68 712.445 1515.44 719.342 1527.57 724.368C1529.21 724.952 1530.96 725.654 1532.48 726.472C1528.16 736.174 1515.56 746.109 1507.62 750.901C1492.45 760.954 1476.93 768.201 1458.61 771.24Z"/>
<path fill-rule="evenodd" clip-rule="evenodd" d="M1404.34 729.043C1404.11 730.797 1403.88 737.81 1403.88 742.485C1403.99 743.771 1403.64 745.525 1405.39 745.641C1406.21 745.641 1407.14 744.589 1407.14 743.771C1407.49 739.446 1407.26 734.771 1407.96 730.329C1416.95 727.524 1428.85 713.848 1434.33 695.029C1440.64 664.872 1433.75 633.78 1430.48 601.869C1430.25 600.466 1430.37 599.064 1430.25 597.544C1429.67 598.129 1428.97 598.713 1428.38 599.298C1417.41 611.337 1406.44 629.922 1401.19 648.157C1397.57 660.079 1395.71 674.807 1395.71 688.951C1395.94 703.796 1398.97 716.303 1404.34 729.043Z"/>
<path fill-rule="evenodd" clip-rule="evenodd" d="M1319.39 790.41C1318.57 791.695 1317.52 797.54 1316.35 801.982C1316 803.033 1315.3 804.67 1316.94 805.254C1317.75 805.605 1318.8 804.904 1319.04 804.202C1320.55 800.462 1320.55 796.488 1322.42 792.747C1331.17 794.851 1346.34 783.747 1356.26 769.253C1370.03 744.239 1371.55 714.9 1376.92 685.094C1377.04 683.691 1377.5 682.405 1377.74 681.002C1377.04 681.119 1376.34 681.587 1375.64 681.821C1362.45 688.483 1347.39 700.289 1337.71 714.783C1331.06 724.134 1324.87 737.109 1321.37 750.083C1317.75 763.759 1317.64 776.734 1319.39 790.41Z"/>
<path fill-rule="evenodd" clip-rule="evenodd" d="M1367.12 846.048C1351.6 843.944 1331.52 836.814 1322.66 816.943C1319.5 816.008 1314.02 815.424 1310.75 814.489C1309.82 814.372 1309.35 813.32 1309.23 812.034C1309.23 811.333 1309.7 810.281 1311.34 810.047C1315.19 810.631 1319.04 811.8 1323.36 812.268C1345.88 798.942 1364.08 792.864 1387.77 796.254C1414.96 800.111 1434.8 813.787 1445.42 822.554C1446.94 823.84 1448.45 825.008 1449.85 826.294C1443.32 834.359 1428.62 839.736 1419.86 842.074C1402.71 846.866 1385.9 848.737 1367.12 846.048Z"/>
</mask>
<path fill-rule="evenodd" clip-rule="evenodd" d="M366.232 831.437C236.232 813.436 141.59 711.16 98.4126 571.362C80.6747 513.502 78.1073 449.33 84.2923 382.237C95.7286 262.426 150.693 158.396 230.864 82.5358C231.214 82.1852 231.33 82.0683 231.447 82.4189C231.68 82.7696 232.381 83.1203 232.731 83.354C233.198 83.5878 233.314 83.3541 232.964 83.9385C147.892 161.903 93.278 285.921 87.3264 411.225C78.1074 590.18 164.93 748.681 295.047 803.267C316.869 812.501 339.742 819.515 363.548 823.138C365.182 825.242 366.115 828.164 366.232 831.437Z" fill="#93C5FD"/>
<path fill-rule="evenodd" clip-rule="evenodd" d="M42.1647 532.555C52.7841 545.179 69.7052 557.569 87.9099 552.776C88.8435 554.179 93.628 561.192 94.3282 562.244C95.1451 563.53 96.6622 564.816 97.8291 563.764C98.5293 563.296 99.1128 562.244 98.4126 560.608C95.7286 557.335 93.1612 553.945 90.1271 550.438C84.7591 522.035 76.9404 503.099 60.6028 483.929C41.6979 461.954 22.3262 452.136 10.3064 448.045C8.55598 447.577 6.92223 447.11 5.17178 446.525C4.00481 457.513 9.02277 473.526 12.9905 482.643C20.6925 501.346 29.0946 517.71 42.1647 532.555Z" fill="#93C5FD"/>
<path fill-rule="evenodd" clip-rule="evenodd" d="M198.539 132.447C197.022 133.031 188.153 135.369 187.102 133.616C186.752 133.148 187.219 131.395 188.036 131.278C191.303 130.927 194.921 130.694 198.072 129.992C203.79 111.992 219.661 104.16 234.248 101.121C251.752 97.6144 271.007 102.991 291.663 105.913C292.713 106.147 293.88 106.264 294.814 106.264C294.463 106.965 293.997 107.433 293.53 108.134C284.894 119.94 271.357 130.811 258.171 136.187C249.302 139.928 238.682 142.032 228.296 141.681C217.327 141.214 208.108 138.759 198.539 132.447Z" fill="#93C5FD"/>
<path fill-rule="evenodd" clip-rule="evenodd" d="M232.731 83.2372C233.431 83.4709 233.431 83.2372 234.715 82.5358C237.165 80.1981 239.266 78.7954 241.716 76.5745C255.72 76.6914 269.024 72.4835 281.627 64.0675C287.228 60.3271 292.83 55.7685 297.498 50.2747C308.7 38.2353 317.686 20.5852 321.771 4.45465C322.004 3.51955 322.121 2.9351 322.237 2C321.187 2.46755 320.254 2.93512 319.203 3.40267C296.564 12.5199 274.625 16.7279 256.42 34.378C244.05 46.1837 237.632 60.444 240.199 74.2368C237.399 76.4577 234.481 78.5617 231.797 81.1332C230.63 82.1852 232.031 83.2372 232.731 83.2372Z" fill="#93C5FD"/>
<path fill-rule="evenodd" clip-rule="evenodd" d="M150.343 207.84C148.826 208.658 140.307 213.1 139.023 211.58C138.44 210.996 138.673 209.126 139.49 208.775C142.641 207.606 146.375 206.788 149.526 205.385C150.693 192.644 157.811 180.722 171.932 172.54C193.521 161.085 218.027 162.955 241.133 160.968C242.3 160.851 243.35 160.851 244.4 160.734C244.05 161.435 243.7 162.02 243.467 162.721C235.765 176.046 223.278 190.423 210.558 198.606C202.04 204.333 191.537 208.658 181.034 210.762C169.948 212.983 160.495 211.697 150.343 207.84Z" fill="#93C5FD"/>
<path fill-rule="evenodd" clip-rule="evenodd" d="M37.2634 404.445C44.2653 420.225 56.8685 437.525 75.3066 438.694C75.8901 440.33 79.2743 447.928 79.7411 449.097C80.0912 450.733 81.2582 452.486 82.7752 451.785C83.4754 451.551 84.1756 450.616 84.0589 448.98C82.3084 444.772 80.0912 441.499 77.9906 437.174C79.6244 408.186 77.9907 387.029 66.9044 363.184C54.3012 335.715 37.03 319.935 26.4106 312.221C25.127 311.052 23.6099 310.117 22.0928 309.182C19.6422 320.403 20.4591 337.819 21.9761 347.872C24.6602 368.21 28.978 386.094 37.2634 404.445Z" fill="#93C5FD"/>
<path fill-rule="evenodd" clip-rule="evenodd" d="M57.9188 288.025C60.9529 304.857 68.5382 321.806 85.3426 329.17C85.576 330.923 87.4431 339.105 87.6765 340.391C87.6765 342.144 88.26 344.131 89.8937 343.897C90.3605 343.781 91.5275 343.313 91.6442 341.56C90.944 337.118 89.6603 332.092 88.8435 327.299C94.4449 306.844 97.479 288.142 96.5454 268.154C95.0284 239.984 84.5257 215.554 67.9547 195.917C66.671 194.515 65.7375 192.995 64.5705 191.709C59.9026 201.411 56.8685 218.009 56.0516 227.945C54.3012 248.049 54.4179 268.271 57.9188 288.025Z" fill="#93C5FD"/>
<path fill-rule="evenodd" clip-rule="evenodd" d="M100.28 181.774C99.813 199.073 104.014 218.477 118.484 229.698C118.368 231.451 118.018 239.867 118.018 241.036C117.784 242.672 117.901 244.659 119.535 245.01C120.118 245.01 121.169 244.893 121.519 243.257C121.869 238.932 121.985 232.269 122.219 227.477C134.589 206.437 141.24 183.527 141.474 157.344C141.941 127.07 134.472 107.784 128.52 95.6273C127.704 93.9909 126.887 92.3544 126.07 90.718C119.535 98.6664 113.35 113.862 110.549 123.213C104.948 142.149 100.863 161.903 100.28 181.774Z" fill="#93C5FD"/>
<path fill-rule="evenodd" clip-rule="evenodd" d="M164.463 84.7567C160.729 101.004 161.779 124.849 173.916 134.668C173.449 136.772 172.398 144.019 172.282 145.655C171.815 147.409 171.465 149.045 172.865 149.746C173.449 149.98 173.916 149.98 174.616 148.461C175.433 143.902 175.666 140.162 176.366 135.486C193.637 117.018 203.44 98.7833 208.925 73.8861C214.409 47.8201 213.593 27.1309 211.259 12.5199C211.025 10.7666 210.558 9.01329 210.092 7.14308C194.921 19.2994 184.185 35.3131 175.083 53.5476C170.181 63.4831 166.33 73.6523 164.463 84.7567Z" fill="#93C5FD"/>
<path fill-rule="evenodd" clip-rule="evenodd" d="M111.599 307.311C110.199 308.597 102.497 315.961 100.63 315.026C100.163 314.559 99.813 312.104 100.63 311.636C103.547 309.299 107.282 307.545 110.199 305.324C109.265 291.298 112.416 277.037 125.136 263.712C144.741 244.659 170.765 238.231 194.454 228.412C195.504 227.945 196.555 227.36 197.838 226.893C197.605 227.711 197.488 228.646 197.138 229.464C192.47 245.828 183.135 264.881 171.815 277.739C164.463 286.388 154.544 294.688 144.158 300.181C133.305 306.026 123.036 307.896 111.599 307.311Z" fill="#93C5FD"/>
<path fill-rule="evenodd" clip-rule="evenodd" d="M95.2618 421.511C94.2115 423.381 88.0266 433.434 86.0427 432.966C85.2259 432.966 84.409 430.511 84.9925 429.576C87.5598 426.187 90.8273 423.498 93.0445 419.992C89.0768 407.134 90.944 388.549 100.513 370.782C115.684 344.833 137.856 332.209 159.328 314.091C160.262 313.156 161.196 312.338 162.246 311.286C162.363 312.104 162.479 313.039 162.363 314.091C161.896 331.858 157.228 354.184 148.942 371.015C143.574 382.354 135.639 393.692 126.537 403.16C117.084 412.628 107.048 418.121 95.2618 421.511Z" fill="#93C5FD"/>
<path fill-rule="evenodd" clip-rule="evenodd" d="M105.998 533.49C105.181 535.711 100.98 547.633 98.8794 548.101C98.1792 547.984 96.7789 546.231 97.3624 544.945C99.1128 540.971 101.097 536.412 102.73 532.321C95.4952 525.424 93.0446 506.255 98.8794 486.15C108.565 456.694 130.154 434.603 147.542 410.173C148.359 409.004 149.176 407.835 149.993 406.666C150.226 407.485 150.343 408.42 150.576 409.355C153.61 426.537 153.377 449.33 148.709 467.916C145.558 480.306 140.073 493.982 132.955 505.67C125.603 518.061 116.851 526.593 105.998 533.49Z" fill="#93C5FD"/>
<path fill-rule="evenodd" clip-rule="evenodd" d="M79.9745 664.521C93.1612 673.171 116.734 679.717 132.955 669.08C134.239 670.015 141.007 674.106 141.824 674.807C142.991 675.976 144.625 676.794 145.675 675.158C146.258 674.457 146.608 673.288 145.441 672.002C142.057 669.664 138.323 668.145 134.705 665.807C122.335 640.092 109.032 622.675 88.6101 609.818C65.2707 594.856 45.7823 594.622 33.2957 594.622C31.5453 594.622 29.7948 594.739 28.0444 594.739C31.0785 620.104 62.4699 653.651 79.9745 664.521Z" fill="#93C5FD"/>
<path fill-rule="evenodd" clip-rule="evenodd" d="M144.741 644.65C144.625 646.287 143.808 653.534 142.641 657.975C142.291 659.261 142.174 661.132 140.424 660.43C139.723 660.313 139.023 658.794 139.023 658.092C139.84 653.768 140.54 648.858 140.89 644.533C132.838 639.39 126.537 622.558 125.253 601.869C126.653 570.66 140.657 542.373 151.86 512.917C152.21 511.632 152.677 510.229 153.143 508.826C153.61 509.528 153.844 510.229 154.31 510.93C161.779 526.36 167.497 547.984 167.964 567.504C168.431 580.245 166.564 595.09 162.829 608.882C158.862 623.026 153.027 634.13 144.741 644.65Z" fill="#93C5FD"/>
<path fill-rule="evenodd" clip-rule="evenodd" d="M151.393 771.24C166.564 774.279 187.102 773.578 199.939 757.213C203.206 757.681 208.458 758.499 211.842 758.733C212.776 758.85 213.476 758.148 213.826 756.98C214.059 756.161 213.826 755.109 212.309 754.291C208.458 753.473 204.607 753.473 200.522 752.772C183.485 732.784 167.381 721.563 144.158 717.355C117.318 712.445 94.5616 719.342 82.4251 724.368C80.7914 724.952 79.0409 725.654 77.5239 726.472C81.8417 736.174 94.4449 746.109 102.38 750.901C117.551 760.954 133.072 768.201 151.393 771.24Z" fill="#93C5FD"/>
<path fill-rule="evenodd" clip-rule="evenodd" d="M205.657 729.043C205.89 730.797 206.124 737.81 206.124 742.485C206.007 743.771 206.357 745.525 204.607 745.641C203.79 745.641 202.856 744.589 202.856 743.771C202.506 739.446 202.74 734.771 202.039 730.329C193.054 727.524 181.151 713.848 175.666 695.029C169.364 664.872 176.249 633.78 179.517 601.869C179.75 600.466 179.634 599.064 179.75 597.544C180.334 598.129 181.034 598.713 181.618 599.298C192.587 611.337 203.557 629.922 208.808 648.157C212.426 660.079 214.293 674.807 214.293 688.951C214.059 703.796 211.025 716.303 205.657 729.043Z" fill="#93C5FD"/>
<path fill-rule="evenodd" clip-rule="evenodd" d="M290.612 790.41C291.429 791.695 292.48 797.54 293.647 801.982C293.997 803.033 294.697 804.67 293.063 805.254C292.246 805.605 291.196 804.904 290.963 804.202C289.445 800.462 289.445 796.488 287.578 792.747C278.826 794.851 263.655 783.747 253.736 769.253C239.966 744.239 238.449 714.9 233.081 685.094C232.964 683.691 232.497 682.405 232.264 681.002C232.964 681.119 233.664 681.587 234.365 681.821C247.551 688.483 262.605 700.289 272.291 714.783C278.943 724.134 285.128 737.109 288.629 750.083C292.246 763.759 292.363 776.734 290.612 790.41Z" fill="#93C5FD"/>
<path fill-rule="evenodd" clip-rule="evenodd" d="M242.883 846.048C258.404 843.944 278.476 836.814 287.345 816.943C290.496 816.008 295.981 815.424 299.248 814.489C300.182 814.372 300.648 813.32 300.765 812.034C300.765 811.333 300.298 810.281 298.665 810.047C294.814 810.631 290.963 811.8 286.645 812.268C264.122 798.942 245.918 792.864 222.228 796.254C195.038 800.111 175.199 813.787 164.58 822.554C163.063 823.84 161.546 825.008 160.145 826.294C166.68 834.359 181.384 839.736 190.136 842.074C207.291 846.866 224.095 848.737 242.883 846.048Z" fill="#93C5FD"/>
<path fill-rule="evenodd" clip-rule="evenodd" d="M1243.77 831.437C1373.77 813.436 1468.41 711.16 1511.59 571.362C1529.33 513.502 1531.89 449.33 1525.71 382.237C1514.27 262.426 1459.31 158.396 1379.14 82.5358C1378.79 82.1852 1378.67 82.0683 1378.55 82.4189C1378.32 82.7696 1377.62 83.1203 1377.27 83.354C1376.8 83.5878 1376.69 83.3541 1377.04 83.9385C1462.11 161.903 1516.72 285.921 1522.67 411.225C1531.89 590.18 1445.07 748.681 1314.95 803.267C1293.13 812.501 1270.26 819.515 1246.45 823.138C1244.82 825.242 1243.88 828.164 1243.77 831.437Z" fill="#93C5FD"/>
<path fill-rule="evenodd" clip-rule="evenodd" d="M1567.84 532.555C1557.22 545.179 1540.29 557.569 1522.09 552.776C1521.16 554.179 1516.37 561.192 1515.67 562.244C1514.85 563.53 1513.34 564.816 1512.17 563.764C1511.47 563.296 1510.89 562.244 1511.59 560.608C1514.27 557.335 1516.84 553.945 1519.87 550.438C1525.24 522.035 1533.06 503.099 1549.4 483.929C1568.3 461.954 1587.67 452.136 1599.69 448.045C1601.44 447.577 1603.08 447.11 1604.83 446.525C1606 457.513 1600.98 473.526 1597.01 482.643C1589.31 501.346 1580.91 517.71 1567.84 532.555Z" fill="#93C5FD"/>
<path fill-rule="evenodd" clip-rule="evenodd" d="M1411.46 132.447C1412.98 133.031 1421.85 135.369 1422.9 133.616C1423.25 133.148 1422.78 131.395 1421.96 131.278C1418.7 130.927 1415.08 130.694 1411.93 129.992C1406.21 111.992 1390.34 104.16 1375.75 101.121C1358.25 97.6144 1338.99 102.991 1318.34 105.913C1317.29 106.147 1316.12 106.264 1315.19 106.264C1315.54 106.965 1316 107.433 1316.47 108.134C1325.11 119.94 1338.64 130.811 1351.83 136.187C1360.7 139.928 1371.32 142.032 1381.7 141.681C1392.67 141.214 1401.89 138.759 1411.46 132.447Z" fill="#93C5FD"/>
<path fill-rule="evenodd" clip-rule="evenodd" d="M1377.27 83.2372C1376.57 83.4709 1376.57 83.2372 1375.29 82.5358C1372.83 80.1981 1370.73 78.7954 1368.28 76.5745C1354.28 76.6914 1340.98 72.4835 1328.37 64.0675C1322.77 60.3271 1317.17 55.7685 1312.5 50.2747C1301.3 38.2353 1292.31 20.5852 1288.23 4.45465C1288 3.51955 1287.88 2.9351 1287.76 2C1288.81 2.46755 1289.75 2.93512 1290.8 3.40267C1313.44 12.5199 1335.37 16.7279 1353.58 34.378C1365.95 46.1837 1372.37 60.444 1369.8 74.2368C1372.6 76.4577 1375.52 78.5617 1378.2 81.1332C1379.37 82.1852 1377.97 83.2372 1377.27 83.2372Z" fill="#93C5FD"/>
<path fill-rule="evenodd" clip-rule="evenodd" d="M1459.66 207.84C1461.17 208.658 1469.69 213.1 1470.98 211.58C1471.56 210.996 1471.33 209.126 1470.51 208.775C1467.36 207.606 1463.62 206.788 1460.47 205.385C1459.31 192.644 1452.19 180.722 1438.07 172.54C1416.48 161.085 1391.97 162.955 1368.87 160.968C1367.7 160.851 1366.65 160.851 1365.6 160.734C1365.95 161.435 1366.3 162.02 1366.53 162.721C1374.24 176.046 1386.72 190.423 1399.44 198.606C1407.96 204.333 1418.46 208.658 1428.97 210.762C1440.05 212.983 1449.5 211.697 1459.66 207.84Z" fill="#93C5FD"/>
<path fill-rule="evenodd" clip-rule="evenodd" d="M1572.74 404.445C1565.73 420.225 1553.13 437.525 1534.69 438.694C1534.11 440.33 1530.73 447.928 1530.26 449.097C1529.91 450.733 1528.74 452.486 1527.22 451.785C1526.52 451.551 1525.82 450.616 1525.94 448.98C1527.69 444.772 1529.91 441.499 1532.01 437.174C1530.38 408.186 1532.01 387.029 1543.1 363.184C1555.7 335.715 1572.97 319.935 1583.59 312.221C1584.87 311.052 1586.39 310.117 1587.91 309.182C1590.36 320.403 1589.54 337.819 1588.02 347.872C1585.34 368.21 1581.02 386.094 1572.74 404.445Z" fill="#93C5FD"/>
<path fill-rule="evenodd" clip-rule="evenodd" d="M1552.08 288.025C1549.05 304.857 1541.46 321.806 1524.66 329.17C1524.42 330.923 1522.56 339.105 1522.32 340.391C1522.32 342.144 1521.74 344.131 1520.11 343.897C1519.64 343.781 1518.47 343.313 1518.36 341.56C1519.06 337.118 1520.34 332.092 1521.16 327.299C1515.56 306.844 1512.52 288.142 1513.45 268.154C1514.97 239.984 1525.47 215.554 1542.05 195.917C1543.33 194.515 1544.26 192.995 1545.43 191.709C1550.1 201.411 1553.13 218.009 1553.95 227.945C1555.7 248.049 1555.58 268.271 1552.08 288.025Z" fill="#93C5FD"/>
<path fill-rule="evenodd" clip-rule="evenodd" d="M1509.72 181.774C1510.19 199.073 1505.99 218.477 1491.52 229.698C1491.63 231.451 1491.98 239.867 1491.98 241.036C1492.22 242.672 1492.1 244.659 1490.47 245.01C1489.88 245.01 1488.83 244.893 1488.48 243.257C1488.13 238.932 1488.01 232.269 1487.78 227.477C1475.41 206.437 1468.76 183.527 1468.53 157.344C1468.06 127.07 1475.53 107.784 1481.48 95.6273C1482.3 93.9909 1483.11 92.3544 1483.93 90.718C1490.47 98.6664 1496.65 113.862 1499.45 123.213C1505.05 142.149 1509.14 161.903 1509.72 181.774Z" fill="#93C5FD"/>
<path fill-rule="evenodd" clip-rule="evenodd" d="M1445.54 84.7567C1449.27 101.004 1448.22 124.849 1436.08 134.668C1436.55 136.772 1437.6 144.019 1437.72 145.655C1438.19 147.409 1438.54 149.045 1437.13 149.746C1436.55 149.98 1436.08 149.98 1435.38 148.461C1434.57 143.902 1434.33 140.162 1433.63 135.486C1416.36 117.018 1406.56 98.7833 1401.08 73.8861C1395.59 47.8201 1396.41 27.1309 1398.74 12.5199C1398.97 10.7666 1399.44 9.01329 1399.91 7.14308C1415.08 19.2994 1425.82 35.3131 1434.92 53.5476C1439.82 63.4831 1443.67 73.6523 1445.54 84.7567Z" fill="#93C5FD"/>
<path fill-rule="evenodd" clip-rule="evenodd" d="M1498.4 307.311C1499.8 308.597 1507.5 315.961 1509.37 315.026C1509.84 314.559 1510.19 312.104 1509.37 311.636C1506.45 309.299 1502.72 307.545 1499.8 305.324C1500.73 291.298 1497.58 277.037 1484.86 263.712C1465.26 244.659 1439.24 238.231 1415.55 228.412C1414.5 227.945 1413.45 227.36 1412.16 226.893C1412.39 227.711 1412.51 228.646 1412.86 229.464C1417.53 245.828 1426.87 264.881 1438.19 277.739C1445.54 286.388 1455.46 294.688 1465.84 300.181C1476.69 306.026 1486.96 307.896 1498.4 307.311Z" fill="#93C5FD"/>
<path fill-rule="evenodd" clip-rule="evenodd" d="M1514.74 421.511C1515.79 423.381 1521.97 433.434 1523.96 432.966C1524.77 432.966 1525.59 430.511 1525.01 429.576C1522.44 426.187 1519.17 423.498 1516.96 419.992C1520.92 407.134 1519.06 388.549 1509.49 370.782C1494.32 344.833 1472.14 332.209 1450.67 314.091C1449.74 313.156 1448.8 312.338 1447.75 311.286C1447.64 312.104 1447.52 313.039 1447.64 314.091C1448.1 331.858 1452.77 354.184 1461.06 371.015C1466.43 382.354 1474.36 393.692 1483.46 403.16C1492.92 412.628 1502.95 418.121 1514.74 421.511Z" fill="#93C5FD"/>
<path fill-rule="evenodd" clip-rule="evenodd" d="M1504 533.49C1504.82 535.711 1509.02 547.633 1511.12 548.101C1511.82 547.984 1513.22 546.231 1512.64 544.945C1510.89 540.971 1508.9 536.412 1507.27 532.321C1514.5 525.424 1516.96 506.255 1511.12 486.15C1501.43 456.694 1479.85 434.603 1462.46 410.173C1461.64 409.004 1460.82 407.835 1460.01 406.666C1459.77 407.485 1459.66 408.42 1459.42 409.355C1456.39 426.537 1456.62 449.33 1461.29 467.916C1464.44 480.306 1469.93 493.982 1477.05 505.67C1484.4 518.061 1493.15 526.593 1504 533.49Z" fill="#93C5FD"/>
<path fill-rule="evenodd" clip-rule="evenodd" d="M1530.03 664.521C1516.84 673.171 1493.27 679.717 1477.05 669.08C1475.76 670.015 1468.99 674.106 1468.18 674.807C1467.01 675.976 1465.38 676.794 1464.33 675.158C1463.74 674.457 1463.39 673.288 1464.56 672.002C1467.94 669.664 1471.68 668.145 1475.29 665.807C1487.66 640.092 1500.97 622.675 1521.39 609.818C1544.73 594.856 1564.22 594.622 1576.7 594.622C1578.45 594.622 1580.21 594.739 1581.96 594.739C1578.92 620.104 1547.53 653.651 1530.03 664.521Z" fill="#93C5FD"/>
<path fill-rule="evenodd" clip-rule="evenodd" d="M1465.26 644.65C1465.38 646.287 1466.19 653.534 1467.36 657.975C1467.71 659.261 1467.83 661.132 1469.58 660.43C1470.28 660.313 1470.98 658.794 1470.98 658.092C1470.16 653.768 1469.46 648.858 1469.11 644.533C1477.16 639.39 1483.46 622.558 1484.75 601.869C1483.35 570.66 1469.34 542.373 1458.14 512.917C1457.79 511.632 1457.32 510.229 1456.86 508.826C1456.39 509.528 1456.16 510.229 1455.69 510.93C1448.22 526.36 1442.5 547.984 1442.04 567.504C1441.57 580.245 1443.44 595.09 1447.17 608.882C1451.14 623.026 1456.97 634.13 1465.26 644.65Z" fill="#93C5FD"/>
<path fill-rule="evenodd" clip-rule="evenodd" d="M1458.61 771.24C1443.44 774.279 1422.9 773.578 1410.06 757.213C1406.79 757.681 1401.54 758.499 1398.16 758.733C1397.22 758.85 1396.52 758.148 1396.17 756.98C1395.94 756.161 1396.17 755.109 1397.69 754.291C1401.54 753.473 1405.39 753.473 1409.48 752.772C1426.52 732.784 1442.62 721.563 1465.84 717.355C1492.68 712.445 1515.44 719.342 1527.57 724.368C1529.21 724.952 1530.96 725.654 1532.48 726.472C1528.16 736.174 1515.56 746.109 1507.62 750.901C1492.45 760.954 1476.93 768.201 1458.61 771.24Z" fill="#93C5FD"/>
<path fill-rule="evenodd" clip-rule="evenodd" d="M1404.34 729.043C1404.11 730.797 1403.88 737.81 1403.88 742.485C1403.99 743.771 1403.64 745.525 1405.39 745.641C1406.21 745.641 1407.14 744.589 1407.14 743.771C1407.49 739.446 1407.26 734.771 1407.96 730.329C1416.95 727.524 1428.85 713.848 1434.33 695.029C1440.64 664.872 1433.75 633.78 1430.48 601.869C1430.25 600.466 1430.37 599.064 1430.25 597.544C1429.67 598.129 1428.97 598.713 1428.38 599.298C1417.41 611.337 1406.44 629.922 1401.19 648.157C1397.57 660.079 1395.71 674.807 1395.71 688.951C1395.94 703.796 1398.97 716.303 1404.34 729.043Z" fill="#93C5FD"/>
<path fill-rule="evenodd" clip-rule="evenodd" d="M1319.39 790.41C1318.57 791.695 1317.52 797.54 1316.35 801.982C1316 803.033 1315.3 804.67 1316.94 805.254C1317.75 805.605 1318.8 804.904 1319.04 804.202C1320.55 800.462 1320.55 796.488 1322.42 792.747C1331.17 794.851 1346.34 783.747 1356.26 769.253C1370.03 744.239 1371.55 714.9 1376.92 685.094C1377.04 683.691 1377.5 682.405 1377.74 681.002C1377.04 681.119 1376.34 681.587 1375.64 681.821C1362.45 688.483 1347.39 700.289 1337.71 714.783C1331.06 724.134 1324.87 737.109 1321.37 750.083C1317.75 763.759 1317.64 776.734 1319.39 790.41Z" fill="#93C5FD"/>
<path fill-rule="evenodd" clip-rule="evenodd" d="M1367.12 846.048C1351.6 843.944 1331.52 836.814 1322.66 816.943C1319.5 816.008 1314.02 815.424 1310.75 814.489C1309.82 814.372 1309.35 813.32 1309.23 812.034C1309.23 811.333 1309.7 810.281 1311.34 810.047C1315.19 810.631 1319.04 811.8 1323.36 812.268C1345.88 798.942 1364.08 792.864 1387.77 796.254C1414.96 800.111 1434.8 813.787 1445.42 822.554C1446.94 823.84 1448.45 825.008 1449.85 826.294C1443.32 834.359 1428.62 839.736 1419.86 842.074C1402.71 846.866 1385.9 848.737 1367.12 846.048Z" fill="#93C5FD"/>
<path fill-rule="evenodd" clip-rule="evenodd" d="M366.232 831.437C236.232 813.436 141.59 711.16 98.4126 571.362C80.6747 513.502 78.1073 449.33 84.2923 382.237C95.7286 262.426 150.693 158.396 230.864 82.5358C231.214 82.1852 231.33 82.0683 231.447 82.4189C231.68 82.7696 232.381 83.1203 232.731 83.354C233.198 83.5878 233.314 83.3541 232.964 83.9385C147.892 161.903 93.278 285.921 87.3264 411.225C78.1074 590.18 164.93 748.681 295.047 803.267C316.869 812.501 339.742 819.515 363.548 823.138C365.182 825.242 366.115 828.164 366.232 831.437Z" stroke="#93C5FD" stroke-width="2" mask="url(#path-1-outside-1_0_1)"/>
<path fill-rule="evenodd" clip-rule="evenodd" d="M42.1647 532.555C52.7841 545.179 69.7052 557.569 87.9099 552.776C88.8435 554.179 93.628 561.192 94.3282 562.244C95.1451 563.53 96.6622 564.816 97.8291 563.764C98.5293 563.296 99.1128 562.244 98.4126 560.608C95.7286 557.335 93.1612 553.945 90.1271 550.438C84.7591 522.035 76.9404 503.099 60.6028 483.929C41.6979 461.954 22.3262 452.136 10.3064 448.045C8.55598 447.577 6.92223 447.11 5.17178 446.525C4.00481 457.513 9.02277 473.526 12.9905 482.643C20.6925 501.346 29.0946 517.71 42.1647 532.555Z" stroke="#93C5FD" stroke-width="2" mask="url(#path-1-outside-1_0_1)"/>
<path fill-rule="evenodd" clip-rule="evenodd" d="M198.539 132.447C197.022 133.031 188.153 135.369 187.102 133.616C186.752 133.148 187.219 131.395 188.036 131.278C191.303 130.927 194.921 130.694 198.072 129.992C203.79 111.992 219.661 104.16 234.248 101.121C251.752 97.6144 271.007 102.991 291.663 105.913C292.713 106.147 293.88 106.264 294.814 106.264C294.463 106.965 293.997 107.433 293.53 108.134C284.894 119.94 271.357 130.811 258.171 136.187C249.302 139.928 238.682 142.032 228.296 141.681C217.327 141.214 208.108 138.759 198.539 132.447Z" stroke="#93C5FD" stroke-width="2" mask="url(#path-1-outside-1_0_1)"/>
<path fill-rule="evenodd" clip-rule="evenodd" d="M232.731 83.2372C233.431 83.4709 233.431 83.2372 234.715 82.5358C237.165 80.1981 239.266 78.7954 241.716 76.5745C255.72 76.6914 269.024 72.4835 281.627 64.0675C287.228 60.3271 292.83 55.7685 297.498 50.2747C308.7 38.2353 317.686 20.5852 321.771 4.45465C322.004 3.51955 322.121 2.9351 322.237 2C321.187 2.46755 320.254 2.93512 319.203 3.40267C296.564 12.5199 274.625 16.7279 256.42 34.378C244.05 46.1837 237.632 60.444 240.199 74.2368C237.399 76.4577 234.481 78.5617 231.797 81.1332C230.63 82.1852 232.031 83.2372 232.731 83.2372Z" stroke="#93C5FD" stroke-width="2" mask="url(#path-1-outside-1_0_1)"/>
<path fill-rule="evenodd" clip-rule="evenodd" d="M150.343 207.84C148.826 208.658 140.307 213.1 139.023 211.58C138.44 210.996 138.673 209.126 139.49 208.775C142.641 207.606 146.375 206.788 149.526 205.385C150.693 192.644 157.811 180.722 171.932 172.54C193.521 161.085 218.027 162.955 241.133 160.968C242.3 160.851 243.35 160.851 244.4 160.734C244.05 161.435 243.7 162.02 243.467 162.721C235.765 176.046 223.278 190.423 210.558 198.606C202.04 204.333 191.537 208.658 181.034 210.762C169.948 212.983 160.495 211.697 150.343 207.84Z" stroke="#93C5FD" stroke-width="2" mask="url(#path-1-outside-1_0_1)"/>
<path fill-rule="evenodd" clip-rule="evenodd" d="M37.2634 404.445C44.2653 420.225 56.8685 437.525 75.3066 438.694C75.8901 440.33 79.2743 447.928 79.7411 449.097C80.0912 450.733 81.2582 452.486 82.7752 451.785C83.4754 451.551 84.1756 450.616 84.0589 448.98C82.3084 444.772 80.0912 441.499 77.9906 437.174C79.6244 408.186 77.9907 387.029 66.9044 363.184C54.3012 335.715 37.03 319.935 26.4106 312.221C25.127 311.052 23.6099 310.117 22.0928 309.182C19.6422 320.403 20.4591 337.819 21.9761 347.872C24.6602 368.21 28.978 386.094 37.2634 404.445Z" stroke="#93C5FD" stroke-width="2" mask="url(#path-1-outside-1_0_1)"/>
<path fill-rule="evenodd" clip-rule="evenodd" d="M57.9188 288.025C60.9529 304.857 68.5382 321.806 85.3426 329.17C85.576 330.923 87.4431 339.105 87.6765 340.391C87.6765 342.144 88.26 344.131 89.8937 343.897C90.3605 343.781 91.5275 343.313 91.6442 341.56C90.944 337.118 89.6603 332.092 88.8435 327.299C94.4449 306.844 97.479 288.142 96.5454 268.154C95.0284 239.984 84.5257 215.554 67.9547 195.917C66.671 194.515 65.7375 192.995 64.5705 191.709C59.9026 201.411 56.8685 218.009 56.0516 227.945C54.3012 248.049 54.4179 268.271 57.9188 288.025Z" stroke="#93C5FD" stroke-width="2" mask="url(#path-1-outside-1_0_1)"/>
<path fill-rule="evenodd" clip-rule="evenodd" d="M100.28 181.774C99.813 199.073 104.014 218.477 118.484 229.698C118.368 231.451 118.018 239.867 118.018 241.036C117.784 242.672 117.901 244.659 119.535 245.01C120.118 245.01 121.169 244.893 121.519 243.257C121.869 238.932 121.985 232.269 122.219 227.477C134.589 206.437 141.24 183.527 141.474 157.344C141.941 127.07 134.472 107.784 128.52 95.6273C127.704 93.9909 126.887 92.3544 126.07 90.718C119.535 98.6664 113.35 113.862 110.549 123.213C104.948 142.149 100.863 161.903 100.28 181.774Z" stroke="#93C5FD" stroke-width="2" mask="url(#path-1-outside-1_0_1)"/>
<path fill-rule="evenodd" clip-rule="evenodd" d="M164.463 84.7567C160.729 101.004 161.779 124.849 173.916 134.668C173.449 136.772 172.398 144.019 172.282 145.655C171.815 147.409 171.465 149.045 172.865 149.746C173.449 149.98 173.916 149.98 174.616 148.461C175.433 143.902 175.666 140.162 176.366 135.486C193.637 117.018 203.44 98.7833 208.925 73.8861C214.409 47.8201 213.593 27.1309 211.259 12.5199C211.025 10.7666 210.558 9.01329 210.092 7.14308C194.921 19.2994 184.185 35.3131 175.083 53.5476C170.181 63.4831 166.33 73.6523 164.463 84.7567Z" stroke="#93C5FD" stroke-width="2" mask="url(#path-1-outside-1_0_1)"/>
<path fill-rule="evenodd" clip-rule="evenodd" d="M111.599 307.311C110.199 308.597 102.497 315.961 100.63 315.026C100.163 314.559 99.813 312.104 100.63 311.636C103.547 309.299 107.282 307.545 110.199 305.324C109.265 291.298 112.416 277.037 125.136 263.712C144.741 244.659 170.765 238.231 194.454 228.412C195.504 227.945 196.555 227.36 197.838 226.893C197.605 227.711 197.488 228.646 197.138 229.464C192.47 245.828 183.135 264.881 171.815 277.739C164.463 286.388 154.544 294.688 144.158 300.181C133.305 306.026 123.036 307.896 111.599 307.311Z" stroke="#93C5FD" stroke-width="2" mask="url(#path-1-outside-1_0_1)"/>
<path fill-rule="evenodd" clip-rule="evenodd" d="M95.2618 421.511C94.2115 423.381 88.0266 433.434 86.0427 432.966C85.2259 432.966 84.409 430.511 84.9925 429.576C87.5598 426.187 90.8273 423.498 93.0445 419.992C89.0768 407.134 90.944 388.549 100.513 370.782C115.684 344.833 137.856 332.209 159.328 314.091C160.262 313.156 161.196 312.338 162.246 311.286C162.363 312.104 162.479 313.039 162.363 314.091C161.896 331.858 157.228 354.184 148.942 371.015C143.574 382.354 135.639 393.692 126.537 403.16C117.084 412.628 107.048 418.121 95.2618 421.511Z" stroke="#93C5FD" stroke-width="2" mask="url(#path-1-outside-1_0_1)"/>
<path fill-rule="evenodd" clip-rule="evenodd" d="M105.998 533.49C105.181 535.711 100.98 547.633 98.8794 548.101C98.1792 547.984 96.7789 546.231 97.3624 544.945C99.1128 540.971 101.097 536.412 102.73 532.321C95.4952 525.424 93.0446 506.255 98.8794 486.15C108.565 456.694 130.154 434.603 147.542 410.173C148.359 409.004 149.176 407.835 149.993 406.666C150.226 407.485 150.343 408.42 150.576 409.355C153.61 426.537 153.377 449.33 148.709 467.916C145.558 480.306 140.073 493.982 132.955 505.67C125.603 518.061 116.851 526.593 105.998 533.49Z" stroke="#93C5FD" stroke-width="2" mask="url(#path-1-outside-1_0_1)"/>
<path fill-rule="evenodd" clip-rule="evenodd" d="M79.9745 664.521C93.1612 673.171 116.734 679.717 132.955 669.08C134.239 670.015 141.007 674.106 141.824 674.807C142.991 675.976 144.625 676.794 145.675 675.158C146.258 674.457 146.608 673.288 145.441 672.002C142.057 669.664 138.323 668.145 134.705 665.807C122.335 640.092 109.032 622.675 88.6101 609.818C65.2707 594.856 45.7823 594.622 33.2957 594.622C31.5453 594.622 29.7948 594.739 28.0444 594.739C31.0785 620.104 62.4699 653.651 79.9745 664.521Z" stroke="#93C5FD" stroke-width="2" mask="url(#path-1-outside-1_0_1)"/>
<path fill-rule="evenodd" clip-rule="evenodd" d="M144.741 644.65C144.625 646.287 143.808 653.534 142.641 657.975C142.291 659.261 142.174 661.132 140.424 660.43C139.723 660.313 139.023 658.794 139.023 658.092C139.84 653.768 140.54 648.858 140.89 644.533C132.838 639.39 126.537 622.558 125.253 601.869C126.653 570.66 140.657 542.373 151.86 512.917C152.21 511.632 152.677 510.229 153.143 508.826C153.61 509.528 153.844 510.229 154.31 510.93C161.779 526.36 167.497 547.984 167.964 567.504C168.431 580.245 166.564 595.09 162.829 608.882C158.862 623.026 153.027 634.13 144.741 644.65Z" stroke="#93C5FD" stroke-width="2" mask="url(#path-1-outside-1_0_1)"/>
<path fill-rule="evenodd" clip-rule="evenodd" d="M151.393 771.24C166.564 774.279 187.102 773.578 199.939 757.213C203.206 757.681 208.458 758.499 211.842 758.733C212.776 758.85 213.476 758.148 213.826 756.98C214.059 756.161 213.826 755.109 212.309 754.291C208.458 753.473 204.607 753.473 200.522 752.772C183.485 732.784 167.381 721.563 144.158 717.355C117.318 712.445 94.5616 719.342 82.4251 724.368C80.7914 724.952 79.0409 725.654 77.5239 726.472C81.8417 736.174 94.4449 746.109 102.38 750.901C117.551 760.954 133.072 768.201 151.393 771.24Z" stroke="#93C5FD" stroke-width="2" mask="url(#path-1-outside-1_0_1)"/>
<path fill-rule="evenodd" clip-rule="evenodd" d="M205.657 729.043C205.89 730.797 206.124 737.81 206.124 742.485C206.007 743.771 206.357 745.525 204.607 745.641C203.79 745.641 202.856 744.589 202.856 743.771C202.506 739.446 202.74 734.771 202.039 730.329C193.054 727.524 181.151 713.848 175.666 695.029C169.364 664.872 176.249 633.78 179.517 601.869C179.75 600.466 179.634 599.064 179.75 597.544C180.334 598.129 181.034 598.713 181.618 599.298C192.587 611.337 203.557 629.922 208.808 648.157C212.426 660.079 214.293 674.807 214.293 688.951C214.059 703.796 211.025 716.303 205.657 729.043Z" stroke="#93C5FD" stroke-width="2" mask="url(#path-1-outside-1_0_1)"/>
<path fill-rule="evenodd" clip-rule="evenodd" d="M290.612 790.41C291.429 791.695 292.48 797.54 293.647 801.982C293.997 803.033 294.697 804.67 293.063 805.254C292.246 805.605 291.196 804.904 290.963 804.202C289.445 800.462 289.445 796.488 287.578 792.747C278.826 794.851 263.655 783.747 253.736 769.253C239.966 744.239 238.449 714.9 233.081 685.094C232.964 683.691 232.497 682.405 232.264 681.002C232.964 681.119 233.664 681.587 234.365 681.821C247.551 688.483 262.605 700.289 272.291 714.783C278.943 724.134 285.128 737.109 288.629 750.083C292.246 763.759 292.363 776.734 290.612 790.41Z" stroke="#93C5FD" stroke-width="2" mask="url(#path-1-outside-1_0_1)"/>
<path fill-rule="evenodd" clip-rule="evenodd" d="M242.883 846.048C258.404 843.944 278.476 836.814 287.345 816.943C290.496 816.008 295.981 815.424 299.248 814.489C300.182 814.372 300.648 813.32 300.765 812.034C300.765 811.333 300.298 810.281 298.665 810.047C294.814 810.631 290.963 811.8 286.645 812.268C264.122 798.942 245.918 792.864 222.228 796.254C195.038 800.111 175.199 813.787 164.58 822.554C163.063 823.84 161.546 825.008 160.145 826.294C166.68 834.359 181.384 839.736 190.136 842.074C207.291 846.866 224.095 848.737 242.883 846.048Z" stroke="#93C5FD" stroke-width="2" mask="url(#path-1-outside-1_0_1)"/>
<path fill-rule="evenodd" clip-rule="evenodd" d="M1243.77 831.437C1373.77 813.436 1468.41 711.16 1511.59 571.362C1529.33 513.502 1531.89 449.33 1525.71 382.237C1514.27 262.426 1459.31 158.396 1379.14 82.5358C1378.79 82.1852 1378.67 82.0683 1378.55 82.4189C1378.32 82.7696 1377.62 83.1203 1377.27 83.354C1376.8 83.5878 1376.69 83.3541 1377.04 83.9385C1462.11 161.903 1516.72 285.921 1522.67 411.225C1531.89 590.18 1445.07 748.681 1314.95 803.267C1293.13 812.501 1270.26 819.515 1246.45 823.138C1244.82 825.242 1243.88 828.164 1243.77 831.437Z" stroke="#93C5FD" stroke-width="2" mask="url(#path-1-outside-1_0_1)"/>
<path fill-rule="evenodd" clip-rule="evenodd" d="M1567.84 532.555C1557.22 545.179 1540.29 557.569 1522.09 552.776C1521.16 554.179 1516.37 561.192 1515.67 562.244C1514.85 563.53 1513.34 564.816 1512.17 563.764C1511.47 563.296 1510.89 562.244 1511.59 560.608C1514.27 557.335 1516.84 553.945 1519.87 550.438C1525.24 522.035 1533.06 503.099 1549.4 483.929C1568.3 461.954 1587.67 452.136 1599.69 448.045C1601.44 447.577 1603.08 447.11 1604.83 446.525C1606 457.513 1600.98 473.526 1597.01 482.643C1589.31 501.346 1580.91 517.71 1567.84 532.555Z" stroke="#93C5FD" stroke-width="2" mask="url(#path-1-outside-1_0_1)"/>
<path fill-rule="evenodd" clip-rule="evenodd" d="M1411.46 132.447C1412.98 133.031 1421.85 135.369 1422.9 133.616C1423.25 133.148 1422.78 131.395 1421.96 131.278C1418.7 130.927 1415.08 130.694 1411.93 129.992C1406.21 111.992 1390.34 104.16 1375.75 101.121C1358.25 97.6144 1338.99 102.991 1318.34 105.913C1317.29 106.147 1316.12 106.264 1315.19 106.264C1315.54 106.965 1316 107.433 1316.47 108.134C1325.11 119.94 1338.64 130.811 1351.83 136.187C1360.7 139.928 1371.32 142.032 1381.7 141.681C1392.67 141.214 1401.89 138.759 1411.46 132.447Z" stroke="#93C5FD" stroke-width="2" mask="url(#path-1-outside-1_0_1)"/>
<path fill-rule="evenodd" clip-rule="evenodd" d="M1377.27 83.2372C1376.57 83.4709 1376.57 83.2372 1375.29 82.5358C1372.83 80.1981 1370.73 78.7954 1368.28 76.5745C1354.28 76.6914 1340.98 72.4835 1328.37 64.0675C1322.77 60.3271 1317.17 55.7685 1312.5 50.2747C1301.3 38.2353 1292.31 20.5852 1288.23 4.45465C1288 3.51955 1287.88 2.9351 1287.76 2C1288.81 2.46755 1289.75 2.93512 1290.8 3.40267C1313.44 12.5199 1335.37 16.7279 1353.58 34.378C1365.95 46.1837 1372.37 60.444 1369.8 74.2368C1372.6 76.4577 1375.52 78.5617 1378.2 81.1332C1379.37 82.1852 1377.97 83.2372 1377.27 83.2372Z" stroke="#93C5FD" stroke-width="2" mask="url(#path-1-outside-1_0_1)"/>
<path fill-rule="evenodd" clip-rule="evenodd" d="M1459.66 207.84C1461.17 208.658 1469.69 213.1 1470.98 211.58C1471.56 210.996 1471.33 209.126 1470.51 208.775C1467.36 207.606 1463.62 206.788 1460.47 205.385C1459.31 192.644 1452.19 180.722 1438.07 172.54C1416.48 161.085 1391.97 162.955 1368.87 160.968C1367.7 160.851 1366.65 160.851 1365.6 160.734C1365.95 161.435 1366.3 162.02 1366.53 162.721C1374.24 176.046 1386.72 190.423 1399.44 198.606C1407.96 204.333 1418.46 208.658 1428.97 210.762C1440.05 212.983 1449.5 211.697 1459.66 207.84Z" stroke="#93C5FD" stroke-width="2" mask="url(#path-1-outside-1_0_1)"/>
<path fill-rule="evenodd" clip-rule="evenodd" d="M1572.74 404.445C1565.73 420.225 1553.13 437.525 1534.69 438.694C1534.11 440.33 1530.73 447.928 1530.26 449.097C1529.91 450.733 1528.74 452.486 1527.22 451.785C1526.52 451.551 1525.82 450.616 1525.94 448.98C1527.69 444.772 1529.91 441.499 1532.01 437.174C1530.38 408.186 1532.01 387.029 1543.1 363.184C1555.7 335.715 1572.97 319.935 1583.59 312.221C1584.87 311.052 1586.39 310.117 1587.91 309.182C1590.36 320.403 1589.54 337.819 1588.02 347.872C1585.34 368.21 1581.02 386.094 1572.74 404.445Z" stroke="#93C5FD" stroke-width="2" mask="url(#path-1-outside-1_0_1)"/>
<path fill-rule="evenodd" clip-rule="evenodd" d="M1552.08 288.025C1549.05 304.857 1541.46 321.806 1524.66 329.17C1524.42 330.923 1522.56 339.105 1522.32 340.391C1522.32 342.144 1521.74 344.131 1520.11 343.897C1519.64 343.781 1518.47 343.313 1518.36 341.56C1519.06 337.118 1520.34 332.092 1521.16 327.299C1515.56 306.844 1512.52 288.142 1513.45 268.154C1514.97 239.984 1525.47 215.554 1542.05 195.917C1543.33 194.515 1544.26 192.995 1545.43 191.709C1550.1 201.411 1553.13 218.009 1553.95 227.945C1555.7 248.049 1555.58 268.271 1552.08 288.025Z" stroke="#93C5FD" stroke-width="2" mask="url(#path-1-outside-1_0_1)"/>
<path fill-rule="evenodd" clip-rule="evenodd" d="M1509.72 181.774C1510.19 199.073 1505.99 218.477 1491.52 229.698C1491.63 231.451 1491.98 239.867 1491.98 241.036C1492.22 242.672 1492.1 244.659 1490.47 245.01C1489.88 245.01 1488.83 244.893 1488.48 243.257C1488.13 238.932 1488.01 232.269 1487.78 227.477C1475.41 206.437 1468.76 183.527 1468.53 157.344C1468.06 127.07 1475.53 107.784 1481.48 95.6273C1482.3 93.9909 1483.11 92.3544 1483.93 90.718C1490.47 98.6664 1496.65 113.862 1499.45 123.213C1505.05 142.149 1509.14 161.903 1509.72 181.774Z" stroke="#93C5FD" stroke-width="2" mask="url(#path-1-outside-1_0_1)"/>
<path fill-rule="evenodd" clip-rule="evenodd" d="M1445.54 84.7567C1449.27 101.004 1448.22 124.849 1436.08 134.668C1436.55 136.772 1437.6 144.019 1437.72 145.655C1438.19 147.409 1438.54 149.045 1437.13 149.746C1436.55 149.98 1436.08 149.98 1435.38 148.461C1434.57 143.902 1434.33 140.162 1433.63 135.486C1416.36 117.018 1406.56 98.7833 1401.08 73.8861C1395.59 47.8201 1396.41 27.1309 1398.74 12.5199C1398.97 10.7666 1399.44 9.01329 1399.91 7.14308C1415.08 19.2994 1425.82 35.3131 1434.92 53.5476C1439.82 63.4831 1443.67 73.6523 1445.54 84.7567Z" stroke="#93C5FD" stroke-width="2" mask="url(#path-1-outside-1_0_1)"/>
<path fill-rule="evenodd" clip-rule="evenodd" d="M1498.4 307.311C1499.8 308.597 1507.5 315.961 1509.37 315.026C1509.84 314.559 1510.19 312.104 1509.37 311.636C1506.45 309.299 1502.72 307.545 1499.8 305.324C1500.73 291.298 1497.58 277.037 1484.86 263.712C1465.26 244.659 1439.24 238.231 1415.55 228.412C1414.5 227.945 1413.45 227.36 1412.16 226.893C1412.39 227.711 1412.51 228.646 1412.86 229.464C1417.53 245.828 1426.87 264.881 1438.19 277.739C1445.54 286.388 1455.46 294.688 1465.84 300.181C1476.69 306.026 1486.96 307.896 1498.4 307.311Z" stroke="#93C5FD" stroke-width="2" mask="url(#path-1-outside-1_0_1)"/>
<path fill-rule="evenodd" clip-rule="evenodd" d="M1514.74 421.511C1515.79 423.381 1521.97 433.434 1523.96 432.966C1524.77 432.966 1525.59 430.511 1525.01 429.576C1522.44 426.187 1519.17 423.498 1516.96 419.992C1520.92 407.134 1519.06 388.549 1509.49 370.782C1494.32 344.833 1472.14 332.209 1450.67 314.091C1449.74 313.156 1448.8 312.338 1447.75 311.286C1447.64 312.104 1447.52 313.039 1447.64 314.091C1448.1 331.858 1452.77 354.184 1461.06 371.015C1466.43 382.354 1474.36 393.692 1483.46 403.16C1492.92 412.628 1502.95 418.121 1514.74 421.511Z" stroke="#93C5FD" stroke-width="2" mask="url(#path-1-outside-1_0_1)"/>
<path fill-rule="evenodd" clip-rule="evenodd" d="M1504 533.49C1504.82 535.711 1509.02 547.633 1511.12 548.101C1511.82 547.984 1513.22 546.231 1512.64 544.945C1510.89 540.971 1508.9 536.412 1507.27 532.321C1514.5 525.424 1516.96 506.255 1511.12 486.15C1501.43 456.694 1479.85 434.603 1462.46 410.173C1461.64 409.004 1460.82 407.835 1460.01 406.666C1459.77 407.485 1459.66 408.42 1459.42 409.355C1456.39 426.537 1456.62 449.33 1461.29 467.916C1464.44 480.306 1469.93 493.982 1477.05 505.67C1484.4 518.061 1493.15 526.593 1504 533.49Z" stroke="#93C5FD" stroke-width="2" mask="url(#path-1-outside-1_0_1)"/>
<path fill-rule="evenodd" clip-rule="evenodd" d="M1530.03 664.521C1516.84 673.171 1493.27 679.717 1477.05 669.08C1475.76 670.015 1468.99 674.106 1468.18 674.807C1467.01 675.976 1465.38 676.794 1464.33 675.158C1463.74 674.457 1463.39 673.288 1464.56 672.002C1467.94 669.664 1471.68 668.145 1475.29 665.807C1487.66 640.092 1500.97 622.675 1521.39 609.818C1544.73 594.856 1564.22 594.622 1576.7 594.622C1578.45 594.622 1580.21 594.739 1581.96 594.739C1578.92 620.104 1547.53 653.651 1530.03 664.521Z" stroke="#93C5FD" stroke-width="2" mask="url(#path-1-outside-1_0_1)"/>
<path fill-rule="evenodd" clip-rule="evenodd" d="M1465.26 644.65C1465.38 646.287 1466.19 653.534 1467.36 657.975C1467.71 659.261 1467.83 661.132 1469.58 660.43C1470.28 660.313 1470.98 658.794 1470.98 658.092C1470.16 653.768 1469.46 648.858 1469.11 644.533C1477.16 639.39 1483.46 622.558 1484.75 601.869C1483.35 570.66 1469.34 542.373 1458.14 512.917C1457.79 511.632 1457.32 510.229 1456.86 508.826C1456.39 509.528 1456.16 510.229 1455.69 510.93C1448.22 526.36 1442.5 547.984 1442.04 567.504C1441.57 580.245 1443.44 595.09 1447.17 608.882C1451.14 623.026 1456.97 634.13 1465.26 644.65Z" stroke="#93C5FD" stroke-width="2" mask="url(#path-1-outside-1_0_1)"/>
<path fill-rule="evenodd" clip-rule="evenodd" d="M1458.61 771.24C1443.44 774.279 1422.9 773.578 1410.06 757.213C1406.79 757.681 1401.54 758.499 1398.16 758.733C1397.22 758.85 1396.52 758.148 1396.17 756.98C1395.94 756.161 1396.17 755.109 1397.69 754.291C1401.54 753.473 1405.39 753.473 1409.48 752.772C1426.52 732.784 1442.62 721.563 1465.84 717.355C1492.68 712.445 1515.44 719.342 1527.57 724.368C1529.21 724.952 1530.96 725.654 1532.48 726.472C1528.16 736.174 1515.56 746.109 1507.62 750.901C1492.45 760.954 1476.93 768.201 1458.61 771.24Z" stroke="#93C5FD" stroke-width="2" mask="url(#path-1-outside-1_0_1)"/>
<path fill-rule="evenodd" clip-rule="evenodd" d="M1404.34 729.043C1404.11 730.797 1403.88 737.81 1403.88 742.485C1403.99 743.771 1403.64 745.525 1405.39 745.641C1406.21 745.641 1407.14 744.589 1407.14 743.771C1407.49 739.446 1407.26 734.771 1407.96 730.329C1416.95 727.524 1428.85 713.848 1434.33 695.029C1440.64 664.872 1433.75 633.78 1430.48 601.869C1430.25 600.466 1430.37 599.064 1430.25 597.544C1429.67 598.129 1428.97 598.713 1428.38 599.298C1417.41 611.337 1406.44 629.922 1401.19 648.157C1397.57 660.079 1395.71 674.807 1395.71 688.951C1395.94 703.796 1398.97 716.303 1404.34 729.043Z" stroke="#93C5FD" stroke-width="2" mask="url(#path-1-outside-1_0_1)"/>
<path fill-rule="evenodd" clip-rule="evenodd" d="M1319.39 790.41C1318.57 791.695 1317.52 797.54 1316.35 801.982C1316 803.033 1315.3 804.67 1316.94 805.254C1317.75 805.605 1318.8 804.904 1319.04 804.202C1320.55 800.462 1320.55 796.488 1322.42 792.747C1331.17 794.851 1346.34 783.747 1356.26 769.253C1370.03 744.239 1371.55 714.9 1376.92 685.094C1377.04 683.691 1377.5 682.405 1377.74 681.002C1377.04 681.119 1376.34 681.587 1375.64 681.821C1362.45 688.483 1347.39 700.289 1337.71 714.783C1331.06 724.134 1324.87 737.109 1321.37 750.083C1317.75 763.759 1317.64 776.734 1319.39 790.41Z" stroke="#93C5FD" stroke-width="2" mask="url(#path-1-outside-1_0_1)"/>
<path fill-rule="evenodd" clip-rule="evenodd" d="M1367.12 846.048C1351.6 843.944 1331.52 836.814 1322.66 816.943C1319.5 816.008 1314.02 815.424 1310.75 814.489C1309.82 814.372 1309.35 813.32 1309.23 812.034C1309.23 811.333 1309.7 810.281 1311.34 810.047C1315.19 810.631 1319.04 811.8 1323.36 812.268C1345.88 798.942 1364.08 792.864 1387.77 796.254C1414.96 800.111 1434.8 813.787 1445.42 822.554C1446.94 823.84 1448.45 825.008 1449.85 826.294C1443.32 834.359 1428.62 839.736 1419.86 842.074C1402.71 846.866 1385.9 848.737 1367.12 846.048Z" stroke="#93C5FD" stroke-width="2" mask="url(#path-1-outside-1_0_1)"/>
<path d="M708.333 365.668C691.667 366.602 652.867 371.668 633 375.535C610.2 379.935 567.4 391.135 538.6 400.202C535.667 401.135 543.4 413.668 553.533 424.468C574.333 446.468 606.467 462.335 653 473.802C687.667 482.335 720.6 486.068 771.667 487.002C818.467 487.802 863.4 485.668 957.667 477.935C984.467 475.802 1075 475.002 1114.33 476.602C1154.73 478.202 1167.27 479.402 1194.33 484.202C1215.4 487.935 1254.87 495.135 1258.73 495.935C1262.33 496.735 1261.4 494.468 1257.4 493.002C1255.27 492.202 1250.33 490.335 1246.33 488.868C1223.53 480.202 1198.07 474.068 1166.07 469.535C1122.2 463.268 1109.27 462.868 939.667 462.735C770.333 462.735 769.4 462.735 725 456.068C699.933 452.335 669.267 444.735 647.667 437.135C642.467 435.268 632.2 429.535 630.333 427.402C629.933 426.868 627.4 424.868 624.6 422.735C613.4 414.335 614.867 411.535 635 403.668C669.667 389.935 703 383.002 743.667 381.135C767.933 380.068 811.667 383.802 835 388.868C883.533 399.535 906.467 407.402 945 426.735C952.733 430.468 961.8 434.335 965.267 435.268C971.133 436.602 1010.33 439.935 1011.13 439.002C1013.53 436.735 970.467 413.002 941.667 400.868C933.533 397.402 905.533 387.268 901 386.068C898.467 385.535 892.2 383.668 887 382.202C864.067 375.268 822.2 368.335 791 366.068C773.8 364.868 727.133 364.602 708.333 365.668Z" fill="#93C5FD"/>
<path d="M471.667 418.868C451.8 422.468 437.8 426.602 425.267 432.335C417.8 435.668 397 447.268 395.667 448.735C395.267 449.135 392.333 451.135 389 453.268C375.533 461.935 358.2 476.735 361.533 476.735C361.8 476.735 369.133 473.135 377.667 468.735C410.467 451.935 437.667 444.335 465.667 444.202C479.8 444.202 485 444.735 493.933 447.268C503.133 449.802 521.267 458.868 523.667 462.068C527.133 466.602 557.133 483.268 571.667 488.602C602.6 499.935 647.133 506.202 695.667 505.935C725.933 505.802 725.667 505.268 692.333 500.202C632.333 491.002 588.067 474.202 552.467 447.002C546.467 442.602 539 436.868 535.8 434.468C528.467 428.868 518.6 424.202 508.333 421.402C500.333 419.268 477.933 417.668 471.667 418.868Z" fill="#93C5FD"/>
<path d="M582.333 519.935C564.2 525.402 552.067 538.468 550.6 554.335C550.067 559.535 550.6 561.668 553.133 565.402C556.733 570.602 567.4 575.935 578.2 578.068C592.067 580.602 596.867 586.068 589.667 590.868C586.867 592.602 584.333 593.002 576.867 592.335C567.933 591.535 563.533 589.802 554.2 583.135C552.333 581.802 550.333 583.002 542.467 590.068C537.267 594.602 533 599.135 533 600.068C533 601.002 535.267 603.268 538.2 605.268C555.4 617.135 582.867 618.735 602.333 608.735C617 601.268 627.133 581.002 621.8 569.935C618.867 563.802 610.467 558.735 597.533 555.668C591.667 554.202 585.533 552.335 583.933 551.535C580.333 549.535 580.2 545.935 583.667 542.735C587.4 539.402 600.2 540.602 608.467 545.268C611.933 547.135 615.4 548.735 616.2 548.735C619 548.735 634.733 531.802 633.933 529.668C633.533 528.602 629.267 525.802 624.467 523.402C616.867 519.535 614.333 519.002 602.067 518.602C593 518.335 586.333 518.735 582.333 519.935Z" fill="#93C5FD"/>
<path d="M907.933 520.202C888.733 525.268 876.467 539.135 876.333 555.668C876.333 561.935 876.867 563.802 879.667 566.735C883.8 571.135 890.2 574.468 899 576.602C913.933 580.468 918.333 582.468 918.333 585.535C918.333 595.268 895.667 595.135 882.867 585.402C877.8 581.535 877.4 581.535 875.133 583.802C874.2 584.602 870.067 588.335 865.933 591.935C861.8 595.535 858.333 599.002 858.333 599.668C858.333 601.535 863.4 605.668 869.667 609.002C877.667 613.268 887.267 615.402 898.333 615.402C921.933 615.402 939.8 605.135 946.333 587.935C952.333 571.668 947.933 563.802 929.667 557.935C909.533 551.668 907 550.468 906.6 547.935C906.067 543.402 908.467 541.668 916.2 541.002C922.6 540.468 924.867 541.002 932.2 544.602C936.867 546.868 941.133 548.735 941.667 548.735C943.267 548.735 959.667 532.335 959.667 530.735C959.667 528.068 949.533 522.202 941.4 520.068C931.933 517.535 917.267 517.668 907.933 520.202Z" fill="#93C5FD"/>
<path d="M375.133 521.002C374.733 521.935 374.333 523.935 373.933 525.402C373.133 529.002 360.067 573.668 358.333 578.868C356.067 585.802 349 611.402 349 612.735C349 613.535 354.467 614.068 362.333 614.068C377.8 614.068 376.2 615.668 381.8 595.135L385.667 580.735H408.6H431.533L434.333 571.802C435.8 566.735 437.4 561.668 437.8 560.335C438.467 558.202 436.867 558.068 415.667 558.068H392.733L393.533 554.602C394.067 552.602 394.867 549.402 395.267 547.268L396.067 543.402H421.667H447.267L450.2 533.668C454.867 517.802 458.733 519.402 414.333 519.402C384.467 519.402 375.4 519.802 375.133 521.002Z" fill="#93C5FD"/>
<path d="M482.333 526.068C475 536.468 439 585.935 437.267 588.068C433.533 592.868 419.667 612.468 419.667 613.135C419.667 613.668 426.2 614.068 434.067 614.068H448.6L454.467 605.402L460.333 596.735L478.333 597.002L496.2 597.402L497.667 605.402L499 613.402H513.667C525.933 613.402 528.333 613.135 528.067 611.402C527.933 610.335 525.933 596.468 523.667 580.735C521.267 565.002 518.467 544.868 517.267 536.068L515 520.068L501 519.802L487 519.402L482.333 526.068ZM493.533 566.335C494.467 574.602 494.333 575.402 492.067 575.535C490.733 575.535 486.467 575.802 482.6 576.068C474.067 576.602 474.067 576.602 483.933 562.735C491.8 551.802 492.067 551.802 493.533 566.335Z" fill="#93C5FD"/>
<path d="M644.6 520.335C643.933 521.402 638.333 541.535 638.333 542.735C638.333 543.135 644.6 543.402 652.333 543.402C660.067 543.402 666.333 543.802 666.333 544.335C666.333 545.002 664.467 551.402 662.333 558.735C660.2 566.068 656.733 577.802 654.867 584.735C652.867 591.668 650.2 600.735 648.867 604.735C647.667 608.735 646.867 612.468 647.133 613.002C647.533 613.668 653.8 614.068 661 614.068H674.067L676.067 607.668C677.133 604.202 679.4 596.602 681 590.735C682.6 584.868 685.667 574.335 687.667 567.402C689.8 560.468 692.2 552.202 693 549.002L694.467 543.402H709.4H724.333L726.6 534.335C727.933 529.402 729.267 524.068 729.8 522.335L730.6 519.402H687.933C664.333 519.402 644.867 519.802 644.6 520.335Z" fill="#93C5FD"/>
<path d="M776.333 531.002C774.467 537.535 771.933 546.068 770.867 550.068C768.2 559.268 764.067 573.402 762.067 579.268C760.067 585.535 753 611.802 753 613.002C753 614.468 779.4 614.335 780.2 612.868C780.6 612.202 782.467 606.335 784.2 599.935C790.6 576.735 793.667 567.135 794.867 567.135C795.667 567.135 801.667 577.668 808.2 590.602L820.333 614.068H832.467C843 614.068 844.733 613.802 845.4 611.668C845.8 610.468 849.533 597.668 853.667 583.402C857.933 569.135 862.067 554.735 863 551.402C863.933 548.068 866.2 540.335 868.2 533.935C870.067 527.668 871.667 521.935 871.667 521.002C871.667 519.802 867.667 519.402 857.933 519.402H844.067L842.733 525.002C839.4 538.202 831 566.068 830.333 566.068C829.933 566.068 824.2 555.535 817.667 542.735L805.667 519.402H792.733H779.8L776.333 531.002Z" fill="#93C5FD"/>
<path d="M974.467 529.002C972.867 534.335 970.333 542.602 968.867 547.402C959.267 579.135 957.667 590.602 961.533 599.935C964.067 606.068 972.2 612.335 980.067 614.202C983.933 615.135 991.933 615.535 999.533 615.135C1016.33 614.335 1028.33 609.268 1038.33 598.602C1046.87 589.668 1049.93 582.735 1057.53 556.735C1060.87 545.402 1064.6 533.002 1065.67 529.268C1066.73 525.535 1067.67 521.802 1067.67 521.002C1067.67 518.735 1041.53 518.868 1040.07 521.002C1039.53 521.935 1037.67 527.268 1036.2 532.735C1034.6 538.202 1031.13 550.202 1028.47 559.402C1021.27 584.202 1015.67 590.735 1001.27 590.735C995.267 590.735 993.8 590.202 991.667 587.402C988.333 583.135 988.333 579.002 991.533 567.668C993 562.735 996.6 550.202 999.533 539.802C1002.6 529.402 1005 520.602 1005 520.202C1005 519.802 998.733 519.402 991.133 519.402H977.267L974.467 529.002Z" fill="#93C5FD"/>
<path d="M1083.27 520.335C1082.73 521.268 1080.47 528.602 1069.67 565.402C1061.67 592.735 1057 609.535 1057 611.802C1057 613.935 1058.33 614.068 1070.47 613.802L1084.07 613.402L1085.8 607.402C1086.6 604.068 1088.33 597.935 1089.53 593.668L1091.8 586.068H1097.4H1103.13L1108.47 599.668L1113.8 613.402L1129.4 613.802C1140.33 614.068 1145 613.668 1145 612.602C1145 611.802 1142.6 605.002 1139.53 597.668C1136.47 590.202 1133.8 583.402 1133.53 582.602C1133.13 581.802 1135.8 579.802 1139.27 577.935C1152.07 571.402 1161 557.935 1162.07 543.402C1162.73 533.935 1159.13 528.068 1149.67 523.402C1143.27 520.202 1141.8 520.068 1113.53 519.668C1097.27 519.402 1083.67 519.668 1083.27 520.335ZM1130.2 545.535C1135.53 549.268 1131.93 558.468 1123.4 562.868C1119.67 564.868 1100.33 565.535 1099.27 563.668C1099 563.135 1099.93 558.335 1101.27 553.002L1103.93 543.402H1115.53C1124.07 543.402 1127.93 543.935 1130.2 545.535Z" fill="#93C5FD"/>
<path d="M1179.27 530.335C1177.53 536.468 1173.8 549.135 1171 558.735C1168.33 568.335 1164.07 583.002 1161.53 591.402C1159.13 599.802 1156.73 608.335 1156.2 610.468L1155.4 614.068L1195.13 613.802L1234.87 613.402L1237.93 602.868C1239.53 597.002 1240.73 592.068 1240.47 591.668C1240.07 591.402 1228.73 591.268 1215.13 591.402C1187.4 591.535 1188.6 592.068 1192.2 582.068L1193.93 577.402L1217.13 576.735L1240.2 576.068L1242.6 568.735C1247 554.468 1248.33 555.402 1222.87 555.402H1200.73L1201.67 550.335C1203.13 542.202 1204.2 541.935 1230.73 542.202C1243.8 542.335 1254.6 542.202 1254.87 541.935C1255.4 541.402 1261 521.268 1261 520.068C1261 519.668 1243.4 519.402 1221.8 519.402H1182.6L1179.27 530.335Z" fill="#93C5FD"/>
<path d="M748.867 523.802C743.533 527.402 742.2 532.868 745.8 536.868C747.533 538.735 749.933 539.402 754.867 539.402C767.667 539.402 776.333 529.402 769.267 523.002C765.533 519.535 754.467 520.068 748.867 523.802Z" fill="#93C5FD"/>
<path d="M741.667 552.735C738.067 553.402 730.733 553.935 725.533 553.935C718.067 554.068 715.8 554.602 715.133 556.202C713.933 559.402 713.933 559.402 719 559.402C722.867 559.402 723.667 559.935 723.667 562.068C723.667 563.668 717.4 574.202 709.667 585.535C701.533 597.668 695.667 607.535 695.667 609.402C695.667 614.868 700.867 617.135 711.8 616.468C719.267 615.935 722.467 614.868 728.067 611.402C737.267 605.668 746.2 599.002 746.333 597.668C746.467 594.735 741.933 595.668 736.067 599.935C729.4 604.735 722.333 607.402 722.333 605.002C722.333 603.802 738.2 579.668 751.133 561.135C754.333 556.468 757 552.468 757 552.068C757 551.135 749.933 551.535 741.667 552.735Z" fill="#93C5FD"/>
</g>
<defs>
<filter id="filter0_d_0_1" x="6.10352e-05" y="0.365997" width="1610" height="855.917" filterUnits="userSpaceOnUse" color-interpolation-filters="sRGB">
<feFlood flood-opacity="0" result="BackgroundImageFix"/>
<feColorMatrix in="SourceAlpha" type="matrix" values="0 0 0 0 0 0 0 0 0 0 0 0 0 0 0 0 0 0 127 0" result="hardAlpha"/>
<feOffset dy="4"/>
<feGaussianBlur stdDeviation="2"/>
<feComposite in2="hardAlpha" operator="out"/>
<feColorMatrix type="matrix" values="0 0 0 0 0 0 0 0 0 0 0 0 0 0 0 0 0 0 0.25 0"/>
<feBlend mode="normal" in2="BackgroundImageFix" result="effect1_dropShadow_0_1"/>
<feBlend mode="normal" in="SourceGraphic" in2="effect1_dropShadow_0_1" result="shape"/>
</filter>
</defs>
</svg>
