<svg width="1602" height="849" viewBox="0 0 1602 849" fill="none" xmlns="http://www.w3.org/2000/svg">
<mask id="path-1-outside-1_1_33" maskUnits="userSpaceOnUse" x="0" y="0" width="1602" height="849" fill="black">
<rect fill="white" width="1602" height="849"/>
<path fill-rule="evenodd" clip-rule="evenodd" d="M362.232 831.437C232.232 813.436 137.59 711.16 94.4126 571.362C76.6747 513.502 74.1073 449.33 80.2923 382.237C91.7286 262.426 146.693 158.396 226.864 82.5358C227.214 82.1852 227.33 82.0683 227.447 82.4189C227.68 82.7696 228.381 83.1203 228.731 83.354C229.198 83.5878 229.314 83.354 228.964 83.9385C143.892 161.903 89.278 285.921 83.3264 411.225C74.1074 590.18 160.93 748.681 291.047 803.267C312.869 812.501 335.742 819.515 359.548 823.138C361.182 825.242 362.115 828.164 362.232 831.437Z"/>
<path fill-rule="evenodd" clip-rule="evenodd" d="M38.1647 532.555C48.7841 545.179 65.7052 557.569 83.9099 552.776C84.8435 554.179 89.628 561.192 90.3282 562.244C91.1451 563.53 92.6622 564.816 93.8291 563.764C94.5293 563.296 95.1128 562.244 94.4126 560.608C91.7286 557.335 89.1612 553.945 86.1271 550.438C80.7591 522.035 72.9404 503.099 56.6028 483.929C37.6979 461.954 18.3262 452.136 6.30644 448.045C4.55598 447.577 2.92223 447.11 1.17178 446.525C0.00480944 457.513 5.02277 473.526 8.99047 482.643C16.6925 501.346 25.0946 517.71 38.1647 532.555Z"/>
<path fill-rule="evenodd" clip-rule="evenodd" d="M194.539 132.447C193.022 133.031 184.153 135.369 183.102 133.616C182.752 133.148 183.219 131.395 184.036 131.278C187.303 130.927 190.921 130.694 194.072 129.992C199.79 111.992 215.661 104.16 230.248 101.121C247.752 97.6144 267.007 102.991 287.663 105.913C288.713 106.147 289.88 106.264 290.814 106.264C290.463 106.965 289.997 107.433 289.53 108.134C280.894 119.94 267.357 130.811 254.171 136.187C245.302 139.928 234.682 142.032 224.296 141.681C213.327 141.214 204.108 138.759 194.539 132.447Z"/>
<path fill-rule="evenodd" clip-rule="evenodd" d="M228.731 83.2372C229.431 83.4709 229.431 83.2372 230.715 82.5358C233.165 80.1981 235.266 78.7954 237.716 76.5745C251.72 76.6914 265.023 72.4835 277.627 64.0675C283.228 60.3271 288.83 55.7685 293.498 50.2747C304.7 38.2353 313.686 20.5852 317.771 4.45465C318.004 3.51955 318.121 2.9351 318.237 2C317.187 2.46755 316.254 2.93512 315.203 3.40267C292.564 12.5199 270.625 16.7279 252.42 34.378C240.05 46.1837 233.632 60.444 236.199 74.2368C233.399 76.4577 230.481 78.5617 227.797 81.1332C226.63 82.1852 228.031 83.2372 228.731 83.2372Z"/>
<path fill-rule="evenodd" clip-rule="evenodd" d="M146.343 207.84C144.826 208.658 136.307 213.1 135.023 211.58C134.44 210.996 134.673 209.126 135.49 208.775C138.641 207.606 142.375 206.788 145.526 205.385C146.693 192.644 153.811 180.722 167.932 172.54C189.521 161.085 214.027 162.955 237.133 160.968C238.3 160.851 239.35 160.851 240.4 160.734C240.05 161.435 239.7 162.02 239.467 162.721C231.765 176.046 219.278 190.423 206.558 198.606C198.04 204.333 187.537 208.658 177.034 210.762C165.948 212.983 156.495 211.697 146.343 207.84Z"/>
<path fill-rule="evenodd" clip-rule="evenodd" d="M33.2634 404.445C40.2653 420.225 52.8685 437.525 71.3066 438.694C71.8901 440.33 75.2743 447.928 75.7411 449.097C76.0912 450.733 77.2582 452.486 78.7752 451.785C79.4754 451.551 80.1756 450.616 80.0589 448.98C78.3084 444.772 76.0912 441.499 73.9906 437.174C75.6244 408.186 73.9907 387.029 62.9044 363.184C50.3012 335.715 33.03 319.935 22.4106 312.221C21.127 311.052 19.6099 310.117 18.0928 309.182C15.6422 320.403 16.4591 337.819 17.9761 347.872C20.6602 368.21 24.978 386.094 33.2634 404.445Z"/>
<path fill-rule="evenodd" clip-rule="evenodd" d="M53.9188 288.025C56.9529 304.857 64.5382 321.806 81.3426 329.17C81.576 330.923 83.4431 339.105 83.6765 340.391C83.6765 342.144 84.26 344.131 85.8937 343.897C86.3605 343.781 87.5275 343.313 87.6442 341.56C86.944 337.118 85.6603 332.092 84.8435 327.299C90.4449 306.844 93.479 288.142 92.5454 268.154C91.0284 239.984 80.5257 215.554 63.9547 195.917C62.671 194.515 61.7375 192.995 60.5705 191.709C55.9026 201.411 52.8685 218.009 52.0516 227.945C50.3012 248.049 50.4179 268.271 53.9188 288.025Z"/>
<path fill-rule="evenodd" clip-rule="evenodd" d="M96.2798 181.774C95.813 199.073 100.014 218.477 114.484 229.698C114.368 231.451 114.018 239.867 114.018 241.036C113.784 242.672 113.901 244.659 115.535 245.01C116.118 245.01 117.169 244.893 117.519 243.257C117.869 238.932 117.985 232.269 118.219 227.477C130.589 206.437 137.24 183.527 137.474 157.344C137.941 127.07 130.472 107.784 124.52 95.6273C123.704 93.9909 122.887 92.3544 122.07 90.718C115.535 98.6664 109.35 113.862 106.549 123.213C100.948 142.149 96.8633 161.903 96.2798 181.774Z"/>
<path fill-rule="evenodd" clip-rule="evenodd" d="M160.463 84.7567C156.729 101.004 157.779 124.849 169.916 134.668C169.449 136.772 168.398 144.019 168.282 145.655C167.815 147.409 167.465 149.045 168.865 149.746C169.449 149.98 169.916 149.98 170.616 148.461C171.433 143.902 171.666 140.162 172.366 135.486C189.637 117.018 199.44 98.7833 204.925 73.8861C210.409 47.8201 209.593 27.1309 207.259 12.5199C207.025 10.7666 206.558 9.01329 206.092 7.14308C190.921 19.2994 180.185 35.3131 171.083 53.5476C166.181 63.4831 162.33 73.6523 160.463 84.7567Z"/>
<path fill-rule="evenodd" clip-rule="evenodd" d="M107.599 307.311C106.199 308.597 98.497 315.961 96.6298 315.026C96.1631 314.559 95.813 312.104 96.6298 311.636C99.5473 309.299 103.282 307.545 106.199 305.324C105.265 291.298 108.416 277.037 121.136 263.712C140.741 244.659 166.765 238.231 190.454 228.412C191.504 227.945 192.555 227.36 193.838 226.893C193.605 227.711 193.488 228.646 193.138 229.464C188.47 245.828 179.135 264.881 167.815 277.739C160.463 286.388 150.544 294.688 140.158 300.181C129.305 306.026 119.036 307.896 107.599 307.311Z"/>
<path fill-rule="evenodd" clip-rule="evenodd" d="M91.2618 421.511C90.2115 423.381 84.0266 433.434 82.0427 432.966C81.2259 432.966 80.409 430.511 80.9925 429.576C83.5598 426.187 86.8273 423.498 89.0445 419.992C85.0768 407.134 86.944 388.549 96.5132 370.782C111.684 344.833 133.856 332.209 155.328 314.091C156.262 313.156 157.196 312.338 158.246 311.286C158.363 312.104 158.479 313.039 158.363 314.091C157.896 331.858 153.228 354.184 144.942 371.015C139.574 382.354 131.639 393.692 122.537 403.16C113.084 412.628 103.048 418.121 91.2618 421.511Z"/>
<path fill-rule="evenodd" clip-rule="evenodd" d="M101.998 533.49C101.181 535.711 96.98 547.633 94.8794 548.101C94.1792 547.984 92.7789 546.231 93.3624 544.945C95.1128 540.971 97.0966 536.412 98.7304 532.321C91.4952 525.424 89.0446 506.255 94.8794 486.15C104.565 456.694 126.154 434.603 143.542 410.173C144.359 409.004 145.176 407.835 145.993 406.666C146.226 407.484 146.343 408.42 146.576 409.355C149.61 426.537 149.377 449.33 144.709 467.916C141.558 480.306 136.073 493.982 128.955 505.67C121.603 518.06 112.851 526.593 101.998 533.49Z"/>
<path fill-rule="evenodd" clip-rule="evenodd" d="M75.9745 664.521C89.1612 673.171 112.734 679.717 128.955 669.08C130.239 670.015 137.007 674.106 137.824 674.807C138.991 675.976 140.625 676.794 141.675 675.158C142.258 674.457 142.608 673.288 141.441 672.002C138.057 669.664 134.323 668.145 130.705 665.807C118.335 640.092 105.032 622.675 84.6101 609.818C61.2707 594.856 41.7823 594.622 29.2957 594.622C27.5453 594.622 25.7948 594.739 24.0444 594.739C27.0785 620.104 58.4699 653.651 75.9745 664.521Z"/>
<path fill-rule="evenodd" clip-rule="evenodd" d="M140.741 644.65C140.625 646.287 139.808 653.534 138.641 657.975C138.291 659.261 138.174 661.132 136.424 660.43C135.723 660.313 135.023 658.794 135.023 658.092C135.84 653.768 136.54 648.858 136.89 644.533C128.838 639.39 122.537 622.558 121.253 601.869C122.653 570.66 136.657 542.373 147.86 512.917C148.21 511.632 148.677 510.229 149.143 508.826C149.61 509.528 149.844 510.229 150.31 510.93C157.779 526.36 163.497 547.984 163.964 567.504C164.431 580.245 162.564 595.09 158.829 608.882C154.862 623.026 149.027 634.13 140.741 644.65Z"/>
<path fill-rule="evenodd" clip-rule="evenodd" d="M147.393 771.24C162.564 774.279 183.102 773.578 195.939 757.213C199.206 757.681 204.458 758.499 207.842 758.733C208.776 758.85 209.476 758.148 209.826 756.98C210.059 756.161 209.826 755.109 208.309 754.291C204.458 753.473 200.607 753.473 196.522 752.772C179.485 732.784 163.381 721.562 140.158 717.355C113.318 712.445 90.5616 719.342 78.4251 724.368C76.7914 724.952 75.0409 725.654 73.5239 726.472C77.8417 736.174 90.4449 746.109 98.3803 750.901C113.551 760.954 129.072 768.201 147.393 771.24Z"/>
<path fill-rule="evenodd" clip-rule="evenodd" d="M201.657 729.043C201.89 730.797 202.124 737.81 202.124 742.485C202.007 743.771 202.357 745.525 200.607 745.641C199.79 745.641 198.856 744.589 198.856 743.771C198.506 739.446 198.74 734.771 198.039 730.329C189.054 727.524 177.151 713.848 171.666 695.029C165.364 664.872 172.249 633.78 175.517 601.869C175.75 600.466 175.634 599.064 175.75 597.544C176.334 598.129 177.034 598.713 177.618 599.298C188.587 611.337 199.557 629.922 204.808 648.157C208.426 660.079 210.293 674.807 210.293 688.951C210.059 703.796 207.025 716.303 201.657 729.043Z"/>
<path fill-rule="evenodd" clip-rule="evenodd" d="M286.612 790.41C287.429 791.695 288.48 797.54 289.647 801.982C289.997 803.034 290.697 804.67 289.063 805.254C288.246 805.605 287.196 804.904 286.963 804.202C285.445 800.462 285.445 796.488 283.578 792.747C274.826 794.851 259.655 783.747 249.736 769.253C235.966 744.239 234.449 714.9 229.081 685.094C228.964 683.691 228.497 682.405 228.264 681.002C228.964 681.119 229.664 681.587 230.365 681.821C243.551 688.483 258.605 700.289 268.291 714.783C274.943 724.134 281.128 737.109 284.629 750.083C288.246 763.759 288.363 776.734 286.612 790.41Z"/>
<path fill-rule="evenodd" clip-rule="evenodd" d="M238.883 846.048C254.404 843.944 274.476 836.814 283.345 816.943C286.496 816.008 291.98 815.424 295.248 814.489C296.182 814.372 296.648 813.32 296.765 812.034C296.765 811.333 296.298 810.281 294.665 810.047C290.814 810.631 286.962 811.8 282.645 812.268C260.122 798.942 241.918 792.864 218.228 796.254C191.038 800.111 171.199 813.787 160.58 822.554C159.063 823.84 157.546 825.008 156.145 826.294C162.68 834.359 177.384 839.736 186.136 842.074C203.291 846.866 220.095 848.737 238.883 846.048Z"/>
<path fill-rule="evenodd" clip-rule="evenodd" d="M1239.77 831.437C1369.77 813.436 1464.41 711.16 1507.59 571.362C1525.33 513.502 1527.89 449.33 1521.71 382.237C1510.27 262.426 1455.31 158.396 1375.14 82.5358C1374.79 82.1852 1374.67 82.0683 1374.55 82.4189C1374.32 82.7696 1373.62 83.1203 1373.27 83.354C1372.8 83.5878 1372.69 83.354 1373.04 83.9385C1458.11 161.903 1512.72 285.921 1518.67 411.225C1527.89 590.18 1441.07 748.681 1310.95 803.267C1289.13 812.501 1266.26 819.515 1242.45 823.138C1240.82 825.242 1239.88 828.164 1239.77 831.437Z"/>
<path fill-rule="evenodd" clip-rule="evenodd" d="M1563.84 532.555C1553.22 545.179 1536.29 557.569 1518.09 552.776C1517.16 554.179 1512.37 561.192 1511.67 562.244C1510.85 563.53 1509.34 564.816 1508.17 563.764C1507.47 563.296 1506.89 562.244 1507.59 560.608C1510.27 557.335 1512.84 553.945 1515.87 550.438C1521.24 522.035 1529.06 503.099 1545.4 483.929C1564.3 461.954 1583.67 452.136 1595.69 448.045C1597.44 447.577 1599.08 447.11 1600.83 446.525C1602 457.513 1596.98 473.526 1593.01 482.643C1585.31 501.346 1576.91 517.71 1563.84 532.555Z"/>
<path fill-rule="evenodd" clip-rule="evenodd" d="M1407.46 132.447C1408.98 133.031 1417.85 135.369 1418.9 133.616C1419.25 133.148 1418.78 131.395 1417.96 131.278C1414.7 130.927 1411.08 130.694 1407.93 129.992C1402.21 111.992 1386.34 104.16 1371.75 101.121C1354.25 97.6144 1334.99 102.991 1314.34 105.913C1313.29 106.147 1312.12 106.264 1311.19 106.264C1311.54 106.965 1312 107.433 1312.47 108.134C1321.11 119.94 1334.64 130.811 1347.83 136.187C1356.7 139.928 1367.32 142.032 1377.7 141.681C1388.67 141.214 1397.89 138.759 1407.46 132.447Z"/>
<path fill-rule="evenodd" clip-rule="evenodd" d="M1373.27 83.2372C1372.57 83.4709 1372.57 83.2372 1371.29 82.5358C1368.83 80.1981 1366.73 78.7954 1364.28 76.5745C1350.28 76.6914 1336.98 72.4835 1324.37 64.0675C1318.77 60.3271 1313.17 55.7685 1308.5 50.2747C1297.3 38.2353 1288.31 20.5852 1284.23 4.45465C1284 3.51955 1283.88 2.9351 1283.76 2C1284.81 2.46755 1285.75 2.93512 1286.8 3.40267C1309.44 12.5199 1331.38 16.7279 1349.58 34.378C1361.95 46.1837 1368.37 60.444 1365.8 74.2368C1368.6 76.4577 1371.52 78.5617 1374.2 81.1332C1375.37 82.1852 1373.97 83.2372 1373.27 83.2372Z"/>
<path fill-rule="evenodd" clip-rule="evenodd" d="M1455.66 207.84C1457.17 208.658 1465.69 213.1 1466.98 211.58C1467.56 210.996 1467.33 209.126 1466.51 208.775C1463.36 207.606 1459.62 206.788 1456.47 205.385C1455.31 192.644 1448.19 180.722 1434.07 172.54C1412.48 161.085 1387.97 162.955 1364.87 160.968C1363.7 160.851 1362.65 160.851 1361.6 160.734C1361.95 161.435 1362.3 162.02 1362.53 162.721C1370.24 176.046 1382.72 190.423 1395.44 198.606C1403.96 204.333 1414.46 208.658 1424.97 210.762C1436.05 212.983 1445.5 211.697 1455.66 207.84Z"/>
<path fill-rule="evenodd" clip-rule="evenodd" d="M1568.74 404.445C1561.73 420.225 1549.13 437.525 1530.69 438.694C1530.11 440.33 1526.73 447.928 1526.26 449.097C1525.91 450.733 1524.74 452.486 1523.22 451.785C1522.52 451.551 1521.82 450.616 1521.94 448.98C1523.69 444.772 1525.91 441.499 1528.01 437.174C1526.38 408.186 1528.01 387.029 1539.1 363.184C1551.7 335.715 1568.97 319.935 1579.59 312.221C1580.87 311.052 1582.39 310.117 1583.91 309.182C1586.36 320.403 1585.54 337.819 1584.02 347.872C1581.34 368.21 1577.02 386.094 1568.74 404.445Z"/>
<path fill-rule="evenodd" clip-rule="evenodd" d="M1548.08 288.025C1545.05 304.857 1537.46 321.806 1520.66 329.17C1520.42 330.923 1518.56 339.105 1518.32 340.391C1518.32 342.144 1517.74 344.131 1516.11 343.897C1515.64 343.781 1514.47 343.313 1514.36 341.56C1515.06 337.118 1516.34 332.092 1517.16 327.299C1511.56 306.844 1508.52 288.142 1509.45 268.154C1510.97 239.984 1521.47 215.554 1538.05 195.917C1539.33 194.515 1540.26 192.995 1541.43 191.709C1546.1 201.411 1549.13 218.009 1549.95 227.945C1551.7 248.049 1551.58 268.271 1548.08 288.025Z"/>
<path fill-rule="evenodd" clip-rule="evenodd" d="M1505.72 181.774C1506.19 199.073 1501.99 218.477 1487.52 229.698C1487.63 231.451 1487.98 239.867 1487.98 241.036C1488.22 242.672 1488.1 244.659 1486.47 245.01C1485.88 245.01 1484.83 244.893 1484.48 243.257C1484.13 238.932 1484.01 232.269 1483.78 227.477C1471.41 206.437 1464.76 183.527 1464.53 157.344C1464.06 127.07 1471.53 107.784 1477.48 95.6273C1478.3 93.9909 1479.11 92.3544 1479.93 90.718C1486.47 98.6664 1492.65 113.862 1495.45 123.213C1501.05 142.149 1505.14 161.903 1505.72 181.774Z"/>
<path fill-rule="evenodd" clip-rule="evenodd" d="M1441.54 84.7567C1445.27 101.004 1444.22 124.849 1432.08 134.668C1432.55 136.772 1433.6 144.019 1433.72 145.655C1434.19 147.409 1434.54 149.045 1433.13 149.746C1432.55 149.98 1432.08 149.98 1431.38 148.461C1430.57 143.902 1430.33 140.162 1429.63 135.486C1412.36 117.018 1402.56 98.7833 1397.08 73.8861C1391.59 47.8201 1392.41 27.1309 1394.74 12.5199C1394.97 10.7666 1395.44 9.01329 1395.91 7.14308C1411.08 19.2994 1421.82 35.3131 1430.92 53.5476C1435.82 63.4831 1439.67 73.6523 1441.54 84.7567Z"/>
<path fill-rule="evenodd" clip-rule="evenodd" d="M1494.4 307.311C1495.8 308.597 1503.5 315.961 1505.37 315.026C1505.84 314.559 1506.19 312.104 1505.37 311.636C1502.45 309.299 1498.72 307.545 1495.8 305.324C1496.73 291.298 1493.58 277.037 1480.86 263.712C1461.26 244.659 1435.24 238.231 1411.55 228.412C1410.5 227.945 1409.45 227.36 1408.16 226.893C1408.39 227.711 1408.51 228.646 1408.86 229.464C1413.53 245.828 1422.87 264.881 1434.19 277.739C1441.54 286.388 1451.46 294.688 1461.84 300.181C1472.69 306.026 1482.96 307.896 1494.4 307.311Z"/>
<path fill-rule="evenodd" clip-rule="evenodd" d="M1510.74 421.511C1511.79 423.381 1517.97 433.434 1519.96 432.966C1520.77 432.966 1521.59 430.511 1521.01 429.576C1518.44 426.187 1515.17 423.498 1512.96 419.992C1516.92 407.134 1515.06 388.549 1505.49 370.782C1490.32 344.833 1468.14 332.209 1446.67 314.091C1445.74 313.156 1444.8 312.338 1443.75 311.286C1443.64 312.104 1443.52 313.039 1443.64 314.091C1444.1 331.858 1448.77 354.184 1457.06 371.015C1462.43 382.354 1470.36 393.692 1479.46 403.16C1488.92 412.628 1498.95 418.121 1510.74 421.511Z"/>
<path fill-rule="evenodd" clip-rule="evenodd" d="M1500 533.49C1500.82 535.711 1505.02 547.633 1507.12 548.101C1507.82 547.984 1509.22 546.231 1508.64 544.945C1506.89 540.971 1504.9 536.412 1503.27 532.321C1510.5 525.424 1512.96 506.255 1507.12 486.15C1497.43 456.694 1475.85 434.603 1458.46 410.173C1457.64 409.004 1456.82 407.835 1456.01 406.666C1455.77 407.484 1455.66 408.42 1455.42 409.355C1452.39 426.537 1452.62 449.33 1457.29 467.916C1460.44 480.306 1465.93 493.982 1473.05 505.67C1480.4 518.06 1489.15 526.593 1500 533.49Z"/>
<path fill-rule="evenodd" clip-rule="evenodd" d="M1526.03 664.521C1512.84 673.171 1489.27 679.717 1473.05 669.08C1471.76 670.015 1464.99 674.106 1464.18 674.807C1463.01 675.976 1461.38 676.794 1460.33 675.158C1459.74 674.457 1459.39 673.288 1460.56 672.002C1463.94 669.664 1467.68 668.145 1471.29 665.807C1483.66 640.092 1496.97 622.675 1517.39 609.818C1540.73 594.856 1560.22 594.622 1572.7 594.622C1574.45 594.622 1576.21 594.739 1577.96 594.739C1574.92 620.104 1543.53 653.651 1526.03 664.521Z"/>
<path fill-rule="evenodd" clip-rule="evenodd" d="M1461.26 644.65C1461.38 646.287 1462.19 653.534 1463.36 657.975C1463.71 659.261 1463.83 661.132 1465.58 660.43C1466.28 660.313 1466.98 658.794 1466.98 658.092C1466.16 653.768 1465.46 648.858 1465.11 644.533C1473.16 639.39 1479.46 622.558 1480.75 601.869C1479.35 570.66 1465.34 542.373 1454.14 512.917C1453.79 511.632 1453.32 510.229 1452.86 508.826C1452.39 509.528 1452.16 510.229 1451.69 510.93C1444.22 526.36 1438.5 547.984 1438.04 567.504C1437.57 580.245 1439.44 595.09 1443.17 608.882C1447.14 623.026 1452.97 634.13 1461.26 644.65Z"/>
<path fill-rule="evenodd" clip-rule="evenodd" d="M1454.61 771.24C1439.44 774.279 1418.9 773.578 1406.06 757.213C1402.79 757.681 1397.54 758.499 1394.16 758.733C1393.22 758.85 1392.52 758.148 1392.17 756.98C1391.94 756.161 1392.17 755.109 1393.69 754.291C1397.54 753.473 1401.39 753.473 1405.48 752.772C1422.52 732.784 1438.62 721.562 1461.84 717.355C1488.68 712.445 1511.44 719.342 1523.57 724.368C1525.21 724.952 1526.96 725.654 1528.48 726.472C1524.16 736.174 1511.56 746.109 1503.62 750.901C1488.45 760.954 1472.93 768.201 1454.61 771.24Z"/>
<path fill-rule="evenodd" clip-rule="evenodd" d="M1400.34 729.043C1400.11 730.797 1399.88 737.81 1399.88 742.485C1399.99 743.771 1399.64 745.525 1401.39 745.641C1402.21 745.641 1403.14 744.589 1403.14 743.771C1403.49 739.446 1403.26 734.771 1403.96 730.329C1412.95 727.524 1424.85 713.848 1430.33 695.029C1436.64 664.872 1429.75 633.78 1426.48 601.869C1426.25 600.466 1426.37 599.064 1426.25 597.544C1425.67 598.129 1424.97 598.713 1424.38 599.298C1413.41 611.337 1402.44 629.922 1397.19 648.157C1393.57 660.079 1391.71 674.807 1391.71 688.951C1391.94 703.796 1394.97 716.303 1400.34 729.043Z"/>
<path fill-rule="evenodd" clip-rule="evenodd" d="M1315.39 790.41C1314.57 791.695 1313.52 797.54 1312.35 801.982C1312 803.034 1311.3 804.67 1312.94 805.254C1313.75 805.605 1314.8 804.904 1315.04 804.202C1316.55 800.462 1316.55 796.488 1318.42 792.747C1327.17 794.851 1342.34 783.747 1352.26 769.253C1366.03 744.239 1367.55 714.9 1372.92 685.094C1373.04 683.691 1373.5 682.405 1373.74 681.002C1373.04 681.119 1372.34 681.587 1371.64 681.821C1358.45 688.483 1343.39 700.289 1333.71 714.783C1327.06 724.134 1320.87 737.109 1317.37 750.083C1313.75 763.759 1313.64 776.734 1315.39 790.41Z"/>
<path fill-rule="evenodd" clip-rule="evenodd" d="M1363.12 846.048C1347.6 843.944 1327.52 836.814 1318.66 816.943C1315.5 816.008 1310.02 815.424 1306.75 814.489C1305.82 814.372 1305.35 813.32 1305.23 812.034C1305.23 811.333 1305.7 810.281 1307.34 810.047C1311.19 810.631 1315.04 811.8 1319.36 812.268C1341.88 798.942 1360.08 792.864 1383.77 796.254C1410.96 800.111 1430.8 813.787 1441.42 822.554C1442.94 823.84 1444.45 825.008 1445.85 826.294C1439.32 834.359 1424.62 839.736 1415.86 842.074C1398.71 846.866 1381.9 848.737 1363.12 846.048Z"/>
</mask>
<path fill-rule="evenodd" clip-rule="evenodd" d="M362.232 831.437C232.232 813.436 137.59 711.16 94.4126 571.362C76.6747 513.502 74.1073 449.33 80.2923 382.237C91.7286 262.426 146.693 158.396 226.864 82.5358C227.214 82.1852 227.33 82.0683 227.447 82.4189C227.68 82.7696 228.381 83.1203 228.731 83.354C229.198 83.5878 229.314 83.354 228.964 83.9385C143.892 161.903 89.278 285.921 83.3264 411.225C74.1074 590.18 160.93 748.681 291.047 803.267C312.869 812.501 335.742 819.515 359.548 823.138C361.182 825.242 362.115 828.164 362.232 831.437Z" fill="#F2C94C"/>
<path fill-rule="evenodd" clip-rule="evenodd" d="M38.1647 532.555C48.7841 545.179 65.7052 557.569 83.9099 552.776C84.8435 554.179 89.628 561.192 90.3282 562.244C91.1451 563.53 92.6622 564.816 93.8291 563.764C94.5293 563.296 95.1128 562.244 94.4126 560.608C91.7286 557.335 89.1612 553.945 86.1271 550.438C80.7591 522.035 72.9404 503.099 56.6028 483.929C37.6979 461.954 18.3262 452.136 6.30644 448.045C4.55598 447.577 2.92223 447.11 1.17178 446.525C0.00480944 457.513 5.02277 473.526 8.99047 482.643C16.6925 501.346 25.0946 517.71 38.1647 532.555Z" fill="#F2C94C"/>
<path fill-rule="evenodd" clip-rule="evenodd" d="M194.539 132.447C193.022 133.031 184.153 135.369 183.102 133.616C182.752 133.148 183.219 131.395 184.036 131.278C187.303 130.927 190.921 130.694 194.072 129.992C199.79 111.992 215.661 104.16 230.248 101.121C247.752 97.6144 267.007 102.991 287.663 105.913C288.713 106.147 289.88 106.264 290.814 106.264C290.463 106.965 289.997 107.433 289.53 108.134C280.894 119.94 267.357 130.811 254.171 136.187C245.302 139.928 234.682 142.032 224.296 141.681C213.327 141.214 204.108 138.759 194.539 132.447Z" fill="#F2C94C"/>
<path fill-rule="evenodd" clip-rule="evenodd" d="M228.731 83.2372C229.431 83.4709 229.431 83.2372 230.715 82.5358C233.165 80.1981 235.266 78.7954 237.716 76.5745C251.72 76.6914 265.023 72.4835 277.627 64.0675C283.228 60.3271 288.83 55.7685 293.498 50.2747C304.7 38.2353 313.686 20.5852 317.771 4.45465C318.004 3.51955 318.121 2.9351 318.237 2C317.187 2.46755 316.254 2.93512 315.203 3.40267C292.564 12.5199 270.625 16.7279 252.42 34.378C240.05 46.1837 233.632 60.444 236.199 74.2368C233.399 76.4577 230.481 78.5617 227.797 81.1332C226.63 82.1852 228.031 83.2372 228.731 83.2372Z" fill="#F2C94C"/>
<path fill-rule="evenodd" clip-rule="evenodd" d="M146.343 207.84C144.826 208.658 136.307 213.1 135.023 211.58C134.44 210.996 134.673 209.126 135.49 208.775C138.641 207.606 142.375 206.788 145.526 205.385C146.693 192.644 153.811 180.722 167.932 172.54C189.521 161.085 214.027 162.955 237.133 160.968C238.3 160.851 239.35 160.851 240.4 160.734C240.05 161.435 239.7 162.02 239.467 162.721C231.765 176.046 219.278 190.423 206.558 198.606C198.04 204.333 187.537 208.658 177.034 210.762C165.948 212.983 156.495 211.697 146.343 207.84Z" fill="#F2C94C"/>
<path fill-rule="evenodd" clip-rule="evenodd" d="M33.2634 404.445C40.2653 420.225 52.8685 437.525 71.3066 438.694C71.8901 440.33 75.2743 447.928 75.7411 449.097C76.0912 450.733 77.2582 452.486 78.7752 451.785C79.4754 451.551 80.1756 450.616 80.0589 448.98C78.3084 444.772 76.0912 441.499 73.9906 437.174C75.6244 408.186 73.9907 387.029 62.9044 363.184C50.3012 335.715 33.03 319.935 22.4106 312.221C21.127 311.052 19.6099 310.117 18.0928 309.182C15.6422 320.403 16.4591 337.819 17.9761 347.872C20.6602 368.21 24.978 386.094 33.2634 404.445Z" fill="#F2C94C"/>
<path fill-rule="evenodd" clip-rule="evenodd" d="M53.9188 288.025C56.9529 304.857 64.5382 321.806 81.3426 329.17C81.576 330.923 83.4431 339.105 83.6765 340.391C83.6765 342.144 84.26 344.131 85.8937 343.897C86.3605 343.781 87.5275 343.313 87.6442 341.56C86.944 337.118 85.6603 332.092 84.8435 327.299C90.4449 306.844 93.479 288.142 92.5454 268.154C91.0284 239.984 80.5257 215.554 63.9547 195.917C62.671 194.515 61.7375 192.995 60.5705 191.709C55.9026 201.411 52.8685 218.009 52.0516 227.945C50.3012 248.049 50.4179 268.271 53.9188 288.025Z" fill="#F2C94C"/>
<path fill-rule="evenodd" clip-rule="evenodd" d="M96.2798 181.774C95.813 199.073 100.014 218.477 114.484 229.698C114.368 231.451 114.018 239.867 114.018 241.036C113.784 242.672 113.901 244.659 115.535 245.01C116.118 245.01 117.169 244.893 117.519 243.257C117.869 238.932 117.985 232.269 118.219 227.477C130.589 206.437 137.24 183.527 137.474 157.344C137.941 127.07 130.472 107.784 124.52 95.6273C123.704 93.9909 122.887 92.3544 122.07 90.718C115.535 98.6664 109.35 113.862 106.549 123.213C100.948 142.149 96.8633 161.903 96.2798 181.774Z" fill="#F2C94C"/>
<path fill-rule="evenodd" clip-rule="evenodd" d="M160.463 84.7567C156.729 101.004 157.779 124.849 169.916 134.668C169.449 136.772 168.398 144.019 168.282 145.655C167.815 147.409 167.465 149.045 168.865 149.746C169.449 149.98 169.916 149.98 170.616 148.461C171.433 143.902 171.666 140.162 172.366 135.486C189.637 117.018 199.44 98.7833 204.925 73.8861C210.409 47.8201 209.593 27.1309 207.259 12.5199C207.025 10.7666 206.558 9.01329 206.092 7.14308C190.921 19.2994 180.185 35.3131 171.083 53.5476C166.181 63.4831 162.33 73.6523 160.463 84.7567Z" fill="#F2C94C"/>
<path fill-rule="evenodd" clip-rule="evenodd" d="M107.599 307.311C106.199 308.597 98.497 315.961 96.6298 315.026C96.1631 314.559 95.813 312.104 96.6298 311.636C99.5473 309.299 103.282 307.545 106.199 305.324C105.265 291.298 108.416 277.037 121.136 263.712C140.741 244.659 166.765 238.231 190.454 228.412C191.504 227.945 192.555 227.36 193.838 226.893C193.605 227.711 193.488 228.646 193.138 229.464C188.47 245.828 179.135 264.881 167.815 277.739C160.463 286.388 150.544 294.688 140.158 300.181C129.305 306.026 119.036 307.896 107.599 307.311Z" fill="#F2C94C"/>
<path fill-rule="evenodd" clip-rule="evenodd" d="M91.2618 421.511C90.2115 423.381 84.0266 433.434 82.0427 432.966C81.2259 432.966 80.409 430.511 80.9925 429.576C83.5598 426.187 86.8273 423.498 89.0445 419.992C85.0768 407.134 86.944 388.549 96.5132 370.782C111.684 344.833 133.856 332.209 155.328 314.091C156.262 313.156 157.196 312.338 158.246 311.286C158.363 312.104 158.479 313.039 158.363 314.091C157.896 331.858 153.228 354.184 144.942 371.015C139.574 382.354 131.639 393.692 122.537 403.16C113.084 412.628 103.048 418.121 91.2618 421.511Z" fill="#F2C94C"/>
<path fill-rule="evenodd" clip-rule="evenodd" d="M101.998 533.49C101.181 535.711 96.98 547.633 94.8794 548.101C94.1792 547.984 92.7789 546.231 93.3624 544.945C95.1128 540.971 97.0966 536.412 98.7304 532.321C91.4952 525.424 89.0446 506.255 94.8794 486.15C104.565 456.694 126.154 434.603 143.542 410.173C144.359 409.004 145.176 407.835 145.993 406.666C146.226 407.484 146.343 408.42 146.576 409.355C149.61 426.537 149.377 449.33 144.709 467.916C141.558 480.306 136.073 493.982 128.955 505.67C121.603 518.06 112.851 526.593 101.998 533.49Z" fill="#F2C94C"/>
<path fill-rule="evenodd" clip-rule="evenodd" d="M75.9745 664.521C89.1612 673.171 112.734 679.717 128.955 669.08C130.239 670.015 137.007 674.106 137.824 674.807C138.991 675.976 140.625 676.794 141.675 675.158C142.258 674.457 142.608 673.288 141.441 672.002C138.057 669.664 134.323 668.145 130.705 665.807C118.335 640.092 105.032 622.675 84.6101 609.818C61.2707 594.856 41.7823 594.622 29.2957 594.622C27.5453 594.622 25.7948 594.739 24.0444 594.739C27.0785 620.104 58.4699 653.651 75.9745 664.521Z" fill="#F2C94C"/>
<path fill-rule="evenodd" clip-rule="evenodd" d="M140.741 644.65C140.625 646.287 139.808 653.534 138.641 657.975C138.291 659.261 138.174 661.132 136.424 660.43C135.723 660.313 135.023 658.794 135.023 658.092C135.84 653.768 136.54 648.858 136.89 644.533C128.838 639.39 122.537 622.558 121.253 601.869C122.653 570.66 136.657 542.373 147.86 512.917C148.21 511.632 148.677 510.229 149.143 508.826C149.61 509.528 149.844 510.229 150.31 510.93C157.779 526.36 163.497 547.984 163.964 567.504C164.431 580.245 162.564 595.09 158.829 608.882C154.862 623.026 149.027 634.13 140.741 644.65Z" fill="#F2C94C"/>
<path fill-rule="evenodd" clip-rule="evenodd" d="M147.393 771.24C162.564 774.279 183.102 773.578 195.939 757.213C199.206 757.681 204.458 758.499 207.842 758.733C208.776 758.85 209.476 758.148 209.826 756.98C210.059 756.161 209.826 755.109 208.309 754.291C204.458 753.473 200.607 753.473 196.522 752.772C179.485 732.784 163.381 721.562 140.158 717.355C113.318 712.445 90.5616 719.342 78.4251 724.368C76.7914 724.952 75.0409 725.654 73.5239 726.472C77.8417 736.174 90.4449 746.109 98.3803 750.901C113.551 760.954 129.072 768.201 147.393 771.24Z" fill="#F2C94C"/>
<path fill-rule="evenodd" clip-rule="evenodd" d="M201.657 729.043C201.89 730.797 202.124 737.81 202.124 742.485C202.007 743.771 202.357 745.525 200.607 745.641C199.79 745.641 198.856 744.589 198.856 743.771C198.506 739.446 198.74 734.771 198.039 730.329C189.054 727.524 177.151 713.848 171.666 695.029C165.364 664.872 172.249 633.78 175.517 601.869C175.75 600.466 175.634 599.064 175.75 597.544C176.334 598.129 177.034 598.713 177.618 599.298C188.587 611.337 199.557 629.922 204.808 648.157C208.426 660.079 210.293 674.807 210.293 688.951C210.059 703.796 207.025 716.303 201.657 729.043Z" fill="#F2C94C"/>
<path fill-rule="evenodd" clip-rule="evenodd" d="M286.612 790.41C287.429 791.695 288.48 797.54 289.647 801.982C289.997 803.034 290.697 804.67 289.063 805.254C288.246 805.605 287.196 804.904 286.963 804.202C285.445 800.462 285.445 796.488 283.578 792.747C274.826 794.851 259.655 783.747 249.736 769.253C235.966 744.239 234.449 714.9 229.081 685.094C228.964 683.691 228.497 682.405 228.264 681.002C228.964 681.119 229.664 681.587 230.365 681.821C243.551 688.483 258.605 700.289 268.291 714.783C274.943 724.134 281.128 737.109 284.629 750.083C288.246 763.759 288.363 776.734 286.612 790.41Z" fill="#F2C94C"/>
<path fill-rule="evenodd" clip-rule="evenodd" d="M238.883 846.048C254.404 843.944 274.476 836.814 283.345 816.943C286.496 816.008 291.98 815.424 295.248 814.489C296.182 814.372 296.648 813.32 296.765 812.034C296.765 811.333 296.298 810.281 294.665 810.047C290.814 810.631 286.962 811.8 282.645 812.268C260.122 798.942 241.918 792.864 218.228 796.254C191.038 800.111 171.199 813.787 160.58 822.554C159.063 823.84 157.546 825.008 156.145 826.294C162.68 834.359 177.384 839.736 186.136 842.074C203.291 846.866 220.095 848.737 238.883 846.048Z" fill="#F2C94C"/>
<path fill-rule="evenodd" clip-rule="evenodd" d="M1239.77 831.437C1369.77 813.436 1464.41 711.16 1507.59 571.362C1525.33 513.502 1527.89 449.33 1521.71 382.237C1510.27 262.426 1455.31 158.396 1375.14 82.5358C1374.79 82.1852 1374.67 82.0683 1374.55 82.4189C1374.32 82.7696 1373.62 83.1203 1373.27 83.354C1372.8 83.5878 1372.69 83.354 1373.04 83.9385C1458.11 161.903 1512.72 285.921 1518.67 411.225C1527.89 590.18 1441.07 748.681 1310.95 803.267C1289.13 812.501 1266.26 819.515 1242.45 823.138C1240.82 825.242 1239.88 828.164 1239.77 831.437Z" fill="#F2C94C"/>
<path fill-rule="evenodd" clip-rule="evenodd" d="M1563.84 532.555C1553.22 545.179 1536.29 557.569 1518.09 552.776C1517.16 554.179 1512.37 561.192 1511.67 562.244C1510.85 563.53 1509.34 564.816 1508.17 563.764C1507.47 563.296 1506.89 562.244 1507.59 560.608C1510.27 557.335 1512.84 553.945 1515.87 550.438C1521.24 522.035 1529.06 503.099 1545.4 483.929C1564.3 461.954 1583.67 452.136 1595.69 448.045C1597.44 447.577 1599.08 447.11 1600.83 446.525C1602 457.513 1596.98 473.526 1593.01 482.643C1585.31 501.346 1576.91 517.71 1563.84 532.555Z" fill="#F2C94C"/>
<path fill-rule="evenodd" clip-rule="evenodd" d="M1407.46 132.447C1408.98 133.031 1417.85 135.369 1418.9 133.616C1419.25 133.148 1418.78 131.395 1417.96 131.278C1414.7 130.927 1411.08 130.694 1407.93 129.992C1402.21 111.992 1386.34 104.16 1371.75 101.121C1354.25 97.6144 1334.99 102.991 1314.34 105.913C1313.29 106.147 1312.12 106.264 1311.19 106.264C1311.54 106.965 1312 107.433 1312.47 108.134C1321.11 119.94 1334.64 130.811 1347.83 136.187C1356.7 139.928 1367.32 142.032 1377.7 141.681C1388.67 141.214 1397.89 138.759 1407.46 132.447Z" fill="#F2C94C"/>
<path fill-rule="evenodd" clip-rule="evenodd" d="M1373.27 83.2372C1372.57 83.4709 1372.57 83.2372 1371.29 82.5358C1368.83 80.1981 1366.73 78.7954 1364.28 76.5745C1350.28 76.6914 1336.98 72.4835 1324.37 64.0675C1318.77 60.3271 1313.17 55.7685 1308.5 50.2747C1297.3 38.2353 1288.31 20.5852 1284.23 4.45465C1284 3.51955 1283.88 2.9351 1283.76 2C1284.81 2.46755 1285.75 2.93512 1286.8 3.40267C1309.44 12.5199 1331.38 16.7279 1349.58 34.378C1361.95 46.1837 1368.37 60.444 1365.8 74.2368C1368.6 76.4577 1371.52 78.5617 1374.2 81.1332C1375.37 82.1852 1373.97 83.2372 1373.27 83.2372Z" fill="#F2C94C"/>
<path fill-rule="evenodd" clip-rule="evenodd" d="M1455.66 207.84C1457.17 208.658 1465.69 213.1 1466.98 211.58C1467.56 210.996 1467.33 209.126 1466.51 208.775C1463.36 207.606 1459.62 206.788 1456.47 205.385C1455.31 192.644 1448.19 180.722 1434.07 172.54C1412.48 161.085 1387.97 162.955 1364.87 160.968C1363.7 160.851 1362.65 160.851 1361.6 160.734C1361.95 161.435 1362.3 162.02 1362.53 162.721C1370.24 176.046 1382.72 190.423 1395.44 198.606C1403.96 204.333 1414.46 208.658 1424.97 210.762C1436.05 212.983 1445.5 211.697 1455.66 207.84Z" fill="#F2C94C"/>
<path fill-rule="evenodd" clip-rule="evenodd" d="M1568.74 404.445C1561.73 420.225 1549.13 437.525 1530.69 438.694C1530.11 440.33 1526.73 447.928 1526.26 449.097C1525.91 450.733 1524.74 452.486 1523.22 451.785C1522.52 451.551 1521.82 450.616 1521.94 448.98C1523.69 444.772 1525.91 441.499 1528.01 437.174C1526.38 408.186 1528.01 387.029 1539.1 363.184C1551.7 335.715 1568.97 319.935 1579.59 312.221C1580.87 311.052 1582.39 310.117 1583.91 309.182C1586.36 320.403 1585.54 337.819 1584.02 347.872C1581.34 368.21 1577.02 386.094 1568.74 404.445Z" fill="#F2C94C"/>
<path fill-rule="evenodd" clip-rule="evenodd" d="M1548.08 288.025C1545.05 304.857 1537.46 321.806 1520.66 329.17C1520.42 330.923 1518.56 339.105 1518.32 340.391C1518.32 342.144 1517.74 344.131 1516.11 343.897C1515.64 343.781 1514.47 343.313 1514.36 341.56C1515.06 337.118 1516.34 332.092 1517.16 327.299C1511.56 306.844 1508.52 288.142 1509.45 268.154C1510.97 239.984 1521.47 215.554 1538.05 195.917C1539.33 194.515 1540.26 192.995 1541.43 191.709C1546.1 201.411 1549.13 218.009 1549.95 227.945C1551.7 248.049 1551.58 268.271 1548.08 288.025Z" fill="#F2C94C"/>
<path fill-rule="evenodd" clip-rule="evenodd" d="M1505.72 181.774C1506.19 199.073 1501.99 218.477 1487.52 229.698C1487.63 231.451 1487.98 239.867 1487.98 241.036C1488.22 242.672 1488.1 244.659 1486.47 245.01C1485.88 245.01 1484.83 244.893 1484.48 243.257C1484.13 238.932 1484.01 232.269 1483.78 227.477C1471.41 206.437 1464.76 183.527 1464.53 157.344C1464.06 127.07 1471.53 107.784 1477.48 95.6273C1478.3 93.9909 1479.11 92.3544 1479.93 90.718C1486.47 98.6664 1492.65 113.862 1495.45 123.213C1501.05 142.149 1505.14 161.903 1505.72 181.774Z" fill="#F2C94C"/>
<path fill-rule="evenodd" clip-rule="evenodd" d="M1441.54 84.7567C1445.27 101.004 1444.22 124.849 1432.08 134.668C1432.55 136.772 1433.6 144.019 1433.72 145.655C1434.19 147.409 1434.54 149.045 1433.13 149.746C1432.55 149.98 1432.08 149.98 1431.38 148.461C1430.57 143.902 1430.33 140.162 1429.63 135.486C1412.36 117.018 1402.56 98.7833 1397.08 73.8861C1391.59 47.8201 1392.41 27.1309 1394.74 12.5199C1394.97 10.7666 1395.44 9.01329 1395.91 7.14308C1411.08 19.2994 1421.82 35.3131 1430.92 53.5476C1435.82 63.4831 1439.67 73.6523 1441.54 84.7567Z" fill="#F2C94C"/>
<path fill-rule="evenodd" clip-rule="evenodd" d="M1494.4 307.311C1495.8 308.597 1503.5 315.961 1505.37 315.026C1505.84 314.559 1506.19 312.104 1505.37 311.636C1502.45 309.299 1498.72 307.545 1495.8 305.324C1496.73 291.298 1493.58 277.037 1480.86 263.712C1461.26 244.659 1435.24 238.231 1411.55 228.412C1410.5 227.945 1409.45 227.36 1408.16 226.893C1408.39 227.711 1408.51 228.646 1408.86 229.464C1413.53 245.828 1422.87 264.881 1434.19 277.739C1441.54 286.388 1451.46 294.688 1461.84 300.181C1472.69 306.026 1482.96 307.896 1494.4 307.311Z" fill="#F2C94C"/>
<path fill-rule="evenodd" clip-rule="evenodd" d="M1510.74 421.511C1511.79 423.381 1517.97 433.434 1519.96 432.966C1520.77 432.966 1521.59 430.511 1521.01 429.576C1518.44 426.187 1515.17 423.498 1512.96 419.992C1516.92 407.134 1515.06 388.549 1505.49 370.782C1490.32 344.833 1468.14 332.209 1446.67 314.091C1445.74 313.156 1444.8 312.338 1443.75 311.286C1443.64 312.104 1443.52 313.039 1443.64 314.091C1444.1 331.858 1448.77 354.184 1457.06 371.015C1462.43 382.354 1470.36 393.692 1479.46 403.16C1488.92 412.628 1498.95 418.121 1510.74 421.511Z" fill="#F2C94C"/>
<path fill-rule="evenodd" clip-rule="evenodd" d="M1500 533.49C1500.82 535.711 1505.02 547.633 1507.12 548.101C1507.82 547.984 1509.22 546.231 1508.64 544.945C1506.89 540.971 1504.9 536.412 1503.27 532.321C1510.5 525.424 1512.96 506.255 1507.12 486.15C1497.43 456.694 1475.85 434.603 1458.46 410.173C1457.64 409.004 1456.82 407.835 1456.01 406.666C1455.77 407.484 1455.66 408.42 1455.42 409.355C1452.39 426.537 1452.62 449.33 1457.29 467.916C1460.44 480.306 1465.93 493.982 1473.05 505.67C1480.4 518.06 1489.15 526.593 1500 533.49Z" fill="#F2C94C"/>
<path fill-rule="evenodd" clip-rule="evenodd" d="M1526.03 664.521C1512.84 673.171 1489.27 679.717 1473.05 669.08C1471.76 670.015 1464.99 674.106 1464.18 674.807C1463.01 675.976 1461.38 676.794 1460.33 675.158C1459.74 674.457 1459.39 673.288 1460.56 672.002C1463.94 669.664 1467.68 668.145 1471.29 665.807C1483.66 640.092 1496.97 622.675 1517.39 609.818C1540.73 594.856 1560.22 594.622 1572.7 594.622C1574.45 594.622 1576.21 594.739 1577.96 594.739C1574.92 620.104 1543.53 653.651 1526.03 664.521Z" fill="#F2C94C"/>
<path fill-rule="evenodd" clip-rule="evenodd" d="M1461.26 644.65C1461.38 646.287 1462.19 653.534 1463.36 657.975C1463.71 659.261 1463.83 661.132 1465.58 660.43C1466.28 660.313 1466.98 658.794 1466.98 658.092C1466.16 653.768 1465.46 648.858 1465.11 644.533C1473.16 639.39 1479.46 622.558 1480.75 601.869C1479.35 570.66 1465.34 542.373 1454.14 512.917C1453.79 511.632 1453.32 510.229 1452.86 508.826C1452.39 509.528 1452.16 510.229 1451.69 510.93C1444.22 526.36 1438.5 547.984 1438.04 567.504C1437.57 580.245 1439.44 595.09 1443.17 608.882C1447.14 623.026 1452.97 634.13 1461.26 644.65Z" fill="#F2C94C"/>
<path fill-rule="evenodd" clip-rule="evenodd" d="M1454.61 771.24C1439.44 774.279 1418.9 773.578 1406.06 757.213C1402.79 757.681 1397.54 758.499 1394.16 758.733C1393.22 758.85 1392.52 758.148 1392.17 756.98C1391.94 756.161 1392.17 755.109 1393.69 754.291C1397.54 753.473 1401.39 753.473 1405.48 752.772C1422.52 732.784 1438.62 721.562 1461.84 717.355C1488.68 712.445 1511.44 719.342 1523.57 724.368C1525.21 724.952 1526.96 725.654 1528.48 726.472C1524.16 736.174 1511.56 746.109 1503.62 750.901C1488.45 760.954 1472.93 768.201 1454.61 771.24Z" fill="#F2C94C"/>
<path fill-rule="evenodd" clip-rule="evenodd" d="M1400.34 729.043C1400.11 730.797 1399.88 737.81 1399.88 742.485C1399.99 743.771 1399.64 745.525 1401.39 745.641C1402.21 745.641 1403.14 744.589 1403.14 743.771C1403.49 739.446 1403.26 734.771 1403.96 730.329C1412.95 727.524 1424.85 713.848 1430.33 695.029C1436.64 664.872 1429.75 633.78 1426.48 601.869C1426.25 600.466 1426.37 599.064 1426.25 597.544C1425.67 598.129 1424.97 598.713 1424.38 599.298C1413.41 611.337 1402.44 629.922 1397.19 648.157C1393.57 660.079 1391.71 674.807 1391.71 688.951C1391.94 703.796 1394.97 716.303 1400.34 729.043Z" fill="#F2C94C"/>
<path fill-rule="evenodd" clip-rule="evenodd" d="M1315.39 790.41C1314.57 791.695 1313.52 797.54 1312.35 801.982C1312 803.034 1311.3 804.67 1312.94 805.254C1313.75 805.605 1314.8 804.904 1315.04 804.202C1316.55 800.462 1316.55 796.488 1318.42 792.747C1327.17 794.851 1342.34 783.747 1352.26 769.253C1366.03 744.239 1367.55 714.9 1372.92 685.094C1373.04 683.691 1373.5 682.405 1373.74 681.002C1373.04 681.119 1372.34 681.587 1371.64 681.821C1358.45 688.483 1343.39 700.289 1333.71 714.783C1327.06 724.134 1320.87 737.109 1317.37 750.083C1313.75 763.759 1313.64 776.734 1315.39 790.41Z" fill="#F2C94C"/>
<path fill-rule="evenodd" clip-rule="evenodd" d="M1363.12 846.048C1347.6 843.944 1327.52 836.814 1318.66 816.943C1315.5 816.008 1310.02 815.424 1306.75 814.489C1305.82 814.372 1305.35 813.32 1305.23 812.034C1305.23 811.333 1305.7 810.281 1307.34 810.047C1311.19 810.631 1315.04 811.8 1319.36 812.268C1341.88 798.942 1360.08 792.864 1383.77 796.254C1410.96 800.111 1430.8 813.787 1441.42 822.554C1442.94 823.84 1444.45 825.008 1445.85 826.294C1439.32 834.359 1424.62 839.736 1415.86 842.074C1398.71 846.866 1381.9 848.737 1363.12 846.048Z" fill="#F2C94C"/>
<path fill-rule="evenodd" clip-rule="evenodd" d="M362.232 831.437C232.232 813.436 137.59 711.16 94.4126 571.362C76.6747 513.502 74.1073 449.33 80.2923 382.237C91.7286 262.426 146.693 158.396 226.864 82.5358C227.214 82.1852 227.33 82.0683 227.447 82.4189C227.68 82.7696 228.381 83.1203 228.731 83.354C229.198 83.5878 229.314 83.354 228.964 83.9385C143.892 161.903 89.278 285.921 83.3264 411.225C74.1074 590.18 160.93 748.681 291.047 803.267C312.869 812.501 335.742 819.515 359.548 823.138C361.182 825.242 362.115 828.164 362.232 831.437Z" stroke="#F2C94C" stroke-width="2" mask="url(#path-1-outside-1_1_33)"/>
<path fill-rule="evenodd" clip-rule="evenodd" d="M38.1647 532.555C48.7841 545.179 65.7052 557.569 83.9099 552.776C84.8435 554.179 89.628 561.192 90.3282 562.244C91.1451 563.53 92.6622 564.816 93.8291 563.764C94.5293 563.296 95.1128 562.244 94.4126 560.608C91.7286 557.335 89.1612 553.945 86.1271 550.438C80.7591 522.035 72.9404 503.099 56.6028 483.929C37.6979 461.954 18.3262 452.136 6.30644 448.045C4.55598 447.577 2.92223 447.11 1.17178 446.525C0.00480944 457.513 5.02277 473.526 8.99047 482.643C16.6925 501.346 25.0946 517.71 38.1647 532.555Z" stroke="#F2C94C" stroke-width="2" mask="url(#path-1-outside-1_1_33)"/>
<path fill-rule="evenodd" clip-rule="evenodd" d="M194.539 132.447C193.022 133.031 184.153 135.369 183.102 133.616C182.752 133.148 183.219 131.395 184.036 131.278C187.303 130.927 190.921 130.694 194.072 129.992C199.79 111.992 215.661 104.16 230.248 101.121C247.752 97.6144 267.007 102.991 287.663 105.913C288.713 106.147 289.88 106.264 290.814 106.264C290.463 106.965 289.997 107.433 289.53 108.134C280.894 119.94 267.357 130.811 254.171 136.187C245.302 139.928 234.682 142.032 224.296 141.681C213.327 141.214 204.108 138.759 194.539 132.447Z" stroke="#F2C94C" stroke-width="2" mask="url(#path-1-outside-1_1_33)"/>
<path fill-rule="evenodd" clip-rule="evenodd" d="M228.731 83.2372C229.431 83.4709 229.431 83.2372 230.715 82.5358C233.165 80.1981 235.266 78.7954 237.716 76.5745C251.72 76.6914 265.023 72.4835 277.627 64.0675C283.228 60.3271 288.83 55.7685 293.498 50.2747C304.7 38.2353 313.686 20.5852 317.771 4.45465C318.004 3.51955 318.121 2.9351 318.237 2C317.187 2.46755 316.254 2.93512 315.203 3.40267C292.564 12.5199 270.625 16.7279 252.42 34.378C240.05 46.1837 233.632 60.444 236.199 74.2368C233.399 76.4577 230.481 78.5617 227.797 81.1332C226.63 82.1852 228.031 83.2372 228.731 83.2372Z" stroke="#F2C94C" stroke-width="2" mask="url(#path-1-outside-1_1_33)"/>
<path fill-rule="evenodd" clip-rule="evenodd" d="M146.343 207.84C144.826 208.658 136.307 213.1 135.023 211.58C134.44 210.996 134.673 209.126 135.49 208.775C138.641 207.606 142.375 206.788 145.526 205.385C146.693 192.644 153.811 180.722 167.932 172.54C189.521 161.085 214.027 162.955 237.133 160.968C238.3 160.851 239.35 160.851 240.4 160.734C240.05 161.435 239.7 162.02 239.467 162.721C231.765 176.046 219.278 190.423 206.558 198.606C198.04 204.333 187.537 208.658 177.034 210.762C165.948 212.983 156.495 211.697 146.343 207.84Z" stroke="#F2C94C" stroke-width="2" mask="url(#path-1-outside-1_1_33)"/>
<path fill-rule="evenodd" clip-rule="evenodd" d="M33.2634 404.445C40.2653 420.225 52.8685 437.525 71.3066 438.694C71.8901 440.33 75.2743 447.928 75.7411 449.097C76.0912 450.733 77.2582 452.486 78.7752 451.785C79.4754 451.551 80.1756 450.616 80.0589 448.98C78.3084 444.772 76.0912 441.499 73.9906 437.174C75.6244 408.186 73.9907 387.029 62.9044 363.184C50.3012 335.715 33.03 319.935 22.4106 312.221C21.127 311.052 19.6099 310.117 18.0928 309.182C15.6422 320.403 16.4591 337.819 17.9761 347.872C20.6602 368.21 24.978 386.094 33.2634 404.445Z" stroke="#F2C94C" stroke-width="2" mask="url(#path-1-outside-1_1_33)"/>
<path fill-rule="evenodd" clip-rule="evenodd" d="M53.9188 288.025C56.9529 304.857 64.5382 321.806 81.3426 329.17C81.576 330.923 83.4431 339.105 83.6765 340.391C83.6765 342.144 84.26 344.131 85.8937 343.897C86.3605 343.781 87.5275 343.313 87.6442 341.56C86.944 337.118 85.6603 332.092 84.8435 327.299C90.4449 306.844 93.479 288.142 92.5454 268.154C91.0284 239.984 80.5257 215.554 63.9547 195.917C62.671 194.515 61.7375 192.995 60.5705 191.709C55.9026 201.411 52.8685 218.009 52.0516 227.945C50.3012 248.049 50.4179 268.271 53.9188 288.025Z" stroke="#F2C94C" stroke-width="2" mask="url(#path-1-outside-1_1_33)"/>
<path fill-rule="evenodd" clip-rule="evenodd" d="M96.2798 181.774C95.813 199.073 100.014 218.477 114.484 229.698C114.368 231.451 114.018 239.867 114.018 241.036C113.784 242.672 113.901 244.659 115.535 245.01C116.118 245.01 117.169 244.893 117.519 243.257C117.869 238.932 117.985 232.269 118.219 227.477C130.589 206.437 137.24 183.527 137.474 157.344C137.941 127.07 130.472 107.784 124.52 95.6273C123.704 93.9909 122.887 92.3544 122.07 90.718C115.535 98.6664 109.35 113.862 106.549 123.213C100.948 142.149 96.8633 161.903 96.2798 181.774Z" stroke="#F2C94C" stroke-width="2" mask="url(#path-1-outside-1_1_33)"/>
<path fill-rule="evenodd" clip-rule="evenodd" d="M160.463 84.7567C156.729 101.004 157.779 124.849 169.916 134.668C169.449 136.772 168.398 144.019 168.282 145.655C167.815 147.409 167.465 149.045 168.865 149.746C169.449 149.98 169.916 149.98 170.616 148.461C171.433 143.902 171.666 140.162 172.366 135.486C189.637 117.018 199.44 98.7833 204.925 73.8861C210.409 47.8201 209.593 27.1309 207.259 12.5199C207.025 10.7666 206.558 9.01329 206.092 7.14308C190.921 19.2994 180.185 35.3131 171.083 53.5476C166.181 63.4831 162.33 73.6523 160.463 84.7567Z" stroke="#F2C94C" stroke-width="2" mask="url(#path-1-outside-1_1_33)"/>
<path fill-rule="evenodd" clip-rule="evenodd" d="M107.599 307.311C106.199 308.597 98.497 315.961 96.6298 315.026C96.1631 314.559 95.813 312.104 96.6298 311.636C99.5473 309.299 103.282 307.545 106.199 305.324C105.265 291.298 108.416 277.037 121.136 263.712C140.741 244.659 166.765 238.231 190.454 228.412C191.504 227.945 192.555 227.36 193.838 226.893C193.605 227.711 193.488 228.646 193.138 229.464C188.47 245.828 179.135 264.881 167.815 277.739C160.463 286.388 150.544 294.688 140.158 300.181C129.305 306.026 119.036 307.896 107.599 307.311Z" stroke="#F2C94C" stroke-width="2" mask="url(#path-1-outside-1_1_33)"/>
<path fill-rule="evenodd" clip-rule="evenodd" d="M91.2618 421.511C90.2115 423.381 84.0266 433.434 82.0427 432.966C81.2259 432.966 80.409 430.511 80.9925 429.576C83.5598 426.187 86.8273 423.498 89.0445 419.992C85.0768 407.134 86.944 388.549 96.5132 370.782C111.684 344.833 133.856 332.209 155.328 314.091C156.262 313.156 157.196 312.338 158.246 311.286C158.363 312.104 158.479 313.039 158.363 314.091C157.896 331.858 153.228 354.184 144.942 371.015C139.574 382.354 131.639 393.692 122.537 403.16C113.084 412.628 103.048 418.121 91.2618 421.511Z" stroke="#F2C94C" stroke-width="2" mask="url(#path-1-outside-1_1_33)"/>
<path fill-rule="evenodd" clip-rule="evenodd" d="M101.998 533.49C101.181 535.711 96.98 547.633 94.8794 548.101C94.1792 547.984 92.7789 546.231 93.3624 544.945C95.1128 540.971 97.0966 536.412 98.7304 532.321C91.4952 525.424 89.0446 506.255 94.8794 486.15C104.565 456.694 126.154 434.603 143.542 410.173C144.359 409.004 145.176 407.835 145.993 406.666C146.226 407.484 146.343 408.42 146.576 409.355C149.61 426.537 149.377 449.33 144.709 467.916C141.558 480.306 136.073 493.982 128.955 505.67C121.603 518.06 112.851 526.593 101.998 533.49Z" stroke="#F2C94C" stroke-width="2" mask="url(#path-1-outside-1_1_33)"/>
<path fill-rule="evenodd" clip-rule="evenodd" d="M75.9745 664.521C89.1612 673.171 112.734 679.717 128.955 669.08C130.239 670.015 137.007 674.106 137.824 674.807C138.991 675.976 140.625 676.794 141.675 675.158C142.258 674.457 142.608 673.288 141.441 672.002C138.057 669.664 134.323 668.145 130.705 665.807C118.335 640.092 105.032 622.675 84.6101 609.818C61.2707 594.856 41.7823 594.622 29.2957 594.622C27.5453 594.622 25.7948 594.739 24.0444 594.739C27.0785 620.104 58.4699 653.651 75.9745 664.521Z" stroke="#F2C94C" stroke-width="2" mask="url(#path-1-outside-1_1_33)"/>
<path fill-rule="evenodd" clip-rule="evenodd" d="M140.741 644.65C140.625 646.287 139.808 653.534 138.641 657.975C138.291 659.261 138.174 661.132 136.424 660.43C135.723 660.313 135.023 658.794 135.023 658.092C135.84 653.768 136.54 648.858 136.89 644.533C128.838 639.39 122.537 622.558 121.253 601.869C122.653 570.66 136.657 542.373 147.86 512.917C148.21 511.632 148.677 510.229 149.143 508.826C149.61 509.528 149.844 510.229 150.31 510.93C157.779 526.36 163.497 547.984 163.964 567.504C164.431 580.245 162.564 595.09 158.829 608.882C154.862 623.026 149.027 634.13 140.741 644.65Z" stroke="#F2C94C" stroke-width="2" mask="url(#path-1-outside-1_1_33)"/>
<path fill-rule="evenodd" clip-rule="evenodd" d="M147.393 771.24C162.564 774.279 183.102 773.578 195.939 757.213C199.206 757.681 204.458 758.499 207.842 758.733C208.776 758.85 209.476 758.148 209.826 756.98C210.059 756.161 209.826 755.109 208.309 754.291C204.458 753.473 200.607 753.473 196.522 752.772C179.485 732.784 163.381 721.562 140.158 717.355C113.318 712.445 90.5616 719.342 78.4251 724.368C76.7914 724.952 75.0409 725.654 73.5239 726.472C77.8417 736.174 90.4449 746.109 98.3803 750.901C113.551 760.954 129.072 768.201 147.393 771.24Z" stroke="#F2C94C" stroke-width="2" mask="url(#path-1-outside-1_1_33)"/>
<path fill-rule="evenodd" clip-rule="evenodd" d="M201.657 729.043C201.89 730.797 202.124 737.81 202.124 742.485C202.007 743.771 202.357 745.525 200.607 745.641C199.79 745.641 198.856 744.589 198.856 743.771C198.506 739.446 198.74 734.771 198.039 730.329C189.054 727.524 177.151 713.848 171.666 695.029C165.364 664.872 172.249 633.78 175.517 601.869C175.75 600.466 175.634 599.064 175.75 597.544C176.334 598.129 177.034 598.713 177.618 599.298C188.587 611.337 199.557 629.922 204.808 648.157C208.426 660.079 210.293 674.807 210.293 688.951C210.059 703.796 207.025 716.303 201.657 729.043Z" stroke="#F2C94C" stroke-width="2" mask="url(#path-1-outside-1_1_33)"/>
<path fill-rule="evenodd" clip-rule="evenodd" d="M286.612 790.41C287.429 791.695 288.48 797.54 289.647 801.982C289.997 803.034 290.697 804.67 289.063 805.254C288.246 805.605 287.196 804.904 286.963 804.202C285.445 800.462 285.445 796.488 283.578 792.747C274.826 794.851 259.655 783.747 249.736 769.253C235.966 744.239 234.449 714.9 229.081 685.094C228.964 683.691 228.497 682.405 228.264 681.002C228.964 681.119 229.664 681.587 230.365 681.821C243.551 688.483 258.605 700.289 268.291 714.783C274.943 724.134 281.128 737.109 284.629 750.083C288.246 763.759 288.363 776.734 286.612 790.41Z" stroke="#F2C94C" stroke-width="2" mask="url(#path-1-outside-1_1_33)"/>
<path fill-rule="evenodd" clip-rule="evenodd" d="M238.883 846.048C254.404 843.944 274.476 836.814 283.345 816.943C286.496 816.008 291.98 815.424 295.248 814.489C296.182 814.372 296.648 813.32 296.765 812.034C296.765 811.333 296.298 810.281 294.665 810.047C290.814 810.631 286.962 811.8 282.645 812.268C260.122 798.942 241.918 792.864 218.228 796.254C191.038 800.111 171.199 813.787 160.58 822.554C159.063 823.84 157.546 825.008 156.145 826.294C162.68 834.359 177.384 839.736 186.136 842.074C203.291 846.866 220.095 848.737 238.883 846.048Z" stroke="#F2C94C" stroke-width="2" mask="url(#path-1-outside-1_1_33)"/>
<path fill-rule="evenodd" clip-rule="evenodd" d="M1239.77 831.437C1369.77 813.436 1464.41 711.16 1507.59 571.362C1525.33 513.502 1527.89 449.33 1521.71 382.237C1510.27 262.426 1455.31 158.396 1375.14 82.5358C1374.79 82.1852 1374.67 82.0683 1374.55 82.4189C1374.32 82.7696 1373.62 83.1203 1373.27 83.354C1372.8 83.5878 1372.69 83.354 1373.04 83.9385C1458.11 161.903 1512.72 285.921 1518.67 411.225C1527.89 590.18 1441.07 748.681 1310.95 803.267C1289.13 812.501 1266.26 819.515 1242.45 823.138C1240.82 825.242 1239.88 828.164 1239.77 831.437Z" stroke="#F2C94C" stroke-width="2" mask="url(#path-1-outside-1_1_33)"/>
<path fill-rule="evenodd" clip-rule="evenodd" d="M1563.84 532.555C1553.22 545.179 1536.29 557.569 1518.09 552.776C1517.16 554.179 1512.37 561.192 1511.67 562.244C1510.85 563.53 1509.34 564.816 1508.17 563.764C1507.47 563.296 1506.89 562.244 1507.59 560.608C1510.27 557.335 1512.84 553.945 1515.87 550.438C1521.24 522.035 1529.06 503.099 1545.4 483.929C1564.3 461.954 1583.67 452.136 1595.69 448.045C1597.44 447.577 1599.08 447.11 1600.83 446.525C1602 457.513 1596.98 473.526 1593.01 482.643C1585.31 501.346 1576.91 517.71 1563.84 532.555Z" stroke="#F2C94C" stroke-width="2" mask="url(#path-1-outside-1_1_33)"/>
<path fill-rule="evenodd" clip-rule="evenodd" d="M1407.46 132.447C1408.98 133.031 1417.85 135.369 1418.9 133.616C1419.25 133.148 1418.78 131.395 1417.96 131.278C1414.7 130.927 1411.08 130.694 1407.93 129.992C1402.21 111.992 1386.34 104.16 1371.75 101.121C1354.25 97.6144 1334.99 102.991 1314.34 105.913C1313.29 106.147 1312.12 106.264 1311.19 106.264C1311.54 106.965 1312 107.433 1312.47 108.134C1321.11 119.94 1334.64 130.811 1347.83 136.187C1356.7 139.928 1367.32 142.032 1377.7 141.681C1388.67 141.214 1397.89 138.759 1407.46 132.447Z" stroke="#F2C94C" stroke-width="2" mask="url(#path-1-outside-1_1_33)"/>
<path fill-rule="evenodd" clip-rule="evenodd" d="M1373.27 83.2372C1372.57 83.4709 1372.57 83.2372 1371.29 82.5358C1368.83 80.1981 1366.73 78.7954 1364.28 76.5745C1350.28 76.6914 1336.98 72.4835 1324.37 64.0675C1318.77 60.3271 1313.17 55.7685 1308.5 50.2747C1297.3 38.2353 1288.31 20.5852 1284.23 4.45465C1284 3.51955 1283.88 2.9351 1283.76 2C1284.81 2.46755 1285.75 2.93512 1286.8 3.40267C1309.44 12.5199 1331.38 16.7279 1349.58 34.378C1361.95 46.1837 1368.37 60.444 1365.8 74.2368C1368.6 76.4577 1371.52 78.5617 1374.2 81.1332C1375.37 82.1852 1373.97 83.2372 1373.27 83.2372Z" stroke="#F2C94C" stroke-width="2" mask="url(#path-1-outside-1_1_33)"/>
<path fill-rule="evenodd" clip-rule="evenodd" d="M1455.66 207.84C1457.17 208.658 1465.69 213.1 1466.98 211.58C1467.56 210.996 1467.33 209.126 1466.51 208.775C1463.36 207.606 1459.62 206.788 1456.47 205.385C1455.31 192.644 1448.19 180.722 1434.07 172.54C1412.48 161.085 1387.97 162.955 1364.87 160.968C1363.7 160.851 1362.65 160.851 1361.6 160.734C1361.95 161.435 1362.3 162.02 1362.53 162.721C1370.24 176.046 1382.72 190.423 1395.44 198.606C1403.96 204.333 1414.46 208.658 1424.97 210.762C1436.05 212.983 1445.5 211.697 1455.66 207.84Z" stroke="#F2C94C" stroke-width="2" mask="url(#path-1-outside-1_1_33)"/>
<path fill-rule="evenodd" clip-rule="evenodd" d="M1568.74 404.445C1561.73 420.225 1549.13 437.525 1530.69 438.694C1530.11 440.33 1526.73 447.928 1526.26 449.097C1525.91 450.733 1524.74 452.486 1523.22 451.785C1522.52 451.551 1521.82 450.616 1521.94 448.98C1523.69 444.772 1525.91 441.499 1528.01 437.174C1526.38 408.186 1528.01 387.029 1539.1 363.184C1551.7 335.715 1568.97 319.935 1579.59 312.221C1580.87 311.052 1582.39 310.117 1583.91 309.182C1586.36 320.403 1585.54 337.819 1584.02 347.872C1581.34 368.21 1577.02 386.094 1568.74 404.445Z" stroke="#F2C94C" stroke-width="2" mask="url(#path-1-outside-1_1_33)"/>
<path fill-rule="evenodd" clip-rule="evenodd" d="M1548.08 288.025C1545.05 304.857 1537.46 321.806 1520.66 329.17C1520.42 330.923 1518.56 339.105 1518.32 340.391C1518.32 342.144 1517.74 344.131 1516.11 343.897C1515.64 343.781 1514.47 343.313 1514.36 341.56C1515.06 337.118 1516.34 332.092 1517.16 327.299C1511.56 306.844 1508.52 288.142 1509.45 268.154C1510.97 239.984 1521.47 215.554 1538.05 195.917C1539.33 194.515 1540.26 192.995 1541.43 191.709C1546.1 201.411 1549.13 218.009 1549.95 227.945C1551.7 248.049 1551.58 268.271 1548.08 288.025Z" stroke="#F2C94C" stroke-width="2" mask="url(#path-1-outside-1_1_33)"/>
<path fill-rule="evenodd" clip-rule="evenodd" d="M1505.72 181.774C1506.19 199.073 1501.99 218.477 1487.52 229.698C1487.63 231.451 1487.98 239.867 1487.98 241.036C1488.22 242.672 1488.1 244.659 1486.47 245.01C1485.88 245.01 1484.83 244.893 1484.48 243.257C1484.13 238.932 1484.01 232.269 1483.78 227.477C1471.41 206.437 1464.76 183.527 1464.53 157.344C1464.06 127.07 1471.53 107.784 1477.48 95.6273C1478.3 93.9909 1479.11 92.3544 1479.93 90.718C1486.47 98.6664 1492.65 113.862 1495.45 123.213C1501.05 142.149 1505.14 161.903 1505.72 181.774Z" stroke="#F2C94C" stroke-width="2" mask="url(#path-1-outside-1_1_33)"/>
<path fill-rule="evenodd" clip-rule="evenodd" d="M1441.54 84.7567C1445.27 101.004 1444.22 124.849 1432.08 134.668C1432.55 136.772 1433.6 144.019 1433.72 145.655C1434.19 147.409 1434.54 149.045 1433.13 149.746C1432.55 149.98 1432.08 149.98 1431.38 148.461C1430.57 143.902 1430.33 140.162 1429.63 135.486C1412.36 117.018 1402.56 98.7833 1397.08 73.8861C1391.59 47.8201 1392.41 27.1309 1394.74 12.5199C1394.97 10.7666 1395.44 9.01329 1395.91 7.14308C1411.08 19.2994 1421.82 35.3131 1430.92 53.5476C1435.82 63.4831 1439.67 73.6523 1441.54 84.7567Z" stroke="#F2C94C" stroke-width="2" mask="url(#path-1-outside-1_1_33)"/>
<path fill-rule="evenodd" clip-rule="evenodd" d="M1494.4 307.311C1495.8 308.597 1503.5 315.961 1505.37 315.026C1505.84 314.559 1506.19 312.104 1505.37 311.636C1502.45 309.299 1498.72 307.545 1495.8 305.324C1496.73 291.298 1493.58 277.037 1480.86 263.712C1461.26 244.659 1435.24 238.231 1411.55 228.412C1410.5 227.945 1409.45 227.36 1408.16 226.893C1408.39 227.711 1408.51 228.646 1408.86 229.464C1413.53 245.828 1422.87 264.881 1434.19 277.739C1441.54 286.388 1451.46 294.688 1461.84 300.181C1472.69 306.026 1482.96 307.896 1494.4 307.311Z" stroke="#F2C94C" stroke-width="2" mask="url(#path-1-outside-1_1_33)"/>
<path fill-rule="evenodd" clip-rule="evenodd" d="M1510.74 421.511C1511.79 423.381 1517.97 433.434 1519.96 432.966C1520.77 432.966 1521.59 430.511 1521.01 429.576C1518.44 426.187 1515.17 423.498 1512.96 419.992C1516.92 407.134 1515.06 388.549 1505.49 370.782C1490.32 344.833 1468.14 332.209 1446.67 314.091C1445.74 313.156 1444.8 312.338 1443.75 311.286C1443.64 312.104 1443.52 313.039 1443.64 314.091C1444.1 331.858 1448.77 354.184 1457.06 371.015C1462.43 382.354 1470.36 393.692 1479.46 403.16C1488.92 412.628 1498.95 418.121 1510.74 421.511Z" stroke="#F2C94C" stroke-width="2" mask="url(#path-1-outside-1_1_33)"/>
<path fill-rule="evenodd" clip-rule="evenodd" d="M1500 533.49C1500.82 535.711 1505.02 547.633 1507.12 548.101C1507.82 547.984 1509.22 546.231 1508.64 544.945C1506.89 540.971 1504.9 536.412 1503.27 532.321C1510.5 525.424 1512.96 506.255 1507.12 486.15C1497.43 456.694 1475.85 434.603 1458.46 410.173C1457.64 409.004 1456.82 407.835 1456.01 406.666C1455.77 407.484 1455.66 408.42 1455.42 409.355C1452.39 426.537 1452.62 449.33 1457.29 467.916C1460.44 480.306 1465.93 493.982 1473.05 505.67C1480.4 518.06 1489.15 526.593 1500 533.49Z" stroke="#F2C94C" stroke-width="2" mask="url(#path-1-outside-1_1_33)"/>
<path fill-rule="evenodd" clip-rule="evenodd" d="M1526.03 664.521C1512.84 673.171 1489.27 679.717 1473.05 669.08C1471.76 670.015 1464.99 674.106 1464.18 674.807C1463.01 675.976 1461.38 676.794 1460.33 675.158C1459.74 674.457 1459.39 673.288 1460.56 672.002C1463.94 669.664 1467.68 668.145 1471.29 665.807C1483.66 640.092 1496.97 622.675 1517.39 609.818C1540.73 594.856 1560.22 594.622 1572.7 594.622C1574.45 594.622 1576.21 594.739 1577.96 594.739C1574.92 620.104 1543.53 653.651 1526.03 664.521Z" stroke="#F2C94C" stroke-width="2" mask="url(#path-1-outside-1_1_33)"/>
<path fill-rule="evenodd" clip-rule="evenodd" d="M1461.26 644.65C1461.38 646.287 1462.19 653.534 1463.36 657.975C1463.71 659.261 1463.83 661.132 1465.58 660.43C1466.28 660.313 1466.98 658.794 1466.98 658.092C1466.16 653.768 1465.46 648.858 1465.11 644.533C1473.16 639.39 1479.46 622.558 1480.75 601.869C1479.35 570.66 1465.34 542.373 1454.14 512.917C1453.79 511.632 1453.32 510.229 1452.86 508.826C1452.39 509.528 1452.16 510.229 1451.69 510.93C1444.22 526.36 1438.5 547.984 1438.04 567.504C1437.57 580.245 1439.44 595.09 1443.17 608.882C1447.14 623.026 1452.97 634.13 1461.26 644.65Z" stroke="#F2C94C" stroke-width="2" mask="url(#path-1-outside-1_1_33)"/>
<path fill-rule="evenodd" clip-rule="evenodd" d="M1454.61 771.24C1439.44 774.279 1418.9 773.578 1406.06 757.213C1402.79 757.681 1397.54 758.499 1394.16 758.733C1393.22 758.85 1392.52 758.148 1392.17 756.98C1391.94 756.161 1392.17 755.109 1393.69 754.291C1397.54 753.473 1401.39 753.473 1405.48 752.772C1422.52 732.784 1438.62 721.562 1461.84 717.355C1488.68 712.445 1511.44 719.342 1523.57 724.368C1525.21 724.952 1526.96 725.654 1528.48 726.472C1524.16 736.174 1511.56 746.109 1503.62 750.901C1488.45 760.954 1472.93 768.201 1454.61 771.24Z" stroke="#F2C94C" stroke-width="2" mask="url(#path-1-outside-1_1_33)"/>
<path fill-rule="evenodd" clip-rule="evenodd" d="M1400.34 729.043C1400.11 730.797 1399.88 737.81 1399.88 742.485C1399.99 743.771 1399.64 745.525 1401.39 745.641C1402.21 745.641 1403.14 744.589 1403.14 743.771C1403.49 739.446 1403.26 734.771 1403.96 730.329C1412.95 727.524 1424.85 713.848 1430.33 695.029C1436.64 664.872 1429.75 633.78 1426.48 601.869C1426.25 600.466 1426.37 599.064 1426.25 597.544C1425.67 598.129 1424.97 598.713 1424.38 599.298C1413.41 611.337 1402.44 629.922 1397.19 648.157C1393.57 660.079 1391.71 674.807 1391.71 688.951C1391.94 703.796 1394.97 716.303 1400.34 729.043Z" stroke="#F2C94C" stroke-width="2" mask="url(#path-1-outside-1_1_33)"/>
<path fill-rule="evenodd" clip-rule="evenodd" d="M1315.39 790.41C1314.57 791.695 1313.52 797.54 1312.35 801.982C1312 803.034 1311.3 804.67 1312.94 805.254C1313.75 805.605 1314.8 804.904 1315.04 804.202C1316.55 800.462 1316.55 796.488 1318.42 792.747C1327.17 794.851 1342.34 783.747 1352.26 769.253C1366.03 744.239 1367.55 714.9 1372.92 685.094C1373.04 683.691 1373.5 682.405 1373.74 681.002C1373.04 681.119 1372.34 681.587 1371.64 681.821C1358.45 688.483 1343.39 700.289 1333.71 714.783C1327.06 724.134 1320.87 737.109 1317.37 750.083C1313.75 763.759 1313.64 776.734 1315.39 790.41Z" stroke="#F2C94C" stroke-width="2" mask="url(#path-1-outside-1_1_33)"/>
<path fill-rule="evenodd" clip-rule="evenodd" d="M1363.12 846.048C1347.6 843.944 1327.52 836.814 1318.66 816.943C1315.5 816.008 1310.02 815.424 1306.75 814.489C1305.82 814.372 1305.35 813.32 1305.23 812.034C1305.23 811.333 1305.7 810.281 1307.34 810.047C1311.19 810.631 1315.04 811.8 1319.36 812.268C1341.88 798.942 1360.08 792.864 1383.77 796.254C1410.96 800.111 1430.8 813.787 1441.42 822.554C1442.94 823.84 1444.45 825.008 1445.85 826.294C1439.32 834.359 1424.62 839.736 1415.86 842.074C1398.71 846.866 1381.9 848.737 1363.12 846.048Z" stroke="#F2C94C" stroke-width="2" mask="url(#path-1-outside-1_1_33)"/>
<path d="M704.333 365.668C687.667 366.602 648.867 371.668 629 375.535C606.2 379.935 563.4 391.135 534.6 400.202C531.667 401.135 539.4 413.668 549.533 424.468C570.333 446.468 602.467 462.335 649 473.802C683.667 482.335 716.6 486.068 767.667 487.002C814.467 487.802 859.4 485.668 953.667 477.935C980.467 475.802 1071 475.002 1110.33 476.602C1150.73 478.202 1163.27 479.402 1190.33 484.202C1211.4 487.935 1250.87 495.135 1254.73 495.935C1258.33 496.735 1257.4 494.468 1253.4 493.002C1251.27 492.202 1246.33 490.335 1242.33 488.868C1219.53 480.202 1194.07 474.068 1162.07 469.535C1118.2 463.268 1105.27 462.868 935.667 462.735C766.333 462.735 765.4 462.735 721 456.068C695.933 452.335 665.267 444.735 643.667 437.135C638.467 435.268 628.2 429.535 626.333 427.402C625.933 426.868 623.4 424.868 620.6 422.735C609.4 414.335 610.867 411.535 631 403.668C665.667 389.935 699 383.002 739.667 381.135C763.933 380.068 807.667 383.802 831 388.868C879.533 399.535 902.467 407.402 941 426.735C948.733 430.468 957.8 434.335 961.267 435.268C967.133 436.602 1006.33 439.935 1007.13 439.002C1009.53 436.735 966.467 413.002 937.667 400.868C929.533 397.402 901.533 387.268 897 386.068C894.467 385.535 888.2 383.668 883 382.202C860.067 375.268 818.2 368.335 787 366.068C769.8 364.868 723.133 364.602 704.333 365.668Z" fill="#F2C94C"/>
<path d="M467.667 418.868C447.8 422.468 433.8 426.602 421.267 432.335C413.8 435.668 393 447.268 391.667 448.735C391.267 449.135 388.333 451.135 385 453.268C371.533 461.935 354.2 476.735 357.533 476.735C357.8 476.735 365.133 473.135 373.667 468.735C406.467 451.935 433.667 444.335 461.667 444.202C475.8 444.202 481 444.735 489.933 447.268C499.133 449.802 517.267 458.868 519.667 462.068C523.133 466.602 553.133 483.268 567.667 488.602C598.6 499.935 643.133 506.202 691.667 505.935C721.933 505.802 721.667 505.268 688.333 500.202C628.333 491.002 584.067 474.202 548.467 447.002C542.467 442.602 535 436.868 531.8 434.468C524.467 428.868 514.6 424.202 504.333 421.402C496.333 419.268 473.933 417.668 467.667 418.868Z" fill="#F2C94C"/>
<path d="M578.333 519.935C560.2 525.402 548.067 538.468 546.6 554.335C546.067 559.535 546.6 561.668 549.133 565.402C552.733 570.602 563.4 575.935 574.2 578.068C588.067 580.602 592.867 586.068 585.667 590.868C582.867 592.602 580.333 593.002 572.867 592.335C563.933 591.535 559.533 589.802 550.2 583.135C548.333 581.802 546.333 583.002 538.467 590.068C533.267 594.602 529 599.135 529 600.068C529 601.002 531.267 603.268 534.2 605.268C551.4 617.135 578.867 618.735 598.333 608.735C613 601.268 623.133 581.002 617.8 569.935C614.867 563.802 606.467 558.735 593.533 555.668C587.667 554.202 581.533 552.335 579.933 551.535C576.333 549.535 576.2 545.935 579.667 542.735C583.4 539.402 596.2 540.602 604.467 545.268C607.933 547.135 611.4 548.735 612.2 548.735C615 548.735 630.733 531.802 629.933 529.668C629.533 528.602 625.267 525.802 620.467 523.402C612.867 519.535 610.333 519.002 598.067 518.602C589 518.335 582.333 518.735 578.333 519.935Z" fill="#F2C94C"/>
<path d="M903.933 520.202C884.733 525.268 872.467 539.135 872.333 555.668C872.333 561.935 872.867 563.802 875.667 566.735C879.8 571.135 886.2 574.468 895 576.602C909.933 580.468 914.333 582.468 914.333 585.535C914.333 595.268 891.667 595.135 878.867 585.402C873.8 581.535 873.4 581.535 871.133 583.802C870.2 584.602 866.067 588.335 861.933 591.935C857.8 595.535 854.333 599.002 854.333 599.668C854.333 601.535 859.4 605.668 865.667 609.002C873.667 613.268 883.267 615.402 894.333 615.402C917.933 615.402 935.8 605.135 942.333 587.935C948.333 571.668 943.933 563.802 925.667 557.935C905.533 551.668 903 550.468 902.6 547.935C902.067 543.402 904.467 541.668 912.2 541.002C918.6 540.468 920.867 541.002 928.2 544.602C932.867 546.868 937.133 548.735 937.667 548.735C939.267 548.735 955.667 532.335 955.667 530.735C955.667 528.068 945.533 522.202 937.4 520.068C927.933 517.535 913.267 517.668 903.933 520.202Z" fill="#F2C94C"/>
<path d="M371.133 521.002C370.733 521.935 370.333 523.935 369.933 525.402C369.133 529.002 356.067 573.668 354.333 578.868C352.067 585.802 345 611.402 345 612.735C345 613.535 350.467 614.068 358.333 614.068C373.8 614.068 372.2 615.668 377.8 595.135L381.667 580.735H404.6H427.533L430.333 571.802C431.8 566.735 433.4 561.668 433.8 560.335C434.467 558.202 432.867 558.068 411.667 558.068H388.733L389.533 554.602C390.067 552.602 390.867 549.402 391.267 547.268L392.067 543.402H417.667H443.267L446.2 533.668C450.867 517.802 454.733 519.402 410.333 519.402C380.467 519.402 371.4 519.802 371.133 521.002Z" fill="#F2C94C"/>
<path d="M478.333 526.068C471 536.468 435 585.935 433.267 588.068C429.533 592.868 415.667 612.468 415.667 613.135C415.667 613.668 422.2 614.068 430.067 614.068H444.6L450.467 605.402L456.333 596.735L474.333 597.002L492.2 597.402L493.667 605.402L495 613.402H509.667C521.933 613.402 524.333 613.135 524.067 611.402C523.933 610.335 521.933 596.468 519.667 580.735C517.267 565.002 514.467 544.868 513.267 536.068L511 520.068L497 519.802L483 519.402L478.333 526.068ZM489.533 566.335C490.467 574.602 490.333 575.402 488.067 575.535C486.733 575.535 482.467 575.802 478.6 576.068C470.067 576.602 470.067 576.602 479.933 562.735C487.8 551.802 488.067 551.802 489.533 566.335Z" fill="#F2C94C"/>
<path d="M640.6 520.335C639.933 521.402 634.333 541.535 634.333 542.735C634.333 543.135 640.6 543.402 648.333 543.402C656.067 543.402 662.333 543.802 662.333 544.335C662.333 545.002 660.467 551.402 658.333 558.735C656.2 566.068 652.733 577.802 650.867 584.735C648.867 591.668 646.2 600.735 644.867 604.735C643.667 608.735 642.867 612.468 643.133 613.002C643.533 613.668 649.8 614.068 657 614.068H670.067L672.067 607.668C673.133 604.202 675.4 596.602 677 590.735C678.6 584.868 681.667 574.335 683.667 567.402C685.8 560.468 688.2 552.202 689 549.002L690.467 543.402H705.4H720.333L722.6 534.335C723.933 529.402 725.267 524.068 725.8 522.335L726.6 519.402H683.933C660.333 519.402 640.867 519.802 640.6 520.335Z" fill="#F2C94C"/>
<path d="M772.333 531.002C770.467 537.535 767.933 546.068 766.867 550.068C764.2 559.268 760.067 573.402 758.067 579.268C756.067 585.535 749 611.802 749 613.002C749 614.468 775.4 614.335 776.2 612.868C776.6 612.202 778.467 606.335 780.2 599.935C786.6 576.735 789.667 567.135 790.867 567.135C791.667 567.135 797.667 577.668 804.2 590.602L816.333 614.068H828.467C839 614.068 840.733 613.802 841.4 611.668C841.8 610.468 845.533 597.668 849.667 583.402C853.933 569.135 858.067 554.735 859 551.402C859.933 548.068 862.2 540.335 864.2 533.935C866.067 527.668 867.667 521.935 867.667 521.002C867.667 519.802 863.667 519.402 853.933 519.402H840.067L838.733 525.002C835.4 538.202 827 566.068 826.333 566.068C825.933 566.068 820.2 555.535 813.667 542.735L801.667 519.402H788.733H775.8L772.333 531.002Z" fill="#F2C94C"/>
<path d="M970.467 529.002C968.867 534.335 966.333 542.602 964.867 547.402C955.267 579.135 953.667 590.602 957.533 599.935C960.067 606.068 968.2 612.335 976.067 614.202C979.933 615.135 987.933 615.535 995.533 615.135C1012.33 614.335 1024.33 609.268 1034.33 598.602C1042.87 589.668 1045.93 582.735 1053.53 556.735C1056.87 545.402 1060.6 533.002 1061.67 529.268C1062.73 525.535 1063.67 521.802 1063.67 521.002C1063.67 518.735 1037.53 518.868 1036.07 521.002C1035.53 521.935 1033.67 527.268 1032.2 532.735C1030.6 538.202 1027.13 550.202 1024.47 559.402C1017.27 584.202 1011.67 590.735 997.267 590.735C991.267 590.735 989.8 590.202 987.667 587.402C984.333 583.135 984.333 579.002 987.533 567.668C989 562.735 992.6 550.202 995.533 539.802C998.6 529.402 1001 520.602 1001 520.202C1001 519.802 994.733 519.402 987.133 519.402H973.267L970.467 529.002Z" fill="#F2C94C"/>
<path d="M1079.27 520.335C1078.73 521.268 1076.47 528.602 1065.67 565.402C1057.67 592.735 1053 609.535 1053 611.802C1053 613.935 1054.33 614.068 1066.47 613.802L1080.07 613.402L1081.8 607.402C1082.6 604.068 1084.33 597.935 1085.53 593.668L1087.8 586.068H1093.4H1099.13L1104.47 599.668L1109.8 613.402L1125.4 613.802C1136.33 614.068 1141 613.668 1141 612.602C1141 611.802 1138.6 605.002 1135.53 597.668C1132.47 590.202 1129.8 583.402 1129.53 582.602C1129.13 581.802 1131.8 579.802 1135.27 577.935C1148.07 571.402 1157 557.935 1158.07 543.402C1158.73 533.935 1155.13 528.068 1145.67 523.402C1139.27 520.202 1137.8 520.068 1109.53 519.668C1093.27 519.402 1079.67 519.668 1079.27 520.335ZM1126.2 545.535C1131.53 549.268 1127.93 558.468 1119.4 562.868C1115.67 564.868 1096.33 565.535 1095.27 563.668C1095 563.135 1095.93 558.335 1097.27 553.002L1099.93 543.402H1111.53C1120.07 543.402 1123.93 543.935 1126.2 545.535Z" fill="#F2C94C"/>
<path d="M1175.27 530.335C1173.53 536.468 1169.8 549.135 1167 558.735C1164.33 568.335 1160.07 583.002 1157.53 591.402C1155.13 599.802 1152.73 608.335 1152.2 610.468L1151.4 614.068L1191.13 613.802L1230.87 613.402L1233.93 602.868C1235.53 597.002 1236.73 592.068 1236.47 591.668C1236.07 591.402 1224.73 591.268 1211.13 591.402C1183.4 591.535 1184.6 592.068 1188.2 582.068L1189.93 577.402L1213.13 576.735L1236.2 576.068L1238.6 568.735C1243 554.468 1244.33 555.402 1218.87 555.402H1196.73L1197.67 550.335C1199.13 542.202 1200.2 541.935 1226.73 542.202C1239.8 542.335 1250.6 542.202 1250.87 541.935C1251.4 541.402 1257 521.268 1257 520.068C1257 519.668 1239.4 519.402 1217.8 519.402H1178.6L1175.27 530.335Z" fill="#F2C94C"/>
<path d="M744.867 523.802C739.533 527.402 738.2 532.868 741.8 536.868C743.533 538.735 745.933 539.402 750.867 539.402C763.667 539.402 772.333 529.402 765.267 523.002C761.533 519.535 750.467 520.068 744.867 523.802Z" fill="#F2C94C"/>
<path d="M737.667 552.735C734.067 553.402 726.733 553.935 721.533 553.935C714.067 554.068 711.8 554.602 711.133 556.202C709.933 559.402 709.933 559.402 715 559.402C718.867 559.402 719.667 559.935 719.667 562.068C719.667 563.668 713.4 574.202 705.667 585.535C697.533 597.668 691.667 607.535 691.667 609.402C691.667 614.868 696.867 617.135 707.8 616.468C715.267 615.935 718.467 614.868 724.067 611.402C733.267 605.668 742.2 599.002 742.333 597.668C742.467 594.735 737.933 595.668 732.067 599.935C725.4 604.735 718.333 607.402 718.333 605.002C718.333 603.802 734.2 579.668 747.133 561.135C750.333 556.468 753 552.468 753 552.068C753 551.135 745.933 551.535 737.667 552.735Z" fill="#F2C94C"/>
</svg>
