<svg width="147" height="43" viewBox="0 0 147 43" fill="none" xmlns="http://www.w3.org/2000/svg">
<g clip-path="url(#clip0_4600_95319)">
<path d="M32.4242 0.246094C29.0323 0.246094 25.5818 1.67325 23.3805 3.9351L24.6297 6.43355L24.1017 6.85564C21.7679 2.83162 17.477 0.246094 12.9097 0.246094C5.77208 0.246094 0.00102087 6.49223 0.00102087 13.8097V29.5745C-0.00515619 29.709 0.0167504 29.8433 0.0653339 29.9688C0.113917 30.0943 0.188114 30.2084 0.283203 30.3036C0.378292 30.3989 0.492178 30.4733 0.617615 30.5221C0.743052 30.5709 0.877293 30.5931 1.01176 30.5872H6.18848C6.43948 30.5872 6.6802 30.4875 6.85768 30.31C7.03516 30.1325 7.13487 29.8918 7.13487 29.6408V13.6904C7.13487 10.062 9.33616 7.08845 13.0838 7.08845C16.593 7.08845 19.0915 9.70426 19.0915 13.5712V26.6597C19.0827 26.7893 19.1006 26.9193 19.1442 27.0416C19.1878 27.164 19.2561 27.2761 19.3449 27.3709C19.4336 27.4657 19.541 27.5412 19.6602 27.5927C19.7794 27.6443 19.908 27.6707 20.0379 27.6704H24.9856C25.1155 27.6707 25.244 27.6443 25.3633 27.5927C25.4825 27.5412 25.5898 27.4657 25.6786 27.3709C25.7674 27.2761 25.8357 27.164 25.8793 27.0416C25.9229 26.9193 25.9408 26.7893 25.932 26.6597V13.5712C25.932 9.70426 28.5497 7.08845 32.0589 7.08845C35.8065 7.08845 37.8886 10.062 37.8886 13.6904V29.6351C37.9004 29.8935 38.0127 30.1371 38.2015 30.3139C38.3903 30.4907 38.6407 30.5867 38.8993 30.5815H44.0098C44.1444 30.5877 44.2789 30.5657 44.4045 30.517C44.5302 30.4683 44.6443 30.394 44.7396 30.2987C44.8349 30.2034 44.9093 30.0893 44.958 29.9636C45.0067 29.8379 45.0286 29.7035 45.0224 29.5689V13.8097C45.0224 6.49223 39.4899 0.246094 32.4109 0.246094" fill="#4928AA"/>
<path d="M63.067 24.5198C57.9566 24.5198 54.383 20.8894 54.383 15.7733C54.383 10.5984 57.9509 6.90944 63.067 6.90944C68.2438 6.90944 71.9328 10.5984 71.9328 15.7733C71.9328 20.8837 68.2438 24.5198 63.067 24.5198ZM78.7146 0.841221H74.0072C73.8775 0.832117 73.7473 0.849851 73.6247 0.893317C73.5021 0.936784 73.3898 1.00505 73.2948 1.09385C73.1998 1.18266 73.1241 1.29009 73.0724 1.40946C73.0208 1.52882 72.9943 1.65755 72.9946 1.78761V2.4425L74.6602 5.0602L74.2117 5.51068C71.4634 2.3895 67.5359 0.241211 63.0595 0.241211C54.612 0.241211 47.6523 7.14224 47.6523 15.7619C47.6628 19.8451 49.2894 23.7581 52.1765 26.6455C55.0635 29.5329 58.9763 31.16 63.0595 31.1709C67.5699 31.1709 71.5258 29.0378 74.2741 25.9166L74.6527 26.2327L73.0022 28.9772V29.5716C73.0009 29.7049 73.0262 29.8371 73.0767 29.9606C73.1271 30.084 73.2017 30.1961 73.296 30.2904C73.3902 30.3847 73.5024 30.4592 73.6258 30.5097C73.7492 30.5601 73.8815 30.5854 74.0148 30.5842H78.7146C78.849 30.5901 78.9833 30.568 79.1087 30.5191C79.2341 30.4703 79.348 30.3959 79.4431 30.3006C79.5382 30.2054 79.6124 30.0913 79.661 29.9658C79.7096 29.8403 79.7315 29.706 79.7253 29.5716V1.79328C79.7253 1.19895 79.3089 0.846899 78.7146 0.846899" fill="#4928AA"/>
<path d="M130.224 24.5198C125.113 24.5198 121.54 20.8894 121.54 15.7733C121.54 10.5984 125.107 6.90944 130.224 6.90944C135.4 6.90944 139.089 10.5984 139.089 15.7733C139.089 20.8837 135.4 24.5198 130.224 24.5198ZM145.871 0.841221H141.171C141.042 0.832117 140.911 0.849851 140.789 0.893317C140.666 0.936784 140.554 1.00505 140.459 1.09385C140.364 1.18266 140.288 1.29009 140.237 1.40946C140.185 1.52882 140.158 1.65755 140.159 1.78761V2.4425L141.824 5.0602L141.376 5.51068C138.628 2.3895 134.7 0.241211 130.224 0.241211C121.776 0.241211 114.816 7.14224 114.816 15.7619C114.827 19.8451 116.453 23.7581 119.341 26.6455C122.228 29.5329 126.14 31.16 130.224 31.1709C134.734 31.1709 138.69 29.0378 141.438 25.9166L141.817 26.2327L140.151 28.9697V29.564C140.15 29.6973 140.175 29.8296 140.226 29.953C140.276 30.0764 140.351 30.1886 140.445 30.2828C140.539 30.3771 140.651 30.4517 140.775 30.5021C140.898 30.5525 141.03 30.5779 141.164 30.5766H145.864C145.998 30.5825 146.132 30.5604 146.258 30.5116C146.383 30.4627 146.497 30.3883 146.592 30.2931C146.687 30.1978 146.761 30.0838 146.81 29.9582C146.859 29.8327 146.88 29.6984 146.874 29.564V1.79328C146.874 1.19895 146.458 0.846899 145.864 0.846899" fill="#4928AA"/>
<path d="M110.903 0.840332H106.086C105.312 0.840332 104.895 1.25674 104.895 1.67315V16.1888C104.895 20.7106 101.92 23.864 97.3395 23.864C93.1167 23.864 90.3797 20.7106 90.3797 16.1888V1.67315C90.3797 1.25674 89.7248 0.840332 89.3084 0.840332H84.1336C83.9175 0.854947 83.7141 0.947383 83.561 1.10051C83.4078 1.25364 83.3154 1.45708 83.3008 1.67315V16.1301C83.3008 23.864 89.369 30.5871 97.3395 30.5871C100.944 30.5868 104.424 29.2741 107.131 26.8943L107.398 27.1366L105.255 30.0514V31.1871C105.255 34.1606 100.794 35.8263 98.176 35.8263H96.5104C95.9161 35.8263 95.4391 36.2427 95.4391 36.7727V41.533C95.4391 42.0081 95.9161 42.4794 96.5104 42.4794H98.176C106.148 42.4794 111.978 37.8383 111.978 29.0937V1.67315C111.978 1.25674 111.562 0.840332 110.907 0.840332" fill="#4928AA"/>
</g>
<defs>
<clipPath id="clip0_4600_95319">
<rect width="146.879" height="42.239" fill="white" transform="translate(0 0.246094)"/>
</clipPath>
</defs>
</svg>
