<svg width="514" height="456" viewBox="0 0 514 456" fill="none" xmlns="http://www.w3.org/2000/svg">
<path d="M209.157 116.31L186.135 137.096H231.858L209.157 116.31Z" fill="#315B61"/>
<path d="M231.979 137.471C231.979 135.459 221.689 133.828 208.997 133.828C196.305 133.828 186.015 135.459 186.015 137.471C186.015 139.483 196.304 141.114 208.997 141.114C221.69 141.114 231.979 139.483 231.979 137.471Z" fill="#FCAF01"/>
<path d="M209.626 137.31C211.764 137.31 213.548 135.874 214.119 133.92C212.471 133.861 210.758 133.828 208.997 133.828C207.675 133.828 206.382 133.847 205.122 133.881C205.679 135.855 207.474 137.311 209.627 137.311L209.626 137.31Z" fill="white"/>
<path d="M209.157 116.435C209.088 116.435 209.032 116.379 209.032 116.31V0.560059C209.032 0.491059 209.088 0.435059 209.157 0.435059C209.226 0.435059 209.282 0.491059 209.282 0.560059V116.31C209.282 116.379 209.226 116.435 209.157 116.435Z" fill="black"/>
<path d="M50.769 453.543H12.954C12.954 453.543 22.658 449.257 40.227 449.257C57.796 449.257 50.769 453.543 50.769 453.543Z" fill="#D7B882"/>
<path d="M32 421.402L38.809 451.757C39.043 452.801 39.969 453.542 41.039 453.542H62.133C63.209 453.542 64.139 452.791 64.367 451.74L70.929 421.402H32Z" fill="#EBA100"/>
<path d="M70.928 421.402C70.928 422.531 62.213 423.447 51.464 423.447C40.715 423.447 32 422.532 32 421.402C32 420.272 40.714 419.358 51.464 419.358C62.214 419.358 70.928 420.273 70.928 421.402Z" fill="#E05E2B"/>
<path d="M54.817 406.948C62.45 409.107 72.7 407.137 75.317 401.362C77.934 395.586 75.317 385.33 82.078 380.971C82.078 380.971 65.067 391.049 54.817 406.948Z" fill="#AA9601"/>
<path d="M64.305 390.35C63.772 390.82 62.945 390.423 62.975 389.713C63.201 384.438 63.984 371.792 70.737 361.315C78.588 349.134 87.966 342.373 89.493 344.118C91.02 345.863 85.786 358.127 84.041 364.317C82.296 370.507 76.844 381.629 71.61 384.9C68.367 386.927 65.794 389.037 64.306 390.35H64.305Z" fill="#887D0A"/>
<path d="M76.501 396.551C77.716 391.115 86.119 383.098 89.769 383.126C89.769 383.126 84.797 377.584 80.112 382.223C75.427 386.862 76.502 396.55 76.502 396.55L76.501 396.551Z" fill="#897E00"/>
<path d="M47.487 407.191C47.487 407.191 42.059 396.622 34.045 390.553C26.03 384.484 15.726 373.232 11.964 364.563C8.20204 355.894 0.733033 350.062 0.733033 350.062C-1.22997 350.66 2.04203 360.855 4.65903 362.191C7.27603 363.528 12.51 372.903 16.436 386.643C20.362 400.384 34.101 406.097 40.426 406.948C42.685 407.252 44.359 407.544 45.579 407.794C46.323 407.946 47.019 407.68 47.489 407.191H47.487Z" fill="#AA9601"/>
<path d="M11.963 364.563C15.725 373.232 26.03 384.485 34.044 390.553C42.059 396.622 47.486 407.191 47.486 407.191C47.922 406.738 48.166 406.096 48.057 405.401C46.968 398.429 43.616 381.621 35.625 372.643C25.375 361.128 14.471 358.292 11.853 355.457C9.23601 352.622 2.69302 349.463 0.731018 350.061C0.731018 350.061 8.20102 355.893 11.962 364.562L11.963 364.563Z" fill="#897E00"/>
<path d="M57.761 363.418C57.434 349.679 61.032 332.504 59.615 323.498C58.743 325.362 56.78 336.092 53.072 345.23C49.365 354.368 45.439 368.762 46.966 379.884C48.116 388.264 50.504 394.536 51.426 398.379C51.512 398.738 51.722 399.005 51.982 399.189C53.89 394.232 58.088 377.157 57.761 363.418Z" fill="#AA9601"/>
<path d="M53.826 398.926C56.457 395.519 60.949 388.637 63.323 378.913C66.812 364.618 64.413 341.225 63.323 334.711C62.233 328.197 60.488 321.633 59.616 323.498C61.034 332.505 57.435 349.679 57.762 363.418C58.089 377.158 53.89 394.232 51.982 399.189C52.537 399.581 53.344 399.55 53.826 398.926Z" fill="#897E00"/>
<path d="M51.464 422.12C51.249 422.12 51.074 421.945 51.074 421.73C51.072 420.773 51.067 398.223 53.889 391.241C53.971 391.041 54.199 390.944 54.398 391.025C54.598 391.106 54.695 391.334 54.614 391.534C51.848 398.375 51.854 421.496 51.855 421.729C51.855 421.945 51.68 422.12 51.464 422.12Z" fill="black"/>
<path d="M51.637 413.288C51.58 413.288 51.522 413.276 51.467 413.249C51.273 413.155 51.192 412.921 51.286 412.727C51.302 412.695 52.894 409.434 57.418 402.57C57.535 402.389 57.778 402.34 57.959 402.459C58.139 402.577 58.189 402.82 58.07 403C53.58 409.812 52.004 413.036 51.989 413.067C51.921 413.206 51.782 413.287 51.638 413.287L51.637 413.288Z" fill="black"/>
<path d="M51.464 415.905C51.288 415.905 51.128 415.785 51.084 415.607C49.856 410.542 42.848 400.44 36.877 393.507C36.737 393.344 36.755 393.097 36.918 392.956C37.083 392.817 37.328 392.833 37.469 392.997C42.47 398.803 50.424 409.567 51.844 415.422C51.894 415.632 51.765 415.843 51.556 415.894C51.525 415.901 51.494 415.905 51.464 415.905Z" fill="black"/>
<path d="M52.059 405.376C51.982 405.376 51.905 405.354 51.837 405.307C51.659 405.185 51.615 404.942 51.738 404.764C51.881 404.557 66.124 383.877 73.441 369.242C73.539 369.05 73.773 368.973 73.965 369.067C74.158 369.164 74.236 369.398 74.14 369.591C66.798 384.275 52.524 405 52.38 405.208C52.305 405.318 52.183 405.376 52.059 405.376Z" fill="black"/>
<path d="M55.192 387.591C55.159 387.591 55.124 387.586 55.089 387.577C54.882 387.521 54.759 387.306 54.815 387.097C56.557 380.705 56.891 371.766 57.214 363.122C57.388 358.467 57.552 354.07 57.923 350.078C58.984 338.674 59.496 331.296 59.501 331.223C59.516 331.008 59.695 330.836 59.917 330.86C60.132 330.875 60.295 331.062 60.28 331.277C60.275 331.35 59.761 338.738 58.701 350.15C58.332 354.121 58.168 358.507 57.995 363.151C57.67 371.839 57.335 380.824 55.569 387.303C55.522 387.476 55.365 387.591 55.192 387.591Z" fill="black"/>
<path d="M34.044 390.944C33.931 390.944 33.819 390.895 33.742 390.801C29.204 385.254 25.517 381.904 22.553 379.212C18.967 375.954 16.134 373.38 13.666 368.697C9.25203 360.318 6.01202 355.891 5.98002 355.848C5.85202 355.674 5.88902 355.43 6.06202 355.302C6.23602 355.172 6.48003 355.211 6.60803 355.384C6.64103 355.428 9.91202 359.896 14.357 368.333C16.76 372.895 19.411 375.303 23.079 378.636C26.061 381.344 29.773 384.716 34.346 390.308C34.483 390.475 34.458 390.72 34.291 390.857C34.219 390.916 34.131 390.945 34.044 390.945V390.944Z" fill="black"/>
<path d="M76.372 366.015C76.313 366.015 76.254 366.002 76.198 365.974C76.005 365.878 75.927 365.644 76.023 365.451C76.319 364.856 83.319 350.829 87.016 346.481C87.156 346.318 87.402 346.296 87.567 346.437C87.731 346.576 87.751 346.823 87.611 346.987C83.976 351.263 76.794 365.653 76.722 365.798C76.654 365.935 76.516 366.015 76.373 366.015H76.372Z" fill="black"/>
<path d="M60.446 399.837C60.358 399.837 60.271 399.808 60.198 399.749C60.032 399.612 60.007 399.365 60.144 399.199C66.145 391.896 76.992 383.908 77.101 383.828C77.273 383.699 77.519 383.736 77.647 383.912C77.774 384.086 77.737 384.33 77.563 384.458C77.455 384.537 66.685 392.468 60.748 399.695C60.67 399.789 60.559 399.837 60.446 399.837Z" fill="black"/>
<path d="M238.642 275.444C238.889 275.335 243.847 271.264 244.494 271.318C245.141 271.372 249.888 273.556 250.858 274.689C251.829 275.822 251.02 279.274 251.02 279.274C251.02 279.274 247.641 279.22 244.989 278.438C242.336 277.656 236.808 276.254 238.642 275.445V275.444Z" fill="#DC2C2B"/>
<path d="M265.907 296.78L263.879 291.581C263.879 291.581 264.451 287.763 266.662 286.889C268.873 286.015 271.3 287.04 271.624 287.795C271.948 288.55 271.57 293.025 271.354 293.727C271.138 294.429 266.823 298.106 265.906 296.78H265.907Z" fill="#DC2C2B"/>
<path d="M295.536 320.574C295.536 320.574 276.734 324.066 267.249 331.227C257.763 338.388 214.723 386.283 211.81 388.871C208.897 391.459 185.921 392.107 183.008 392.754C180.095 393.401 175.241 389.841 175.241 389.841C175.241 389.841 173.299 392.106 173.731 394.048C174.163 395.99 178.909 400.089 182.145 400.736C185.381 401.383 198.757 405.267 202.425 408.071C206.093 410.876 208.897 416.269 213.428 416.485C217.959 416.701 219.253 402.462 221.195 399.441C223.137 396.42 268.227 367.018 274.915 358.527C281.603 350.036 304.601 346.082 304.601 346.082L295.537 320.573L295.536 320.574Z" fill="#DF5D2C"/>
<path d="M348.787 306.371C348.787 306.371 354.503 314.569 356.351 323.63C358.2 332.691 354.063 339.164 339.196 344.341C324.328 349.519 290.904 350.874 290.904 350.874L292.947 335.277L301.685 333.033L293.687 329.626L295.536 320.574L348.787 306.371Z" fill="#F3D9C7"/>
<path d="M296.509 350.929C302.053 349.045 311.429 348.284 330.768 346.721C350.106 345.158 360.139 346.841 360.408 347.803C360.677 348.765 361.888 354.056 360.408 354.857C358.928 355.659 340.185 353.093 323.862 354.857C307.54 356.621 299.469 357.582 298.661 357.182C297.854 356.781 295.212 351.33 296.509 350.93V350.929Z" fill="#D92C2A"/>
<path d="M301.789 357.031C302.327 358.464 303.504 358.384 304.76 358.304C306.016 358.224 322.338 355.979 332.741 356.06C343.144 356.14 356.955 357.503 357.583 356.621C358.211 355.739 357.987 353.655 357.987 353.655C357.987 353.655 342.248 351.731 326.464 353.174C310.68 354.617 301.79 357.032 301.79 357.032L301.789 357.031Z" fill="#3B3530"/>
<path d="M300.71 357.418C300.621 357.418 300.542 357.354 300.526 357.264C300.509 357.162 300.576 357.065 300.676 357.047C300.818 357.021 315.022 354.505 331.704 354.128C348.386 353.752 359.113 354.813 359.219 354.824C359.321 354.835 359.396 354.926 359.386 355.029C359.377 355.131 359.285 355.213 359.181 355.196C359.074 355.185 348.358 354.127 331.713 354.501C315.061 354.877 300.884 357.388 300.743 357.414C300.731 357.416 300.72 357.417 300.709 357.417L300.71 357.418Z" fill="#16100D"/>
<path d="M305.368 358.978L300.711 444.884C300.711 444.884 302.568 446.91 305.368 444.884C305.368 444.884 305.746 426.52 307.181 420.9C308.616 415.28 313.055 377.27 313.055 372.945C313.055 368.62 314.731 357.249 314.731 357.249C314.731 357.249 308.845 356.263 305.367 358.978H305.368Z" fill="#D92C2A"/>
<path d="M344.399 355.918C344.399 355.918 346.417 372.749 346.417 377.248C346.417 381.747 350.453 444.729 350.453 444.729C350.453 444.729 352.74 447.663 355.027 443.751C355.027 443.751 353.682 396.221 353.682 386.441C353.682 376.661 352.875 355.918 352.875 355.918C352.875 355.918 345.898 354.835 344.4 355.918H344.399Z" fill="#D92C2A"/>
<path d="M305.367 358.429C305.274 358.429 305.192 358.359 305.181 358.264C305.169 358.161 305.242 358.068 305.345 358.057C305.419 358.048 312.752 357.193 314.712 356.996C314.832 356.977 314.906 357.06 314.917 357.163C314.927 357.266 314.853 357.358 314.75 357.368C312.792 357.564 305.462 358.419 305.389 358.427C305.382 358.427 305.374 358.429 305.367 358.429Z" fill="#16100D"/>
<path d="M353.679 357.085H353.678C351.815 357.07 344.183 356.649 344.105 356.646C344.001 356.64 343.922 356.552 343.928 356.449C343.934 356.347 344.024 356.277 344.125 356.272C344.203 356.276 351.826 356.696 353.68 356.711C353.784 356.711 353.867 356.797 353.865 356.9C353.864 357.003 353.78 357.086 353.678 357.086L353.679 357.085Z" fill="#16100D"/>
<path d="M311.684 384.503H303.944C303.84 384.503 303.757 384.419 303.757 384.316C303.757 384.213 303.84 384.129 303.944 384.129H309.127L303.916 383.363C303.82 383.349 303.749 383.262 303.757 383.164C303.764 383.067 303.846 382.991 303.944 382.991H306.693L304.076 382.804C303.977 382.797 303.901 382.714 303.902 382.615C303.903 382.516 303.981 382.435 304.08 382.43L308.809 382.21L304.077 381.899C303.973 381.892 303.896 381.803 303.902 381.7C303.909 381.601 303.991 381.525 304.089 381.525C304.093 381.525 304.098 381.525 304.101 381.525L312.16 382.054C312.259 382.06 312.337 382.143 312.335 382.242C312.334 382.341 312.256 382.422 312.157 382.428L307.266 382.656L311.954 382.991C312.055 382.998 312.131 383.083 312.128 383.184C312.124 383.285 312.042 383.365 311.941 383.365H306.502L311.713 384.131C311.81 384.145 311.88 384.232 311.872 384.33C311.865 384.427 311.783 384.503 311.685 384.503H311.684Z" fill="#16100D"/>
<path d="M311.436 385.593C311.43 385.593 311.424 385.593 311.418 385.593L303.776 384.891C303.674 384.881 303.598 384.79 303.608 384.688C303.618 384.585 303.707 384.506 303.811 384.519L311.453 385.221C311.555 385.231 311.631 385.322 311.621 385.424C311.612 385.521 311.532 385.594 311.436 385.594V385.593Z" fill="#16100D"/>
<path d="M311.282 386.254C311.276 386.254 311.272 386.254 311.266 386.254L303.708 385.593C303.604 385.584 303.528 385.494 303.537 385.391C303.546 385.287 303.644 385.21 303.74 385.221L311.297 385.882C311.401 385.891 311.477 385.981 311.468 386.084C311.459 386.182 311.377 386.255 311.281 386.255L311.282 386.254Z" fill="#16100D"/>
<path d="M346.861 383.644C346.778 383.644 346.7 383.587 346.68 383.502C346.655 383.402 346.715 383.3 346.816 383.276L350.127 382.451L346.809 382.916C346.701 382.917 346.61 382.858 346.597 382.757C346.582 382.654 346.654 382.56 346.756 382.545L353.605 381.586C353.703 381.572 353.796 381.638 353.815 381.736C353.834 381.834 353.773 381.93 353.676 381.953L346.906 383.639C346.891 383.643 346.875 383.644 346.861 383.644Z" fill="#16100D"/>
<path d="M346.782 384.223C346.691 384.223 346.613 384.158 346.598 384.066C346.581 383.964 346.651 383.868 346.751 383.851L353.6 382.727C353.696 382.71 353.797 382.779 353.815 382.882C353.832 382.984 353.762 383.08 353.662 383.097L346.813 384.221C346.803 384.222 346.793 384.223 346.782 384.223Z" fill="#16100D"/>
<path d="M346.992 384.853C346.897 384.853 346.815 384.781 346.806 384.684C346.796 384.581 346.872 384.49 346.974 384.48L353.7 383.85C353.799 383.834 353.894 383.915 353.903 384.019C353.913 384.122 353.837 384.213 353.735 384.223L347.009 384.853C347.003 384.853 346.997 384.853 346.992 384.853Z" fill="#16100D"/>
<path d="M353.631 387.188H353.621L347.199 386.827C347.106 386.821 347.031 386.748 347.022 386.655C347.015 386.562 347.078 386.478 347.168 386.457L351.346 385.512L347.11 385.806C347.012 385.824 346.917 385.736 346.91 385.633C346.903 385.53 346.982 385.44 347.084 385.434L353.753 384.972C353.852 384.968 353.937 385.034 353.952 385.131C353.965 385.227 353.902 385.319 353.807 385.341L348.552 386.529L353.642 386.815C353.746 386.821 353.825 386.909 353.819 387.012C353.813 387.112 353.731 387.189 353.632 387.189L353.631 387.188Z" fill="#16100D"/>
<path d="M347.096 388.21C346.998 388.21 346.916 388.135 346.909 388.036C346.902 387.933 346.979 387.844 347.083 387.837L353.851 387.356C353.966 387.341 354.044 387.426 354.051 387.529C354.058 387.632 353.981 387.721 353.877 387.728L347.109 388.209C347.109 388.209 347.1 388.21 347.096 388.21Z" fill="#16100D"/>
<path d="M305.367 359.202C305.274 359.202 305.193 359.133 305.181 359.038C305.168 358.936 305.241 358.842 305.343 358.83L313.468 357.838C313.586 357.822 313.664 357.898 313.677 358.001C313.69 358.103 313.617 358.197 313.515 358.209L305.391 359.201C305.382 359.201 305.375 359.202 305.368 359.202H305.367Z" fill="#16100D"/>
<path d="M305.214 360.164C305.122 360.164 305.042 360.096 305.028 360.003C305.015 359.901 305.085 359.806 305.187 359.792L312.121 358.831C312.217 358.821 312.318 358.889 312.333 358.991C312.346 359.093 312.276 359.188 312.174 359.202L305.24 360.164C305.231 360.164 305.223 360.165 305.214 360.165V360.164Z" fill="#16100D"/>
<path d="M304.787 361.397C304.695 361.397 304.615 361.329 304.601 361.235C304.588 361.133 304.66 361.038 304.762 361.025L310.195 360.3C310.315 360.292 310.391 360.359 310.405 360.461C310.418 360.563 310.346 360.658 310.244 360.671L304.811 361.396C304.802 361.396 304.794 361.397 304.787 361.397Z" fill="#16100D"/>
<path d="M305.044 362.092C304.952 362.092 304.872 362.025 304.858 361.931C304.843 361.829 304.915 361.734 305.017 361.719L307.823 361.325C307.924 361.316 308.02 361.381 308.035 361.484C308.05 361.586 307.978 361.681 307.876 361.696L305.07 362.091C305.061 362.091 305.053 362.092 305.044 362.092Z" fill="#16100D"/>
<path d="M304.929 363.384C304.843 363.384 304.765 363.324 304.746 363.236C304.724 363.135 304.788 363.036 304.889 363.015L306.407 362.691C306.506 362.669 306.607 362.733 306.629 362.835C306.651 362.936 306.587 363.035 306.486 363.056L304.968 363.38C304.955 363.383 304.942 363.384 304.929 363.384Z" fill="#16100D"/>
<path d="M352.992 357.882H352.982L344.682 357.459C344.58 357.453 344.501 357.366 344.505 357.262C344.511 357.162 344.593 357.085 344.692 357.085H344.702L353.002 357.508C353.104 357.514 353.183 357.601 353.179 357.705C353.173 357.805 353.091 357.882 352.992 357.882Z" fill="#16100D"/>
<path d="M352.111 358.528H352.099L344.799 358.095C344.697 358.088 344.618 358 344.624 357.897C344.63 357.798 344.713 357.721 344.811 357.721H344.823L352.123 358.153C352.225 358.16 352.304 358.248 352.298 358.351C352.292 358.45 352.209 358.527 352.111 358.527V358.528Z" fill="#16100D"/>
<path d="M351.215 359.172H351.206L344.948 358.895C344.846 358.89 344.765 358.803 344.77 358.7C344.774 358.596 344.868 358.526 344.966 358.521L351.224 358.798C351.326 358.803 351.407 358.89 351.402 358.993C351.398 359.094 351.314 359.172 351.215 359.172Z" fill="#16100D"/>
<path d="M350.273 359.894C350.273 359.894 350.264 359.894 350.26 359.894L345.058 359.527C344.954 359.52 344.877 359.431 344.884 359.328C344.893 359.225 344.982 359.145 345.084 359.155L350.286 359.522C350.39 359.529 350.467 359.618 350.46 359.721C350.453 359.82 350.371 359.894 350.273 359.894Z" fill="#16100D"/>
<path d="M348.896 360.615C348.896 360.615 348.887 360.615 348.883 360.615L345.208 360.366C345.106 360.359 345.028 360.27 345.034 360.167C345.041 360.064 345.135 359.978 345.234 359.993L348.909 360.242C349.011 360.249 349.089 360.338 349.083 360.441C349.076 360.54 348.994 360.616 348.896 360.616V360.615Z" fill="#16100D"/>
<path d="M348.085 361.176H348.075L345.328 361.034C345.226 361.028 345.147 360.941 345.151 360.837C345.157 360.737 345.239 360.66 345.338 360.66H345.348L348.095 360.802C348.197 360.808 348.276 360.895 348.272 360.999C348.266 361.099 348.184 361.177 348.085 361.177V361.176Z" fill="#16100D"/>
<path d="M347.06 362.499C347.051 362.499 347.042 362.499 347.034 362.498L345.527 362.289C345.425 362.274 345.355 362.18 345.368 362.078C345.383 361.975 345.475 361.905 345.58 361.918L347.087 362.127C347.189 362.142 347.261 362.236 347.246 362.338C347.233 362.431 347.152 362.499 347.06 362.499Z" fill="#16100D"/>
<path d="M298.604 409.975C298.604 409.975 273.055 357.157 273.823 341.3C274.591 325.443 298.539 323.178 298.539 323.178C298.539 323.178 306.209 329.754 306.581 336.012C306.953 342.271 297.406 348.62 297.406 348.62L307.242 402.949C307.242 402.949 314.872 406 316.657 409.976C318.441 413.952 314.288 418.644 311.699 420.047C309.11 421.449 301.883 430.079 301.236 431.805C300.589 433.531 299.942 435.688 298.216 437.522C296.49 439.356 290.881 441.837 290.881 441.837C290.881 441.837 289.263 437.414 291.42 435.688C293.577 433.962 293.004 431.913 295.448 425.117C297.892 418.321 298.605 409.977 298.605 409.977L298.604 409.975Z" fill="#DF5D2C"/>
<path d="M351.788 308.974C351.788 308.974 357.504 317.172 359.353 326.233C361.202 335.294 357.065 341.766 342.198 346.944C327.33 352.122 298.388 354.046 298.388 354.046L295.949 337.879L304.687 335.635L296.689 332.228L298.538 323.176L351.788 308.973V308.974Z" fill="#F3D9C7"/>
<path d="M305.864 352.729L320.22 319.294L327.447 321.235L313.614 352.041L305.864 352.729Z" fill="#7FBCC5"/>
<path d="M341.255 316.921L326.836 350.396L334.847 348.935L349.669 317.568L341.255 316.921Z" fill="#7FBCC5"/>
<path d="M357.223 319.294L350.782 343.166C350.782 343.166 357.241 341.129 359.01 334.526C360.779 327.923 357.223 319.294 357.223 319.294Z" fill="#7FBCC5"/>
<path d="M352.304 300.813L360.616 314.449C360.616 314.449 352.144 323.51 339.614 325.883C327.084 328.256 302.616 318.763 302.616 318.763L310.629 300.812L352.304 300.813Z" fill="#172554"/>
<path d="M282.051 216.883C282.051 216.883 279.519 214.066 279.888 213.412C280.257 212.758 283.401 209.962 283.666 209.911L283.931 209.86C283.931 209.86 285.289 209.304 285.524 209.516C285.759 209.727 288.506 212.566 288.506 212.566L282.051 216.883Z" fill="#FCAF01"/>
<path d="M311.819 251.231C311.819 251.231 293.94 230.835 289.176 225.47C284.412 220.105 282.051 216.883 282.051 216.883C282.051 216.883 285.655 213.362 286.585 212.682C287.515 212.002 288.27 212.395 288.506 212.566L288.742 212.737C288.742 212.737 310.915 238.777 313.087 241.365C315.259 243.953 319.324 248.096 319.324 248.096L311.818 251.232L311.819 251.231Z" fill="#305A60"/>
<path d="M287.87 215.809L284.698 216.147L284.428 218.998L287.24 218.89L287.87 215.809Z" fill="#FCAF01"/>
<path d="M291.345 219.559L288.173 219.897L287.903 222.749L290.715 222.64L291.345 219.559Z" fill="#FCAF01"/>
<path d="M294.82 223.309L291.649 223.647L291.378 226.499L294.19 226.39L294.82 223.309Z" fill="#FCAF01"/>
<path d="M298.296 227.059L295.124 227.398L294.853 230.249L297.665 230.14L298.296 227.059Z" fill="#FCAF01"/>
<path d="M301.771 230.81L298.599 231.148L298.328 233.999L301.141 233.891L301.771 230.81Z" fill="#FCAF01"/>
<path d="M305.246 234.56L302.074 234.898L301.804 237.75L304.616 237.641L305.246 234.56Z" fill="#FCAF01"/>
<path d="M308.721 238.31L305.549 238.648L305.279 241.5L308.091 241.391L308.721 238.31Z" fill="#FCAF01"/>
<path d="M312.197 242.06L309.025 242.399L308.754 245.25L311.566 245.141L312.197 242.06Z" fill="#FCAF01"/>
<path d="M315.672 245.811L312.5 246.149L312.229 249.001L315.041 248.892L315.672 245.811Z" fill="#FCAF01"/>
<path d="M277.033 287.773L280.233 288.706C280.233 288.706 289.893 287.239 291.755 287.643C293.617 288.047 303.013 276.599 303.013 276.599C302.447 278.461 304.551 277.327 304.551 277.327L305.042 286.554C303.099 286.555 302.614 287.527 302.614 287.527L300.401 305.616C301.821 307.272 307.483 308.407 307.483 308.407L307.373 308.739C311.533 309.441 315.461 311.108 319.758 311.353C326.595 311.743 327.629 308.849 332.282 303.895C337.004 298.867 346.498 300.195 353.8 300.406C355.066 296.272 353.208 296.644 353.208 296.644C353.208 296.644 354.744 294.134 356.037 288.953C357.33 283.772 357.893 279.158 358.135 278.268C358.377 277.377 357.729 276.083 358.13 270.012C358.531 263.941 358.04 253.905 354.96 246.622C351.88 239.339 348.455 241.419 348.455 241.419C348.455 241.419 348.562 240.448 348.131 240.124C347.7 239.8 339.819 235.812 339.549 235.758C339.279 235.704 338.47 236.73 337.607 236.515C336.743 236.3 338.9 233.169 340.194 231.441C341.488 229.713 338.248 225.722 338.517 224.805C338.786 223.888 342.665 212.877 335.754 206.406C328.843 199.935 317.863 201.803 312.766 204.962C307.669 208.122 307.227 214.799 307.107 216.054C306.987 217.309 306.542 218.644 306.097 219.495C305.652 220.345 307.193 221.397 307.193 221.397L309.579 223.136L307.962 225.97L307.517 226.173C307.072 226.376 306.141 226.659 306.751 231.475C307.361 236.291 312.219 240.173 315.256 241.588C318.293 243.003 316.268 242.761 316.268 242.761C316.268 242.761 311.494 245.111 311.211 245.637C310.928 246.163 302.755 249.81 298.954 255.074C295.153 260.337 284.638 272.646 284.031 272.849C283.424 273.052 282.128 271.757 281.563 273.296C280.997 274.834 272.174 273.625 272.174 273.625L272.38 280.06L277.034 287.776L277.033 287.773Z" fill="#172554"/>
<path d="M324.755 221.628C323.562 220.75 307.865 220.397 307.379 220.883C306.893 221.369 307.327 224.175 307.597 224.768C307.867 225.361 307.275 227.142 307.275 227.142C307.275 227.142 323.409 226.539 324.056 225.891C324.703 225.243 326.806 223.137 324.755 221.628Z" fill="#DF5D2C"/>
<path d="M300.402 305.616L279.192 296.318L280.435 284.221L302.615 287.526L300.402 305.616Z" fill="#F3D9C7"/>
<path d="M331.494 304.076L334.567 299.38C334.567 299.38 345.144 301.101 353.209 296.644C353.209 296.644 356.096 296.076 353.051 302.472C353.051 302.472 344.124 307.846 331.495 304.076H331.494Z" fill="#DC2C2B"/>
<path d="M338.9 223.515C338.9 223.515 343.258 212.713 353.296 214.65C363.334 216.587 373.425 218.362 384.966 206.915L380.539 202.493C380.539 202.493 373.26 211.509 360.74 210.005C348.22 208.501 344.332 209.413 339.832 216.272C339.832 216.272 339.846 219.644 338.9 223.514V223.515Z" fill="#DC2C2B"/>
<path d="M338.531 225.135C338.531 225.135 349.036 220.913 354.461 223.095C359.885 225.277 367.23 236.119 367.23 236.119L370.762 232.583C370.762 232.583 362.958 221.283 355.51 218.859C348.062 216.435 339.97 220.568 339.97 220.568C339.97 220.568 338.238 224.339 338.53 225.136L338.531 225.135Z" fill="#DC2C2B"/>
<path d="M318.443 287.805C318.407 287.841 318.356 287.861 318.302 287.857L305.028 286.731C304.93 286.723 304.857 286.636 304.866 286.538C304.874 286.44 304.96 286.368 305.059 286.376L318.219 287.492L339.951 249.419C340.103 249.113 343.85 241.716 347.752 241.672C347.85 241.671 347.931 241.75 347.932 241.848C347.934 241.946 347.854 242.026 347.756 242.028C344.068 242.071 340.3 249.512 340.264 249.587L318.472 287.767C318.464 287.781 318.454 287.794 318.443 287.804V287.805Z" fill="black"/>
<path d="M327.267 309.223C326.897 309.593 326.568 309.882 326.283 310.08C322.053 313.012 308.026 308.759 307.431 308.577C307.337 308.548 307.284 308.449 307.313 308.355C307.343 308.262 307.441 308.207 307.535 308.237C307.68 308.281 321.991 312.622 326.08 309.788C330.204 306.923 344.887 283.117 345.035 282.877C345.118 282.743 353.364 269.464 354.794 262.773C354.816 262.677 354.91 262.615 355.005 262.636C355.101 262.657 355.163 262.751 355.142 262.847C353.699 269.6 345.42 282.93 345.337 283.064C344.774 283.98 332.344 304.14 327.266 309.224L327.267 309.223Z" fill="black"/>
<path d="M354.362 267.669C353.959 268.073 353.617 268.294 353.345 268.323C353.146 268.344 353.044 268.26 353.017 268.234C352.948 268.165 352.947 268.052 353.017 267.982C353.081 267.918 353.181 267.913 353.251 267.966C353.296 267.977 353.946 268.062 355.782 265.22C355.835 265.138 355.946 265.113 356.028 265.167C356.111 265.22 356.135 265.331 356.081 265.413C355.429 266.422 354.851 267.18 354.362 267.67V267.669Z" fill="black"/>
<path d="M337.747 276.404C336.239 277.913 334.459 278.938 334.347 279.002C334.261 279.05 334.153 279.02 334.104 278.935C334.057 278.85 334.084 278.742 334.171 278.692C334.212 278.669 338.256 276.34 339.269 273.602C339.3 273.51 339.405 273.462 339.498 273.497C339.59 273.531 339.637 273.634 339.603 273.726C339.24 274.705 338.53 275.62 337.747 276.404Z" fill="black"/>
<path d="M343.323 313.687C341.815 315.196 340.035 316.221 339.923 316.285C339.837 316.333 339.729 316.303 339.68 316.218C339.633 316.133 339.66 316.025 339.747 315.975C339.788 315.952 343.832 313.623 344.845 310.885C344.876 310.793 344.981 310.745 345.074 310.78C345.166 310.814 345.213 310.917 345.179 311.009C344.816 311.988 344.106 312.903 343.323 313.687Z" fill="black"/>
<path d="M321.242 298.777C321.212 298.807 321.174 298.829 321.125 298.839C320.961 298.874 320.459 298.981 317.607 290.957L317.389 290.826C317.103 291.673 316.637 296.595 316.398 299.674C316.392 299.771 316.306 299.846 316.206 299.837C316.109 299.829 316.035 299.744 316.043 299.645C316.353 295.649 316.805 290.86 317.21 290.454C317.219 290.445 317.228 290.438 317.236 290.433C317.291 290.405 317.387 290.408 317.44 290.44L317.845 290.683C317.881 290.704 317.908 290.737 317.921 290.776C319.072 294.018 320.46 297.551 320.99 298.344C320.99 298.289 320.986 298.22 320.979 298.132C320.851 296.564 320.084 294.479 319.468 292.805C318.764 290.891 318.465 290.033 318.76 289.737C319.016 289.481 319.453 289.827 320.326 290.516C321.945 291.794 324.654 293.933 326.535 292.157C326.606 292.09 326.719 292.093 326.786 292.164C326.852 292.234 326.851 292.344 326.783 292.412L326.779 292.416C324.675 294.403 321.814 292.144 320.105 290.795C319.67 290.452 319.179 290.064 319 290.016C318.923 290.297 319.409 291.615 319.802 292.682C320.426 294.377 321.202 296.487 321.334 298.104C321.357 298.379 321.365 298.652 321.241 298.776L321.242 298.777Z" fill="black"/>
<path d="M327.482 240.368C327.482 240.368 327.475 240.375 327.471 240.378C327.419 240.422 322.231 244.715 316.774 242.65C316.682 242.615 316.636 242.513 316.671 242.421C316.703 242.328 316.808 242.283 316.9 242.318C322.165 244.309 327.192 240.149 327.242 240.106C327.317 240.042 327.429 240.052 327.493 240.127C327.553 240.198 327.548 240.303 327.483 240.367L327.482 240.368Z" fill="black"/>
<path d="M315.39 234.112C314.664 234.839 312.951 235.812 312.547 236.036C312.461 236.084 312.353 236.053 312.305 235.967C312.257 235.881 312.285 235.771 312.374 235.725C313.555 235.068 315.265 233.962 315.363 233.57C315.385 233.475 315.483 233.417 315.578 233.44C315.673 233.464 315.732 233.56 315.708 233.655C315.676 233.786 315.56 233.942 315.39 234.112Z" fill="black"/>
<path d="M320.066 223.658C320.03 223.694 319.979 223.714 319.925 223.71C318.205 223.562 317.456 224.86 317.425 224.916C317.375 225.004 317.268 225.033 317.183 224.985C317.097 224.937 317.066 224.829 317.114 224.743C317.148 224.68 318 223.186 319.955 223.355C320.053 223.364 320.126 223.45 320.117 223.548C320.113 223.591 320.094 223.63 320.066 223.659V223.658Z" fill="black"/>
<path d="M309.99 225.486C309.99 225.486 309.982 225.494 309.977 225.498C309.901 225.56 309.789 225.549 309.726 225.473C309.329 224.992 308.137 223.788 307.401 223.995C307.306 224.022 307.208 223.967 307.182 223.872C307.154 223.777 307.211 223.679 307.305 223.653C308.397 223.347 309.841 225.051 310.002 225.247C310.061 225.318 310.055 225.422 309.99 225.486Z" fill="black"/>
<path d="M283.287 298.183C283.255 298.215 283.211 298.235 283.162 298.235C283.064 298.235 282.983 298.157 282.983 298.058L282.874 284.611C282.873 284.513 282.953 284.433 283.051 284.432C283.149 284.432 283.23 284.51 283.23 284.609L283.339 298.056C283.339 298.106 283.319 298.15 283.287 298.183Z" fill="black"/>
<path d="M279.968 296.728C279.931 296.765 279.877 296.786 279.821 296.779C279.723 296.768 279.654 296.679 279.666 296.581L281.132 284.329C281.142 284.231 281.232 284.162 281.33 284.173C281.428 284.184 281.497 284.273 281.485 284.371L280.019 296.623C280.014 296.664 279.995 296.701 279.968 296.728Z" fill="black"/>
<path d="M284.251 298.606C284.212 298.645 284.154 298.666 284.094 298.656C283.997 298.639 283.932 298.546 283.949 298.45L286.295 285.09C286.313 284.995 286.404 284.928 286.502 284.945C286.599 284.962 286.664 285.055 286.647 285.151L284.301 298.511C284.294 298.548 284.277 298.581 284.251 298.606Z" fill="black"/>
<path d="M285.898 299.328C285.853 299.373 285.785 299.393 285.72 299.373C285.626 299.344 285.573 299.245 285.601 299.151L289.7 285.576C289.73 285.483 289.828 285.429 289.922 285.457C290.016 285.486 290.069 285.585 290.041 285.679L285.942 299.254C285.933 299.283 285.917 299.308 285.897 299.328H285.898Z" fill="black"/>
<path d="M289.166 300.761C289.128 300.799 289.072 300.82 289.014 300.811C288.917 300.796 288.85 300.706 288.864 300.608L291.081 285.807C291.097 285.709 291.187 285.642 291.284 285.657C291.381 285.672 291.448 285.762 291.434 285.86L289.217 300.661C289.211 300.7 289.193 300.734 289.167 300.76L289.166 300.761Z" fill="black"/>
<path d="M290.501 301.346C290.459 301.388 290.396 301.408 290.334 301.393C290.238 301.37 290.18 301.274 290.202 301.179L293.78 286.194C293.804 286.098 293.899 286.038 293.994 286.062C294.09 286.085 294.149 286.181 294.126 286.276L290.548 301.261C290.54 301.294 290.523 301.323 290.501 301.346Z" fill="black"/>
<path d="M293.899 302.836C293.854 302.881 293.788 302.9 293.722 302.881C293.628 302.853 293.574 302.755 293.602 302.66L298.254 286.852C298.28 286.759 298.379 286.704 298.475 286.732C298.569 286.76 298.623 286.858 298.595 286.953L293.943 302.761C293.935 302.79 293.92 302.816 293.899 302.836Z" fill="black"/>
<path d="M298.491 304.849C298.455 304.885 298.403 304.906 298.347 304.901C298.249 304.891 298.178 304.803 298.188 304.705L299.981 287.142C299.993 287.046 300.078 286.973 300.177 286.983C300.275 286.993 300.346 287.081 300.336 287.179L298.543 304.742C298.538 304.784 298.519 304.822 298.491 304.85V304.849Z" fill="black"/>
<path d="M280.233 288.706L258.707 282.431L255.836 272.561L276.248 273.926L280.233 288.706Z" fill="#F3D9C7"/>
<path d="M262.885 283.7C262.868 283.728 262.835 283.746 262.793 283.75C262.708 283.756 262.612 283.697 262.579 283.617L258.088 272.734C258.055 272.654 258.099 272.585 258.184 272.578C258.269 272.572 258.365 272.631 258.398 272.711L262.889 283.594C262.906 283.634 262.903 283.672 262.885 283.7Z" fill="black"/>
<path d="M259.517 282.718C259.497 282.751 259.456 282.77 259.405 282.768C259.316 282.765 259.226 282.697 259.205 282.617L256.477 272.609C256.453 272.529 256.509 272.468 256.598 272.471C256.687 272.474 256.777 272.542 256.798 272.622L259.526 282.63C259.535 282.664 259.531 282.694 259.516 282.718H259.517Z" fill="black"/>
<path d="M263.864 283.985C263.843 284.019 263.799 284.039 263.744 284.035C263.654 284.027 263.567 283.956 263.55 283.876L261.227 272.918C261.211 272.84 261.269 272.781 261.36 272.789C261.45 272.797 261.537 272.868 261.554 272.948L263.877 283.906C263.883 283.937 263.879 283.964 263.865 283.986L263.864 283.985Z" fill="black"/>
<path d="M265.536 284.472C265.512 284.511 265.459 284.531 265.396 284.519C265.305 284.501 265.226 284.424 265.219 284.346L264.354 273.111C264.35 273.033 264.418 272.984 264.509 273.001C264.6 273.019 264.679 273.096 264.686 273.174L265.551 284.41C265.552 284.434 265.547 284.455 265.536 284.473V284.472Z" fill="black"/>
<path d="M268.852 285.439C268.831 285.472 268.789 285.492 268.735 285.489C268.645 285.483 268.557 285.414 268.538 285.334L265.632 273.217C265.613 273.136 265.67 273.077 265.76 273.084C265.85 273.09 265.938 273.159 265.957 273.239L268.864 285.356C268.872 285.388 268.867 285.417 268.853 285.439H268.852Z" fill="black"/>
<path d="M270.208 285.834C270.185 285.871 270.137 285.891 270.078 285.882C269.987 285.869 269.904 285.795 269.893 285.716L268.112 273.369C268.101 273.29 268.165 273.236 268.256 273.249C268.347 273.262 268.43 273.336 268.441 273.415L270.222 285.762C270.226 285.79 270.221 285.814 270.208 285.833V285.834Z" fill="black"/>
<path d="M273.656 286.84C273.632 286.879 273.58 286.898 273.517 286.887C273.426 286.87 273.347 286.794 273.34 286.715L272.227 273.638C272.219 273.561 272.287 273.511 272.381 273.528C272.472 273.545 272.551 273.621 272.558 273.7L273.671 286.777C273.673 286.801 273.668 286.823 273.657 286.841L273.656 286.84Z" fill="black"/>
<path d="M278.317 288.198C278.297 288.23 278.258 288.249 278.208 288.248C278.119 288.246 278.029 288.179 278.005 288.099L273.826 273.771C273.805 273.692 273.855 273.628 273.944 273.63C274.033 273.632 274.123 273.699 274.147 273.779L278.326 288.107C278.336 288.142 278.332 288.173 278.316 288.197L278.317 288.198Z" fill="black"/>
<path d="M319.489 277.216C319.467 277.238 319.438 277.255 319.406 277.263C319.311 277.287 319.214 277.228 319.19 277.132C316.646 266.812 314.973 243.574 314.957 243.341C314.95 243.243 315.024 243.158 315.122 243.151C315.22 243.144 315.305 243.218 315.312 243.316C315.329 243.549 316.998 266.756 319.536 277.047C319.551 277.109 319.531 277.173 319.489 277.215V277.216Z" fill="black"/>
<path d="M317.778 267.779C317.729 267.828 317.655 267.846 317.587 267.819C317.496 267.783 317.451 267.68 317.487 267.588C317.554 267.416 324.423 250.224 339.425 235.63C339.495 235.562 339.608 235.563 339.677 235.634C339.745 235.704 339.744 235.815 339.675 235.884L339.673 235.886C339.37 236.18 339.068 236.479 338.772 236.776C324.444 251.121 317.885 267.551 317.819 267.72C317.81 267.743 317.796 267.764 317.779 267.781L317.778 267.779Z" fill="black"/>
<path d="M310.43 282.421C308.218 284.636 306.64 285.642 305.707 285.43C305.005 285.27 304.66 284.487 304.682 283.102C304.685 283.003 304.765 282.925 304.863 282.927C304.961 282.929 305.04 283.01 305.038 283.108C305.019 284.34 305.289 285.008 305.84 285.093C308.142 285.446 315.268 277.207 325.91 261.885C334.314 249.784 341.524 238.19 342.043 237.081C342.035 237.024 342.06 236.971 342.101 236.919C342.164 236.864 342.281 236.848 342.348 236.898C342.475 236.992 342.407 237.14 342.374 237.211C341.828 238.399 334.172 250.653 325.792 262.677C319.091 272.293 313.955 278.891 310.429 282.421H310.43Z" fill="black"/>
<path d="M187.387 390.68C187.387 390.68 189.694 397.579 186.482 402.103L173.41 395.097L172.428 396.996L218.006 420.052L218.786 417.772L202.356 410.017C202.356 410.017 207.541 399.707 200.341 388.757C200.341 388.757 193.408 390.856 191.306 390.856C189.203 390.856 187.387 390.68 187.387 390.68Z" fill="#EAAF49"/>
<path d="M291.639 432.701C291.639 432.701 298.222 431.609 301.855 435.173L293.618 446L295.196 447.164L322.673 409.216L320.721 408.179L311.32 421.939C311.32 421.939 302.731 415.751 291.772 420.688C291.772 420.688 292.67 427.271 292.367 429.176C292.063 431.081 291.64 432.7 291.64 432.7L291.639 432.701Z" fill="#EAAF49"/>
<path d="M289.477 360.541C289.428 360.541 289.378 360.532 289.329 360.512C289.138 360.431 289.048 360.209 289.129 360.017L291.718 353.901C291.8 353.71 292.018 353.618 292.213 353.701C292.404 353.782 292.494 354.004 292.413 354.196L289.824 360.312C289.763 360.456 289.623 360.542 289.476 360.542L289.477 360.541Z" fill="black"/>
<path d="M265.852 352.055C265.803 352.055 265.753 352.046 265.705 352.026C265.514 351.945 265.424 351.723 265.505 351.531L268.094 345.415C268.176 345.224 268.395 345.134 268.589 345.215C268.78 345.296 268.87 345.518 268.789 345.71L266.2 351.826C266.138 351.97 265.999 352.055 265.852 352.055Z" fill="black"/>
<path d="M298.538 323.554C298.371 323.554 298.219 323.443 298.174 323.275C298.12 323.073 298.239 322.867 298.441 322.813L307.874 320.297C308.078 320.24 308.282 320.363 308.336 320.564C308.39 320.766 308.271 320.972 308.069 321.026L298.636 323.542C298.603 323.551 298.571 323.555 298.538 323.555V323.554Z" fill="black"/>
<path d="M276.729 357.032C276.584 357.032 276.447 356.949 276.384 356.808C276.334 356.695 271.425 345.397 275.304 334.767C279.219 324.042 294.717 323.386 294.873 323.381C295.062 323.357 295.256 323.536 295.263 323.745C295.27 323.953 295.108 324.128 294.899 324.135C294.749 324.141 279.753 324.781 276.013 335.025C272.24 345.365 277.025 356.392 277.073 356.502C277.158 356.693 277.073 356.915 276.881 356.999C276.832 357.022 276.779 357.031 276.729 357.031V357.032Z" fill="black"/>
<path d="M307.06 411.9C307.049 411.9 307.037 411.9 307.026 411.899C306.819 411.879 306.666 411.697 306.684 411.489C306.686 411.465 306.893 409.145 306.687 407.805C306.548 406.904 304.454 406.556 303.731 406.505C303.523 406.491 303.367 406.311 303.381 406.103C303.396 405.895 303.574 405.727 303.783 405.753C304.13 405.776 307.178 406.037 307.432 407.689C307.652 409.121 307.444 411.458 307.435 411.556C307.418 411.752 307.252 411.899 307.059 411.899L307.06 411.9Z" fill="black"/>
<path d="M211.728 402.92C211.54 402.92 211.378 402.78 211.354 402.59C211.328 402.383 211.475 402.195 211.682 402.169C212.609 402.052 214.207 401.629 214.552 400.989C214.976 400.201 214.955 397.535 214.912 396.574C214.903 396.365 215.064 396.189 215.272 396.179C215.482 396.181 215.656 396.33 215.666 396.538C215.683 396.913 215.815 400.234 215.216 401.346C214.576 402.535 212.06 402.881 211.776 402.916C211.76 402.918 211.744 402.919 211.729 402.919L211.728 402.92Z" fill="black"/>
<path d="M227.929 284.892H136.127C135.174 284.892 134.361 284.204 134.202 283.265L122.893 216.512C122.691 215.32 123.61 214.233 124.819 214.233H216.621C217.574 214.233 218.387 214.92 218.546 215.86L229.855 282.613C230.057 283.805 229.138 284.892 227.93 284.892H227.929Z" fill="#E49C7A"/>
<path d="M226.456 284.892H134.654C133.701 284.892 132.888 284.204 132.728 283.265L121.419 216.512C121.217 215.32 122.136 214.233 123.345 214.233H215.147C216.1 214.233 216.913 214.92 217.073 215.86L228.382 282.613C228.584 283.805 227.665 284.892 226.457 284.892H226.456Z" fill="#315B61"/>
<path d="M183.296 269.256C182.789 267.864 181.465 266.937 179.983 266.937H173.156C171.07 266.937 169.441 268.737 169.648 270.813L172.84 302.849H195.53L183.296 269.256ZM178.05 281.623C175.754 281.623 173.894 279.762 173.894 277.467C173.894 275.172 175.755 273.311 178.05 273.311C180.345 273.311 182.207 275.172 182.207 277.467C182.207 279.762 180.346 281.623 178.05 281.623Z" fill="#E49C7A"/>
<path d="M182.285 269.256C181.778 267.864 180.454 266.937 178.972 266.937H172.145C170.059 266.937 168.43 268.737 168.637 270.813L171.83 302.849H194.52L182.286 269.257L182.285 269.256ZM177.039 281.623C174.744 281.623 172.883 279.762 172.883 277.467C172.883 275.172 174.744 273.311 177.039 273.311C179.334 273.311 181.196 275.172 181.196 277.467C181.196 279.762 179.335 281.623 177.039 281.623Z" fill="#315B61"/>
<path d="M170.167 286.357C170.071 286.357 169.989 286.283 169.981 286.185L168.682 270.042C168.613 269.197 168.904 268.354 169.479 267.731C170.054 267.107 170.871 266.75 171.719 266.75H179.984C180.087 266.75 180.171 266.834 180.171 266.937C180.171 267.04 180.087 267.124 179.984 267.124H171.719C170.963 267.124 170.266 267.429 169.754 267.985C169.242 268.54 168.993 269.26 169.054 270.012L170.353 286.155C170.362 286.258 170.284 286.349 170.182 286.357C170.177 286.357 170.172 286.357 170.167 286.357Z" fill="black"/>
<path d="M177.038 281.81C174.643 281.81 172.695 279.861 172.695 277.466C172.695 275.071 174.644 273.123 177.038 273.123C179.432 273.123 181.382 275.071 181.382 277.466C181.382 279.861 179.433 281.81 177.038 281.81ZM177.038 273.497C174.849 273.497 173.069 275.278 173.069 277.467C173.069 279.656 174.85 281.437 177.038 281.437C179.226 281.437 181.008 279.656 181.008 277.467C181.008 275.278 179.228 273.497 177.038 273.497Z" fill="black"/>
<path d="M170.039 285.079H141.981C141.878 285.079 141.794 284.995 141.794 284.892C141.794 284.789 141.878 284.705 141.981 284.705H170.039C170.142 284.705 170.226 284.789 170.226 284.892C170.226 284.995 170.142 285.079 170.039 285.079Z" fill="black"/>
<path d="M138.674 342.251H109.856V455.527H138.674V342.251Z" fill="#315B61"/>
<path d="M148.594 249.771C148.399 249.771 148.275 249.748 148.263 249.745C148.162 249.726 148.096 249.628 148.115 249.527C148.134 249.425 148.23 249.362 148.333 249.378C148.427 249.396 150.599 249.762 151.218 246.543C151.238 246.441 151.334 246.367 151.436 246.395C151.538 246.414 151.604 246.513 151.584 246.613C151.226 248.477 150.349 249.232 149.676 249.536C149.251 249.729 148.856 249.771 148.592 249.771H148.594Z" fill="black"/>
<path d="M228.316 302.679L228.815 300.122L231.309 300.019L231.863 298.294C231.863 298.294 271.931 301.321 272.43 301.474L272.929 301.626L273.539 302.679H228.316Z" fill="#F5F0DF"/>
<path d="M249.78 301.203H249.77L230.191 300.206C230.088 300.2 230.008 300.113 230.014 300.009C230.019 299.906 230.123 299.831 230.211 299.831L249.79 300.828C249.893 300.834 249.973 300.921 249.968 301.025C249.963 301.125 249.88 301.203 249.781 301.203H249.78Z" fill="black"/>
<path d="M273.538 302.355H273.531L251.418 301.411C251.315 301.407 251.235 301.319 251.239 301.216C251.244 301.114 251.333 301.055 251.434 301.037L273.545 301.981C273.649 301.985 273.729 302.073 273.725 302.176C273.721 302.276 273.637 302.355 273.538 302.355Z" fill="black"/>
<path d="M115.446 357.713C113.52 357.713 113.517 360.706 115.446 360.706C117.375 360.706 117.375 357.713 115.446 357.713Z" fill="black"/>
<path d="M119.855 363.255C117.929 363.255 117.926 366.248 119.855 366.248C121.784 366.248 121.784 363.255 119.855 363.255Z" fill="black"/>
<path d="M128.667 363.255C126.742 363.255 126.738 366.248 128.667 366.248C130.596 366.248 130.596 363.255 128.667 363.255Z" fill="black"/>
<path d="M119.855 374.172C117.929 374.172 117.926 377.165 119.855 377.165C121.784 377.165 121.784 374.172 119.855 374.172Z" fill="black"/>
<path d="M128.667 374.172C126.742 374.172 126.738 377.165 128.667 377.165C130.596 377.165 130.596 374.172 128.667 374.172Z" fill="black"/>
<path d="M124.265 357.713C122.34 357.713 122.336 360.706 124.265 360.706C126.194 360.706 126.194 357.713 124.265 357.713Z" fill="black"/>
<path d="M133.085 357.713C131.159 357.713 131.156 360.706 133.085 360.706C135.014 360.706 135.014 357.713 133.085 357.713Z" fill="black"/>
<path d="M115.446 368.52C113.52 368.52 113.517 371.513 115.446 371.513C117.375 371.513 117.375 368.52 115.446 368.52Z" fill="black"/>
<path d="M124.265 368.52C122.34 368.52 122.336 371.513 124.265 371.513C126.194 371.513 126.194 368.52 124.265 368.52Z" fill="black"/>
<path d="M133.085 368.52C131.159 368.52 131.156 371.513 133.085 371.513C135.014 371.513 135.014 368.52 133.085 368.52Z" fill="black"/>
<path d="M119.855 388.36H114V389.773H119.855V388.36Z" fill="black"/>
<path d="M127.193 388.36H121.338V389.773H127.193V388.36Z" fill="black"/>
<path d="M134.53 388.36H128.675V389.773H134.53V388.36Z" fill="black"/>
<path d="M119.855 391.532H114V392.945H119.855V391.532Z" fill="black"/>
<path d="M127.193 391.532H121.338V392.945H127.193V391.532Z" fill="black"/>
<path d="M134.53 391.532H128.675V392.945H134.53V391.532Z" fill="black"/>
<path d="M134.53 397.116H114V450.762H134.53V397.116Z" fill="#E49C7A"/>
<path d="M300.379 303.699C300.347 303.261 299.67 302.919 298.828 302.919C281.454 302.904 117.956 302.768 116.498 302.92C114.959 303.08 116.306 307.108 116.498 307.65C116.69 308.191 119.346 307.89 119.346 307.89C119.346 307.89 119 309.513 119.808 309.453C120.616 309.393 202.943 309.456 233.194 309.455C263.446 309.453 292.885 310.295 293.445 309.734C294.005 309.173 293.445 308.291 293.445 308.291C293.445 308.291 299.856 308.692 300.317 308.451C300.667 308.269 300.486 305.18 300.378 303.699H300.379Z" fill="#D92C2A"/>
<path d="M287.254 308.209C287.254 308.209 287.256 331.284 287.254 345.518C287.253 359.752 287.132 443.209 287.193 445.721C287.254 448.233 287.176 454.374 287.176 454.374C287.176 454.374 285.724 455.304 285.235 454.374C284.746 453.444 285.549 392.194 285.009 386.859C284.47 381.525 283.643 365.336 283.23 356.753C282.817 348.17 282.358 327.655 281.991 321.445C281.624 315.235 281.578 308.536 281.578 308.536L287.255 308.21L287.254 308.209Z" fill="#D92C2A"/>
<path d="M125.777 308.209C125.777 308.209 125.775 331.284 125.777 345.518C125.778 359.752 125.899 443.209 125.838 445.721C125.777 448.233 125.855 454.374 125.855 454.374C125.855 454.374 127.307 455.304 127.796 454.374C128.285 453.444 127.482 392.193 128.022 386.859C128.561 381.525 129.388 365.336 129.801 356.753C130.214 348.17 130.673 327.655 131.04 321.445C131.407 315.235 131.453 308.536 131.453 308.536L125.776 308.21L125.777 308.209Z" fill="#D92C2A"/>
<path d="M287.254 310.02H287.251L281.342 309.836C281.263 309.834 281.2 309.748 281.203 309.645C281.205 309.543 281.269 309.462 281.346 309.462H281.349L287.258 309.646C287.337 309.648 287.4 309.734 287.397 309.837C287.395 309.939 287.331 310.02 287.254 310.02Z" fill="#1C1612"/>
<path d="M131.637 309.615H124.782C124.703 309.615 124.639 309.531 124.639 309.428C124.639 309.325 124.703 309.241 124.782 309.241H131.637C131.716 309.241 131.78 309.325 131.78 309.428C131.78 309.531 131.716 309.615 131.637 309.615Z" fill="#1C1612"/>
<path d="M287.254 310.661H287.249L282.054 310.45C281.975 310.446 281.913 310.36 281.916 310.257C281.918 310.155 281.982 310.076 282.059 310.076H282.064L287.259 310.286C287.338 310.29 287.4 310.376 287.397 310.479C287.395 310.581 287.331 310.66 287.254 310.66V310.661Z" fill="#1C1612"/>
<path d="M287.254 311.262H287.248L282.902 311.051C282.824 311.047 282.761 310.96 282.765 310.857C282.768 310.752 282.834 310.675 282.913 310.677L287.259 310.887C287.337 310.891 287.4 310.978 287.396 311.081C287.393 311.182 287.33 311.261 287.253 311.261L287.254 311.262Z" fill="#1C1612"/>
<path d="M287.254 311.953H287.248L284.073 311.803C283.995 311.799 283.933 311.712 283.936 311.609C283.939 311.508 284.002 311.429 284.079 311.429H284.085L287.261 311.579C287.339 311.583 287.4 311.67 287.398 311.773C287.395 311.874 287.332 311.953 287.255 311.953H287.254Z" fill="#1C1612"/>
<path d="M287.254 312.735H285.342C285.263 312.735 285.199 312.651 285.199 312.548C285.199 312.445 285.263 312.361 285.342 312.361H287.254C287.333 312.361 287.397 312.445 287.397 312.548C287.397 312.651 287.333 312.735 287.254 312.735Z" fill="#1C1612"/>
<path d="M287.254 313.636C287.254 313.636 287.244 313.636 287.238 313.636L286.381 313.516C286.303 313.505 286.246 313.412 286.255 313.31C286.263 313.207 286.314 313.127 286.412 313.143L287.269 313.263C287.347 313.274 287.404 313.367 287.395 313.469C287.387 313.565 287.326 313.636 287.253 313.636H287.254Z" fill="#1C1612"/>
<path d="M131.433 310.112H126.212C126.133 310.112 126.069 310.028 126.069 309.925C126.069 309.822 126.133 309.738 126.212 309.738H131.433C131.512 309.738 131.576 309.822 131.576 309.925C131.576 310.028 131.512 310.112 131.433 310.112Z" fill="#1C1612"/>
<path d="M131.419 310.812H131.416L126.668 310.691C126.589 310.689 126.526 310.603 126.528 310.5C126.53 310.396 126.585 310.334 126.674 310.317L131.422 310.438C131.501 310.44 131.564 310.526 131.562 310.629C131.56 310.731 131.497 310.812 131.419 310.812Z" fill="#1C1612"/>
<path d="M131.4 311.654H131.393L127.353 311.413C127.274 311.408 127.213 311.321 127.217 311.217C127.221 311.114 127.301 311.04 127.367 311.039L131.407 311.28C131.486 311.285 131.547 311.372 131.543 311.476C131.539 311.576 131.476 311.654 131.4 311.654Z" fill="#1C1612"/>
<path d="M131.385 312.228H131.38L128.204 312.074C128.125 312.07 128.063 311.983 128.066 311.88C128.069 311.776 128.133 311.687 128.214 311.699L131.39 311.853C131.469 311.857 131.531 311.944 131.528 312.047C131.525 312.149 131.462 312.227 131.385 312.227V312.228Z" fill="#1C1612"/>
<path d="M131.363 312.976H129.38C129.301 312.976 129.237 312.892 129.237 312.789C129.237 312.686 129.301 312.602 129.38 312.602H131.363C131.442 312.602 131.506 312.686 131.506 312.789C131.506 312.892 131.442 312.976 131.363 312.976Z" fill="#1C1612"/>
<path d="M131.345 313.581H130.138C130.059 313.581 129.995 313.497 129.995 313.394C129.995 313.291 130.059 313.207 130.138 313.207H131.345C131.424 313.207 131.488 313.291 131.488 313.394C131.488 313.497 131.424 313.581 131.345 313.581Z" fill="#1C1612"/>
<path d="M131.313 314.482H130.741C130.662 314.482 130.598 314.398 130.598 314.295C130.598 314.192 130.662 314.108 130.741 314.108H131.313C131.392 314.108 131.456 314.192 131.456 314.295C131.456 314.398 131.392 314.482 131.313 314.482Z" fill="#1C1612"/>
<path d="M129.291 392.426C129.194 392.426 129.113 392.352 129.105 392.254C129.096 392.152 129.173 392.061 129.276 392.052C129.354 392.045 137.254 391.33 145.32 386.316C152.572 381.807 157.025 374.468 157.535 366.18C157.742 362.822 157.379 359.676 156.534 357.079C154.243 357.702 151.975 357.825 149.935 357.509C145.967 356.893 143.155 353.899 143.383 351.733C143.465 350.947 144.086 349.155 148.2 349.378C150.686 349.518 152.759 350.504 154.362 352.309C155.363 353.434 156.175 354.906 156.772 356.624C161.836 355.137 166.968 351.138 169.867 343.954C171.799 339.166 172.436 334.78 172.143 331.223C168.951 332.196 166.15 331.825 163.922 330.039C161.103 327.778 161.148 325.354 162.13 323.84C163.165 322.241 165.575 321.216 168.004 322.463C170.339 323.663 172.073 326.584 172.518 330.712C176.125 329.474 180.235 326.509 184.575 321.925C190.989 315.15 191.28 307.12 189.859 300.622C187.794 301.681 185.594 301.833 183.321 301.078C179.295 299.739 178.868 297.906 178.971 296.933C179.157 295.192 181.3 293.557 183.749 293.289C186.313 293.01 188.348 294.297 189.169 296.74C189.519 297.783 189.843 298.893 190.115 300.056C196.409 296.399 199.462 284.961 199.492 284.845C199.517 284.746 199.615 284.689 199.721 284.711C199.821 284.737 199.88 284.84 199.855 284.94C199.823 285.058 196.699 296.764 190.203 300.438C191.67 307.05 191.406 315.254 184.847 322.183C180.438 326.841 176.247 329.846 172.555 331.091C172.866 334.667 172.228 339.107 170.214 344.095C167.27 351.392 162.05 355.459 156.892 356.979C157.75 359.62 158.118 362.809 157.909 366.205C157.391 374.615 152.874 382.062 145.518 386.635C137.372 391.7 129.387 392.42 129.308 392.427C129.303 392.427 129.298 392.427 129.293 392.427L129.291 392.426ZM147.521 349.734C145.253 349.734 143.893 350.462 143.755 351.773C143.544 353.775 146.222 356.556 149.991 357.14C151.976 357.448 154.184 357.329 156.413 356.726C155.832 355.065 155.048 353.644 154.082 352.559C152.547 350.832 150.561 349.888 148.179 349.754C147.952 349.741 147.732 349.734 147.521 349.734ZM165.789 322.284C164.345 322.284 163.095 323.039 162.443 324.044C161.55 325.421 161.531 327.642 164.156 329.747C166.3 331.465 169.011 331.81 172.108 330.847C171.698 326.851 170.091 323.956 167.833 322.796C167.137 322.439 166.443 322.283 165.789 322.283V322.284ZM184.411 293.628C184.174 293.628 183.964 293.643 183.791 293.662C181.506 293.912 179.512 295.397 179.344 296.974C179.185 298.461 180.64 299.793 183.44 300.724C185.644 301.458 187.776 301.296 189.775 300.245C189.502 299.057 189.172 297.923 188.815 296.861C187.885 294.09 185.74 293.627 184.412 293.627L184.411 293.628Z" fill="black"/>
<path d="M280.435 284.221C280.435 284.221 269.614 281.431 267.248 282.402C264.882 283.373 259.236 291.591 259.236 291.591C259.236 291.591 261.122 292.272 262.481 292.056C263.84 291.84 266.861 288.173 268.11 287.741C269.359 287.309 271.138 290.248 272.594 291.799C274.05 293.35 279.191 296.317 279.191 296.317L280.434 284.22L280.435 284.221Z" fill="#DF5D2C"/>
<path d="M268.385 296.479C268.307 296.479 268.237 296.422 268.225 296.342L267.525 291.969C267.511 291.881 267.571 291.798 267.66 291.784C267.745 291.77 267.831 291.829 267.845 291.919L268.545 296.292C268.559 296.38 268.499 296.463 268.41 296.478C268.401 296.479 268.392 296.48 268.385 296.48V296.479Z" fill="black"/>
<path d="M240.421 277.214C240.378 277.214 240.335 277.196 240.304 277.163C240.242 277.098 240.245 276.995 240.31 276.934L243.529 273.892C243.594 273.83 243.697 273.833 243.758 273.898C243.82 273.963 243.817 274.066 243.752 274.127L240.533 277.169C240.502 277.199 240.462 277.214 240.422 277.214H240.421Z" fill="black"/>
<path d="M242.525 278.024C242.482 278.024 242.439 278.006 242.408 277.973C242.347 277.908 242.349 277.805 242.414 277.745L245.634 274.703C245.698 274.641 245.802 274.645 245.863 274.709C245.925 274.774 245.922 274.877 245.857 274.938L242.637 277.98C242.606 278.01 242.566 278.025 242.526 278.025L242.525 278.024Z" fill="black"/>
<path d="M270.054 295.583C269.976 295.583 269.907 295.526 269.894 295.446L269.194 291.073C269.18 290.985 269.24 290.902 269.329 290.888C269.426 290.877 269.5 290.935 269.515 291.023L270.215 295.396C270.229 295.484 270.169 295.567 270.08 295.582C270.071 295.582 270.063 295.584 270.055 295.584L270.054 295.583Z" fill="black"/>
<path d="M255.836 272.561C255.836 272.561 249.673 270.59 246.194 269.295C242.715 268.001 235.515 264.845 235.515 264.845C235.515 264.845 235.03 267.11 236.567 268.081C238.104 269.052 248.055 273.016 249.431 274.391C250.807 275.766 250.991 279.002 249.968 281.268C248.945 283.533 248.541 286.608 249.026 287.74C249.511 288.873 250.32 289.256 250.32 289.256C250.32 289.256 252.262 284.854 253.799 283.749C255.336 282.644 258.707 282.43 258.707 282.43L255.836 272.56V272.561Z" fill="#DF5D2C"/>
<path d="M441.594 447.945C481.505 447.945 513.859 445.958 513.859 443.506C513.859 441.054 481.505 439.067 441.594 439.067C401.683 439.067 369.329 441.054 369.329 443.506C369.329 445.958 401.683 447.945 441.594 447.945Z" fill="#D7B882"/>
<path d="M481.754 290.477H392.2C388.205 290.477 384.966 293.716 384.966 297.711V416.705C384.966 420.7 388.205 423.939 392.2 423.939H481.754C485.749 423.939 488.988 420.7 488.988 416.705V297.711C488.988 293.716 485.749 290.477 481.754 290.477Z" fill="#DE5C2D"/>
<path d="M392.2 423.939V443.506H399.821C399.821 436.004 405.903 429.923 413.404 429.923H462.071C469.573 429.923 475.654 436.004 475.654 443.506H482.821V423.939H392.2Z" fill="#D92C2A"/>
<path d="M480.822 300.813H392.572V323.006H480.822V300.813Z" fill="#D92C2A"/>
<path d="M481.102 329.11H392.852V351.303H481.102V329.11Z" fill="#D92C2A"/>
<path d="M481.102 357.434H392.852V379.627H481.102V357.434Z" fill="#D92C2A"/>
<path d="M481.886 385.977H393.636V408.17H481.886V385.977Z" fill="#D92C2A"/>
<path d="M441.594 396.855C441.594 399.11 439.766 400.938 437.511 400.938C435.256 400.938 433.428 399.11 433.428 396.855C433.428 394.6 435.256 392.772 437.511 392.772C439.766 392.772 441.594 394.6 441.594 396.855Z" fill="#DE5C2D"/>
<path d="M441.061 368.531C441.061 370.786 439.233 372.614 436.978 372.614C434.723 372.614 432.895 370.786 432.895 368.531C432.895 366.276 434.723 364.448 436.978 364.448C439.233 364.448 441.061 366.276 441.061 368.531Z" fill="#DE5C2D"/>
<path d="M440.78 340.207C440.78 342.462 438.952 344.29 436.697 344.29C434.442 344.29 432.614 342.462 432.614 340.207C432.614 337.952 434.442 336.124 436.697 336.124C438.952 336.124 440.78 337.952 440.78 340.207Z" fill="#DE5C2D"/>
<path d="M440.78 311.909C440.78 314.164 438.952 315.992 436.697 315.992C434.442 315.992 432.614 314.164 432.614 311.909C432.614 309.654 434.442 307.826 436.697 307.826C438.952 307.826 440.78 309.654 440.78 311.909Z" fill="#DE5C2D"/>
<path d="M423.488 362.041H392.852C392.783 362.041 392.727 361.985 392.727 361.916C392.727 361.847 392.783 361.791 392.852 361.791H423.488C423.557 361.791 423.613 361.847 423.613 361.916C423.613 361.985 423.557 362.041 423.488 362.041Z" fill="black"/>
<path d="M480.322 334.056H449.685C449.616 334.056 449.56 334 449.56 333.931C449.56 333.862 449.616 333.806 449.685 333.806H480.322C480.391 333.806 480.447 333.862 480.447 333.931C480.447 334 480.391 334.056 480.322 334.056Z" fill="black"/>
<path d="M423.488 313.663H392.852C392.783 313.663 392.727 313.607 392.727 313.538C392.727 313.469 392.783 313.413 392.852 313.413H423.488C423.557 313.413 423.613 313.469 423.613 313.538C423.613 313.607 423.557 313.663 423.488 313.663Z" fill="black"/>
<path d="M480.822 368.656H449.185C449.116 368.656 449.06 368.6 449.06 368.531C449.06 368.462 449.116 368.406 449.185 368.406H480.822C480.891 368.406 480.947 368.462 480.947 368.531C480.947 368.6 480.891 368.656 480.822 368.656Z" fill="black"/>
<path d="M481.636 403.256H426.323C426.254 403.256 426.198 403.2 426.198 403.131C426.198 403.062 426.254 403.006 426.323 403.006H481.636C481.705 403.006 481.761 403.062 481.761 403.131C481.761 403.2 481.705 403.256 481.636 403.256Z" fill="black"/>
<path d="M465.004 418.131C464.978 418.131 464.95 418.122 464.928 418.105C464.873 418.063 464.864 417.984 464.906 417.93L468.974 412.68C469.015 412.624 469.094 412.615 469.149 412.657C469.204 412.699 469.214 412.778 469.172 412.832L465.104 418.082C465.08 418.114 465.042 418.131 465.004 418.131Z" fill="black"/>
<path d="M402.822 296.756C402.787 296.756 402.751 296.74 402.726 296.711C402.681 296.658 402.689 296.579 402.742 296.535L404.992 294.65C405.045 294.606 405.124 294.613 405.168 294.666C405.213 294.719 405.205 294.798 405.152 294.842L402.902 296.727C402.879 296.747 402.85 296.756 402.822 296.756Z" fill="black"/>
<path d="M393.386 420.381C393.355 420.381 393.324 420.369 393.299 420.346C393.249 420.298 393.248 420.218 393.296 420.169L395.482 417.919C395.531 417.869 395.61 417.869 395.659 417.916C395.709 417.964 395.71 418.044 395.662 418.093L393.476 420.343C393.452 420.368 393.418 420.381 393.386 420.381Z" fill="black"/>
<path d="M395.572 433.848C395.557 433.848 395.543 433.845 395.528 433.84C395.464 433.816 395.43 433.744 395.455 433.679L397.705 427.628C397.728 427.564 397.8 427.532 397.866 427.555C397.93 427.579 397.964 427.651 397.939 427.716L395.689 433.767C395.67 433.817 395.622 433.848 395.572 433.848Z" fill="black"/>
<path d="M418.322 374.881C418.296 374.881 418.269 374.873 418.247 374.856C418.192 374.815 418.181 374.737 418.223 374.681L421.973 369.681C422.015 369.627 422.093 369.614 422.148 369.657C422.203 369.698 422.214 369.776 422.172 369.832L418.422 374.832C418.398 374.864 418.36 374.881 418.322 374.881Z" fill="black"/>
<path d="M422.072 341.381C422.044 341.381 422.015 341.371 421.992 341.353C421.939 341.309 421.931 341.23 421.975 341.176L426.225 336.043C426.271 335.991 426.349 335.984 426.402 336.026C426.455 336.07 426.463 336.149 426.419 336.203L422.169 341.336C422.144 341.365 422.109 341.381 422.072 341.381Z" fill="black"/>
<path d="M401.322 344.415C401.299 344.415 401.275 344.408 401.255 344.395C401.196 344.357 401.18 344.28 401.217 344.222L403.842 340.139C403.881 340.08 403.958 340.066 404.015 340.101C404.074 340.139 404.09 340.216 404.053 340.274L401.428 344.357C401.404 344.394 401.363 344.415 401.322 344.415Z" fill="black"/>
<path d="M470.072 396.98C470.054 396.98 470.038 396.976 470.021 396.969C469.957 396.941 469.929 396.867 469.957 396.804L472.457 391.204C472.485 391.139 472.561 391.115 472.622 391.14C472.686 391.168 472.714 391.242 472.686 391.305L470.186 396.905C470.166 396.952 470.12 396.979 470.072 396.979V396.98Z" fill="black"/>
<path d="M469.072 318.131C469.051 318.131 469.029 318.126 469.01 318.114C468.95 318.08 468.93 318.004 468.964 317.943L472.464 311.846C472.498 311.785 472.576 311.764 472.635 311.8C472.695 311.834 472.715 311.91 472.681 311.971L469.181 318.068C469.157 318.108 469.116 318.13 469.073 318.13L469.072 318.131Z" fill="black"/>
<path d="M473.572 315.082C473.549 315.082 473.526 315.076 473.506 315.062C473.447 315.026 473.43 314.949 473.467 314.89L477.217 308.908C477.253 308.849 477.331 308.831 477.389 308.869C477.448 308.905 477.465 308.982 477.428 309.041L473.678 315.023C473.655 315.061 473.613 315.082 473.572 315.082Z" fill="black"/>
<path d="M473.812 336.123L469.812 339.812H466.812L465.625 341.438L468.188 343.625L467 348.312L471.125 344.438L476.625 343.854L472.596 340.759L473.812 336.123Z" fill="#3D3732"/>
<path d="M470.438 343.344C471.128 343.344 471.688 342.784 471.688 342.094C471.688 341.404 471.128 340.844 470.438 340.844C469.748 340.844 469.188 341.404 469.188 342.094C469.188 342.784 469.748 343.344 470.438 343.344Z" fill="#D92C2A"/>
<path d="M417.384 389.373L413.384 393.062H410.384L409.197 394.688L411.759 396.875L410.572 401.562L414.697 397.688L420.197 397.104L416.168 394.009L417.384 389.373Z" fill="#3D3732"/>
<path d="M414.009 396.594C414.699 396.594 415.259 396.034 415.259 395.344C415.259 394.654 414.699 394.094 414.009 394.094C413.319 394.094 412.759 394.654 412.759 395.344C412.759 396.034 413.319 396.594 414.009 396.594Z" fill="#D92C2A"/>
<path d="M449.782 410.944L445.782 414.633H442.782L441.594 416.258L444.157 418.445L442.969 423.133L447.094 419.258L452.594 418.675L448.565 415.579L449.782 410.944Z" fill="#3D3732"/>
<path d="M446.407 418.164C447.097 418.164 447.657 417.604 447.657 416.914C447.657 416.224 447.097 415.664 446.407 415.664C445.717 415.664 445.157 416.224 445.157 416.914C445.157 417.604 445.717 418.164 446.407 418.164Z" fill="#D92C2A"/>
<path d="M407.759 300.276L403.759 303.965H400.759L399.572 305.59L402.134 307.778L400.947 312.465L405.072 308.59L410.572 308.007L406.543 304.912L407.759 300.276Z" fill="#3D3732"/>
<path d="M404.384 307.497C405.074 307.497 405.634 306.937 405.634 306.247C405.634 305.557 405.074 304.997 404.384 304.997C403.694 304.997 403.134 305.557 403.134 306.247C403.134 306.937 403.694 307.497 404.384 307.497Z" fill="#D92C2A"/>
<path d="M407.972 396.49C407.946 396.49 407.919 396.482 407.897 396.465C407.842 396.424 407.831 396.346 407.873 396.29L411.623 391.29C411.664 391.236 411.743 391.224 411.798 391.266C411.853 391.307 411.864 391.385 411.822 391.441L408.072 396.441C408.048 396.473 408.011 396.491 407.972 396.491V396.49Z" fill="black"/>
<path d="M439.99 418.492C439.964 418.492 439.937 418.484 439.915 418.467C439.86 418.426 439.849 418.348 439.891 418.292L443.641 413.292C443.683 413.237 443.761 413.226 443.816 413.268C443.871 413.309 443.882 413.387 443.84 413.443L440.09 418.443C440.066 418.475 440.029 418.493 439.99 418.493V418.492Z" fill="black"/>
<path d="M464.105 343.574C464.079 343.574 464.052 343.566 464.03 343.549C463.975 343.508 463.964 343.43 464.006 343.374L467.756 338.374C467.798 338.319 467.876 338.308 467.931 338.35C467.986 338.391 467.997 338.469 467.955 338.525L464.205 343.525C464.181 343.557 464.144 343.575 464.105 343.575V343.574Z" fill="black"/>
<path d="M398.885 306.496C398.859 306.496 398.832 306.488 398.81 306.471C398.755 306.43 398.744 306.352 398.786 306.296L402.536 301.296C402.578 301.242 402.656 301.229 402.711 301.272C402.766 301.313 402.777 301.391 402.735 301.447L398.985 306.447C398.961 306.479 398.923 306.497 398.885 306.497V306.496Z" fill="black"/>
</svg>
