<svg width="1512" height="982" viewBox="0 0 1512 982" fill="none" xmlns="http://www.w3.org/2000/svg">
<g filter="url(#filter0_d_161_7555)">
<mask id="mask0_161_7555" style="mask-type:luminance" maskUnits="userSpaceOnUse" x="566" y="188" width="380" height="606">
<path d="M729.759 737.194C732.022 737.194 733.856 735.359 733.856 733.097C733.856 730.834 732.022 729 729.759 729C727.497 729 725.663 730.834 725.663 733.097C725.663 735.359 727.497 737.194 729.759 737.194Z" fill="white"/>
<path d="M900.633 630.436C902.895 630.436 904.729 628.602 904.729 626.339C904.729 624.076 902.895 622.242 900.633 622.242C898.37 622.242 896.536 624.076 896.536 626.339C896.536 628.602 898.37 630.436 900.633 630.436Z" fill="white"/>
<path d="M906.546 620.194C908.809 620.194 910.643 618.359 910.643 616.097C910.643 613.834 908.809 612 906.546 612C904.283 612 902.449 613.834 902.449 616.097C902.449 618.359 904.283 620.194 906.546 620.194Z" fill="white"/>
<path d="M658.759 714.194C661.022 714.194 662.856 712.359 662.856 710.097C662.856 707.834 661.022 706 658.759 706C656.497 706 654.663 707.834 654.663 710.097C654.663 712.359 656.497 714.194 658.759 714.194Z" fill="white"/>
<path d="M828.759 691.194C831.022 691.194 832.856 689.359 832.856 687.097C832.856 684.834 831.022 683 828.759 683C826.497 683 824.663 684.834 824.663 687.097C824.663 689.359 826.497 691.194 828.759 691.194Z" fill="white"/>
<path d="M882.893 640.678C885.155 640.678 886.989 638.844 886.989 636.581C886.989 634.319 885.155 632.484 882.893 632.484C880.63 632.484 878.796 634.319 878.796 636.581C878.796 638.844 880.63 640.678 882.893 640.678Z" fill="white"/>
<path d="M894.719 640.678C896.982 640.678 898.816 638.844 898.816 636.581C898.816 634.319 896.982 632.484 894.719 632.484C892.457 632.484 890.622 634.319 890.622 636.581C890.622 638.844 892.457 640.678 894.719 640.678Z" fill="white"/>
<path d="M906.546 640.678C908.809 640.678 910.643 638.844 910.643 636.581C910.643 634.319 908.809 632.484 906.546 632.484C904.283 632.484 902.449 634.319 902.449 636.581C902.449 638.844 904.283 640.678 906.546 640.678Z" fill="white"/>
<path d="M912.459 630.436C914.722 630.436 916.556 628.602 916.556 626.339C916.556 624.076 914.722 622.242 912.459 622.242C910.197 622.242 908.363 624.076 908.363 626.339C908.363 628.602 910.197 630.436 912.459 630.436Z" fill="white"/>
<path d="M918.373 620.194C920.635 620.194 922.47 618.359 922.47 616.097C922.47 613.834 920.635 612 918.373 612C916.11 612 914.276 613.834 914.276 616.097C914.276 618.359 916.11 620.194 918.373 620.194Z" fill="white"/>
<path d="M876.98 650.92C879.242 650.92 881.077 649.086 881.077 646.823C881.077 644.561 879.242 642.727 876.98 642.727C874.717 642.727 872.883 644.561 872.883 646.823C872.883 649.086 874.717 650.92 876.98 650.92Z" fill="white"/>
<path d="M888.806 650.92C891.069 650.92 892.903 649.086 892.903 646.823C892.903 644.561 891.069 642.727 888.806 642.727C886.543 642.727 884.709 644.561 884.709 646.823C884.709 649.086 886.543 650.92 888.806 650.92Z" fill="white"/>
<path d="M900.633 650.92C902.895 650.92 904.729 649.086 904.729 646.823C904.729 644.561 902.895 642.727 900.633 642.727C898.37 642.727 896.536 644.561 896.536 646.823C896.536 649.086 898.37 650.92 900.633 650.92Z" fill="white"/>
<path d="M912.459 650.92C914.722 650.92 916.556 649.086 916.556 646.823C916.556 644.561 914.722 642.727 912.459 642.727C910.197 642.727 908.363 644.561 908.363 646.823C908.363 649.086 910.197 650.92 912.459 650.92Z" fill="white"/>
<path d="M918.373 640.678C920.635 640.678 922.47 638.844 922.47 636.581C922.47 634.319 920.635 632.484 918.373 632.484C916.11 632.484 914.276 634.319 914.276 636.581C914.276 638.844 916.11 640.678 918.373 640.678Z" fill="white"/>
<path d="M924.286 630.436C926.549 630.436 928.383 628.602 928.383 626.339C928.383 624.076 926.549 622.242 924.286 622.242C922.023 622.242 920.189 624.076 920.189 626.339C920.189 628.602 922.023 630.436 924.286 630.436Z" fill="white"/>
<path d="M823.759 661.162C826.022 661.162 827.856 659.328 827.856 657.066C827.856 654.803 826.022 652.969 823.759 652.969C821.497 652.969 819.663 654.803 819.663 657.066C819.663 659.328 821.497 661.162 823.759 661.162Z" fill="white"/>
<path d="M835.586 661.162C837.849 661.162 839.683 659.328 839.683 657.066C839.683 654.803 837.849 652.969 835.586 652.969C833.324 652.969 831.489 654.803 831.489 657.066C831.489 659.328 833.324 661.162 835.586 661.162Z" fill="white"/>
<path d="M871.066 661.162C873.329 661.162 875.163 659.328 875.163 657.066C875.163 654.803 873.329 652.969 871.066 652.969C868.804 652.969 866.969 654.803 866.969 657.066C866.969 659.328 868.804 661.162 871.066 661.162Z" fill="white"/>
<path d="M882.893 661.162C885.155 661.162 886.989 659.328 886.989 657.066C886.989 654.803 885.155 652.969 882.893 652.969C880.63 652.969 878.796 654.803 878.796 657.066C878.796 659.328 880.63 661.162 882.893 661.162Z" fill="white"/>
<path d="M894.719 661.162C896.982 661.162 898.816 659.328 898.816 657.066C898.816 654.803 896.982 652.969 894.719 652.969C892.457 652.969 890.622 654.803 890.622 657.066C890.622 659.328 892.457 661.162 894.719 661.162Z" fill="white"/>
<path d="M906.546 661.162C908.809 661.162 910.643 659.328 910.643 657.066C910.643 654.803 908.809 652.969 906.546 652.969C904.283 652.969 902.449 654.803 902.449 657.066C902.449 659.328 904.283 661.162 906.546 661.162Z" fill="white"/>
<path d="M918.373 661.162C920.635 661.162 922.47 659.328 922.47 657.066C922.47 654.803 920.635 652.969 918.373 652.969C916.11 652.969 914.276 654.803 914.276 657.066C914.276 659.328 916.11 661.162 918.373 661.162Z" fill="white"/>
<path d="M924.286 650.92C926.549 650.92 928.383 649.086 928.383 646.823C928.383 644.561 926.549 642.727 924.286 642.727C922.023 642.727 920.189 644.561 920.189 646.823C920.189 649.086 922.023 650.92 924.286 650.92Z" fill="white"/>
<path d="M930.199 640.678C932.462 640.678 934.296 638.844 934.296 636.581C934.296 634.319 932.462 632.484 930.199 632.484C927.937 632.484 926.103 634.319 926.103 636.581C926.103 638.844 927.937 640.678 930.199 640.678Z" fill="white"/>
<path d="M841.5 671.404C843.762 671.404 845.596 669.57 845.596 667.308C845.596 665.045 843.762 663.211 841.5 663.211C839.237 663.211 837.403 665.045 837.403 667.308C837.403 669.57 839.237 671.404 841.5 671.404Z" fill="white"/>
<path d="M853.326 671.404C855.589 671.404 857.423 669.57 857.423 667.308C857.423 665.045 855.589 663.211 853.326 663.211C851.064 663.211 849.229 665.045 849.229 667.308C849.229 669.57 851.064 671.404 853.326 671.404Z" fill="white"/>
<path d="M865.153 671.404C867.416 671.404 869.25 669.57 869.25 667.308C869.25 665.045 867.416 663.211 865.153 663.211C862.89 663.211 861.056 665.045 861.056 667.308C861.056 669.57 862.89 671.404 865.153 671.404Z" fill="white"/>
<path d="M876.98 671.404C879.242 671.404 881.077 669.57 881.077 667.308C881.077 665.045 879.242 663.211 876.98 663.211C874.717 663.211 872.883 665.045 872.883 667.308C872.883 669.57 874.717 671.404 876.98 671.404Z" fill="white"/>
<path d="M888.806 671.404C891.069 671.404 892.903 669.57 892.903 667.308C892.903 665.045 891.069 663.211 888.806 663.211C886.543 663.211 884.709 665.045 884.709 667.308C884.709 669.57 886.543 671.404 888.806 671.404Z" fill="white"/>
<path d="M900.633 671.404C902.895 671.404 904.729 669.57 904.729 667.308C904.729 665.045 902.895 663.211 900.633 663.211C898.37 663.211 896.536 665.045 896.536 667.308C896.536 669.57 898.37 671.404 900.633 671.404Z" fill="white"/>
<path d="M912.459 671.404C914.722 671.404 916.556 669.57 916.556 667.308C916.556 665.045 914.722 663.211 912.459 663.211C910.197 663.211 908.363 665.045 908.363 667.308C908.363 669.57 910.197 671.404 912.459 671.404Z" fill="white"/>
<path d="M924.286 671.404C926.549 671.404 928.383 669.57 928.383 667.308C928.383 665.045 926.549 663.211 924.286 663.211C922.023 663.211 920.189 665.045 920.189 667.308C920.189 669.57 922.023 671.404 924.286 671.404Z" fill="white"/>
<path d="M930.199 661.162C932.462 661.162 934.296 659.328 934.296 657.066C934.296 654.803 932.462 652.969 930.199 652.969C927.937 652.969 926.103 654.803 926.103 657.066C926.103 659.328 927.937 661.162 930.199 661.162Z" fill="white"/>
<path d="M835.586 681.647C837.849 681.647 839.683 679.812 839.683 677.55C839.683 675.287 837.849 673.453 835.586 673.453C833.324 673.453 831.489 675.287 831.489 677.55C831.489 679.812 833.324 681.647 835.586 681.647Z" fill="white"/>
<path d="M847.413 681.647C849.676 681.647 851.51 679.812 851.51 677.55C851.51 675.287 849.676 673.453 847.413 673.453C845.15 673.453 843.316 675.287 843.316 677.55C843.316 679.812 845.15 681.647 847.413 681.647Z" fill="white"/>
<path d="M859.24 681.647C861.502 681.647 863.337 679.812 863.337 677.55C863.337 675.287 861.502 673.453 859.24 673.453C856.977 673.453 855.143 675.287 855.143 677.55C855.143 679.812 856.977 681.647 859.24 681.647Z" fill="white"/>
<path d="M871.066 681.647C873.329 681.647 875.163 679.812 875.163 677.55C875.163 675.287 873.329 673.453 871.066 673.453C868.804 673.453 866.969 675.287 866.969 677.55C866.969 679.812 868.804 681.647 871.066 681.647Z" fill="white"/>
<path d="M882.893 681.647C885.155 681.647 886.989 679.812 886.989 677.55C886.989 675.287 885.155 673.453 882.893 673.453C880.63 673.453 878.796 675.287 878.796 677.55C878.796 679.812 880.63 681.647 882.893 681.647Z" fill="white"/>
<path d="M894.719 681.647C896.982 681.647 898.816 679.812 898.816 677.55C898.816 675.287 896.982 673.453 894.719 673.453C892.457 673.453 890.622 675.287 890.622 677.55C890.622 679.812 892.457 681.647 894.719 681.647Z" fill="white"/>
<path d="M906.546 681.647C908.809 681.647 910.643 679.812 910.643 677.55C910.643 675.287 908.809 673.453 906.546 673.453C904.283 673.453 902.449 675.287 902.449 677.55C902.449 679.812 904.283 681.647 906.546 681.647Z" fill="white"/>
<path d="M918.373 681.647C920.635 681.647 922.47 679.812 922.47 677.55C922.47 675.287 920.635 673.453 918.373 673.453C916.11 673.453 914.276 675.287 914.276 677.55C914.276 679.812 916.11 681.647 918.373 681.647Z" fill="white"/>
<path d="M930.199 681.647C932.462 681.647 934.296 679.812 934.296 677.55C934.296 675.287 932.462 673.453 930.199 673.453C927.937 673.453 926.103 675.287 926.103 677.55C926.103 679.812 927.937 681.647 930.199 681.647Z" fill="white"/>
<path d="M936.113 671.404C938.375 671.404 940.21 669.57 940.21 667.308C940.21 665.045 938.375 663.211 936.113 663.211C933.85 663.211 932.016 665.045 932.016 667.308C932.016 669.57 933.85 671.404 936.113 671.404Z" fill="white"/>
<path d="M841.5 691.889C843.762 691.889 845.596 690.055 845.596 687.792C845.596 685.529 843.762 683.695 841.5 683.695C839.237 683.695 837.403 685.529 837.403 687.792C837.403 690.055 839.237 691.889 841.5 691.889Z" fill="white"/>
<path d="M853.326 691.889C855.589 691.889 857.423 690.055 857.423 687.792C857.423 685.529 855.589 683.695 853.326 683.695C851.064 683.695 849.229 685.529 849.229 687.792C849.229 690.055 851.064 691.889 853.326 691.889Z" fill="white"/>
<path d="M865.153 691.889C867.416 691.889 869.25 690.055 869.25 687.792C869.25 685.529 867.416 683.695 865.153 683.695C862.89 683.695 861.056 685.529 861.056 687.792C861.056 690.055 862.89 691.889 865.153 691.889Z" fill="white"/>
<path d="M876.98 691.889C879.242 691.889 881.077 690.055 881.077 687.792C881.077 685.529 879.242 683.695 876.98 683.695C874.717 683.695 872.883 685.529 872.883 687.792C872.883 690.055 874.717 691.889 876.98 691.889Z" fill="white"/>
<path d="M888.806 691.889C891.069 691.889 892.903 690.055 892.903 687.792C892.903 685.529 891.069 683.695 888.806 683.695C886.543 683.695 884.709 685.529 884.709 687.792C884.709 690.055 886.543 691.889 888.806 691.889Z" fill="white"/>
<path d="M900.633 691.889C902.895 691.889 904.729 690.055 904.729 687.792C904.729 685.529 902.895 683.695 900.633 683.695C898.37 683.695 896.536 685.529 896.536 687.792C896.536 690.055 898.37 691.889 900.633 691.889Z" fill="white"/>
<path d="M912.459 691.889C914.722 691.889 916.556 690.055 916.556 687.792C916.556 685.529 914.722 683.695 912.459 683.695C910.197 683.695 908.363 685.529 908.363 687.792C908.363 690.055 910.197 691.889 912.459 691.889Z" fill="white"/>
<path d="M924.286 691.889C926.549 691.889 928.383 690.055 928.383 687.792C928.383 685.529 926.549 683.695 924.286 683.695C922.023 683.695 920.189 685.529 920.189 687.792C920.189 690.055 922.023 691.889 924.286 691.889Z" fill="white"/>
<path d="M847.413 702.131C849.676 702.131 851.51 700.297 851.51 698.034C851.51 695.771 849.676 693.937 847.413 693.937C845.15 693.937 843.316 695.771 843.316 698.034C843.316 700.297 845.15 702.131 847.413 702.131Z" fill="white"/>
<path d="M859.24 702.131C861.502 702.131 863.337 700.297 863.337 698.034C863.337 695.771 861.502 693.937 859.24 693.937C856.977 693.937 855.143 695.771 855.143 698.034C855.143 700.297 856.977 702.131 859.24 702.131Z" fill="white"/>
<path d="M871.066 702.131C873.329 702.131 875.163 700.297 875.163 698.034C875.163 695.771 873.329 693.937 871.066 693.937C868.804 693.937 866.969 695.771 866.969 698.034C866.969 700.297 868.804 702.131 871.066 702.131Z" fill="white"/>
<path d="M882.893 702.131C885.155 702.131 886.989 700.297 886.989 698.034C886.989 695.771 885.155 693.937 882.893 693.937C880.63 693.937 878.796 695.771 878.796 698.034C878.796 700.297 880.63 702.131 882.893 702.131Z" fill="white"/>
<path d="M894.719 702.131C896.982 702.131 898.816 700.297 898.816 698.034C898.816 695.771 896.982 693.937 894.719 693.937C892.457 693.937 890.622 695.771 890.622 698.034C890.622 700.297 892.457 702.131 894.719 702.131Z" fill="white"/>
<path d="M906.546 702.131C908.809 702.131 910.643 700.297 910.643 698.034C910.643 695.771 908.809 693.937 906.546 693.937C904.283 693.937 902.449 695.771 902.449 698.034C902.449 700.297 904.283 702.131 906.546 702.131Z" fill="white"/>
<path d="M918.373 702.131C920.635 702.131 922.47 700.297 922.47 698.034C922.47 695.771 920.635 693.937 918.373 693.937C916.11 693.937 914.276 695.771 914.276 698.034C914.276 700.297 916.11 702.131 918.373 702.131Z" fill="white"/>
<path d="M930.199 702.131C932.462 702.131 934.296 700.297 934.296 698.034C934.296 695.771 932.462 693.937 930.199 693.937C927.937 693.937 926.103 695.771 926.103 698.034C926.103 700.297 927.937 702.131 930.199 702.131Z" fill="white"/>
<path d="M812.759 636.436C815.022 636.436 816.856 634.602 816.856 632.339C816.856 630.076 815.022 628.242 812.759 628.242C810.497 628.242 808.663 630.076 808.663 632.339C808.663 634.602 810.497 636.436 812.759 636.436Z" fill="white"/>
<path d="M818.673 626.194C820.936 626.194 822.77 624.359 822.77 622.097C822.77 619.834 820.936 618 818.673 618C816.41 618 814.576 619.834 814.576 622.097C814.576 624.359 816.41 626.194 818.673 626.194Z" fill="white"/>
<path d="M853.326 712.373C855.589 712.373 857.423 710.539 857.423 708.276C857.423 706.014 855.589 704.179 853.326 704.179C851.064 704.179 849.229 706.014 849.229 708.276C849.229 710.539 851.064 712.373 853.326 712.373Z" fill="white"/>
<path d="M865.153 712.373C867.416 712.373 869.25 710.539 869.25 708.276C869.25 706.014 867.416 704.179 865.153 704.179C862.89 704.179 861.056 706.014 861.056 708.276C861.056 710.539 862.89 712.373 865.153 712.373Z" fill="white"/>
<path d="M876.98 712.373C879.242 712.373 881.077 710.539 881.077 708.276C881.077 706.014 879.242 704.179 876.98 704.179C874.717 704.179 872.883 706.014 872.883 708.276C872.883 710.539 874.717 712.373 876.98 712.373Z" fill="white"/>
<path d="M888.806 712.373C891.069 712.373 892.903 710.539 892.903 708.276C892.903 706.014 891.069 704.179 888.806 704.179C886.543 704.179 884.709 706.014 884.709 708.276C884.709 710.539 886.543 712.373 888.806 712.373Z" fill="white"/>
<path d="M900.633 712.373C902.895 712.373 904.729 710.539 904.729 708.276C904.729 706.014 902.895 704.179 900.633 704.179C898.37 704.179 896.536 706.014 896.536 708.276C896.536 710.539 898.37 712.373 900.633 712.373Z" fill="white"/>
<path d="M912.459 712.373C914.722 712.373 916.556 710.539 916.556 708.276C916.556 706.014 914.722 704.179 912.459 704.179C910.197 704.179 908.363 706.014 908.363 708.276C908.363 710.539 910.197 712.373 912.459 712.373Z" fill="white"/>
<path d="M924.286 712.373C926.549 712.373 928.383 710.539 928.383 708.276C928.383 706.014 926.549 704.179 924.286 704.179C922.023 704.179 920.189 706.014 920.189 708.276C920.189 710.539 922.023 712.373 924.286 712.373Z" fill="white"/>
<path d="M936.113 712.373C938.375 712.373 940.21 710.539 940.21 708.276C940.21 706.014 938.375 704.179 936.113 704.179C933.85 704.179 932.016 706.014 932.016 708.276C932.016 710.539 933.85 712.373 936.113 712.373Z" fill="white"/>
<path d="M818.673 646.678C820.936 646.678 822.77 644.844 822.77 642.581C822.77 640.319 820.936 638.484 818.673 638.484C816.41 638.484 814.576 640.319 814.576 642.581C814.576 644.844 816.41 646.678 818.673 646.678Z" fill="white"/>
<path d="M824.586 636.436C826.849 636.436 828.683 634.602 828.683 632.339C828.683 630.076 826.849 628.242 824.586 628.242C822.324 628.242 820.489 630.076 820.489 632.339C820.489 634.602 822.324 636.436 824.586 636.436Z" fill="white"/>
<path d="M847.413 722.615C849.676 722.615 851.51 720.781 851.51 718.518C851.51 716.256 849.676 714.422 847.413 714.422C845.15 714.422 843.316 716.256 843.316 718.518C843.316 720.781 845.15 722.615 847.413 722.615Z" fill="white"/>
<path d="M859.24 722.615C861.502 722.615 863.337 720.781 863.337 718.518C863.337 716.256 861.502 714.422 859.24 714.422C856.977 714.422 855.143 716.256 855.143 718.518C855.143 720.781 856.977 722.615 859.24 722.615Z" fill="white"/>
<path d="M871.066 722.615C873.329 722.615 875.163 720.781 875.163 718.518C875.163 716.256 873.329 714.422 871.066 714.422C868.804 714.422 866.969 716.256 866.969 718.518C866.969 720.781 868.804 722.615 871.066 722.615Z" fill="white"/>
<path d="M882.893 722.615C885.155 722.615 886.989 720.781 886.989 718.518C886.989 716.256 885.155 714.422 882.893 714.422C880.63 714.422 878.796 716.256 878.796 718.518C878.796 720.781 880.63 722.615 882.893 722.615Z" fill="white"/>
<path d="M894.719 722.615C896.982 722.615 898.816 720.781 898.816 718.518C898.816 716.256 896.982 714.422 894.719 714.422C892.457 714.422 890.622 716.256 890.622 718.518C890.622 720.781 892.457 722.615 894.719 722.615Z" fill="white"/>
<path d="M918.373 722.294C920.458 722.294 922.148 720.604 922.148 718.518C922.148 716.433 920.458 714.743 918.373 714.743C916.288 714.743 914.597 716.433 914.597 718.518C914.597 720.604 916.288 722.294 918.373 722.294Z" fill="white"/>
<path d="M930.199 722.615C932.462 722.615 934.296 720.781 934.296 718.518C934.296 716.256 932.462 714.422 930.199 714.422C927.937 714.422 926.103 716.256 926.103 718.518C926.103 720.781 927.937 722.615 930.199 722.615Z" fill="white"/>
<path d="M613.759 659.194C616.022 659.194 617.856 657.359 617.856 655.097C617.856 652.834 616.022 651 613.759 651C611.497 651 609.663 652.834 609.663 655.097C609.663 657.359 611.497 659.194 613.759 659.194Z" fill="white"/>
<path d="M798.759 617.162C801.022 617.162 802.856 615.328 802.856 613.065C802.856 610.803 801.022 608.969 798.759 608.969C796.497 608.969 794.663 610.803 794.663 613.065C794.663 615.328 796.497 617.162 798.759 617.162Z" fill="white"/>
<path d="M804.673 606.92C806.935 606.92 808.77 605.086 808.77 602.823C808.77 600.561 806.935 598.726 804.673 598.726C802.41 598.726 800.576 600.561 800.576 602.823C800.576 605.086 802.41 606.92 804.673 606.92Z" fill="white"/>
<path d="M810.586 596.678C812.849 596.678 814.683 594.844 814.683 592.581C814.683 590.318 812.849 588.484 810.586 588.484C808.323 588.484 806.489 590.318 806.489 592.581C806.489 594.844 808.323 596.678 810.586 596.678Z" fill="white"/>
<path d="M816.499 586.436C818.762 586.436 820.596 584.601 820.596 582.339C820.596 580.076 818.762 578.242 816.499 578.242C814.237 578.242 812.403 580.076 812.403 582.339C812.403 584.601 814.237 586.436 816.499 586.436Z" fill="white"/>
<path d="M841.5 732.857C843.762 732.857 845.596 731.023 845.596 728.76C845.596 726.498 843.762 724.664 841.5 724.664C839.237 724.664 837.403 726.498 837.403 728.76C837.403 731.023 839.237 732.857 841.5 732.857Z" fill="white"/>
<path d="M853.326 732.857C855.589 732.857 857.423 731.023 857.423 728.76C857.423 726.498 855.589 724.664 853.326 724.664C851.064 724.664 849.229 726.498 849.229 728.76C849.229 731.023 851.064 732.857 853.326 732.857Z" fill="white"/>
<path d="M865.153 732.857C867.416 732.857 869.25 731.023 869.25 728.76C869.25 726.498 867.416 724.664 865.153 724.664C862.89 724.664 861.056 726.498 861.056 728.76C861.056 731.023 862.89 732.857 865.153 732.857Z" fill="white"/>
<path d="M876.98 732.857C879.242 732.857 881.077 731.023 881.077 728.76C881.077 726.498 879.242 724.664 876.98 724.664C874.717 724.664 872.883 726.498 872.883 728.76C872.883 731.023 874.717 732.857 876.98 732.857Z" fill="white"/>
<path d="M888.806 732.857C891.069 732.857 892.903 731.023 892.903 728.76C892.903 726.498 891.069 724.664 888.806 724.664C886.543 724.664 884.709 726.498 884.709 728.76C884.709 731.023 886.543 732.857 888.806 732.857Z" fill="white"/>
<path d="M900.633 732.857C902.895 732.857 904.729 731.023 904.729 728.76C904.729 726.498 902.895 724.664 900.633 724.664C898.37 724.664 896.536 726.498 896.536 728.76C896.536 731.023 898.37 732.857 900.633 732.857Z" fill="white"/>
<path d="M924.286 732.857C926.549 732.857 928.383 731.023 928.383 728.76C928.383 726.498 926.549 724.664 924.286 724.664C922.023 724.664 920.189 726.498 920.189 728.76C920.189 731.023 922.023 732.857 924.286 732.857Z" fill="white"/>
<path d="M941.759 702.194C944.022 702.194 945.856 700.359 945.856 698.097C945.856 695.834 944.022 694 941.759 694C939.497 694 937.663 695.834 937.663 698.097C937.663 700.359 939.497 702.194 941.759 702.194Z" fill="white"/>
<path d="M605.759 679.194C608.022 679.194 609.856 677.359 609.856 675.097C609.856 672.834 608.022 671 605.759 671C603.497 671 601.663 672.834 601.663 675.097C601.663 677.359 603.497 679.194 605.759 679.194Z" fill="white"/>
<path d="M804.673 627.404C806.935 627.404 808.77 625.57 808.77 623.308C808.77 621.045 806.935 619.211 804.673 619.211C802.41 619.211 800.576 621.045 800.576 623.308C800.576 625.57 802.41 627.404 804.673 627.404Z" fill="white"/>
<path d="M810.586 617.162C812.849 617.162 814.683 615.328 814.683 613.065C814.683 610.803 812.849 608.969 810.586 608.969C808.323 608.969 806.489 610.803 806.489 613.065C806.489 615.328 808.323 617.162 810.586 617.162Z" fill="white"/>
<path d="M816.499 606.92C818.762 606.92 820.596 605.086 820.596 602.823C820.596 600.561 818.762 598.726 816.499 598.726C814.237 598.726 812.403 600.561 812.403 602.823C812.403 605.086 814.237 606.92 816.499 606.92Z" fill="white"/>
<path d="M822.412 596.678C824.675 596.678 826.509 594.844 826.509 592.581C826.509 590.318 824.675 588.484 822.412 588.484C820.15 588.484 818.315 590.318 818.315 592.581C818.315 594.844 820.15 596.678 822.412 596.678Z" fill="white"/>
<path d="M828.326 586.436C830.589 586.436 832.423 584.601 832.423 582.339C832.423 580.076 830.589 578.242 828.326 578.242C826.064 578.242 824.229 580.076 824.229 582.339C824.229 584.601 826.064 586.436 828.326 586.436Z" fill="white"/>
<path d="M822.412 576.194C824.675 576.194 826.509 574.359 826.509 572.097C826.509 569.834 824.675 568 822.412 568C820.15 568 818.315 569.834 818.315 572.097C818.315 574.359 820.15 576.194 822.412 576.194Z" fill="white"/>
<path d="M847.413 743.099C849.676 743.099 851.51 741.265 851.51 739.003C851.51 736.74 849.676 734.906 847.413 734.906C845.15 734.906 843.316 736.74 843.316 739.003C843.316 741.265 845.15 743.099 847.413 743.099Z" fill="white"/>
<path d="M859.24 743.099C861.502 743.099 863.337 741.265 863.337 739.003C863.337 736.74 861.502 734.906 859.24 734.906C856.977 734.906 855.143 736.74 855.143 739.003C855.143 741.265 856.977 743.099 859.24 743.099Z" fill="white"/>
<path d="M871.066 743.099C873.329 743.099 875.163 741.265 875.163 739.003C875.163 736.74 873.329 734.906 871.066 734.906C868.804 734.906 866.969 736.74 866.969 739.003C866.969 741.265 868.804 743.099 871.066 743.099Z" fill="white"/>
<path d="M882.893 743.099C885.155 743.099 886.989 741.265 886.989 739.003C886.989 736.74 885.155 734.906 882.893 734.906C880.63 734.906 878.796 736.74 878.796 739.003C878.796 741.265 880.63 743.099 882.893 743.099Z" fill="white"/>
<path d="M894.719 743.099C896.982 743.099 898.816 741.265 898.816 739.003C898.816 736.74 896.982 734.906 894.719 734.906C892.457 734.906 890.622 736.74 890.622 739.003C890.622 741.265 892.457 743.099 894.719 743.099Z" fill="white"/>
<path d="M906.546 743.099C908.809 743.099 910.643 741.265 910.643 739.003C910.643 736.74 908.809 734.906 906.546 734.906C904.283 734.906 902.449 736.74 902.449 739.003C902.449 741.265 904.283 743.099 906.546 743.099Z" fill="white"/>
<path d="M576.01 728.965C578.273 728.965 580.107 727.131 580.107 724.868C580.107 722.606 578.273 720.771 576.01 720.771C573.748 720.771 571.913 722.606 571.913 724.868C571.913 727.131 573.748 728.965 576.01 728.965Z" fill="white"/>
<path d="M834.76 576.194C837.022 576.194 838.856 574.359 838.856 572.097C838.856 569.834 837.022 568 834.76 568C832.497 568 830.663 569.834 830.663 572.097C830.663 574.359 832.497 576.194 834.76 576.194Z" fill="white"/>
<path d="M853.326 753.342C855.589 753.342 857.423 751.507 857.423 749.245C857.423 746.982 855.589 745.148 853.326 745.148C851.064 745.148 849.229 746.982 849.229 749.245C849.229 751.507 851.064 753.342 853.326 753.342Z" fill="white"/>
<path d="M865.153 753.342C867.416 753.342 869.25 751.507 869.25 749.245C869.25 746.982 867.416 745.148 865.153 745.148C862.89 745.148 861.056 746.982 861.056 749.245C861.056 751.507 862.89 753.342 865.153 753.342Z" fill="white"/>
<path d="M876.98 753.342C879.242 753.342 881.077 751.507 881.077 749.245C881.077 746.982 879.242 745.148 876.98 745.148C874.717 745.148 872.883 746.982 872.883 749.245C872.883 751.507 874.717 753.342 876.98 753.342Z" fill="white"/>
<path d="M888.806 753.342C891.069 753.342 892.903 751.507 892.903 749.245C892.903 746.982 891.069 745.148 888.806 745.148C886.543 745.148 884.709 746.982 884.709 749.245C884.709 751.507 886.543 753.342 888.806 753.342Z" fill="white"/>
<path d="M900.633 753.342C902.895 753.342 904.729 751.507 904.729 749.245C904.729 746.982 902.895 745.148 900.633 745.148C898.37 745.148 896.536 746.982 896.536 749.245C896.536 751.507 898.37 753.342 900.633 753.342Z" fill="white"/>
<path d="M912.459 753.342C914.722 753.342 916.556 751.507 916.556 749.245C916.556 746.982 914.722 745.148 912.459 745.148C910.197 745.148 908.363 746.982 908.363 749.245C908.363 751.507 910.197 753.342 912.459 753.342Z" fill="white"/>
<path d="M570.097 739.207C572.359 739.207 574.194 737.373 574.194 735.111C574.194 732.848 572.359 731.014 570.097 731.014C567.834 731.014 566 732.848 566 735.111C566 737.373 567.834 739.207 570.097 739.207Z" fill="white"/>
<path d="M664.71 595.817C666.973 595.817 668.807 593.983 668.807 591.72C668.807 589.458 666.973 587.624 664.71 587.624C662.447 587.624 660.613 589.458 660.613 591.72C660.613 593.983 662.447 595.817 664.71 595.817Z" fill="white"/>
<path d="M676.537 575.333C678.799 575.333 680.634 573.499 680.634 571.236C680.634 568.973 678.799 567.139 676.537 567.139C674.274 567.139 672.44 568.973 672.44 571.236C672.44 573.499 674.274 575.333 676.537 575.333Z" fill="white"/>
<path d="M688.363 554.848C690.626 554.848 692.46 553.014 692.46 550.752C692.46 548.489 690.626 546.655 688.363 546.655C686.1 546.655 684.266 548.489 684.266 550.752C684.266 553.014 686.1 554.848 688.363 554.848Z" fill="white"/>
<path d="M700.19 534.364C702.452 534.364 704.286 532.53 704.286 530.268C704.286 528.005 702.452 526.171 700.19 526.171C697.927 526.171 696.093 528.005 696.093 530.268C696.093 532.53 697.927 534.364 700.19 534.364Z" fill="white"/>
<path d="M706.103 524.122C708.366 524.122 710.2 522.288 710.2 520.025C710.2 517.763 708.366 515.928 706.103 515.928C703.84 515.928 702.006 517.763 702.006 520.025C702.006 522.288 703.84 524.122 706.103 524.122Z" fill="white"/>
<path d="M871.066 763.584C873.329 763.584 875.163 761.75 875.163 759.487C875.163 757.224 873.329 755.39 871.066 755.39C868.804 755.39 866.969 757.224 866.969 759.487C866.969 761.75 868.804 763.584 871.066 763.584Z" fill="white"/>
<path d="M882.893 763.584C885.155 763.584 886.989 761.75 886.989 759.487C886.989 757.224 885.155 755.39 882.893 755.39C880.63 755.39 878.796 757.224 878.796 759.487C878.796 761.75 880.63 763.584 882.893 763.584Z" fill="white"/>
<path d="M894.719 763.584C896.982 763.584 898.816 761.75 898.816 759.487C898.816 757.224 896.982 755.39 894.719 755.39C892.457 755.39 890.622 757.224 890.622 759.487C890.622 761.75 892.457 763.584 894.719 763.584Z" fill="white"/>
<path d="M906.546 763.584C908.809 763.584 910.643 761.75 910.643 759.487C910.643 757.224 908.809 755.39 906.546 755.39C904.283 755.39 902.449 757.224 902.449 759.487C902.449 761.75 904.283 763.584 906.546 763.584Z" fill="white"/>
<path d="M936.759 692.194C939.022 692.194 940.856 690.359 940.856 688.097C940.856 685.834 939.022 684 936.759 684C934.497 684 932.663 685.834 932.663 688.097C932.663 690.359 934.497 692.194 936.759 692.194Z" fill="white"/>
<path d="M670.624 606.059C672.886 606.059 674.72 604.225 674.72 601.963C674.72 599.7 672.886 597.866 670.624 597.866C668.361 597.866 666.527 599.7 666.527 601.963C666.527 604.225 668.361 606.059 670.624 606.059Z" fill="white"/>
<path d="M676.537 595.817C678.799 595.817 680.634 593.983 680.634 591.72C680.634 589.458 678.799 587.624 676.537 587.624C674.274 587.624 672.44 589.458 672.44 591.72C672.44 593.983 674.274 595.817 676.537 595.817Z" fill="white"/>
<path d="M682.45 585.575C684.713 585.575 686.547 583.741 686.547 581.478C686.547 579.216 684.713 577.381 682.45 577.381C680.187 577.381 678.353 579.216 678.353 581.478C678.353 583.741 680.187 585.575 682.45 585.575Z" fill="white"/>
<path d="M688.363 575.333C690.626 575.333 692.46 573.499 692.46 571.236C692.46 568.973 690.626 567.139 688.363 567.139C686.1 567.139 684.266 568.973 684.266 571.236C684.266 573.499 686.1 575.333 688.363 575.333Z" fill="white"/>
<path d="M694.277 565.091C696.54 565.091 698.374 563.256 698.374 560.994C698.374 558.731 696.54 556.897 694.277 556.897C692.014 556.897 690.18 558.731 690.18 560.994C690.18 563.256 692.014 565.091 694.277 565.091Z" fill="white"/>
<path d="M700.19 554.848C702.452 554.848 704.286 553.014 704.286 550.752C704.286 548.489 702.452 546.655 700.19 546.655C697.927 546.655 696.093 548.489 696.093 550.752C696.093 553.014 697.927 554.848 700.19 554.848Z" fill="white"/>
<path d="M706.103 544.607C708.366 544.607 710.2 542.772 710.2 540.51C710.2 538.247 708.366 536.413 706.103 536.413C703.84 536.413 702.006 538.247 702.006 540.51C702.006 542.772 703.84 544.607 706.103 544.607Z" fill="white"/>
<path d="M712.016 534.364C714.279 534.364 716.113 532.53 716.113 530.268C716.113 528.005 714.279 526.171 712.016 526.171C709.754 526.171 707.92 528.005 707.92 530.268C707.92 532.53 709.754 534.364 712.016 534.364Z" fill="white"/>
<path d="M717.93 524.122C720.192 524.122 722.027 522.288 722.027 520.025C722.027 517.763 720.192 515.928 717.93 515.928C715.667 515.928 713.833 517.763 713.833 520.025C713.833 522.288 715.667 524.122 717.93 524.122Z" fill="white"/>
<path d="M729.757 503.638C732.019 503.638 733.853 501.804 733.853 499.541C733.853 497.278 732.019 495.444 729.757 495.444C727.494 495.444 725.66 497.278 725.66 499.541C725.66 501.804 727.494 503.638 729.757 503.638Z" fill="white"/>
<path d="M723.843 493.396C726.106 493.396 727.94 491.562 727.94 489.299C727.94 487.036 726.106 485.202 723.843 485.202C721.581 485.202 719.746 487.036 719.746 489.299C719.746 491.562 721.581 493.396 723.843 493.396Z" fill="white"/>
<path d="M717.93 483.154C720.192 483.154 722.027 481.319 722.027 479.057C722.027 476.794 720.192 474.96 717.93 474.96C715.667 474.96 713.833 476.794 713.833 479.057C713.833 481.319 715.667 483.154 717.93 483.154Z" fill="white"/>
<path d="M712.016 472.911C714.279 472.911 716.113 471.077 716.113 468.815C716.113 466.552 714.279 464.718 712.016 464.718C709.754 464.718 707.92 466.552 707.92 468.815C707.92 471.077 709.754 472.911 712.016 472.911Z" fill="white"/>
<path d="M676.537 616.302C678.799 616.302 680.634 614.467 680.634 612.205C680.634 609.942 678.799 608.108 676.537 608.108C674.274 608.108 672.44 609.942 672.44 612.205C672.44 614.467 674.274 616.302 676.537 616.302Z" fill="white"/>
<path d="M682.45 606.059C684.713 606.059 686.547 604.225 686.547 601.963C686.547 599.7 684.713 597.866 682.45 597.866C680.187 597.866 678.353 599.7 678.353 601.963C678.353 604.225 680.187 606.059 682.45 606.059Z" fill="white"/>
<path d="M688.363 595.817C690.626 595.817 692.46 593.983 692.46 591.72C692.46 589.458 690.626 587.624 688.363 587.624C686.1 587.624 684.266 589.458 684.266 591.72C684.266 593.983 686.1 595.817 688.363 595.817Z" fill="white"/>
<path d="M694.277 585.575C696.54 585.575 698.374 583.741 698.374 581.478C698.374 579.216 696.54 577.381 694.277 577.381C692.014 577.381 690.18 579.216 690.18 581.478C690.18 583.741 692.014 585.575 694.277 585.575Z" fill="white"/>
<path d="M700.19 575.333C702.452 575.333 704.286 573.499 704.286 571.236C704.286 568.973 702.452 567.139 700.19 567.139C697.927 567.139 696.093 568.973 696.093 571.236C696.093 573.499 697.927 575.333 700.19 575.333Z" fill="white"/>
<path d="M717.93 544.607C720.192 544.607 722.027 542.772 722.027 540.51C722.027 538.247 720.192 536.413 717.93 536.413C715.667 536.413 713.833 538.247 713.833 540.51C713.833 542.772 715.667 544.607 717.93 544.607Z" fill="white"/>
<path d="M723.843 534.364C726.106 534.364 727.94 532.53 727.94 530.268C727.94 528.005 726.106 526.171 723.843 526.171C721.581 526.171 719.746 528.005 719.746 530.268C719.746 532.53 721.581 534.364 723.843 534.364Z" fill="white"/>
<path d="M735.67 513.88C737.932 513.88 739.767 512.046 739.767 509.783C739.767 507.52 737.932 505.686 735.67 505.686C733.407 505.686 731.573 507.52 731.573 509.783C731.573 512.046 733.407 513.88 735.67 513.88Z" fill="white"/>
<path d="M741.583 503.638C743.846 503.638 745.68 501.804 745.68 499.541C745.68 497.278 743.846 495.444 741.583 495.444C739.321 495.444 737.486 497.278 737.486 499.541C737.486 501.804 739.321 503.638 741.583 503.638Z" fill="white"/>
<path d="M735.67 493.396C737.932 493.396 739.767 491.562 739.767 489.299C739.767 487.036 737.932 485.202 735.67 485.202C733.407 485.202 731.573 487.036 731.573 489.299C731.573 491.562 733.407 493.396 735.67 493.396Z" fill="white"/>
<path d="M729.757 483.154C732.019 483.154 733.853 481.319 733.853 479.057C733.853 476.794 732.019 474.96 729.757 474.96C727.494 474.96 725.66 476.794 725.66 479.057C725.66 481.319 727.494 483.154 729.757 483.154Z" fill="white"/>
<path d="M867.759 613.194C870.022 613.194 871.856 611.359 871.856 609.097C871.856 606.834 870.022 605 867.759 605C865.497 605 863.663 606.834 863.663 609.097C863.663 611.359 865.497 613.194 867.759 613.194Z" fill="white"/>
<path d="M700.19 595.817C702.452 595.817 704.286 593.983 704.286 591.72C704.286 589.458 702.452 587.624 700.19 587.624C697.927 587.624 696.093 589.458 696.093 591.72C696.093 593.983 697.927 595.817 700.19 595.817Z" fill="white"/>
<path d="M706.103 585.575C708.366 585.575 710.2 583.741 710.2 581.478C710.2 579.216 708.366 577.381 706.103 577.381C703.84 577.381 702.006 579.216 702.006 581.478C702.006 583.741 703.84 585.575 706.103 585.575Z" fill="white"/>
<path d="M654.759 628.194C657.022 628.194 658.856 626.359 658.856 624.097C658.856 621.834 657.022 620 654.759 620C652.497 620 650.663 621.834 650.663 624.097C650.663 626.359 652.497 628.194 654.759 628.194Z" fill="white"/>
<path d="M741.583 524.122C743.846 524.122 745.68 522.288 745.68 520.025C745.68 517.763 743.846 515.928 741.583 515.928C739.321 515.928 737.486 517.763 737.486 520.025C737.486 522.288 739.321 524.122 741.583 524.122Z" fill="white"/>
<path d="M747.497 513.88C749.759 513.88 751.594 512.046 751.594 509.783C751.594 507.52 749.759 505.686 747.497 505.686C745.234 505.686 743.4 507.52 743.4 509.783C743.4 512.046 745.234 513.88 747.497 513.88Z" fill="white"/>
<path d="M753.409 503.638C755.672 503.638 757.506 501.804 757.506 499.541C757.506 497.278 755.672 495.444 753.409 495.444C751.147 495.444 749.312 497.278 749.312 499.541C749.312 501.804 751.147 503.638 753.409 503.638Z" fill="white"/>
<path d="M747.497 493.396C749.759 493.396 751.594 491.562 751.594 489.299C751.594 487.036 749.759 485.202 747.497 485.202C745.234 485.202 743.4 487.036 743.4 489.299C743.4 491.562 745.234 493.396 747.497 493.396Z" fill="white"/>
<path d="M741.583 483.154C743.846 483.154 745.68 481.319 745.68 479.057C745.68 476.794 743.846 474.96 741.583 474.96C739.321 474.96 737.486 476.794 737.486 479.057C737.486 481.319 739.321 483.154 741.583 483.154Z" fill="white"/>
<path d="M723.843 452.427C726.106 452.427 727.94 450.593 727.94 448.33C727.94 446.068 726.106 444.233 723.843 444.233C721.581 444.233 719.746 446.068 719.746 448.33C719.746 450.593 721.581 452.427 723.843 452.427Z" fill="white"/>
<path d="M717.93 442.185C720.192 442.185 722.027 440.351 722.027 438.088C722.027 435.825 720.192 433.991 717.93 433.991C715.667 433.991 713.833 435.825 713.833 438.088C713.833 440.351 715.667 442.185 717.93 442.185Z" fill="white"/>
<path d="M712.016 431.943C714.279 431.943 716.113 430.109 716.113 427.846C716.113 425.583 714.279 423.749 712.016 423.749C709.754 423.749 707.92 425.583 707.92 427.846C707.92 430.109 709.754 431.943 712.016 431.943Z" fill="white"/>
<path d="M706.103 421.701C708.366 421.701 710.2 419.866 710.2 417.604C710.2 415.341 708.366 413.507 706.103 413.507C703.84 413.507 702.006 415.341 702.006 417.604C702.006 419.866 703.84 421.701 706.103 421.701Z" fill="white"/>
<path d="M700.19 411.458C702.452 411.458 704.286 409.624 704.286 407.362C704.286 405.099 702.452 403.265 700.19 403.265C697.927 403.265 696.093 405.099 696.093 407.362C696.093 409.624 697.927 411.458 700.19 411.458Z" fill="white"/>
<path d="M694.277 401.216C696.54 401.216 698.374 399.382 698.374 397.119C698.374 394.857 696.54 393.022 694.277 393.022C692.014 393.022 690.18 394.857 690.18 397.119C690.18 399.382 692.014 401.216 694.277 401.216Z" fill="white"/>
<path d="M861.76 606.194C864.022 606.194 865.856 604.359 865.856 602.097C865.856 599.834 864.022 598 861.76 598C859.497 598 857.663 599.834 857.663 602.097C857.663 604.359 859.497 606.194 861.76 606.194Z" fill="white"/>
<path d="M717.93 584.932C719.838 584.932 721.384 583.386 721.384 581.478C721.384 579.57 719.838 578.024 717.93 578.024C716.022 578.024 714.476 579.57 714.476 581.478C714.476 583.386 716.022 584.932 717.93 584.932Z" fill="white"/>
<path d="M660.759 617.194C663.022 617.194 664.856 615.359 664.856 613.097C664.856 610.834 663.022 609 660.759 609C658.497 609 656.663 610.834 656.663 613.097C656.663 615.359 658.497 617.194 660.759 617.194Z" fill="white"/>
<path d="M834.759 610.194C837.022 610.194 838.856 608.359 838.856 606.097C838.856 603.834 837.022 602 834.759 602C832.497 602 830.663 603.834 830.663 606.097C830.663 608.359 832.497 610.194 834.759 610.194Z" fill="white"/>
<path d="M847.759 589.194C850.022 589.194 851.856 587.359 851.856 585.097C851.856 582.834 850.022 581 847.759 581C845.497 581 843.663 582.834 843.663 585.097C843.663 587.359 845.497 589.194 847.759 589.194Z" fill="white"/>
<path d="M747.497 534.364C749.759 534.364 751.594 532.53 751.594 530.268C751.594 528.005 749.759 526.171 747.497 526.171C745.234 526.171 743.4 528.005 743.4 530.268C743.4 532.53 745.234 534.364 747.497 534.364Z" fill="white"/>
<path d="M753.409 524.122C755.672 524.122 757.506 522.288 757.506 520.025C757.506 517.763 755.672 515.928 753.409 515.928C751.147 515.928 749.312 517.763 749.312 520.025C749.312 522.288 751.147 524.122 753.409 524.122Z" fill="white"/>
<path d="M759.323 513.88C761.586 513.88 763.42 512.046 763.42 509.783C763.42 507.52 761.586 505.686 759.323 505.686C757.061 505.686 755.227 507.52 755.227 509.783C755.227 512.046 757.061 513.88 759.323 513.88Z" fill="white"/>
<path d="M759.323 493.396C761.586 493.396 763.42 491.562 763.42 489.299C763.42 487.036 761.586 485.202 759.323 485.202C757.061 485.202 755.227 487.036 755.227 489.299C755.227 491.562 757.061 493.396 759.323 493.396Z" fill="white"/>
<path d="M747.497 472.911C749.759 472.911 751.594 471.077 751.594 468.815C751.594 466.552 749.759 464.718 747.497 464.718C745.234 464.718 743.4 466.552 743.4 468.815C743.4 471.077 745.234 472.911 747.497 472.911Z" fill="white"/>
<path d="M741.583 462.669C743.846 462.669 745.68 460.835 745.68 458.572C745.68 456.31 743.846 454.476 741.583 454.476C739.321 454.476 737.486 456.31 737.486 458.572C737.486 460.835 739.321 462.669 741.583 462.669Z" fill="white"/>
<path d="M729.757 442.185C732.019 442.185 733.853 440.351 733.853 438.088C733.853 435.825 732.019 433.991 729.757 433.991C727.494 433.991 725.66 435.825 725.66 438.088C725.66 440.351 727.494 442.185 729.757 442.185Z" fill="white"/>
<path d="M723.843 431.943C726.106 431.943 727.94 430.109 727.94 427.846C727.94 425.583 726.106 423.749 723.843 423.749C721.581 423.749 719.746 425.583 719.746 427.846C719.746 430.109 721.581 431.943 723.843 431.943Z" fill="white"/>
<path d="M717.93 421.701C720.192 421.701 722.027 419.866 722.027 417.604C722.027 415.341 720.192 413.507 717.93 413.507C715.667 413.507 713.833 415.341 713.833 417.604C713.833 419.866 715.667 421.701 717.93 421.701Z" fill="white"/>
<path d="M712.016 411.458C714.279 411.458 716.113 409.624 716.113 407.362C716.113 405.099 714.279 403.265 712.016 403.265C709.754 403.265 707.92 405.099 707.92 407.362C707.92 409.624 709.754 411.458 712.016 411.458Z" fill="white"/>
<path d="M706.103 401.216C708.366 401.216 710.2 399.382 710.2 397.119C710.2 394.857 708.366 393.022 706.103 393.022C703.84 393.022 702.006 394.857 702.006 397.119C702.006 399.382 703.84 401.216 706.103 401.216Z" fill="white"/>
<path d="M700.19 390.974C702.452 390.974 704.286 389.14 704.286 386.877C704.286 384.615 702.452 382.78 700.19 382.78C697.927 382.78 696.093 384.615 696.093 386.877C696.093 389.14 697.927 390.974 700.19 390.974Z" fill="white"/>
<path d="M694.277 380.732C696.54 380.732 698.374 378.898 698.374 376.635C698.374 374.372 696.54 372.538 694.277 372.538C692.014 372.538 690.18 374.372 690.18 376.635C690.18 378.898 692.014 380.732 694.277 380.732Z" fill="white"/>
<path d="M718.759 775.194C721.022 775.194 722.856 773.359 722.856 771.097C722.856 768.834 721.022 767 718.759 767C716.497 767 714.663 768.834 714.663 771.097C714.663 773.359 716.497 775.194 718.759 775.194Z" fill="white"/>
<path d="M830.759 622.194C833.022 622.194 834.856 620.359 834.856 618.097C834.856 615.834 833.022 614 830.759 614C828.497 614 826.663 615.834 826.663 618.097C826.663 620.359 828.497 622.194 830.759 622.194Z" fill="white"/>
<path d="M839.759 600.194C842.022 600.194 843.856 598.359 843.856 596.097C843.856 593.834 842.022 592 839.759 592C837.497 592 835.663 593.834 835.663 596.097C835.663 598.359 837.497 600.194 839.759 600.194Z" fill="white"/>
<path d="M850.759 577.194C853.022 577.194 854.856 575.359 854.856 573.097C854.856 570.834 853.022 569 850.759 569C848.497 569 846.663 570.834 846.663 573.097C846.663 575.359 848.497 577.194 850.759 577.194Z" fill="white"/>
<path d="M759.323 472.911C761.586 472.911 763.42 471.077 763.42 468.815C763.42 466.552 761.586 464.718 759.323 464.718C757.061 464.718 755.227 466.552 755.227 468.815C755.227 471.077 757.061 472.911 759.323 472.911Z" fill="white"/>
<path d="M753.409 462.669C755.672 462.669 757.506 460.835 757.506 458.572C757.506 456.31 755.672 454.476 753.409 454.476C751.147 454.476 749.312 456.31 749.312 458.572C749.312 460.835 751.147 462.669 753.409 462.669Z" fill="white"/>
<path d="M747.497 452.427C749.759 452.427 751.594 450.593 751.594 448.33C751.594 446.068 749.759 444.233 747.497 444.233C745.234 444.233 743.4 446.068 743.4 448.33C743.4 450.593 745.234 452.427 747.497 452.427Z" fill="white"/>
<path d="M741.583 442.185C743.846 442.185 745.68 440.351 745.68 438.088C745.68 435.825 743.846 433.991 741.583 433.991C739.321 433.991 737.486 435.825 737.486 438.088C737.486 440.351 739.321 442.185 741.583 442.185Z" fill="white"/>
<path d="M735.67 431.943C737.932 431.943 739.767 430.109 739.767 427.846C739.767 425.583 737.932 423.749 735.67 423.749C733.407 423.749 731.573 425.583 731.573 427.846C731.573 430.109 733.407 431.943 735.67 431.943Z" fill="white"/>
<path d="M729.757 421.701C732.019 421.701 733.853 419.866 733.853 417.604C733.853 415.341 732.019 413.507 729.757 413.507C727.494 413.507 725.66 415.341 725.66 417.604C725.66 419.866 727.494 421.701 729.757 421.701Z" fill="white"/>
<path d="M723.843 411.458C726.106 411.458 727.94 409.624 727.94 407.362C727.94 405.099 726.106 403.265 723.843 403.265C721.581 403.265 719.746 405.099 719.746 407.362C719.746 409.624 721.581 411.458 723.843 411.458Z" fill="white"/>
<path d="M717.93 401.216C720.192 401.216 722.027 399.382 722.027 397.119C722.027 394.857 720.192 393.022 717.93 393.022C715.667 393.022 713.833 394.857 713.833 397.119C713.833 399.382 715.667 401.216 717.93 401.216Z" fill="white"/>
<path d="M712.016 390.974C714.279 390.974 716.113 389.14 716.113 386.877C716.113 384.615 714.279 382.78 712.016 382.78C709.754 382.78 707.92 384.615 707.92 386.877C707.92 389.14 709.754 390.974 712.016 390.974Z" fill="white"/>
<path d="M706.103 380.732C708.366 380.732 710.2 378.898 710.2 376.635C710.2 374.372 708.366 372.538 706.103 372.538C703.84 372.538 702.006 374.372 702.006 376.635C702.006 378.898 703.84 380.732 706.103 380.732Z" fill="white"/>
<path d="M700.19 370.49C702.452 370.49 704.286 368.655 704.286 366.393C704.286 364.13 702.452 362.296 700.19 362.296C697.927 362.296 696.093 364.13 696.093 366.393C696.093 368.655 697.927 370.49 700.19 370.49Z" fill="white"/>
<path d="M745.759 749.194C748.022 749.194 749.856 747.359 749.856 745.097C749.856 742.834 748.022 741 745.759 741C743.497 741 741.663 742.834 741.663 745.097C741.663 747.359 743.497 749.194 745.759 749.194Z" fill="white"/>
<path d="M705.759 781.194C708.022 781.194 709.856 779.359 709.856 777.097C709.856 774.834 708.022 773 705.759 773C703.497 773 701.663 774.834 701.663 777.097C701.663 779.359 703.497 781.194 705.759 781.194Z" fill="white"/>
<path d="M747.497 575.333C749.759 575.333 751.594 573.499 751.594 571.236C751.594 568.973 749.759 567.139 747.497 567.139C745.234 567.139 743.4 568.973 743.4 571.236C743.4 573.499 745.234 575.333 747.497 575.333Z" fill="white"/>
<path d="M688.76 793.194C691.022 793.194 692.856 791.359 692.856 789.097C692.856 786.834 691.022 785 688.76 785C686.497 785 684.663 786.834 684.663 789.097C684.663 791.359 686.497 793.194 688.76 793.194Z" fill="white"/>
<path d="M823.759 524.194C826.022 524.194 827.856 522.359 827.856 520.097C827.856 517.834 826.022 516 823.759 516C821.497 516 819.663 517.834 819.663 520.097C819.663 522.359 821.497 524.194 823.759 524.194Z" fill="white"/>
<path d="M777.063 524.122C779.326 524.122 781.16 522.288 781.16 520.025C781.16 517.763 779.326 515.928 777.063 515.928C774.8 515.928 772.966 517.763 772.966 520.025C772.966 522.288 774.8 524.122 777.063 524.122Z" fill="white"/>
<path d="M782.976 513.88C785.239 513.88 787.073 512.046 787.073 509.783C787.073 507.52 785.239 505.686 782.976 505.686C780.714 505.686 778.879 507.52 778.879 509.783C778.879 512.046 780.714 513.88 782.976 513.88Z" fill="white"/>
<path d="M782.976 493.396C785.239 493.396 787.073 491.562 787.073 489.299C787.073 487.036 785.239 485.202 782.976 485.202C780.714 485.202 778.879 487.036 778.879 489.299C778.879 491.562 780.714 493.396 782.976 493.396Z" fill="white"/>
<path d="M777.063 483.154C779.326 483.154 781.16 481.319 781.16 479.057C781.16 476.794 779.326 474.96 777.063 474.96C774.8 474.96 772.966 476.794 772.966 479.057C772.966 481.319 774.8 483.154 777.063 483.154Z" fill="white"/>
<path d="M765.236 462.669C767.499 462.669 769.333 460.835 769.333 458.572C769.333 456.31 767.499 454.476 765.236 454.476C762.973 454.476 761.139 456.31 761.139 458.572C761.139 460.835 762.973 462.669 765.236 462.669Z" fill="white"/>
<path d="M759.323 452.427C761.586 452.427 763.42 450.593 763.42 448.33C763.42 446.068 761.586 444.233 759.323 444.233C757.061 444.233 755.227 446.068 755.227 448.33C755.227 450.593 757.061 452.427 759.323 452.427Z" fill="white"/>
<path d="M753.409 442.185C755.672 442.185 757.506 440.351 757.506 438.088C757.506 435.825 755.672 433.991 753.409 433.991C751.147 433.991 749.312 435.825 749.312 438.088C749.312 440.351 751.147 442.185 753.409 442.185Z" fill="white"/>
<path d="M747.497 431.943C749.759 431.943 751.594 430.109 751.594 427.846C751.594 425.583 749.759 423.749 747.497 423.749C745.234 423.749 743.4 425.583 743.4 427.846C743.4 430.109 745.234 431.943 747.497 431.943Z" fill="white"/>
<path d="M741.583 421.701C743.846 421.701 745.68 419.866 745.68 417.604C745.68 415.341 743.846 413.507 741.583 413.507C739.321 413.507 737.486 415.341 737.486 417.604C737.486 419.866 739.321 421.701 741.583 421.701Z" fill="white"/>
<path d="M735.67 411.458C737.932 411.458 739.767 409.624 739.767 407.362C739.767 405.099 737.932 403.265 735.67 403.265C733.407 403.265 731.573 405.099 731.573 407.362C731.573 409.624 733.407 411.458 735.67 411.458Z" fill="white"/>
<path d="M729.757 401.216C732.019 401.216 733.853 399.382 733.853 397.119C733.853 394.857 732.019 393.022 729.757 393.022C727.494 393.022 725.66 394.857 725.66 397.119C725.66 399.382 727.494 401.216 729.757 401.216Z" fill="white"/>
<path d="M723.843 390.974C726.106 390.974 727.94 389.14 727.94 386.877C727.94 384.615 726.106 382.78 723.843 382.78C721.581 382.78 719.746 384.615 719.746 386.877C719.746 389.14 721.581 390.974 723.843 390.974Z" fill="white"/>
<path d="M717.93 380.732C720.192 380.732 722.027 378.898 722.027 376.635C722.027 374.372 720.192 372.538 717.93 372.538C715.667 372.538 713.833 374.372 713.833 376.635C713.833 378.898 715.667 380.732 717.93 380.732Z" fill="white"/>
<path d="M737.759 767.194C740.022 767.194 741.856 765.359 741.856 763.097C741.856 760.834 740.022 759 737.759 759C735.497 759 733.663 760.834 733.663 763.097C733.663 765.359 735.497 767.194 737.759 767.194Z" fill="white"/>
<path d="M644.76 635.194C647.022 635.194 648.856 633.359 648.856 631.097C648.856 628.834 647.022 627 644.76 627C642.497 627 640.663 628.834 640.663 631.097C640.663 633.359 642.497 635.194 644.76 635.194Z" fill="white"/>
<path d="M829.759 534.194C832.022 534.194 833.856 532.359 833.856 530.097C833.856 527.834 832.022 526 829.759 526C827.497 526 825.663 527.834 825.663 530.097C825.663 532.359 827.497 534.194 829.759 534.194Z" fill="white"/>
<path d="M835.759 524.194C838.022 524.194 839.856 522.359 839.856 520.097C839.856 517.834 838.022 516 835.759 516C833.497 516 831.663 517.834 831.663 520.097C831.663 522.359 833.497 524.194 835.759 524.194Z" fill="white"/>
<path d="M777.063 544.607C779.326 544.607 781.16 542.772 781.16 540.51C781.16 538.247 779.326 536.413 777.063 536.413C774.8 536.413 772.966 538.247 772.966 540.51C772.966 542.772 774.8 544.607 777.063 544.607Z" fill="white"/>
<path d="M782.976 534.364C785.239 534.364 787.073 532.53 787.073 530.268C787.073 528.005 785.239 526.171 782.976 526.171C780.714 526.171 778.879 528.005 778.879 530.268C778.879 532.53 780.714 534.364 782.976 534.364Z" fill="white"/>
<path d="M782.976 472.911C785.239 472.911 787.073 471.077 787.073 468.815C787.073 466.552 785.239 464.718 782.976 464.718C780.714 464.718 778.879 466.552 778.879 468.815C778.879 471.077 780.714 472.911 782.976 472.911Z" fill="white"/>
<path d="M777.063 462.669C779.326 462.669 781.16 460.835 781.16 458.572C781.16 456.31 779.326 454.476 777.063 454.476C774.8 454.476 772.966 456.31 772.966 458.572C772.966 460.835 774.8 462.669 777.063 462.669Z" fill="white"/>
<path d="M771.149 452.427C773.412 452.427 775.246 450.593 775.246 448.33C775.246 446.068 773.412 444.233 771.149 444.233C768.887 444.233 767.053 446.068 767.053 448.33C767.053 450.593 768.887 452.427 771.149 452.427Z" fill="white"/>
<path d="M765.236 442.185C767.499 442.185 769.333 440.351 769.333 438.088C769.333 435.825 767.499 433.991 765.236 433.991C762.973 433.991 761.139 435.825 761.139 438.088C761.139 440.351 762.973 442.185 765.236 442.185Z" fill="white"/>
<path d="M759.323 431.943C761.586 431.943 763.42 430.109 763.42 427.846C763.42 425.583 761.586 423.749 759.323 423.749C757.061 423.749 755.227 425.583 755.227 427.846C755.227 430.109 757.061 431.943 759.323 431.943Z" fill="white"/>
<path d="M753.409 421.701C755.672 421.701 757.506 419.866 757.506 417.604C757.506 415.341 755.672 413.507 753.409 413.507C751.147 413.507 749.312 415.341 749.312 417.604C749.312 419.866 751.147 421.701 753.409 421.701Z" fill="white"/>
<path d="M747.497 411.458C749.759 411.458 751.594 409.624 751.594 407.362C751.594 405.099 749.759 403.265 747.497 403.265C745.234 403.265 743.4 405.099 743.4 407.362C743.4 409.624 745.234 411.458 747.497 411.458Z" fill="white"/>
<path d="M741.583 401.216C743.846 401.216 745.68 399.382 745.68 397.119C745.68 394.857 743.846 393.022 741.583 393.022C739.321 393.022 737.486 394.857 737.486 397.119C737.486 399.382 739.321 401.216 741.583 401.216Z" fill="white"/>
<path d="M735.67 390.974C737.932 390.974 739.767 389.14 739.767 386.877C739.767 384.615 737.932 382.78 735.67 382.78C733.407 382.78 731.573 384.615 731.573 386.877C731.573 389.14 733.407 390.974 735.67 390.974Z" fill="white"/>
<path d="M729.757 380.732C732.019 380.732 733.853 378.898 733.853 376.635C733.853 374.372 732.019 372.538 729.757 372.538C727.494 372.538 725.66 374.372 725.66 376.635C725.66 378.898 727.494 380.732 729.757 380.732Z" fill="white"/>
<path d="M723.843 370.49C726.106 370.49 727.94 368.655 727.94 366.393C727.94 364.13 726.106 362.296 723.843 362.296C721.581 362.296 719.746 364.13 719.746 366.393C719.746 368.655 721.581 370.49 723.843 370.49Z" fill="white"/>
<path d="M717.93 360.247C720.192 360.247 722.027 358.413 722.027 356.151C722.027 353.888 720.192 352.054 717.93 352.054C715.667 352.054 713.833 353.888 713.833 356.151C713.833 358.413 715.667 360.247 717.93 360.247Z" fill="white"/>
<path d="M712.016 350.005C714.279 350.005 716.113 348.171 716.113 345.908C716.113 343.646 714.279 341.812 712.016 341.812C709.754 341.812 707.92 343.646 707.92 345.908C707.92 348.171 709.754 350.005 712.016 350.005Z" fill="white"/>
<path d="M783.76 727.194C786.022 727.194 787.856 725.359 787.856 723.097C787.856 720.834 786.022 719 783.76 719C781.497 719 779.663 720.834 779.663 723.097C779.663 725.359 781.497 727.194 783.76 727.194Z" fill="white"/>
<path d="M851.759 542.194C854.022 542.194 855.856 540.359 855.856 538.097C855.856 535.834 854.022 534 851.759 534C849.497 534 847.663 535.834 847.663 538.097C847.663 540.359 849.497 542.194 851.759 542.194Z" fill="white"/>
<path d="M841.759 534.194C844.022 534.194 845.856 532.359 845.856 530.097C845.856 527.834 844.022 526 841.759 526C839.497 526 837.663 527.834 837.663 530.097C837.663 532.359 839.497 534.194 841.759 534.194Z" fill="white"/>
<path d="M777.063 565.091C779.326 565.091 781.16 563.256 781.16 560.994C781.16 558.731 779.326 556.897 777.063 556.897C774.8 556.897 772.966 558.731 772.966 560.994C772.966 563.256 774.8 565.091 777.063 565.091Z" fill="white"/>
<path d="M782.976 554.848C785.239 554.848 787.073 553.014 787.073 550.752C787.073 548.489 785.239 546.655 782.976 546.655C780.714 546.655 778.879 548.489 778.879 550.752C778.879 553.014 780.714 554.848 782.976 554.848Z" fill="white"/>
<path d="M788.89 544.607C791.152 544.607 792.986 542.772 792.986 540.51C792.986 538.247 791.152 536.413 788.89 536.413C786.627 536.413 784.793 538.247 784.793 540.51C784.793 542.772 786.627 544.607 788.89 544.607Z" fill="white"/>
<path d="M800.716 524.122C802.979 524.122 804.813 522.288 804.813 520.025C804.813 517.763 802.979 515.928 800.716 515.928C798.454 515.928 796.619 517.763 796.619 520.025C796.619 522.288 798.454 524.122 800.716 524.122Z" fill="white"/>
<path d="M806.63 493.396C808.892 493.396 810.727 491.562 810.727 489.299C810.727 487.036 808.892 485.202 806.63 485.202C804.367 485.202 802.533 487.036 802.533 489.299C802.533 491.562 804.367 493.396 806.63 493.396Z" fill="white"/>
<path d="M800.716 483.154C802.979 483.154 804.813 481.319 804.813 479.057C804.813 476.794 802.979 474.96 800.716 474.96C798.454 474.96 796.619 476.794 796.619 479.057C796.619 481.319 798.454 483.154 800.716 483.154Z" fill="white"/>
<path d="M794.803 472.911C797.066 472.911 798.9 471.077 798.9 468.815C798.9 466.552 797.066 464.718 794.803 464.718C792.54 464.718 790.706 466.552 790.706 468.815C790.706 471.077 792.54 472.911 794.803 472.911Z" fill="white"/>
<path d="M788.89 462.669C791.152 462.669 792.986 460.835 792.986 458.572C792.986 456.31 791.152 454.476 788.89 454.476C786.627 454.476 784.793 456.31 784.793 458.572C784.793 460.835 786.627 462.669 788.89 462.669Z" fill="white"/>
<path d="M777.063 442.185C779.326 442.185 781.16 440.351 781.16 438.088C781.16 435.825 779.326 433.991 777.063 433.991C774.8 433.991 772.966 435.825 772.966 438.088C772.966 440.351 774.8 442.185 777.063 442.185Z" fill="white"/>
<path d="M771.149 431.943C773.412 431.943 775.246 430.109 775.246 427.846C775.246 425.583 773.412 423.749 771.149 423.749C768.887 423.749 767.053 425.583 767.053 427.846C767.053 430.109 768.887 431.943 771.149 431.943Z" fill="white"/>
<path d="M759.323 411.458C761.586 411.458 763.42 409.624 763.42 407.362C763.42 405.099 761.586 403.265 759.323 403.265C757.061 403.265 755.227 405.099 755.227 407.362C755.227 409.624 757.061 411.458 759.323 411.458Z" fill="white"/>
<path d="M753.409 401.216C755.672 401.216 757.506 399.382 757.506 397.119C757.506 394.857 755.672 393.022 753.409 393.022C751.147 393.022 749.312 394.857 749.312 397.119C749.312 399.382 751.147 401.216 753.409 401.216Z" fill="white"/>
<path d="M747.497 390.974C749.759 390.974 751.594 389.14 751.594 386.877C751.594 384.615 749.759 382.78 747.497 382.78C745.234 382.78 743.4 384.615 743.4 386.877C743.4 389.14 745.234 390.974 747.497 390.974Z" fill="white"/>
<path d="M741.583 380.732C743.846 380.732 745.68 378.898 745.68 376.635C745.68 374.372 743.846 372.538 741.583 372.538C739.321 372.538 737.486 374.372 737.486 376.635C737.486 378.898 739.321 380.732 741.583 380.732Z" fill="white"/>
<path d="M735.67 370.49C737.932 370.49 739.767 368.655 739.767 366.393C739.767 364.13 737.932 362.296 735.67 362.296C733.407 362.296 731.573 364.13 731.573 366.393C731.573 368.655 733.407 370.49 735.67 370.49Z" fill="white"/>
<path d="M729.757 360.247C732.019 360.247 733.853 358.413 733.853 356.151C733.853 353.888 732.019 352.054 729.757 352.054C727.494 352.054 725.66 353.888 725.66 356.151C725.66 358.413 727.494 360.247 729.757 360.247Z" fill="white"/>
<path d="M723.843 350.005C726.106 350.005 727.94 348.171 727.94 345.908C727.94 343.646 726.106 341.812 723.843 341.812C721.581 341.812 719.746 343.646 719.746 345.908C719.746 348.171 721.581 350.005 723.843 350.005Z" fill="white"/>
<path d="M717.93 339.763C720.192 339.763 722.027 337.929 722.027 335.666C722.027 333.404 720.192 331.569 717.93 331.569C715.667 331.569 713.833 333.404 713.833 335.666C713.833 337.929 715.667 339.763 717.93 339.763Z" fill="white"/>
<path d="M854.759 613.194C857.022 613.194 858.856 611.359 858.856 609.097C858.856 606.834 857.022 605 854.759 605C852.497 605 850.663 606.834 850.663 609.097C850.663 611.359 852.497 613.194 854.759 613.194Z" fill="white"/>
<path d="M783.759 710.194C786.022 710.194 787.856 708.359 787.856 706.097C787.856 703.834 786.022 702 783.759 702C781.497 702 779.663 703.834 779.663 706.097C779.663 708.359 781.497 710.194 783.759 710.194Z" fill="white"/>
<path d="M757.759 751.194C760.022 751.194 761.856 749.359 761.856 747.097C761.856 744.834 760.022 743 757.759 743C755.497 743 753.663 744.834 753.663 747.097C753.663 749.359 755.497 751.194 757.759 751.194Z" fill="white"/>
<path d="M635.759 645.194C638.022 645.194 639.856 643.359 639.856 641.097C639.856 638.834 638.022 637 635.759 637C633.497 637 631.663 638.834 631.663 641.097C631.663 643.359 633.497 645.194 635.759 645.194Z" fill="white"/>
<path d="M777.063 585.575C779.326 585.575 781.16 583.741 781.16 581.478C781.16 579.216 779.326 577.381 777.063 577.381C774.8 577.381 772.966 579.216 772.966 581.478C772.966 583.741 774.8 585.575 777.063 585.575Z" fill="white"/>
<path d="M782.976 575.333C785.239 575.333 787.073 573.499 787.073 571.236C787.073 568.973 785.239 567.139 782.976 567.139C780.714 567.139 778.879 568.973 778.879 571.236C778.879 573.499 780.714 575.333 782.976 575.333Z" fill="white"/>
<path d="M788.89 565.091C791.152 565.091 792.986 563.256 792.986 560.994C792.986 558.731 791.152 556.897 788.89 556.897C786.627 556.897 784.793 558.731 784.793 560.994C784.793 563.256 786.627 565.091 788.89 565.091Z" fill="white"/>
<path d="M794.803 554.848C797.066 554.848 798.9 553.014 798.9 550.752C798.9 548.489 797.066 546.655 794.803 546.655C792.54 546.655 790.706 548.489 790.706 550.752C790.706 553.014 792.54 554.848 794.803 554.848Z" fill="white"/>
<path d="M851.759 567.194C854.022 567.194 855.856 565.359 855.856 563.097C855.856 560.834 854.022 559 851.759 559C849.497 559 847.663 560.834 847.663 563.097C847.663 565.359 849.497 567.194 851.759 567.194Z" fill="white"/>
<path d="M818.456 513.88C820.719 513.88 822.553 512.046 822.553 509.783C822.553 507.52 820.719 505.686 818.456 505.686C816.194 505.686 814.36 507.52 814.36 509.783C814.36 512.046 816.194 513.88 818.456 513.88Z" fill="white"/>
<path d="M824.37 503.638C826.632 503.638 828.467 501.804 828.467 499.541C828.467 497.278 826.632 495.444 824.37 495.444C822.107 495.444 820.273 497.278 820.273 499.541C820.273 501.804 822.107 503.638 824.37 503.638Z" fill="white"/>
<path d="M818.456 493.396C820.719 493.396 822.553 491.562 822.553 489.299C822.553 487.036 820.719 485.202 818.456 485.202C816.194 485.202 814.36 487.036 814.36 489.299C814.36 491.562 816.194 493.396 818.456 493.396Z" fill="white"/>
<path d="M812.543 483.154C814.806 483.154 816.64 481.319 816.64 479.057C816.64 476.794 814.806 474.96 812.543 474.96C810.28 474.96 808.446 476.794 808.446 479.057C808.446 481.319 810.28 483.154 812.543 483.154Z" fill="white"/>
<path d="M806.63 472.911C808.892 472.911 810.727 471.077 810.727 468.815C810.727 466.552 808.892 464.718 806.63 464.718C804.367 464.718 802.533 466.552 802.533 468.815C802.533 471.077 804.367 472.911 806.63 472.911Z" fill="white"/>
<path d="M800.716 462.669C802.979 462.669 804.813 460.835 804.813 458.572C804.813 456.31 802.979 454.476 800.716 454.476C798.454 454.476 796.619 456.31 796.619 458.572C796.619 460.835 798.454 462.669 800.716 462.669Z" fill="white"/>
<path d="M794.803 452.427C797.066 452.427 798.9 450.593 798.9 448.33C798.9 446.068 797.066 444.233 794.803 444.233C792.54 444.233 790.706 446.068 790.706 448.33C790.706 450.593 792.54 452.427 794.803 452.427Z" fill="white"/>
<path d="M782.976 431.943C785.239 431.943 787.073 430.109 787.073 427.846C787.073 425.583 785.239 423.749 782.976 423.749C780.714 423.749 778.879 425.583 778.879 427.846C778.879 430.109 780.714 431.943 782.976 431.943Z" fill="white"/>
<path d="M765.236 401.216C767.499 401.216 769.333 399.382 769.333 397.119C769.333 394.857 767.499 393.022 765.236 393.022C762.973 393.022 761.139 394.857 761.139 397.119C761.139 399.382 762.973 401.216 765.236 401.216Z" fill="white"/>
<path d="M759.323 390.974C761.586 390.974 763.42 389.14 763.42 386.877C763.42 384.615 761.586 382.78 759.323 382.78C757.061 382.78 755.227 384.615 755.227 386.877C755.227 389.14 757.061 390.974 759.323 390.974Z" fill="white"/>
<path d="M753.409 380.732C755.672 380.732 757.506 378.898 757.506 376.635C757.506 374.372 755.672 372.538 753.409 372.538C751.147 372.538 749.312 374.372 749.312 376.635C749.312 378.898 751.147 380.732 753.409 380.732Z" fill="white"/>
<path d="M747.497 370.49C749.759 370.49 751.594 368.655 751.594 366.393C751.594 364.13 749.759 362.296 747.497 362.296C745.234 362.296 743.4 364.13 743.4 366.393C743.4 368.655 745.234 370.49 747.497 370.49Z" fill="white"/>
<path d="M741.583 360.247C743.846 360.247 745.68 358.413 745.68 356.151C745.68 353.888 743.846 352.054 741.583 352.054C739.321 352.054 737.486 353.888 737.486 356.151C737.486 358.413 739.321 360.247 741.583 360.247Z" fill="white"/>
<path d="M735.67 350.005C737.932 350.005 739.767 348.171 739.767 345.908C739.767 343.646 737.932 341.812 735.67 341.812C733.407 341.812 731.573 343.646 731.573 345.908C731.573 348.171 733.407 350.005 735.67 350.005Z" fill="white"/>
<path d="M729.757 339.763C732.019 339.763 733.853 337.929 733.853 335.666C733.853 333.404 732.019 331.569 729.757 331.569C727.494 331.569 725.66 333.404 725.66 335.666C725.66 337.929 727.494 339.763 729.757 339.763Z" fill="white"/>
<path d="M723.843 329.521C726.106 329.521 727.94 327.687 727.94 325.425C727.94 323.162 726.106 321.328 723.843 321.328C721.581 321.328 719.746 323.162 719.746 325.425C719.746 327.687 721.581 329.521 723.843 329.521Z" fill="white"/>
<path d="M717.93 319.279C720.192 319.279 722.027 317.445 722.027 315.182C722.027 312.92 720.192 311.085 717.93 311.085C715.667 311.085 713.833 312.92 713.833 315.182C713.833 317.445 715.667 319.279 717.93 319.279Z" fill="white"/>
<path d="M892.759 608.194C895.022 608.194 896.856 606.359 896.856 604.097C896.856 601.834 895.022 600 892.759 600C890.497 600 888.663 601.834 888.663 604.097C888.663 606.359 890.497 608.194 892.759 608.194Z" fill="white"/>
<path d="M625.759 651.194C628.022 651.194 629.856 649.359 629.856 647.097C629.856 644.834 628.022 643 625.759 643C623.497 643 621.663 644.834 621.663 647.097C621.663 649.359 623.497 651.194 625.759 651.194Z" fill="white"/>
<path d="M788.89 585.575C791.152 585.575 792.986 583.741 792.986 581.478C792.986 579.216 791.152 577.381 788.89 577.381C786.627 577.381 784.793 579.216 784.793 581.478C784.793 583.741 786.627 585.575 788.89 585.575Z" fill="white"/>
<path d="M794.803 575.333C797.066 575.333 798.9 573.499 798.9 571.236C798.9 568.973 797.066 567.139 794.803 567.139C792.54 567.139 790.706 568.973 790.706 571.236C790.706 573.499 792.54 575.333 794.803 575.333Z" fill="white"/>
<path d="M800.716 565.091C802.979 565.091 804.813 563.256 804.813 560.994C804.813 558.731 802.979 556.897 800.716 556.897C798.454 556.897 796.619 558.731 796.619 560.994C796.619 563.256 798.454 565.091 800.716 565.091Z" fill="white"/>
<path d="M806.63 554.848C808.892 554.848 810.727 553.014 810.727 550.752C810.727 548.489 808.892 546.655 806.63 546.655C804.367 546.655 802.533 548.489 802.533 550.752C802.533 553.014 804.367 554.848 806.63 554.848Z" fill="white"/>
<path d="M818.456 534.364C820.719 534.364 822.553 532.53 822.553 530.268C822.553 528.005 820.719 526.171 818.456 526.171C816.194 526.171 814.36 528.005 814.36 530.268C814.36 532.53 816.194 534.364 818.456 534.364Z" fill="white"/>
<path d="M830.283 513.88C832.545 513.88 834.379 512.046 834.379 509.783C834.379 507.52 832.545 505.686 830.283 505.686C828.02 505.686 826.186 507.52 826.186 509.783C826.186 512.046 828.02 513.88 830.283 513.88Z" fill="white"/>
<path d="M836.196 503.638C838.459 503.638 840.293 501.804 840.293 499.541C840.293 497.278 838.459 495.444 836.196 495.444C833.933 495.444 832.099 497.278 832.099 499.541C832.099 501.804 833.933 503.638 836.196 503.638Z" fill="white"/>
<path d="M830.283 493.396C832.545 493.396 834.379 491.562 834.379 489.299C834.379 487.036 832.545 485.202 830.283 485.202C828.02 485.202 826.186 487.036 826.186 489.299C826.186 491.562 828.02 493.396 830.283 493.396Z" fill="white"/>
<path d="M824.37 483.154C826.632 483.154 828.467 481.319 828.467 479.057C828.467 476.794 826.632 474.96 824.37 474.96C822.107 474.96 820.273 476.794 820.273 479.057C820.273 481.319 822.107 483.154 824.37 483.154Z" fill="white"/>
<path d="M818.456 472.911C820.719 472.911 822.553 471.077 822.553 468.815C822.553 466.552 820.719 464.718 818.456 464.718C816.194 464.718 814.36 466.552 814.36 468.815C814.36 471.077 816.194 472.911 818.456 472.911Z" fill="white"/>
<path d="M812.543 462.669C814.806 462.669 816.64 460.835 816.64 458.572C816.64 456.31 814.806 454.476 812.543 454.476C810.28 454.476 808.446 456.31 808.446 458.572C808.446 460.835 810.28 462.669 812.543 462.669Z" fill="white"/>
<path d="M806.63 452.427C808.892 452.427 810.727 450.593 810.727 448.33C810.727 446.068 808.892 444.233 806.63 444.233C804.367 444.233 802.533 446.068 802.533 448.33C802.533 450.593 804.367 452.427 806.63 452.427Z" fill="white"/>
<path d="M771.149 390.974C773.412 390.974 775.246 389.14 775.246 386.877C775.246 384.615 773.412 382.78 771.149 382.78C768.887 382.78 767.053 384.615 767.053 386.877C767.053 389.14 768.887 390.974 771.149 390.974Z" fill="white"/>
<path d="M765.236 380.732C767.499 380.732 769.333 378.898 769.333 376.635C769.333 374.372 767.499 372.538 765.236 372.538C762.973 372.538 761.139 374.372 761.139 376.635C761.139 378.898 762.973 380.732 765.236 380.732Z" fill="white"/>
<path d="M759.323 370.49C761.586 370.49 763.42 368.655 763.42 366.393C763.42 364.13 761.586 362.296 759.323 362.296C757.061 362.296 755.227 364.13 755.227 366.393C755.227 368.655 757.061 370.49 759.323 370.49Z" fill="white"/>
<path d="M753.409 360.247C755.672 360.247 757.506 358.413 757.506 356.151C757.506 353.888 755.672 352.054 753.409 352.054C751.147 352.054 749.312 353.888 749.312 356.151C749.312 358.413 751.147 360.247 753.409 360.247Z" fill="white"/>
<path d="M747.497 350.005C749.759 350.005 751.594 348.171 751.594 345.908C751.594 343.646 749.759 341.812 747.497 341.812C745.234 341.812 743.4 343.646 743.4 345.908C743.4 348.171 745.234 350.005 747.497 350.005Z" fill="white"/>
<path d="M741.583 339.763C743.846 339.763 745.68 337.929 745.68 335.666C745.68 333.404 743.846 331.569 741.583 331.569C739.321 331.569 737.486 333.404 737.486 335.666C737.486 337.929 739.321 339.763 741.583 339.763Z" fill="white"/>
<path d="M735.67 329.521C737.932 329.521 739.767 327.687 739.767 325.425C739.767 323.162 737.932 321.328 735.67 321.328C733.407 321.328 731.573 323.162 731.573 325.425C731.573 327.687 733.407 329.521 735.67 329.521Z" fill="white"/>
<path d="M729.757 319.279C732.019 319.279 733.853 317.445 733.853 315.182C733.853 312.92 732.019 311.085 729.757 311.085C727.494 311.085 725.66 312.92 725.66 315.182C725.66 317.445 727.494 319.279 729.757 319.279Z" fill="white"/>
<path d="M723.843 309.037C726.106 309.037 727.94 307.203 727.94 304.94C727.94 302.677 726.106 300.843 723.843 300.843C721.581 300.843 719.746 302.677 719.746 304.94C719.746 307.203 721.581 309.037 723.843 309.037Z" fill="white"/>
<path d="M717.93 298.795C720.192 298.795 722.027 296.961 722.027 294.698C722.027 292.435 720.192 290.601 717.93 290.601C715.667 290.601 713.833 292.435 713.833 294.698C713.833 296.961 715.667 298.795 717.93 298.795Z" fill="white"/>
<path d="M861.438 619.551C863.523 619.551 865.214 617.861 865.214 615.776C865.214 613.69 863.523 612 861.438 612C859.353 612 857.663 613.69 857.663 615.776C857.663 617.861 859.353 619.551 861.438 619.551Z" fill="white"/>
<path d="M787.759 698.194C790.022 698.194 791.856 696.359 791.856 694.097C791.856 691.834 790.022 690 787.759 690C785.497 690 783.663 691.834 783.663 694.097C783.663 696.359 785.497 698.194 787.759 698.194Z" fill="white"/>
<path d="M881.438 607.551C883.523 607.551 885.214 605.861 885.214 603.776C885.214 601.69 883.523 600 881.438 600C879.353 600 877.663 601.69 877.663 603.776C877.663 605.861 879.353 607.551 881.438 607.551Z" fill="white"/>
<path d="M886.759 597.194C889.022 597.194 890.856 595.359 890.856 593.097C890.856 590.834 889.022 589 886.759 589C884.497 589 882.663 590.834 882.663 593.097C882.663 595.359 884.497 597.194 886.759 597.194Z" fill="white"/>
<path d="M806.63 575.333C808.892 575.333 810.727 573.499 810.727 571.236C810.727 568.973 808.892 567.139 806.63 567.139C804.367 567.139 802.533 568.973 802.533 571.236C802.533 573.499 804.367 575.333 806.63 575.333Z" fill="white"/>
<path d="M812.543 565.091C814.806 565.091 816.64 563.256 816.64 560.994C816.64 558.731 814.806 556.897 812.543 556.897C810.28 556.897 808.446 558.731 808.446 560.994C808.446 563.256 810.28 565.091 812.543 565.091Z" fill="white"/>
<path d="M818.456 554.848C820.719 554.848 822.553 553.014 822.553 550.752C822.553 548.489 820.719 546.655 818.456 546.655C816.194 546.655 814.36 548.489 814.36 550.752C814.36 553.014 816.194 554.848 818.456 554.848Z" fill="white"/>
<path d="M842.109 513.88C844.372 513.88 846.206 512.046 846.206 509.783C846.206 507.52 844.372 505.686 842.109 505.686C839.847 505.686 838.012 507.52 838.012 509.783C838.012 512.046 839.847 513.88 842.109 513.88Z" fill="white"/>
<path d="M848.023 503.638C850.285 503.638 852.119 501.804 852.119 499.541C852.119 497.278 850.285 495.444 848.023 495.444C845.76 495.444 843.926 497.278 843.926 499.541C843.926 501.804 845.76 503.638 848.023 503.638Z" fill="white"/>
<path d="M842.109 493.396C844.372 493.396 846.206 491.562 846.206 489.299C846.206 487.036 844.372 485.202 842.109 485.202C839.847 485.202 838.012 487.036 838.012 489.299C838.012 491.562 839.847 493.396 842.109 493.396Z" fill="white"/>
<path d="M836.196 483.154C838.459 483.154 840.293 481.319 840.293 479.057C840.293 476.794 838.459 474.96 836.196 474.96C833.933 474.96 832.099 476.794 832.099 479.057C832.099 481.319 833.933 483.154 836.196 483.154Z" fill="white"/>
<path d="M830.283 472.911C832.545 472.911 834.379 471.077 834.379 468.815C834.379 466.552 832.545 464.718 830.283 464.718C828.02 464.718 826.186 466.552 826.186 468.815C826.186 471.077 828.02 472.911 830.283 472.911Z" fill="white"/>
<path d="M824.37 462.669C826.632 462.669 828.467 460.835 828.467 458.572C828.467 456.31 826.632 454.476 824.37 454.476C822.107 454.476 820.273 456.31 820.273 458.572C820.273 460.835 822.107 462.669 824.37 462.669Z" fill="white"/>
<path d="M782.976 390.974C785.239 390.974 787.073 389.14 787.073 386.877C787.073 384.615 785.239 382.78 782.976 382.78C780.714 382.78 778.879 384.615 778.879 386.877C778.879 389.14 780.714 390.974 782.976 390.974Z" fill="white"/>
<path d="M777.063 380.732C779.326 380.732 781.16 378.898 781.16 376.635C781.16 374.372 779.326 372.538 777.063 372.538C774.8 372.538 772.966 374.372 772.966 376.635C772.966 378.898 774.8 380.732 777.063 380.732Z" fill="white"/>
<path d="M771.149 370.49C773.412 370.49 775.246 368.655 775.246 366.393C775.246 364.13 773.412 362.296 771.149 362.296C768.887 362.296 767.053 364.13 767.053 366.393C767.053 368.655 768.887 370.49 771.149 370.49Z" fill="white"/>
<path d="M765.236 360.247C767.499 360.247 769.333 358.413 769.333 356.151C769.333 353.888 767.499 352.054 765.236 352.054C762.973 352.054 761.139 353.888 761.139 356.151C761.139 358.413 762.973 360.247 765.236 360.247Z" fill="white"/>
<path d="M759.323 350.005C761.586 350.005 763.42 348.171 763.42 345.908C763.42 343.646 761.586 341.812 759.323 341.812C757.061 341.812 755.227 343.646 755.227 345.908C755.227 348.171 757.061 350.005 759.323 350.005Z" fill="white"/>
<path d="M753.409 339.763C755.672 339.763 757.506 337.929 757.506 335.666C757.506 333.404 755.672 331.569 753.409 331.569C751.147 331.569 749.312 333.404 749.312 335.666C749.312 337.929 751.147 339.763 753.409 339.763Z" fill="white"/>
<path d="M747.497 329.521C749.759 329.521 751.594 327.687 751.594 325.425C751.594 323.162 749.759 321.328 747.497 321.328C745.234 321.328 743.4 323.162 743.4 325.425C743.4 327.687 745.234 329.521 747.497 329.521Z" fill="white"/>
<path d="M741.583 319.279C743.846 319.279 745.68 317.445 745.68 315.182C745.68 312.92 743.846 311.085 741.583 311.085C739.321 311.085 737.486 312.92 737.486 315.182C737.486 317.445 739.321 319.279 741.583 319.279Z" fill="white"/>
<path d="M735.67 309.037C737.932 309.037 739.767 307.203 739.767 304.94C739.767 302.677 737.932 300.843 735.67 300.843C733.407 300.843 731.573 302.677 731.573 304.94C731.573 307.203 733.407 309.037 735.67 309.037Z" fill="white"/>
<path d="M729.757 298.795C732.019 298.795 733.853 296.961 733.853 294.698C733.853 292.435 732.019 290.601 729.757 290.601C727.494 290.601 725.66 292.435 725.66 294.698C725.66 296.961 727.494 298.795 729.757 298.795Z" fill="white"/>
<path d="M723.843 288.553C726.106 288.553 727.94 286.718 727.94 284.456C727.94 282.193 726.106 280.359 723.843 280.359C721.581 280.359 719.746 282.193 719.746 284.456C719.746 286.718 721.581 288.553 723.843 288.553Z" fill="white"/>
<path d="M848.759 621.194C851.022 621.194 852.856 619.359 852.856 617.097C852.856 614.834 851.022 613 848.759 613C846.497 613 844.663 614.834 844.663 617.097C844.663 619.359 846.497 621.194 848.759 621.194Z" fill="white"/>
<path d="M818.456 573.405C819.654 573.405 820.625 572.434 820.625 571.236C820.625 570.038 819.654 569.067 818.456 569.067C817.258 569.067 816.287 570.038 816.287 571.236C816.287 572.434 817.258 573.405 818.456 573.405Z" fill="white"/>
<path d="M853.936 493.396C856.199 493.396 858.033 491.562 858.033 489.299C858.033 487.036 856.199 485.202 853.936 485.202C851.673 485.202 849.839 487.036 849.839 489.299C849.839 491.562 851.673 493.396 853.936 493.396Z" fill="white"/>
<path d="M853.759 514.194C856.022 514.194 857.856 512.359 857.856 510.097C857.856 507.834 856.022 506 853.759 506C851.497 506 849.663 507.834 849.663 510.097C849.663 512.359 851.497 514.194 853.759 514.194Z" fill="white"/>
<path d="M842.109 472.911C844.372 472.911 846.206 471.077 846.206 468.815C846.206 466.552 844.372 464.718 842.109 464.718C839.847 464.718 838.012 466.552 838.012 468.815C838.012 471.077 839.847 472.911 842.109 472.911Z" fill="white"/>
<path d="M836.196 462.669C838.459 462.669 840.293 460.835 840.293 458.572C840.293 456.31 838.459 454.476 836.196 454.476C833.933 454.476 832.099 456.31 832.099 458.572C832.099 460.835 833.933 462.669 836.196 462.669Z" fill="white"/>
<path d="M788.89 380.732C791.152 380.732 792.986 378.898 792.986 376.635C792.986 374.372 791.152 372.538 788.89 372.538C786.627 372.538 784.793 374.372 784.793 376.635C784.793 378.898 786.627 380.732 788.89 380.732Z" fill="white"/>
<path d="M782.976 370.49C785.239 370.49 787.073 368.655 787.073 366.393C787.073 364.13 785.239 362.296 782.976 362.296C780.714 362.296 778.879 364.13 778.879 366.393C778.879 368.655 780.714 370.49 782.976 370.49Z" fill="white"/>
<path d="M777.063 360.247C779.326 360.247 781.16 358.413 781.16 356.151C781.16 353.888 779.326 352.054 777.063 352.054C774.8 352.054 772.966 353.888 772.966 356.151C772.966 358.413 774.8 360.247 777.063 360.247Z" fill="white"/>
<path d="M771.149 350.005C773.412 350.005 775.246 348.171 775.246 345.908C775.246 343.646 773.412 341.812 771.149 341.812C768.887 341.812 767.053 343.646 767.053 345.908C767.053 348.171 768.887 350.005 771.149 350.005Z" fill="white"/>
<path d="M765.236 339.763C767.499 339.763 769.333 337.929 769.333 335.666C769.333 333.404 767.499 331.569 765.236 331.569C762.973 331.569 761.139 333.404 761.139 335.666C761.139 337.929 762.973 339.763 765.236 339.763Z" fill="white"/>
<path d="M759.323 329.521C761.586 329.521 763.42 327.687 763.42 325.425C763.42 323.162 761.586 321.328 759.323 321.328C757.061 321.328 755.227 323.162 755.227 325.425C755.227 327.687 757.061 329.521 759.323 329.521Z" fill="white"/>
<path d="M753.409 319.279C755.672 319.279 757.506 317.445 757.506 315.182C757.506 312.92 755.672 311.085 753.409 311.085C751.147 311.085 749.312 312.92 749.312 315.182C749.312 317.445 751.147 319.279 753.409 319.279Z" fill="white"/>
<path d="M747.497 309.037C749.759 309.037 751.594 307.203 751.594 304.94C751.594 302.677 749.759 300.843 747.497 300.843C745.234 300.843 743.4 302.677 743.4 304.94C743.4 307.203 745.234 309.037 747.497 309.037Z" fill="white"/>
<path d="M741.583 298.795C743.846 298.795 745.68 296.961 745.68 294.698C745.68 292.435 743.846 290.601 741.583 290.601C739.321 290.601 737.486 292.435 737.486 294.698C737.486 296.961 739.321 298.795 741.583 298.795Z" fill="white"/>
<path d="M735.67 288.553C737.932 288.553 739.767 286.718 739.767 284.456C739.767 282.193 737.932 280.359 735.67 280.359C733.407 280.359 731.573 282.193 731.573 284.456C731.573 286.718 733.407 288.553 735.67 288.553Z" fill="white"/>
<path d="M791.759 687.194C794.022 687.194 795.856 685.359 795.856 683.097C795.856 680.834 794.022 679 791.759 679C789.497 679 787.663 680.834 787.663 683.097C787.663 685.359 789.497 687.194 791.759 687.194Z" fill="white"/>
<path d="M875.759 524.194C878.022 524.194 879.856 522.359 879.856 520.097C879.856 517.834 878.022 516 875.759 516C873.497 516 871.663 517.834 871.663 520.097C871.663 522.359 873.497 524.194 875.759 524.194Z" fill="white"/>
<path d="M859.849 483.154C862.112 483.154 863.946 481.319 863.946 479.057C863.946 476.794 862.112 474.96 859.849 474.96C857.587 474.96 855.752 476.794 855.752 479.057C855.752 481.319 857.587 483.154 859.849 483.154Z" fill="white"/>
<path d="M853.936 472.911C856.199 472.911 858.033 471.077 858.033 468.815C858.033 466.552 856.199 464.718 853.936 464.718C851.673 464.718 849.839 466.552 849.839 468.815C849.839 471.077 851.673 472.911 853.936 472.911Z" fill="white"/>
<path d="M863.759 520.194C866.022 520.194 867.856 518.359 867.856 516.097C867.856 513.834 866.022 512 863.759 512C861.497 512 859.663 513.834 859.663 516.097C859.663 518.359 861.497 520.194 863.759 520.194Z" fill="white"/>
<path d="M794.803 370.49C797.066 370.49 798.9 368.655 798.9 366.393C798.9 364.13 797.066 362.296 794.803 362.296C792.54 362.296 790.706 364.13 790.706 366.393C790.706 368.655 792.54 370.49 794.803 370.49Z" fill="white"/>
<path d="M788.89 360.247C791.152 360.247 792.986 358.413 792.986 356.151C792.986 353.888 791.152 352.054 788.89 352.054C786.627 352.054 784.793 353.888 784.793 356.151C784.793 358.413 786.627 360.247 788.89 360.247Z" fill="white"/>
<path d="M782.976 350.005C785.239 350.005 787.073 348.171 787.073 345.908C787.073 343.646 785.239 341.812 782.976 341.812C780.714 341.812 778.879 343.646 778.879 345.908C778.879 348.171 780.714 350.005 782.976 350.005Z" fill="white"/>
<path d="M777.063 339.763C779.326 339.763 781.16 337.929 781.16 335.666C781.16 333.404 779.326 331.569 777.063 331.569C774.8 331.569 772.966 333.404 772.966 335.666C772.966 337.929 774.8 339.763 777.063 339.763Z" fill="white"/>
<path d="M771.149 329.521C773.412 329.521 775.246 327.687 775.246 325.425C775.246 323.162 773.412 321.328 771.149 321.328C768.887 321.328 767.053 323.162 767.053 325.425C767.053 327.687 768.887 329.521 771.149 329.521Z" fill="white"/>
<path d="M765.236 319.279C767.499 319.279 769.333 317.445 769.333 315.182C769.333 312.92 767.499 311.085 765.236 311.085C762.973 311.085 761.139 312.92 761.139 315.182C761.139 317.445 762.973 319.279 765.236 319.279Z" fill="white"/>
<path d="M759.323 309.037C761.586 309.037 763.42 307.203 763.42 304.94C763.42 302.677 761.586 300.843 759.323 300.843C757.061 300.843 755.227 302.677 755.227 304.94C755.227 307.203 757.061 309.037 759.323 309.037Z" fill="white"/>
<path d="M753.409 298.795C755.672 298.795 757.506 296.961 757.506 294.698C757.506 292.435 755.672 290.601 753.409 290.601C751.147 290.601 749.312 292.435 749.312 294.698C749.312 296.961 751.147 298.795 753.409 298.795Z" fill="white"/>
<path d="M747.497 288.553C749.759 288.553 751.594 286.718 751.594 284.456C751.594 282.193 749.759 280.359 747.497 280.359C745.234 280.359 743.4 282.193 743.4 284.456C743.4 286.718 745.234 288.553 747.497 288.553Z" fill="white"/>
<path d="M891.759 586.194C894.022 586.194 895.856 584.359 895.856 582.097C895.856 579.834 894.022 578 891.759 578C889.497 578 887.663 579.834 887.663 582.097C887.663 584.359 889.497 586.194 891.759 586.194Z" fill="white"/>
<path d="M887.76 574.194C890.022 574.194 891.856 572.359 891.856 570.097C891.856 567.834 890.022 566 887.76 566C885.497 566 883.663 567.834 883.663 570.097C883.663 572.359 885.497 574.194 887.76 574.194Z" fill="white"/>
<path d="M887.76 524.194C890.022 524.194 891.856 522.359 891.856 520.097C891.856 517.834 890.022 516 887.76 516C885.497 516 883.663 517.834 883.663 520.097C883.663 522.359 885.497 524.194 887.76 524.194Z" fill="white"/>
<path d="M893.759 555.194C896.022 555.194 897.856 553.359 897.856 551.097C897.856 548.834 896.022 547 893.759 547C891.497 547 889.663 548.834 889.663 551.097C889.663 553.359 891.497 555.194 893.759 555.194Z" fill="white"/>
<path d="M865.763 472.911C868.025 472.911 869.86 471.077 869.86 468.815C869.86 466.552 868.025 464.718 865.763 464.718C863.5 464.718 861.666 466.552 861.666 468.815C861.666 471.077 863.5 472.911 865.763 472.911Z" fill="white"/>
<path d="M859.849 462.669C862.112 462.669 863.946 460.835 863.946 458.572C863.946 456.31 862.112 454.476 859.849 454.476C857.587 454.476 855.752 456.31 855.752 458.572C855.752 460.835 857.587 462.669 859.849 462.669Z" fill="white"/>
<path d="M800.716 360.247C802.979 360.247 804.813 358.413 804.813 356.151C804.813 353.888 802.979 352.054 800.716 352.054C798.454 352.054 796.619 353.888 796.619 356.151C796.619 358.413 798.454 360.247 800.716 360.247Z" fill="white"/>
<path d="M794.803 350.005C797.066 350.005 798.9 348.171 798.9 345.908C798.9 343.646 797.066 341.812 794.803 341.812C792.54 341.812 790.706 343.646 790.706 345.908C790.706 348.171 792.54 350.005 794.803 350.005Z" fill="white"/>
<path d="M788.89 339.763C791.152 339.763 792.986 337.929 792.986 335.666C792.986 333.404 791.152 331.569 788.89 331.569C786.627 331.569 784.793 333.404 784.793 335.666C784.793 337.929 786.627 339.763 788.89 339.763Z" fill="white"/>
<path d="M782.976 329.521C785.239 329.521 787.073 327.687 787.073 325.425C787.073 323.162 785.239 321.328 782.976 321.328C780.714 321.328 778.879 323.162 778.879 325.425C778.879 327.687 780.714 329.521 782.976 329.521Z" fill="white"/>
<path d="M777.063 319.279C779.326 319.279 781.16 317.445 781.16 315.182C781.16 312.92 779.326 311.085 777.063 311.085C774.8 311.085 772.966 312.92 772.966 315.182C772.966 317.445 774.8 319.279 777.063 319.279Z" fill="white"/>
<path d="M771.149 309.037C773.412 309.037 775.246 307.203 775.246 304.94C775.246 302.677 773.412 300.843 771.149 300.843C768.887 300.843 767.053 302.677 767.053 304.94C767.053 307.203 768.887 309.037 771.149 309.037Z" fill="white"/>
<path d="M765.236 298.795C767.499 298.795 769.333 296.961 769.333 294.698C769.333 292.435 767.499 290.601 765.236 290.601C762.973 290.601 761.139 292.435 761.139 294.698C761.139 296.961 762.973 298.795 765.236 298.795Z" fill="white"/>
<path d="M747.497 268.068C749.759 268.068 751.594 266.234 751.594 263.971C751.594 261.709 749.759 259.875 747.497 259.875C745.234 259.875 743.4 261.709 743.4 263.971C743.4 266.234 745.234 268.068 747.497 268.068Z" fill="white"/>
<path d="M800.759 681.194C803.022 681.194 804.856 679.359 804.856 677.097C804.856 674.834 803.022 673 800.759 673C798.497 673 796.663 674.834 796.663 677.097C796.663 679.359 798.497 681.194 800.759 681.194Z" fill="white"/>
<path d="M823.759 681.194C826.022 681.194 827.856 679.359 827.856 677.097C827.856 674.834 826.022 673 823.759 673C821.497 673 819.663 674.834 819.663 677.097C819.663 679.359 821.497 681.194 823.759 681.194Z" fill="white"/>
<path d="M875.759 597.194C878.022 597.194 879.856 595.359 879.856 593.097C879.856 590.834 878.022 589 875.759 589C873.497 589 871.663 590.834 871.663 593.097C871.663 595.359 873.497 597.194 875.759 597.194Z" fill="white"/>
<path d="M896.759 598.194C899.022 598.194 900.856 596.359 900.856 594.097C900.856 591.834 899.022 590 896.759 590C894.497 590 892.663 591.834 892.663 594.097C892.663 596.359 894.497 598.194 896.759 598.194Z" fill="white"/>
<path d="M881.76 534.194C884.022 534.194 885.856 532.359 885.856 530.097C885.856 527.834 884.022 526 881.76 526C879.497 526 877.663 527.834 877.663 530.097C877.663 532.359 879.497 534.194 881.76 534.194Z" fill="white"/>
<path d="M905.438 533.551C907.523 533.551 909.214 531.861 909.214 529.776C909.214 527.69 907.523 526 905.438 526C903.353 526 901.663 527.69 901.663 529.776C901.663 531.861 903.353 533.551 905.438 533.551Z" fill="white"/>
<path d="M867.759 530.194C870.022 530.194 871.856 528.359 871.856 526.097C871.856 523.834 870.022 522 867.759 522C865.497 522 863.663 523.834 863.663 526.097C863.663 528.359 865.497 530.194 867.759 530.194Z" fill="white"/>
<path d="M881.76 555.194C884.022 555.194 885.856 553.359 885.856 551.097C885.856 548.834 884.022 547 881.76 547C879.497 547 877.663 548.834 877.663 551.097C877.663 553.359 879.497 555.194 881.76 555.194Z" fill="white"/>
<path d="M871.676 462.669C873.939 462.669 875.773 460.835 875.773 458.572C875.773 456.31 873.939 454.476 871.676 454.476C869.413 454.476 867.579 456.31 867.579 458.572C867.579 460.835 869.413 462.669 871.676 462.669Z" fill="white"/>
<path d="M788.89 319.279C791.152 319.279 792.986 317.445 792.986 315.182C792.986 312.92 791.152 311.085 788.89 311.085C786.627 311.085 784.793 312.92 784.793 315.182C784.793 317.445 786.627 319.279 788.89 319.279Z" fill="white"/>
<path d="M782.976 309.037C785.239 309.037 787.073 307.203 787.073 304.94C787.073 302.677 785.239 300.843 782.976 300.843C780.714 300.843 778.879 302.677 778.879 304.94C778.879 307.203 780.714 309.037 782.976 309.037Z" fill="white"/>
<path d="M759.323 268.068C761.586 268.068 763.42 266.234 763.42 263.971C763.42 261.709 761.586 259.875 759.323 259.875C757.061 259.875 755.227 261.709 755.227 263.971C755.227 266.234 757.061 268.068 759.323 268.068Z" fill="white"/>
<path d="M812.759 681.194C815.022 681.194 816.856 679.359 816.856 677.097C816.856 674.834 815.022 673 812.759 673C810.497 673 808.663 674.834 808.663 677.097C808.663 679.359 810.497 681.194 812.759 681.194Z" fill="white"/>
<path d="M813.117 691.908C815.025 691.908 816.571 690.362 816.571 688.454C816.571 686.547 815.025 685 813.117 685C811.209 685 809.663 686.547 809.663 688.454C809.663 690.362 811.209 691.908 813.117 691.908Z" fill="white"/>
<path d="M898.759 524.194C901.022 524.194 902.856 522.359 902.856 520.097C902.856 517.834 901.022 516 898.759 516C896.497 516 894.663 517.834 894.663 520.097C894.663 522.359 896.497 524.194 898.759 524.194Z" fill="white"/>
<path d="M893.76 534.194C896.022 534.194 897.856 532.359 897.856 530.097C897.856 527.834 896.022 526 893.76 526C891.497 526 889.663 527.834 889.663 530.097C889.663 532.359 891.497 534.194 893.76 534.194Z" fill="white"/>
<path d="M905.759 561.194C908.022 561.194 909.856 559.359 909.856 557.097C909.856 554.834 908.022 553 905.759 553C903.497 553 901.663 554.834 901.663 557.097C901.663 559.359 903.497 561.194 905.759 561.194Z" fill="white"/>
<path d="M895.759 566.194C898.022 566.194 899.856 564.359 899.856 562.097C899.856 559.834 898.022 558 895.759 558C893.497 558 891.663 559.834 891.663 562.097C891.663 564.359 893.497 566.194 895.759 566.194Z" fill="white"/>
<path d="M877.76 574.194C880.022 574.194 881.856 572.359 881.856 570.097C881.856 567.834 880.022 566 877.76 566C875.497 566 873.663 567.834 873.663 570.097C873.663 572.359 875.497 574.194 877.76 574.194Z" fill="white"/>
<path d="M881.759 586.194C884.022 586.194 885.856 584.359 885.856 582.097C885.856 579.834 884.022 578 881.759 578C879.497 578 877.663 579.834 877.663 582.097C877.663 584.359 879.497 586.194 881.759 586.194Z" fill="white"/>
<path d="M794.803 309.037C797.066 309.037 798.9 307.203 798.9 304.94C798.9 302.677 797.066 300.843 794.803 300.843C792.54 300.843 790.706 302.677 790.706 304.94C790.706 307.203 792.54 309.037 794.803 309.037Z" fill="white"/>
<path d="M788.89 298.795C791.152 298.795 792.986 296.961 792.986 294.698C792.986 292.435 791.152 290.601 788.89 290.601C786.627 290.601 784.793 292.435 784.793 294.698C784.793 296.961 786.627 298.795 788.89 298.795Z" fill="white"/>
<path d="M818.759 671.194C821.022 671.194 822.856 669.359 822.856 667.097C822.856 664.834 821.022 663 818.759 663C816.497 663 814.663 664.834 814.663 667.097C814.663 669.359 816.497 671.194 818.759 671.194Z" fill="white"/>
<path d="M842.109 636.786C844.372 636.786 846.206 634.952 846.206 632.689C846.206 630.426 844.372 628.592 842.109 628.592C839.847 628.592 838.012 630.426 838.012 632.689C838.012 634.952 839.847 636.786 842.109 636.786Z" fill="white"/>
<path d="M899.117 542.908C901.025 542.908 902.571 541.362 902.571 539.454C902.571 537.547 901.025 536 899.117 536C897.209 536 895.663 537.547 895.663 539.454C895.663 541.362 897.209 542.908 899.117 542.908Z" fill="white"/>
<path d="M887.76 544.194C890.022 544.194 891.856 542.359 891.856 540.097C891.856 537.834 890.022 536 887.76 536C885.497 536 883.663 537.834 883.663 540.097C883.663 542.359 885.497 544.194 887.76 544.194Z" fill="white"/>
<path d="M883.759 565.194C886.022 565.194 887.856 563.359 887.856 561.097C887.856 558.834 886.022 557 883.759 557C881.497 557 879.663 558.834 879.663 561.097C879.663 563.359 881.497 565.194 883.759 565.194Z" fill="white"/>
<path d="M800.716 298.795C802.979 298.795 804.813 296.961 804.813 294.698C804.813 292.435 802.979 290.601 800.716 290.601C798.454 290.601 796.619 292.435 796.619 294.698C796.619 296.961 798.454 298.795 800.716 298.795Z" fill="white"/>
<path d="M782.976 268.068C785.239 268.068 787.073 266.234 787.073 263.971C787.073 261.709 785.239 259.875 782.976 259.875C780.714 259.875 778.879 261.709 778.879 263.971C778.879 266.234 780.714 268.068 782.976 268.068Z" fill="white"/>
<path d="M765.236 237.342C767.499 237.342 769.333 235.507 769.333 233.245C769.333 230.982 767.499 229.148 765.236 229.148C762.973 229.148 761.139 230.982 761.139 233.245C761.139 235.507 762.973 237.342 765.236 237.342Z" fill="white"/>
<path d="M781.759 196.194C784.022 196.194 785.856 194.36 785.856 192.097C785.856 189.834 784.022 188 781.759 188C779.497 188 777.663 189.834 777.663 192.097C777.663 194.36 779.497 196.194 781.759 196.194Z" fill="white"/>
<path d="M830.759 671.194C833.022 671.194 834.856 669.359 834.856 667.097C834.856 664.834 833.022 663 830.759 663C828.497 663 826.663 664.834 826.663 667.097C826.663 669.359 828.497 671.194 830.759 671.194Z" fill="white"/>
<path d="M867.76 551.194C870.022 551.194 871.856 549.359 871.856 547.097C871.856 544.834 870.022 543 867.76 543C865.497 543 863.663 544.834 863.663 547.097C863.663 549.359 865.497 551.194 867.76 551.194Z" fill="white"/>
<path d="M777.063 237.342C779.326 237.342 781.16 235.507 781.16 233.245C781.16 230.982 779.326 229.148 777.063 229.148C774.8 229.148 772.966 230.982 772.966 233.245C772.966 235.507 774.8 237.342 777.063 237.342Z" fill="white"/>
<path d="M771.149 227.099C773.412 227.099 775.246 225.265 775.246 223.003C775.246 220.74 773.412 218.906 771.149 218.906C768.887 218.906 767.053 220.74 767.053 223.003C767.053 225.265 768.887 227.099 771.149 227.099Z" fill="white"/>
<path d="M782.759 215.194C785.022 215.194 786.856 213.36 786.856 211.097C786.856 208.834 785.022 207 782.759 207C780.497 207 778.663 208.834 778.663 211.097C778.663 213.36 780.497 215.194 782.759 215.194Z" fill="white"/>
<path d="M771.149 206.615C773.412 206.615 775.246 204.781 775.246 202.518C775.246 200.256 773.412 198.421 771.149 198.421C768.887 198.421 767.053 200.256 767.053 202.518C767.053 204.781 768.887 206.615 771.149 206.615Z" fill="white"/>
<path d="M861.759 559.194C864.022 559.194 865.856 557.359 865.856 555.097C865.856 552.834 864.022 551 861.759 551C859.497 551 857.663 552.834 857.663 555.097C857.663 557.359 859.497 559.194 861.759 559.194Z" fill="white"/>
<path d="M873.759 562.194C876.022 562.194 877.856 560.359 877.856 558.097C877.856 555.834 876.022 554 873.759 554C871.497 554 869.663 555.834 869.663 558.097C869.663 560.359 871.497 562.194 873.759 562.194Z" fill="white"/>
<path d="M867.759 571.194C870.022 571.194 871.856 569.359 871.856 567.097C871.856 564.834 870.022 563 867.759 563C865.497 563 863.663 564.834 863.663 567.097C863.663 569.359 865.497 571.194 867.759 571.194Z" fill="white"/>
<path d="M908.759 594.194C911.022 594.194 912.856 592.359 912.856 590.097C912.856 587.834 911.022 586 908.759 586C906.497 586 904.663 587.834 904.663 590.097C904.663 592.359 906.497 594.194 908.759 594.194Z" fill="white"/>
<path d="M907.759 605.194C910.022 605.194 911.856 603.359 911.856 601.097C911.856 598.834 910.022 597 907.759 597C905.497 597 903.663 598.834 903.663 601.097C903.663 603.359 905.497 605.194 907.759 605.194Z" fill="white"/>
</mask>
<g mask="url(#mask0_161_7555)">
<path d="M26 24H1493V959H26V24Z" fill="url(#paint0_angular_161_7555)"/>
</g>
</g>
<defs>
<filter id="filter0_d_161_7555" x="-4" y="0" width="1520" height="990" filterUnits="userSpaceOnUse" color-interpolation-filters="sRGB">
<feFlood flood-opacity="0" result="BackgroundImageFix"/>
<feColorMatrix in="SourceAlpha" type="matrix" values="0 0 0 0 0 0 0 0 0 0 0 0 0 0 0 0 0 0 127 0" result="hardAlpha"/>
<feOffset dy="4"/>
<feGaussianBlur stdDeviation="2"/>
<feComposite in2="hardAlpha" operator="out"/>
<feColorMatrix type="matrix" values="0 0 0 0 0 0 0 0 0 0 0 0 0 0 0 0 0 0 0.25 0"/>
<feBlend mode="normal" in2="BackgroundImageFix" result="effect1_dropShadow_161_7555"/>
<feBlend mode="normal" in="SourceGraphic" in2="effect1_dropShadow_161_7555" result="shape"/>
</filter>
<radialGradient id="paint0_angular_161_7555" cx="0" cy="0" r="1" gradientUnits="userSpaceOnUse" gradientTransform="translate(677.25 489.25) rotate(130.517) scale(312.082 489.652)">
<stop stop-color="#FFC400" stop-opacity="0.71"/>
<stop offset="0.37" stop-color="#DF1143" stop-opacity="0.5"/>
<stop offset="0.66" stop-color="#2F80ED" stop-opacity="0.84"/>
</radialGradient>
</defs>
</svg>
