<svg xmlns="http://www.w3.org/2000/svg" version="1.1" xmlns:xlink="http://www.w3.org/1999/xlink" xmlns:svgjs="http://svgjs.dev/svgjs" viewBox="0 0 800 800" opacity="0.75"><defs><linearGradient x1="50%" y1="0%" x2="50%" y2="100%" id="uundulate-grad"><stop stop-color="#0c4a6e" stop-opacity="1" offset="45%"></stop><stop stop-color="#172554" stop-opacity="1" offset="100%"></stop></linearGradient></defs><g stroke-width="2" stroke="url(#uundulate-grad)" fill="#020617"><path d="M1409.858065046751 -232.49296488673917C1766.7089206683804 321.24932887213254 1392.9609913387776 1423.1181913805563 1068.0280171644417 1716.321828377398C743.0950429901059 2009.52546537424 207.03064463156443 1728.626786456969 -149.820210990065 1174.884492698097C-506.67106661169464 621.1421989392256 -969.7890639937116 -648.4375446683474 -644.8560898193756 -941.641181665189C-319.9231156450396 -1234.8448186620308 1053.007209425121 -786.2352586456111 1409.858065046751 -232.49296488673917C1766.7089206683804 321.24932887213254 1392.9609913387776 1423.1181913805563 1068.0280171644417 1716.321828377398 "></path><path d="M1396.7431540489088 -224.2787994698101C1748.9595829741534 322.27203592855653 1380.0655228566234 1409.8309132095983 1059.3524574377984 1699.2267107649227C738.6393920189732 1988.6225083202467 209.5368689637894 1711.3718641941095 -142.6795599614552 1164.8210287957427C-494.8959888867 618.2701933973758 -951.9994668221973 -634.821501591917 -631.2864014033721 -924.2172991472412C-310.57333598454704 -1213.6130967025654 1044.5267251236637 -770.8296348681772 1396.7431540489088 -224.2787994698101C1748.9595829741534 322.27203592855653 1380.0655228566234 1409.8309132095983 1059.3524574377984 1699.2267107649227 "></path><path d="M1383.6279378752847 -216.06460353530315C1731.2099401041446 323.2947735025589 1367.169749198688 1396.5436655562185 1050.6765925353734 1682.1316236700254C734.1834358720594 1967.719581783832 212.04278812023335 1694.1169724488282 -135.53921410862665 1154.7575954109661C-483.12121633748666 615.3982183731041 -934.2101748264643 -621.2054279979084 -617.71701816315 -906.7933861117151C-301.2238614998357 -1192.3813442255218 1036.0459356464248 -755.4239805731652 1383.6279378752847 -216.06460353530315C1731.2099401041446 323.2947735025589 1367.169749198688 1396.5436655562185 1050.6765925353734 1682.1316236700254 "></path><path d="M1370.5130268774428 -207.8504686359522C1713.460602409918 324.317450041405 1354.2742807165332 1383.2563568676824 1042.00103280873 1665.036475539972C729.7277849009265 1946.8165942122614 214.54901245245833 1676.862019668391 -128.39856308001686 1144.6941009910333C-471.34613861249204 612.5261823136764 -916.4205776549499 -607.5894154390561 -604.1473297471465 -889.3695341113455C-291.87408183934303 -1171.1496527836348 1027.5654513449676 -740.0183873133094 1370.5130268774428 -207.8504686359522C1713.460602409918 324.317450041405 1354.2742807165332 1383.2563568676824 1042.00103280873 1665.036475539972 "></path><path d="M1357.397871738975 -199.63618114871088C1695.711020575066 325.3402791681417 1341.378568093754 1369.969200767037 1033.3252289414613 1647.9414799978094C725.2718897891689 1925.913759228581 217.0549926440583 1659.607219475844 -121.25815619203206 1134.6307591589912C-459.5713050281224 609.654298842139 -898.6312246240606 -593.9732502923132 -590.577885471768 -871.945529523085C-282.52454631947546 -1149.9178087538571 1019.084722902885 -724.612641465563 1357.397871738975 -199.63618114871088C1695.711020575066 325.3402791681417 1341.378568093754 1369.969200767037 1033.3252289414613 1647.9414799978094 "></path><path d="M1344.2827776356644 -191.42201573178136C1677.9614997753697 326.36298622456593 1328.482916506131 1356.6819225960794 1024.6494861093493 1630.8463623853345C720.8160557125675 1905.0108021745887 219.56103387081475 1642.352297212985 -114.11768826889102 1124.567295256637C-447.79641040859656 606.7822933002894 -880.8418105580149 -580.3572072158827 -577.0083801612333 -854.5216470051372C-273.17494976445164 -1128.6860867943917 1010.6040554959586 -709.2070176881291 1344.2827776356644 -191.42201573178136C1677.9614997753697 326.36298622456593 1328.482916506131 1356.6819225960794 1024.6494861093493 1630.8463623853345 "></path><path d="M1331.1678056026658 -183.20785031485252C1660.2121010459864 327.3856932809904 1315.58738698882 1343.3946444251214 1015.9738653475495 1613.7512447728586C716.3603437062786 1884.1078451205958 222.06719716788348 1625.097374950125 -106.97709827543736 1114.5038313542827C-436.0213937187582 603.9102877584398 -863.0522744216569 -566.7411641394522 -563.438752780386 -837.0977644871894C-263.8252311391152 -1107.4543648349265 1002.123510159345 -693.8013939106953 1331.1678056026658 -183.20785031485252C1660.2121010459864 327.3856932809904 1315.58738698882 1343.3946444251214 1015.9738653475495 1613.7512447728586 "></path><path d="M1318.0528335696672 -174.99356282761096C1642.4627023166026 328.4085224077269 1302.6918574715096 1330.107488324476 1007.2982445857497 1596.6562492306957C711.9046316999897 1863.2050101369155 224.5733604649522 1607.8425747575784 -99.83650828198381 1104.4404895222406C-424.2463770289198 601.0384042869025 -845.2627382852988 -553.1249989927094 -549.8691253995389 -819.6737598989289C-254.475512513779 -1086.2225208051486 993.6429648227311 -678.3956480629489 1318.0528335696672 -174.99356282761096C1642.4627023166026 328.4085224077269 1302.6918574715096 1330.107488324476 1007.2982445857497 1596.6562492306957 "></path><path d="M1304.937739466356 -166.77939741068212C1624.7131815169073 329.4312294641511 1289.7962058838866 1316.8202101535185 998.6225017536374 1579.5611316182203C707.4487976233881 1842.3020530829226 227.07940169170843 1590.587652494719 -92.69604035884288 1094.377025619886C-412.47148240939396 598.1663987450527 -827.4733242192533 -539.5089559162789 -536.2996200890042 -802.2498773809812C-245.12591595875506 -1064.9907988456835 985.1622974158049 -662.9900242855151 1304.937739466356 -166.77939741068212C1624.7131815169073 329.4312294641511 1289.7962058838866 1316.8202101535185 998.6225017536374 1579.5611316182203 "></path><path d="M1291.8225843278888 -158.56523199375306C1606.9635996820548 330.4539365205753 1276.900493261107 1303.5329319825605 989.9466978863691 1562.466014005745C702.9929025116305 1821.3990960289298 229.5853818833084 1573.3327302318594 -85.55563347085797 1084.3135617175312C-400.69664882502434 595.2943932032031 -809.683971188364 -525.8929128398483 -522.7301758136257 -784.8259948630332C-235.77638043888737 -1043.759076886218 976.6815689737223 -647.5844005080812 1291.8225843278888 -158.56523199375306C1606.9635996820548 330.4539365205753 1276.900493261107 1303.5329319825605 989.9466978863691 1562.466014005745 "></path><path d="M1278.707551259734 -150.3509445065115C1589.2141399175152 331.47676564731205 1264.0049027086402 1290.245775881915 981.2710160894128 1545.371018463582C698.5371294701854 1800.4962610452494 232.09148414522087 1556.0779300393128 -78.41510451256067 1074.250219885489C-388.9216931703422 592.4225097316657 -791.8944960871622 -512.2767476931056 -509.16060946793476 -767.4019902747729C-226.4267228487074 -1022.5272328564403 968.2009626019521 -632.1786546603348 1278.707551259734 -150.3509445065115C1589.2141399175152 331.47676564731205 1264.0049027086402 1290.245775881915 981.2710160894128 1545.371018463582 "></path><path d="M1265.5926402618916 -142.13677908958243C1571.4648022232882 332.4994727037363 1251.109434226486 1276.958497710957 972.5954563627695 1528.275900851107C694.0814784990528 1779.5933039912566 234.59770847744585 1538.8230077764533 -71.27445348395088 1064.1867559831344C-377.1466154453476 589.5505041898161 -774.1048989156478 -498.66070461667505 -495.59092105193133 -749.978107756825C-217.07694318821473 -1001.295510896975 959.7204783004947 -616.773030882901 1265.5926402618916 -142.13677908958243C1571.4648022232882 332.4994727037363 1251.109434226486 1276.958497710957 972.5954563627695 1528.275900851107 "></path><path d="M1252.4775156410024 -133.92261367265337C1553.7152509060143 333.52217976016027 1238.2137521212844 1263.6712195399987 963.9196830130788 1511.1807832386316C689.6256139048733 1758.6903469372642 237.10371918662395 1521.5680855135938 -64.13401607838796 1054.1232920807797C-365.37175134339986 586.6784986479663 -756.3155153671804 -485.04466154024453 -482.0214462589747 -732.554225238877C-207.72737715076914 -980.0637889375097 951.2397803759902 -601.3674071054671 1252.4775156410024 -133.92261367265337C1553.7152509060143 333.52217976016027 1238.2137521212844 1263.6712195399987 963.9196830130788 1511.1807832386316 "></path><path d="M1239.3624520552694 -125.7084482557243C1535.9657606238966 334.5448868165845 1225.3181310512396 1250.3839413690407 955.2439706985447 1494.0856656261558C685.16981034585 1737.7873898832713 239.6097909309583 1504.3131632507343 -56.993517637668674 1044.0598281784255C-353.5968262062959 583.8064931061165 -738.5260707835567 -471.42861846381425 -468.4519104308619 -715.1303427209293C-198.37775007816708 -958.8320669780444 942.759143486642 -585.9617833280332 1239.3624520552694 -125.7084482557243C1535.9657606238966 334.5448868165845 1225.3181310512396 1250.3839413690407 955.2439706985447 1494.0856656261558 "></path><path d="M1226.2474495046927 -117.49431335637337C1518.2163313769347 335.5675633554308 1212.422571016351 1237.096632680505 946.568319419167 1476.9905174961027C680.714067821983 1716.8844023117008 242.1159237104489 1487.0582104702971 -49.852958161793254 1033.9963337584932C-341.82184003403563 580.934457046689 -720.7365651647768 -457.81260590496186 -454.8823135675928 -697.7064907205595C-189.02806197040877 -937.6003755361572 934.2785676324502 -570.5561900681776 1226.2474495046927 -117.49431335637337C1518.2163313769347 335.5675633554308 1212.422571016351 1237.096632680505 946.568319419167 1476.9905174961027 "></path><path d="M1213.1323554013816 -109.27999535155368C1500.466810577239 336.59042299974567 1199.5269194287275 1223.8095070974377 937.8925765870545 1459.895552471518C676.2582337453816 1695.9815978455981 244.62196493720535 1469.8034407953282 -42.71249023865221 1023.9330224440291C-330.04694541450976 578.0626040927298 -702.9471510987312 -444.1964102406407 -441.3128082570581 -680.282455614721C-179.67846541538506 -916.3685009888013 925.7979002255238 -555.150413702853 1213.1323554013816 -109.27999535155368C1500.466810577239 336.59042299974567 1199.5269194287275 1223.8095070974377 937.8925765870545 1459.895552471518 "></path><path d="M1200.017383368383 -101.06582993462462C1482.7174118478556 337.6131300561699 1186.631389911417 1210.5222289264798 929.2169558252549 1442.8004348590425C671.8025217390925 1675.0786407916053 247.12812823427407 1452.5485185324692 -35.57190024519866 1013.8695585416745C-318.2719287246714 575.1905985508799 -685.1576149623731 -430.5803671642102 -427.7431808762109 -662.8585730967732C-170.32874679004863 -895.136779029336 917.3173548889101 -539.7447899254191 1200.017383368383 -101.06582993462462C1482.7174118478556 337.6131300561699 1186.631389911417 1210.5222289264798 929.2169558252549 1442.8004348590425 "></path><path d="M1186.9022892650717 -92.85166451769555C1464.9678910481598 338.6358371125941 1173.735738323794 1197.2349507555218 920.5412129931426 1425.7053172465671C667.3466876624911 1654.1756837376129 249.63416946103052 1435.2935962696097 -28.431432322057617 1003.8060946393198C-306.49703410514553 572.3185930090301 -667.3682008963276 -416.9643240877799 -414.1736755656762 -645.4346905788252C-160.9791502350248 -873.9050570698707 908.8366874819837 -524.3391661479852 1186.9022892650717 -92.85166451769555C1464.9678910481598 338.6358371125941 1173.735738323794 1197.2349507555218 920.5412129931426 1425.7053172465671 "></path><path d="M1173.7872867144952 -84.63749910076649C1447.218461801198 339.65854416901834 1160.8401782889052 1183.9476725845639 911.8655617137647 1408.6101996340922C662.8909451386241 1633.27272668362 252.14030224052112 1418.0386740067502 -21.290872846182197 993.7426307369656C-294.7220479328853 569.4465874671805 -649.5786952775477 -403.3482810113494 -400.60407870240715 -628.0108080608774C-151.6294621272666 -852.6733351104054 900.3561116277917 -508.93354237055144 1173.7872867144952 -84.63749910076649C1447.218461801198 339.65854416901834 1160.8401782889052 1183.9476725845639 911.8655617137647 1408.6101996340922 "></path><path d="M1160.6722841639184 -76.42333368383754C1429.469032554237 340.68125122544234 1147.9446182540166 1170.660394413606 903.1899104343868 1391.5150820216168C658.4352026147571 1612.3697696296272 254.64643502001172 1400.7837517438907 -14.150313370306776 983.6791668346109C-282.94706176062505 566.5745819253307 -631.7891896587678 -389.732237934919 -387.03448183913804 -610.5869255429295C-142.2797740195083 -831.4416131509402 891.8755357736 -493.52791859311753 1160.6722841639184 -76.42333368383754C1429.469032554237 340.68125122544234 1147.9446182540166 1170.660394413606 903.1899104343868 1391.5150820216168 "></path><path d="M1147.5571900606071 -68.20904619659598C1411.7195117545407 341.70408035217906 1135.0489666663934 1157.373238312961 894.5141676022745 1374.4200864794539C653.9793685381558 1591.4669346459468 257.15247624676795 1383.5289515513437 -7.009845447165617 973.6158250025687C-271.1721671410992 563.7026984537936 -613.9997755927221 -376.1160727881761 -373.4649765286033 -593.1629209546692C-132.93017746448447 -810.2097691211623 883.3948683666736 -478.12217274537113 1147.5571900606071 -68.20904619659598C1411.7195117545407 341.70408035217906 1135.0489666663934 1157.373238312961 894.5141676022745 1374.4200864794539 "></path><path d="M1134.4421875100304 -59.99488077966703C1393.9700825075793 342.7267874086033 1122.1534066315046 1144.0859601420025 885.8385163228966 1357.3249688669785C649.5236260142888 1570.563977591954 259.65860902625855 1366.2740292884846 0.13071402870980364 963.5523611002141C-259.39718096883894 560.8306929119437 -596.2102699739422 -362.5000297117456 -359.89537966533425 -575.7390384367213C-123.58048935672628 -788.9780471616971 874.9142925124818 -462.71654896793734 1134.4421875100304 -59.99488077966703C1393.9700825075793 342.7267874086033 1122.1534066315046 1144.0859601420025 885.8385163228966 1357.3249688669785 "></path><path d="M1121.3271849594537 -51.78071536273785C1376.2206532606178 343.7494944650275 1109.257846596616 1130.798681971045 877.1628650435189 1340.2298512545035C645.0678834904218 1549.6610205379616 262.16474180574914 1349.019107025625 7.271273504585224 953.4888971978598C-247.6221947965787 557.9586873700944 -578.4207643551623 -348.88398663531507 -346.3257828020652 -558.3151559187734C-114.23080124896808 -767.7463252022318 866.4337166582898 -447.31092519050344 1121.3271849594537 -51.78071536273785C1376.2206532606178 343.7494944650275 1109.257846596616 1130.798681971045 877.1628650435189 1340.2298512545035 "></path><path d="M1108.2121213737207 -43.56639735791828C1358.4711629784997 344.77235410934236 1096.362225526571 1117.5115563879772 868.4871527289845 1323.1348862299183C640.6120799313985 1528.7582160718594 264.6708135500835 1331.7643373506562 14.411771945304508 943.4255858833958C-235.8472696594747 555.0868344161349 -560.6313197715385 -335.26779097099404 -332.75624697395233 -540.8911208129349C-104.88117417636613 -746.5144506548759 857.9530797689415 -431.9051488251789 1108.2121213737207 -43.56639735791828C1358.4711629784997 344.77235410934236 1096.362225526571 1117.5115563879772 868.4871527289845 1323.1348862299183 "></path><path d="M1095.0970883055659 -35.3522319409891C1340.7217032139602 345.7950611657668 1083.466634974104 1104.2242782170194 859.8114709320287 1306.0397686174429C636.1563068899529 1507.8552590178665 267.1769158119961 1314.5094150877976 21.55230090360169 933.3621219810414C-224.0723140047926 552.2148288742853 -542.8418446703367 -321.65174789456364 -319.18668062826134 -523.467238294987C-95.53151658618594 -725.2827286954105 849.4724733971716 -416.499525047745 1095.0970883055659 -35.3522319409891C1340.7217032139602 345.7950611657668 1083.466634974104 1104.2242782170194 859.8114709320287 1306.0397686174429 "></path><path d="M1081.9820857549892 -27.138097041638275C1322.9722739669987 346.8177377046127 1070.5710749392154 1090.9369695284834 851.1358196526508 1288.9446204873893C631.7005643660862 1486.9522714462955 269.6830485914868 1297.2544623073595 28.692860379477224 923.2986275611086C-212.29732783253246 549.3427928148576 -525.0523390515568 -308.03573533571125 -305.6170837649923 -506.04338629461733C-86.18182847842775 -704.0510372535234 840.9918975429796 -401.09393178788935 1081.9820857549892 -27.138097041638275C1322.9722739669987 346.8177377046127 1070.5710749392154 1090.9369695284834 851.1358196526508 1288.9446204873893 "></path><path d="M1068.866991651678 -18.923901107131087C1305.222753167303 347.84047527861503 1057.6754233515921 1077.6497218751038 842.4600768205382 1271.849533392492C627.2447302894848 1466.0493449098813 272.189089818243 1279.9995705620781 35.833328302618156 913.2351941763322C-200.5224332130066 546.4708177905859 -507.2629249855113 -294.4196617417027 -292.0475784544576 -488.6194732590913C-76.83223192340392 -682.8192847764799 832.5112301360534 -385.6882774928773 1068.866991651678 -18.923901107131087C1305.222753167303 347.84047527861503 1057.6754233515921 1077.6497218751038 842.4600768205382 1271.849533392492 "></path><path d="M1055.7519585835232 -10.709735690202137C1287.4732934027634 348.86318233503926 1044.7798327991252 1064.3624437041458 833.7843950235824 1254.754415780017C622.7889572480394 1445.1463878558884 274.6951920801555 1262.744648299219 42.973857260915565 903.1717302739776C-188.74747755832436 543.5988122487361 -489.47344988430945 -280.8036186652723 -278.4780121087666 -471.19559074114346C-67.48257433322374 -661.5875628170147 824.0306237642833 -370.2826537154434 1055.7519585835232 -10.709735690202137C1287.4732934027634 348.86318233503926 1044.7798327991252 1064.3624437041458 833.7843950235824 1254.754415780017 "></path><path d="M1042.6369560329465 -2.4954482029604605C1269.7238641558017 349.886011461776 1031.8842727642366 1051.0752876035006 825.1087437442043 1237.6594202378542C618.3332147241726 1424.243552872208 277.2013248596462 1245.489848106672 50.114416736790986 893.1083884419354C-176.97249138606412 540.726928777199 -471.6839442655295 -267.1874535185293 -264.9084152454975 -453.77158615288306C-58.13288622546554 -640.3557187872368 815.5500479100913 -354.87690786769707 1042.6369560329465 -2.4954482029604605C1269.7238641558017 349.886011461776 1031.8842727642366 1051.0752876035006 825.1087437442043 1237.6594202378542 "></path><path d="M1029.5218619296356 5.718686696390478C1251.974343356106 350.9086880006221 1018.9886211766134 1037.7879789149645 816.4330009120922 1220.5642721078007C613.877380647571 1403.3405653006375 279.70736608640243 1228.2348953262344 57.25488465993203 883.0448940220028C-165.19759676653837 537.854892717771 -453.89453019948394 -253.57144095967692 -251.33890993496283 -436.34773415251334C-48.78328967044172 -619.1240273453498 807.0693805031651 -339.47131460784135 1029.5218619296356 5.718686696390478C1251.974343356106 350.9086880006221 1018.9886211766134 1037.7879789149645 816.4330009120922 1220.5642721078007 "></path><path d="M1016.4068593790589 13.932882630897552C1234.2249141091443 351.9314255746244 1006.0930611417245 1024.5007312615846 807.7573496327143 1203.4691850129036C609.421638123704 1382.4376387642224 282.21349886589314 1210.9800035809533 64.39544413580757 872.9814606372263C-153.42261059427813 534.9829176934995 -436.105024580704 -239.9553673656684 -237.76931307169377 -418.92382111698737C-39.43360156268341 -597.8922748683062 798.5888046489731 -324.0656603128293 1016.4068593790589 13.932882630897552C1234.2249141091443 351.9314255746244 1006.0930611417245 1024.5007312615846 807.7573496327143 1203.4691850129036 "></path><path d="M1003.2918568284822 22.1470480478265C1216.4754848621828 352.95413263104865 993.1975011068357 1011.2134530906267 799.0816983533364 1186.3740674004282C604.965895599837 1361.5346817102295 284.71963164538374 1193.725081318094 71.53600361168287 862.9179967348718C-141.64762442201788 532.1109121516497 -418.3155189619241 -226.339324289238 -224.19971620842466 -401.49993859903947C-30.083913454925323 -576.6605529088409 790.1082287947813 -308.6600365353955 1003.2918568284822 22.1470480478265C1216.4754848621828 352.95413263104865 993.1975011068357 1011.2134530906267 799.0816983533364 1186.3740674004282 "></path><path d="M990.1767932427492 30.361274499911815C1198.7259945800652 353.9769007226291 980.3018800367906 997.926235954825 790.4059860388022 1169.279010823109C600.5100920408136 1340.631785691393 287.2257033897181 1176.4702200903905 78.67650205240216 852.8545938676734C-129.8726992849139 529.2389676449561 -400.5260743783004 -212.72322017765123 -210.6301803803118 -384.0759950459354C-20.734286382323262 -555.4287699142194 781.6275919054331 -293.2543517228054 990.1767932427492 30.361274499911815C1198.7259945800652 353.9769007226291 980.3018800367906 997.926235954825 790.4059860388022 1169.279010823109 "></path><path d="M977.061729657016 38.57550095199713C1180.9765042979473 354.9996688142096 967.4062589667458 984.6390188190232 781.7302737242683 1152.18395424579C596.0542884817905 1319.7288896725568 289.73177513405255 1159.2153588626877 85.81700049312133 842.7911910004752C-118.0977741478099 526.367023138263 -382.7366297946767 -199.10711606606458 -197.060644552199 -366.6520514928312C-11.384659309721314 -534.1969869195979 773.1469550160848 -277.84866691021523 977.061729657016 38.57550095199713C1180.9765042979473 354.9996688142096 967.4062589667458 984.6390188190232 781.7302737242683 1152.18395424579 "></path><path d="M963.9467576240174 46.78966636892619C1163.227105568564 356.0223758706338 954.5107294494351 971.3517406480655 773.0546529624683 1135.0888366333147C591.5985764755014 1298.8259326185644 292.2379384311213 1141.9604365998282 92.95759048657487 832.7277270981208C-106.32275745797153 523.4950175964132 -364.94709365831864 -185.49107298963418 -183.4910171713518 -349.2281689748834C-2.034940684384992 -512.9652649601326 764.6664096794711 -262.4430431327813 963.9467576240174 46.78966636892619C1163.227105568564 356.0223758706338 954.5107294494351 971.3517406480655 773.0546529624683 1135.0888366333147 "></path><path d="M950.8316940382845 55.003892821011505C1145.477615286446 357.0451439622143 941.61510837939 958.0645235122638 764.3789406479341 1117.9937800559956C587.1427729164782 1277.9230365997273 294.74401017545574 1124.705575372125 100.09808892729404 822.6643242309224C-94.54783232086754 520.6230730897196 -347.157649074695 -171.8749688780474 -169.92148134323895 -331.8042254217793C7.314686388217069 -491.73348196551103 756.1857727901229 -247.03735832019123 950.8316940382845 55.003892821011505C1145.477615286446 357.0451439622143 941.61510837939 958.0645235122638 764.3789406479341 1117.9937800559956 "></path><path d="M937.7166609701296 63.21805823794057C1127.7281555219065 358.0678510186385 928.7195178269233 944.7772453413058 755.7032588509783 1100.8986624435202C582.686999875033 1257.0200795457345 297.2501124373682 1107.4506531092657 107.23861788559134 812.6008603285677C-82.77287666618543 517.7510675478698 -329.3681739734931 -158.258925801617 -156.35191499754802 -314.3803429038314C16.66434397839714 -470.50176000604574 747.7051664183527 -231.63173454275739 937.7166609701296 63.21805823794057C1127.7281555219065 358.0678510186385 928.7195178269233 944.7772453413058 755.7032588509783 1100.8986624435202 "></path><path d="M924.6015668668185 71.43225417244776C1109.9786347222105 359.09058859264087 915.8238662393001 931.4899976879262 747.0275160188658 1083.803575348623C578.2311657984317 1236.11715300932 299.75615366412444 1090.1957613639845 114.37908580873238 802.5374269437916C-70.99798204665956 514.8790925235983 -311.57875990744753 -144.64285220760848 -142.78240968701328 -296.9564298683054C26.013940533420964 -449.2700075290023 739.2244990114266 -216.22608024774536 924.6015668668185 71.43225417244776C1109.9786347222105 359.09058859264087 915.8238662393001 931.4899976879262 747.0275160188658 1083.803575348623 "></path><path d="M911.4865032810856 79.64645010695494C1092.229144440093 360.1133261666432 902.9282451692552 918.2027500345464 738.3518037043318 1066.7084882537258C573.7753622394084 1215.2142264729055 302.2622254084588 1072.9408696187033 121.51958424945155 792.4739935590148C-59.22305690955557 512.0071174993268 -293.78931532382387 -131.02677861359984 -129.21287385890048 -279.5325168327794C35.363567606023025 -428.0382550519589 730.7438621220786 -200.8204259527334 911.4865032810856 79.64645010695494C1092.229144440093 360.1133261666432 902.9282451692552 918.2027500345464 738.3518037043318 1066.7084882537258 "></path><path d="M898.3715617656653 87.86061552388401C1074.4797762282876 361.13603322306733 890.0327461695226 904.9154718635882 729.6762134601101 1049.6133706412504C569.3196807506974 1194.3112694189124 304.76841922310564 1055.6859473558438 128.66020476048334 782.4105296566604C-47.448009702139075 509.13511195747697 -275.9997486698877 -117.41073553716944 -115.64321596047512 -262.10863431483153C44.71331674893736 -406.8065330924936 722.2633473030428 -185.41480217529954 898.3715617656653 87.86061552388401C1074.4797762282876 361.13603322306733 890.0327461695226 904.9154718635882 729.6762134601101 1049.6133706412504 "></path><path d="M885.2565592150886 96.0748419759692C1056.7303469813262 362.1588013146478 877.1371861346338 891.6282547277865 721.0005621807322 1032.5183140639313C564.8639382268304 1173.408373400076 307.27455200259635 1038.4310861281408 135.80076423635876 772.347126789462C-35.67302352987883 506.2631674507834 -258.21024305110774 -103.79463142558279 -102.07361909720606 -244.68469076172744C54.06300485669567 -385.5747500978721 713.782771448851 -170.0091173627094 885.2565592150886 96.0748419759692C1056.7303469813262 362.1588013146478 877.1371861346338 891.6282547277865 721.0005621807322 1032.5183140639313 "></path><path d="M872.1414040766213 104.28897687532026C1038.980765146474 363.1814778534939 864.2414735118546 878.3409460392506 712.3247583134637 1015.4231659338782C560.4080431150728 1152.5053858285053 309.78053219419644 1021.1761333477034 142.94117112434355 762.2836323695294C-23.898189945509216 503.39113139135566 -240.4208900202184 -90.1786188667304 -88.50417482182758 -227.26083876135766C63.41254037656324 -364.3430586559849 705.3020430067684 -154.6035241028536 872.1414040766213 104.28897687532026C1038.980765146474 363.1814778534939 864.2414735118546 878.3409460392506 712.3247583134637 1015.4231659338782 "></path><path d="M859.0263404908883 112.50320332740546C1021.231274864356 364.2042459450744 851.3458524418095 865.0537289034489 703.6490459989295 998.3281093565588C555.9522395560496 1131.6024898096687 312.2866039385308 1003.9212721200001 150.08166956506284 752.2202295023312C-12.123264808405224 500.5191868846623 -222.63144543659473 -76.56251475514375 -74.93463899371477 -209.83689520825357C72.76216744916519 -343.1112756613634 696.8214061174203 -139.19783929026352 859.0263404908883 112.50320332740546C1021.231274864356 364.2042459450744 851.3458524418095 865.0537289034489 703.6490459989295 998.3281093565588 "></path><path d="M845.9113379403116 120.71736874433441C1003.4818456173946 365.2269530014986 838.4502924069207 851.7664507324912 694.9733947195518 981.2329917440834C551.4964970321824 1110.6995327556758 314.7927367180214 986.6663498571406 157.22222904093815 742.1567655999766C-0.34827863614498256 497.6471813428125 -204.84193981781482 -62.94647167871324 -61.36504213044566 -192.41301269030566C82.1118555569235 -321.8795537018981 688.3408302632283 -123.79221551282967 845.9113379403116 120.71736874433441C1003.4818456173946 365.2269530014986 838.4502924069207 851.7664507324912 694.9733947195518 981.2329917440834 "></path><path d="M832.7963048721567 128.93159519641972C985.732385852855 366.2497210930791 825.5547018544539 838.4792335966895 686.2977129225956 964.1379351667645C547.0407239907373 1089.7966367368392 317.29883897993386 969.4114886294376 164.36275799923555 732.0933627327781C11.426677018537134 494.7752368361189 -187.05246471661297 -49.330367567126586 -47.79547578475473 -174.98906913720157C91.46151314710357 -300.64777070727655 679.8602238914582 -108.38653070023958 832.7963048721567 128.93159519641972C985.732385852855 366.2497210930791 825.5547018544539 838.4792335966895 686.2977129225956 964.1379351667645 "></path><path d="M819.6812412864238 137.14576061334878C967.9828955707374 367.2724281495032 812.6590807844088 825.1919554257313 677.6220006080614 947.0428175542888C542.5849204317141 1068.8936796828466 319.8049107242682 952.1565663665781 171.50325643995473 722.0298988304237C23.201602155641126 491.90323129426906 -169.2630201329893 -35.714324490696185 -34.22593995664187 -157.56518661925367C100.81114021970552 -279.41604874781126 671.3795870021099 -92.98090692280567 819.6812412864238 137.14576061334878C967.9828955707374 367.2724281495032 812.6590807844088 825.1919554257313 677.6220006080614 947.0428175542888 "></path><path d="M806.5662082182689 145.3599870654341C950.2334358061976 368.2951962410838 799.7634902319419 811.9047382899298 668.9463188111054 929.9477609769699C538.1291473902689 1047.99078366401 322.3110129861808 934.9017051388751 178.64378539825202 711.9664959632255C34.97655781032324 489.0312867875758 -151.47354503178747 -22.09822037910942 -20.656373610950936 -140.14124306614957C110.1607978098856 -258.1842657531897 662.89898063034 -77.57522211021558 806.5662082182689 145.3599870654341C950.2334358061976 368.2951962410838 799.7634902319419 811.9047382899298 668.9463188111054 929.9477609769699 "></path><path d="M793.4512056676922 153.57415248236316C932.4840065592361 369.317903297508 786.8679301970533 798.6174601189718 660.2706675317277 912.8526433644945C533.6734048664018 1027.0878266100174 324.8171457656715 917.6467828760158 185.78434487412744 701.9030320608708C46.751543982583485 486.159281245726 -133.68403941300755 -8.48217730267902 -7.086776747681824 -122.71736054820167C119.51048591764379 -236.95254379372443 654.4184047761482 -62.169598332781675 793.4512056676922 153.57415248236316C932.4840065592361 369.317903297508 786.8679301970533 798.6174601189718 660.2706675317277 912.8526433644945 "></path><path d="M780.3361420819592 161.78837893444847C914.7345162771185 370.34067138908836 773.9723091270084 785.3302429831701 651.5949552171933 895.7575867871756C529.2176013073786 1006.1849305911808 327.32321751000586 900.3919216483125 192.9248433148466 691.8396291936726C58.52646911968748 483.2873367390325 -115.89459482938389 5.133926808907688 6.482759080430981 -105.29341699509757C128.86011299024585 -215.7207607991029 645.9377678868 -46.76391352019158 780.3361420819592 161.78837893444847C914.7345162771185 370.34067138908836 773.9723091270084 785.3302429831701 651.5949552171933 895.7575867871756 "></path><path d="M767.2211090138044 170.00254435137742C896.9850565125787 371.3633784455126 761.0767185745412 772.0429648122122 642.9192734202373 878.6624691747002C524.7618282659334 985.2819735371879 329.82931977191834 883.1369993854532 200.06537227314402 681.776165291318C70.3014247743696 480.4153311971828 -98.10511972818205 18.749969885338146 20.05232542612191 -87.86953447714973C138.20977058042592 -194.4890388396376 637.45716151503 -31.358289742757734 767.2211090138044 170.00254435137742C896.9850565125787 371.3633784455126 761.0767185745412 772.0429648122122 642.9192734202373 878.6624691747002 "></path><path d="M754.1060454280714 178.21677080346274C879.2355662304608 372.38614653709305 748.1810975044964 758.7557476764105 634.2435611057032 861.567412597381C520.3060247069102 964.3790775183516 332.3353915162527 865.88213815775 207.2058707138632 671.7127624241198C82.07634991147359 477.54338669048934 -80.31567514455833 32.366073996924854 33.62186125423477 -70.44559092404558C147.55939765302787 -173.25725584501606 628.9765246256817 -15.952604930167581 754.1060454280714 178.21677080346274C879.2355662304608 372.38614653709305 748.1810975044964 758.7557476764105 634.2435611057032 861.567412597381 "></path><path d="M740.9910428774947 186.4309362203918C861.4861369834994 373.4088535935173 735.2855374696078 745.4684695054525 625.5679098263254 844.4722949849056C515.8502821830431 943.4761204643587 334.8415242957434 848.6272158948907 214.3464301897386 661.6492985217651C93.85133608373377 474.67138114863974 -62.526169525778414 45.98211707335531 47.191458117503885 -53.02170840609773C156.90908576078613 -152.02553388555077 620.4959487714898 -0.5469811527337356 740.9910428774947 186.4309362203918C861.4861369834994 373.4088535935173 735.2855374696078 745.4684695054525 625.5679098263254 844.4722949849056 "></path><path d="M727.8760098093398 194.645162672477C843.7366772189598 374.43162168509775 722.3899469171406 732.181252369651 616.8922280293693 827.3772384075867C511.39450914159784 922.5732244455223 337.3476265576559 831.3723546671877 221.4869591480359 651.5858956545669C105.62629173841594 471.79943664194616 -44.736694424576626 59.59822118494196 60.761024463194815 -35.59776485299358C166.25874335096626 -130.79375089092923 612.0153423997198 14.858703659856417 727.8760098093398 194.645162672477C843.7366772189598 374.43162168509775 722.3899469171406 732.181252369651 616.8922280293693 827.3772384075867 "></path><path d="M714.7609157060288 202.85932808940618C825.987156419264 375.454328741522 709.4942953295176 718.8939741986933 608.216485197257 810.2821207951113C506.93867506499646 901.6702673915297 339.8536677844122 814.1174324043282 228.62742707117695 641.5224317522125C117.40118635794175 468.92743110009644 -26.94728035853103 73.21426426137248 74.3305297737295 -18.173882335045732C175.60833990599008 -109.56202893146389 603.5346749927935 30.264327437290262 714.7609157060288 202.85932808940618C825.987156419264 375.454328741522 709.4942953295176 718.8939741986933 608.216485197257 810.2821207951113 "></path><path d="M701.645913155452 211.07355454149138C808.2377271723024 376.47709683310245 696.5987352946288 705.6067570628916 599.5408339178791 793.1870642177923C502.48293254112946 880.7673713726929 342.3598005639028 796.8625711766251 235.76798654705237 631.459028885014C129.176172530202 466.055486593403 -9.157774739751119 86.83036837295913 87.9001266369986 -0.749938781941637C184.95802801374828 -88.33024593684235 595.0540991386016 45.670012249880415 701.645913155452 211.07355454149138C808.2377271723024 376.47709683310245 696.5987352946288 705.6067570628916 599.5408339178791 793.1870642177923 "></path><path d="M688.5308800872971 219.28771995842044C790.4882674077626 377.4998038895267 683.703144742162 692.3194788919336 590.8651521209232 776.0919466053169C498.02715949968433 859.8644143187003 344.8659028258153 779.6076489137658 242.90851550534967 621.3955649826595C140.9511281848841 463.1834810515534 8.631700361450726 100.44641144938959 101.46969298268954 16.673943736006265C194.3076856039284 -67.09852397737706 586.5734927668315 61.07563602731426 688.5308800872971 219.28771995842044C790.4882674077626 377.4998038895267 683.703144742162 692.3194788919336 590.8651521209232 776.0919466053169 "></path><path d="M675.4158775367204 227.5018853753495C772.7388381608012 378.5225109459509 670.8075847072731 679.0322007209757 582.1895008415452 758.9968289928415C493.5714169758172 838.9614572647074 347.372035605306 762.3527266509063 250.0490749812252 611.3321010803049C152.72611435714435 460.31147550970354 26.42120598023064 114.06245452582004 115.03928984595865 34.09782625395411C203.65737371168666 -45.866802017911766 578.0929169126396 76.4812598047481 675.4158775367204 227.5018853753495C772.7388381608012 378.5225109459509 670.8075847072731 679.0322007209757 582.1895008415452 758.9968289928415 "></path><path d="M662.3007834334093 235.71611182743482C754.9893173611052 379.5452790375314 657.91193311965 665.744983585174 573.5137580094329 741.9017724155224C489.11558289921584 818.0585612458708 349.8780768320622 745.0978654232031 257.18954290436614 601.2686982131067C164.50100897667022 457.4395310030101 44.21062004627623 127.6785586374067 128.60879515649333 51.52176980705826C213.00697026671048 -24.635019023290226 569.6122495057133 91.88694461733826 662.3007834334093 235.71611182743482C754.9893173611052 379.5452790375314 657.91193311965 665.744983585174 573.5137580094329 741.9017724155224 "></path><path d="M649.1857503652545 243.93033827952013C737.2398575965657 380.56804712911185 645.0163425671832 652.4577664493722 564.838076212477 724.8067158382032C484.6598098577706 797.1556652270342 352.3841790939747 727.8430041955 264.33007186266354 591.2052953459083C176.27596463135234 454.5675864963166 62.00009514747802 141.2946627489934 142.17836150218432 68.94571336016236C222.35662785689055 -3.4032360286686867 561.1316431339433 107.29262942992835 649.1857503652545 243.93033827952013C737.2398575965657 380.56804712911185 645.0163425671832 652.4577664493722 564.838076212477 724.8067158382032 "></path><path d="M636.0707172970997 252.1445036964492C719.490397832026 381.59075418553607 632.1207520147163 639.1704882784144 556.1623944155209 707.7115982257282C480.20403681632547 776.2527081730418 354.8902813558873 710.5880819326408 271.47060082096084 581.1418314435538C188.05092028603445 451.6955809544669 79.78957024867987 154.91070582542386 155.74792784787525 86.36959587811026C231.70628544707068 17.828485930796603 552.6510367621732 122.69825320736226 636.0707172970997 252.1445036964492C719.490397832026 381.59075418553607 632.1207520147163 639.1704882784144 556.1623944155209 707.7115982257282 "></path><path d="M622.9556994877339 260.35869963095627C701.7409533262754 382.6134917595384 619.2251767210385 625.8832406250347 547.486727877354 690.6165111308308C475.7482790336694 755.3497816366271 357.3963988765888 693.3331901873594 278.6111450380472 571.0783980587773C199.82589119950563 448.8236059301953 97.57906060867072 168.52677941943244 169.3175094523553 103.79350891363623C241.05595829603988 39.06023840784002 544.1704456491923 138.10390750237423 622.9556994877339 260.35869963095627C701.7409533262754 382.6134917595384 619.2251767210385 625.8832406250347 547.486727877354 690.6165111308308 "></path><path d="M609.8406359020009 268.57289556546345C683.9914630441577 383.63622933354065 606.3295556509935 612.5959929716547 538.8110155628198 673.5214240359335C471.29247547464615 734.4468551002124 359.90247062092317 676.0782984420781 285.7516434787664 561.0149646740009C211.60081633660963 445.9516309059236 115.36850519229444 182.14285301344097 182.8870452804681 121.2174219491622C250.40558536864182 60.29199088488343 535.689808759844 153.5095617973862 609.8406359020009 268.57289556546345C683.9914630441577 383.63622933354065 606.3295556509935 612.5959929716547 538.8110155628198 673.5214240359335 "></path><path d="M596.725587575057 276.78709149997064C666.241988020829 384.6589669075431 593.4339498397376 599.308745318275 530.1353185070748 656.4263369410363C466.83668717441185 713.5439285637977 362.4085576240467 658.823406696797 292.89215717827466 550.9515312892245C223.37575673250268 443.0796558816521 133.15796503470716 195.75892660744955 196.45659636737003 138.64133498468823C259.75522770003283 81.52374336192685 527.209187129285 168.91521609239823 596.725587575057 276.78709149997064C666.241988020829 384.6589669075431 593.4339498397376 599.308745318275 530.1353185070748 656.4263369410363 "></path><path d="M583.6105545069022 285.0012874344778C648.4925282562893 385.68170448154535 580.5383592872706 586.0214976648952 521.4596367101187 639.3312498461391C462.3809141329667 692.641002027383 364.91465988595917 641.5685149515157 300.032686136572 540.888097904448C235.1507123871848 440.2076808573804 150.947440135909 209.37500020145814 210.02616271306096 156.0652480202142C269.10488529021296 102.75549583897026 518.7285807575149 184.3208703874102 583.6105545069022 285.0012874344778C648.4925282562893 385.68170448154535 580.5383592872706 586.0214976648952 521.4596367101187 639.3312498461391 "></path><path d="M570.4955214387473 293.21548336898496C630.7430684917497 386.7044420555477 567.6427687348039 572.7342500115153 512.7839549131627 622.2361627512419C457.9251410915215 671.7380754909684 367.42076214787176 624.3136232062344 307.1732150948693 530.8246645196716C246.9256680418669 437.33570583310893 168.7369152371108 222.99107379546672 223.59572905875194 173.48916105574023C278.4545428803931 123.98724831601368 510.2479743857449 199.72652468242222 570.4955214387473 293.21548336898496C630.7430684917497 386.7044420555477 567.6427687348039 572.7342500115153 512.7839549131627 622.2361627512419 "></path><path d="M557.3804883705925 301.4296640447031C612.9936087272101 387.727164370761 554.7471781823369 559.4469870993466 504.10827311620665 605.1410603975556C453.46936805007635 650.8351336957649 369.92686440978423 607.0587162021641 314.3137440531666 520.7612158761062C258.70062369654903 434.46371555004816 186.52639033831258 236.60713213068624 237.16529540444287 190.91305883247713C287.80420047057316 145.21898553426803 501.7673680139749 215.13216371864513 557.3804883705925 301.4296640447031C612.9936087272101 387.727164370761 554.7471781823369 559.4469870993466 504.10827311620665 605.1410603975556 "></path><path d="M544.2654553024377 309.6438752379993C595.2441489626704 388.7499172035524 541.85158762987 546.1597547047559 495.4325913192506 588.0459885614475C449.0135950086312 629.9322224181392 372.4329666716967 589.803839715672 321.4542730114639 510.69779775011875C270.47557935123115 431.59175578456575 204.31586543951443 250.22322098348388 250.73486175013386 208.33698712679217C297.1538580607533 166.4507532701005 493.28676164220474 230.53783327244616 544.2654553024377 309.6438752379993C595.2441489626704 388.7499172035524 541.85158762987 546.1597547047559 495.4325913192506 588.0459885614475 "></path><path d="M531.1503764579156 317.85807117250647C577.4946434217636 389.77265477755475 528.955951301036 532.872507051376 486.7568637459274 570.9509014665502C444.5577761908189 609.0292958817245 374.93902315724205 572.5489479703906 328.594756193394 500.63436436534244C282.250489229546 428.71978076029404 222.10529476434903 263.8392945774924 264.3043823194576 225.7609001623182C306.5034698745662 187.68250574714392 484.80610949406764 245.9434875674582 531.1503764579156 317.85807117250647C577.4946434217636 389.77265477755475 528.955951301036 532.872507051376 486.7568637459274 570.9509014665502 "></path><path d="M518.0353433897608 326.07226710701366C559.745183657224 390.7953923515571 516.0603607485691 519.5852593979962 478.08118194897133 553.8558143716532C440.1020031493737 588.12636934531 377.4451254191546 555.2940562251094 335.73528515169136 490.5709309805659C294.02544488422814 425.84780573602256 239.89476986555087 277.455368171501 277.8739486651486 243.18481319784416C315.8531274647463 208.91425822418734 476.3255031222975 261.34914186247016 518.0353433897608 326.07226710701366C559.745183657224 390.7953923515571 516.0603607485691 519.5852593979962 478.08118194897133 553.8558143716532 "></path><path d="M504.9202950628169 334.2864477827317C541.9957086338952 391.8181146667703 503.1647549373131 506.2979964858273 469.40548489322623 536.7607120179667C435.6462148491395 567.2234275501062 379.951212422278 538.039149221039 342.8757988511996 480.5074823370005C305.8003852801212 422.9758154529618 257.6842297079636 291.0714265067205 291.44349975205046 260.60871097458113C325.2027697961373 230.14599544244174 467.8448814917384 276.7547808986931 504.9202950628169 334.2864477827317C541.9957086338952 391.8181146667703 503.1647549373131 506.2979964858273 469.40548489322623 536.7607120179667 "></path><path d="M491.8052772534511 342.50064371723886C524.2462641281447 392.8408522407727 490.2691796436353 493.0107488324476 460.72981835505936 519.6656249230696C431.19045706648336 546.3205010136915 382.4573299429796 520.7842574757578 350.016343068286 470.44404895222397C317.57535619359237 420.1038404286902 275.4737200679545 304.68750010072904 305.0130813565305 278.0326240101071C334.55244264510645 251.37774791948516 459.36429037875746 292.1604351937051 491.8052772534511 342.50064371723886C524.2462641281447 392.8408522407727 490.2691796436353 493.0107488324476 460.72981835505936 519.6656249230696 "></path><path d="M478.6902289265072 350.71483965174605C506.496789104816 393.863589814775 477.3735738323794 479.72350117906785 452.05412129931426 502.5705378281723C426.7346687662491 525.417574477277 384.96341694610305 503.52936573047657 357.15685676779424 460.38061556744765C329.3502965894854 417.2318654044186 293.2631799103672 318.3035736947376 318.5826324434324 295.4565370456331C343.9020849764975 272.6095003965286 450.8836687481984 307.5660894887171 478.6902289265072 350.71483965174605C506.496789104816 393.863589814775 477.3735738323794 479.72350117906785 452.05412129931426 502.5705378281723 "></path><path d="M465.57519585835234 358.9290050686751C488.74732934027634 394.88629687119925 464.4779832799125 466.4362230081099 443.3784395023582 485.475420215697C422.278895724804 504.5146174232841 387.4695192080155 486.2744434676172 364.29738572609153 450.3171516650931C341.12525224416754 414.3598598625689 311.0526550115691 331.9196167711681 332.15219878912336 312.880419563581C353.25174256667765 293.84122235599386 442.40306237642835 322.97171326615097 465.57519585835234 358.9290050686751C488.74732934027634 394.88629687119925 464.4779832799125 466.4362230081099 443.3784395023582 485.475420215697 "></path><path d="M452.4601627901975 367.1432315207604C470.9978695757367 395.90906496277967 451.5823927274456 453.1490058723082 434.7027577054022 468.3803636383779C417.8231226833588 483.6117214044476 389.97562146992806 469.01958223991403 371.4379146843889 440.2537487978948C352.90020789884966 411.48791535587543 328.84213011277086 345.5357208827548 345.7217651348143 330.30436311668507C362.6014001568577 315.0730053506154 433.9224560046583 338.37739807874107 452.4601627901975 367.1432315207604C470.9978695757367 395.90906496277967 451.5823927274456 453.1490058723082 434.7027577054022 468.3803636383779 "></path><path d="M439.34512972204266 375.3574121964785C453.24840981119706 396.931787277993 438.68680217497877 439.8617429601394 426.0270759084462 451.2852612846916C413.3673496419136 462.70877960924395 392.4817237318406 451.76467523584375 378.5784436426862 430.1903001543293C364.6751635535318 408.6159250728148 346.6316052139727 359.1517792179743 359.2913314805053 347.72826089342203C371.95105774703785 336.30474256886976 425.44184963288825 353.78303711496403 439.34512972204266 375.3574121964785C453.24840981119706 396.931787277993 438.68680217497877 439.8617429601394 426.0270759084462 451.2852612846916 "></path><path d="M426.2300661363097 383.5716081309857C435.4989195290793 397.9545248519953 425.79118110493374 426.57449530675956 417.351363593912 434.19017418979445C408.9115460828903 441.8058530728293 394.987795476175 434.5097834905625 385.71894208340535 420.12686676955286C376.45008869063577 405.7439500485432 364.42104979759637 372.76785281198283 372.8608673086181 365.152173928948C381.3006848196398 357.53649504591317 416.9612127435401 369.188691409976 426.2300661363097 383.5716081309857C435.4989195290793 397.9545248519953 425.79118110493374 426.57449530675956 417.351363593912 434.19017418979445 "></path><path d="M413.1150483269439 391.7858040654928C417.7494750233287 398.97726242599765 412.89560581125596 413.2872476533798 408.6756970557451 417.0950870948972C404.45578830023425 420.9029265364146 397.49391299687653 417.25489174528127 392.85948630049177 410.06343338477643C388.22505960410695 402.8719750242716 382.2105401575873 386.3839264059914 386.43044891309813 382.57608696447403C390.650357668609 378.7682475229566 408.4806216305591 384.59434570498803 413.1150483269439 391.7858040654928C417.7494750233287 398.97726242599765 412.89560581125596 413.2872476533798 408.6756970557451 417.0950870948972 "></path></g></svg>
