<svg xmlns="http://www.w3.org/2000/svg" version="1.1" xmlns:xlink="http://www.w3.org/1999/xlink" xmlns:svgjs="http://svgjs.dev/svgjs" viewBox="0 0 800 800"><defs><linearGradient x1="50%" y1="0%" x2="50%" y2="100%" id="uundulate-grad"><stop stop-color="hsl(205, 69%, 60%)" stop-opacity="1" offset="45%"></stop><stop stop-color="hsl(205, 69%, 80%)" stop-opacity="1" offset="100%"></stop></linearGradient></defs><g stroke-width="2" stroke="url(#uundulate-grad)" fill="none"><path d="M810.591330065716 143.7655767875143C841.0925317852734 320.04523247416046 778.2806191855398 782.4818527733951 606.0646619547072 830.9225834698618C433.84870472387456 879.3633141663283 14.455937077275848 552.5607398171993 -16.045264642281552 376.28108413055304C-46.54646636183901 200.0014284439069 287.44293646999904 33.22096687042716 459.65889370083164 -15.219763826039468C631.8748509316644 -63.66049452250604 780.0901283461585 -32.51407889913196 810.591330065716 143.7655767875143C841.0925317852734 320.04523247416046 778.2806191855398 782.4818527733951 606.0646619547072 830.9225834698618 "></path><path d="M791.9280822413509 155.4126154447224C821.0428657009284 323.6795595092483 761.0860400375466 765.0963334312451 596.6980808626608 811.3352127324179C432.3101216877751 857.5740920335902 31.980661661476404 545.6261801548762 2.865878201898852 377.35923609035035C-26.2489052576787 209.09229202582446 292.55916108180304 49.892760523866514 456.9471202566888 3.653881222693883C621.3350794315745 -42.58499807847875 762.8132987817735 -12.854328619803539 791.9280822413509 155.4126154447224C821.0428657009284 323.6795595092483 761.0860400375466 765.0963334312451 596.6980808626608 811.3352127324179 "></path><path d="M773.2648344169861 167.05965410193062C800.9931996165838 327.31388654433636 743.8914608895534 747.710814089095 587.3314997706145 791.7478419949737C430.77153865167566 835.7848699008523 49.5053862456769 538.6916204925533 21.777021046079255 378.4373880501478C-5.9513441535183915 218.18315560774204 297.67538569360704 66.56455417730592 454.2353468125458 22.527526271427234C610.7953079314847 -21.50950163445151 745.5364692173885 6.805421659524939 773.2648344169861 167.05965410193062C800.9931996165838 327.31388654433636 743.8914608895534 747.710814089095 587.3314997706145 791.7478419949737 "></path><path d="M754.6015865926211 178.70660120640434C780.9435335322389 330.9481220266898 726.69688174156 730.3252031942106 577.9649186785682 772.1603797047951C429.2329556155762 813.99555621538 67.03011082987746 531.756969277496 40.68816389025966 379.5154484572106C14.34621695064186 227.27392763692524 302.79161030541104 83.23625627801096 451.52357336840305 41.401079767426154C600.2555364313948 -0.43409674315864777 728.2596396530034 26.465080386118984 754.6015865926211 178.70660120640434C780.9435335322389 330.9481220266898 726.69688174156 730.3252031942106 577.9649186785682 772.1603797047951 "></path><path d="M735.9383387682561 190.35367038119068C760.8938674478941 334.5824795793558 709.5023025935667 712.9397143696388 568.5983375865218 752.5730394849295C427.69437257947686 792.2063646002202 84.55483541407796 524.8224401327511 59.59930673444006 380.59363093458603C34.64377805480217 236.36482173642094 307.90783491721504 99.90808044902849 448.81179992425996 60.27475533373763C589.7157649313049 20.64143021844677 710.9828100886183 46.12486118302553 735.9383387682561 190.35367038119068C760.8938674478941 334.5824795793558 709.5023025935667 712.9397143696388 568.5983375865218 752.5730394849295 "></path><path d="M717.2750909438913 202.00067852082066C740.8442013635492 338.2167760968655 692.3077234455735 695.5541645099104 559.2317564944755 732.9856382299072C426.1557895433775 770.4171119499042 102.07955999827851 517.88784995285 78.51044957862047 381.6717523768052C54.94133915896248 245.45565480076039 313.02405952901915 116.57984358488972 446.1000264801171 79.1483698648928C579.1759934312151 41.716896144895884 693.7059805242333 65.78458094477588 717.2750909438913 202.00067852082066C740.8442013635492 338.2167760968655 692.3077234455735 695.5541645099104 559.2317564944755 732.9856382299072 "></path><path d="M698.6119041546825 213.64771717802887C720.7945963143607 341.8511031319533 675.1132053327364 678.1686451677604 549.8652364375853 713.3982674924633C424.6172675424343 748.6278898171663 119.60434561763526 510.9532902905271 97.42165345795718 382.7499043366025C75.23896129827904 254.54651838267796 318.1403451759794 133.25163723832912 443.3883140711305 98.02201491362615C568.6362829662814 62.79239258892318 676.4292119950044 85.4443312241043 698.6119041546825 213.64771717802887C720.7945963143607 341.8511031319533 675.1132053327364 678.1686451677604 549.8652364375853 713.3982674924633 "></path><path d="M679.9486563303177 225.29469480008072C700.7449302300159 345.4853691318849 657.9186261847431 660.783064790454 540.498655345539 693.8108357198631C423.07868450633487 726.838606649272 137.12907020183582 504.0186695930478 116.33279630213758 383.8279952612436C95.53652240243929 263.6373209294393 323.2565697877834 149.92336985661223 440.6765406269875 116.8955989272032C558.0965114661916 83.86782799779417 659.1523824306194 105.10402046827653 679.9486563303177 225.29469480008072C700.7449302300159 345.4853691318849 657.9186261847431 660.783064790454 540.498655345539 693.8108357198631 "></path><path d="M661.2853779883746 236.94173345728893C680.695233628093 349.11969616697286 640.7240165191718 643.3975454483041 531.1320437359145 674.2234649824192C421.5400709526574 705.0493845165342 154.6537642684582 497.0841099307248 135.24390862873986 384.9061472210408C115.83405298902147 272.72818451135686 328.3727638820093 166.59516351005163 437.9647366652664 135.76924397593655C547.5567094485236 104.94332444182146 641.8755223486562 124.76377074760495 661.2853779883746 236.94173345728893C680.695233628093 349.11969616697286 640.7240165191718 643.3975454483041 531.1320437359145 674.2234649824192 "></path><path d="M642.6221606815877 248.58877211449703C660.6455980613263 352.7540232020608 623.5294678887565 626.0120261061538 521.7654931614463 654.6360942449751C420.0015184341361 683.2601623837962 172.17851937023687 490.14955026840175 154.1550819904984 385.9842991808382C136.1316446107599 281.81904809327443 333.4890190113914 183.26695716349104 435.25299373870166 154.6428890246699C537.0169684660118 126.0188208858487 624.5987233018493 144.42352102693337 642.6221606815877 248.58877211449703C660.6455980613263 352.7540232020608 623.5294678887565 626.0120261061538 521.7654931614463 654.6360942449751 "></path><path d="M623.9589128572229 260.23576499533806C640.5959319769814 356.38830446078146 606.3348887407633 608.6264609876367 512.3989120694 635.0486777311639C418.46293539803673 661.4708944746912 189.70324395443743 483.2149448297116 173.0662248346788 387.0624053642682C156.42920571492022 290.9098658988249 338.60524362319546 199.93870504056326 432.5412202945588 173.516488297036C526.4771969659221 147.0942715535088 607.3218937374643 164.08322552989466 623.9589128572229 260.23576499533806C640.5959319769814 356.38830446078146 606.3348887407633 608.6264609876367 512.3989120694 635.0486777311639 "></path><path d="M605.2956497740689 271.8828036525462C620.5462506338476 360.0226314958693 589.1402943339808 591.2409416454866 503.0323157185645 615.46130699372C416.9243371031482 639.6816723419532 207.22795327984886 476.28038516738866 191.97735242007013 388.14055732406564C176.72675156029146 300.0007294807425 343.72145297621046 216.61049869400262 429.82943159162676 192.39013334576936C515.9374102070431 168.16976799753604 590.0450489142902 183.74297580922308 605.2956497740689 271.8828036525462C620.5462506338476 360.0226314958693 589.1402943339808 591.2409416454866 503.0323157185645 615.46130699372 "></path><path d="M586.632417208493 283.52981179217625C600.4965998082919 363.6569280133791 571.9457304447767 573.8553917857585 493.66574988530726 595.8739057386978C415.3857693258378 617.8924196916371 224.75269312283848 469.3457949874876 210.8885105230396 389.2186787662848C197.02432792324078 309.09156254508196 348.8376928468035 233.2822618298639 427.11767340627284 211.26374787692453C505.3976539657424 189.24523392398515 572.7682346086942 203.40269557097338 586.632417208493 283.52981179217625C600.4965998082919 363.6569280133791 571.9457304447767 573.8553917857585 493.66574988530726 595.8739057386978 "></path><path d="M567.9691846429171 295.1768504493844C580.4469489827361 367.29125504846695 554.7511665555724 556.4698724436084 484.2991840520499 576.2865350012538C413.84720154852744 596.1031975588992 242.27743296582804 462.4112353251646 229.79966862600912 390.29683072608213C217.32190428619015 318.18242612699953 353.9539327173966 249.9540554833033 424.40591522091904 230.13739292565788C494.8578977244415 210.32073036801245 555.4914203030983 223.06244585030186 567.9691846429171 295.1768504493844C580.4469489827361 367.29125504846695 554.7511665555724 556.4698724436084 484.2991840520499 576.2865350012538 "></path><path d="M549.3059520773413 306.82385858901443C560.3972981571803 370.92555156597666 537.5566026663682 539.0843225838802 474.93261821879264 556.6991337462316C412.30863377121716 574.3139449085832 259.80217280881766 455.47664514526355 248.7108267289786 391.3749521683012C237.61948064913952 327.273259191339 359.0701725879897 266.62581861916453 421.69415703556524 249.01100745681305C484.3181414831407 231.39619629446156 538.2146059975022 242.72216561205215 549.3059520773413 306.82385858901443C560.3972981571803 370.92555156597666 537.5566026663682 539.0843225838802 474.93261821879264 556.6991337462316 "></path><path d="M530.6426889941873 318.47088198743353C540.3476168140464 374.5598633422755 520.3620082595859 521.6987879829411 465.56602186795726 537.1117477499986C410.7700354763287 552.5247075170562 277.3268821342291 448.54207022415153 267.62195431436993 392.45308886930945C257.91702649451076 336.3641075144675 364.18638194100464 283.2975970138149 418.9823683326332 267.88463724675734C473.7783547242618 252.4716774796998 520.9377611743281 262.3819006325915 530.6426889941873 318.47088198743353C540.3476168140464 374.5598633422755 520.3620082595859 521.6987879829411 465.56602186795726 537.1117477499986 "></path><path d="M511.97945642861146 330.1179053858526C520.2979659884907 378.1941751185743 503.16744437038165 504.3132533820019 456.1994560347 517.5243617537656C409.23146769901837 530.7354701255292 294.8516219772187 441.6074953030394 286.5331124173394 393.5312255703177C278.2146028574601 345.454955837596 369.30262181159776 299.9693754084652 416.2706101472794 286.7582670367016C463.23859848296104 273.54715866493797 503.66094686873214 282.0416356531309 511.97945642861146 330.1179053858526C520.2979659884907 378.1941751185743 503.16744437038165 504.3132533820019 456.1994560347 517.5243617537656 "></path><path d="M493.3162086042465 341.7648982666936C500.24829990414594 381.828456377295 485.97286522238835 486.9276882634847 446.83287494265363 497.9369452399544C407.6928846629189 508.946202216424 312.3763465614192 434.67288986434926 305.4442552615198 394.6093317537479C298.5121639616204 354.54577364314645 374.41884642340176 316.64112328553745 413.5588367031364 305.63186630906773C452.6988269828712 294.6226093325981 486.3841173043471 301.70134015609216 493.3162086042465 341.7648982666936C500.24829990414594 381.828456377295 485.97286522238835 486.9276882634847 446.83287494265363 497.9369452399544 "></path><path d="M474.65297603867066 353.4119064063236C480.19864907859017 385.46275289480474 468.7783013331841 469.54213840375655 437.4663091093963 478.3495439849322C406.1543168856086 487.156949566108 329.90108640440883 427.7382996844482 324.35541336448927 395.687453195967C318.80974032456976 363.6366067074859 379.5350862939948 333.3128864213987 410.8470785177826 324.50548084022296C442.15907074157036 315.6980752590472 469.1073029987511 321.3610599178425 474.65297603867066 353.4119064063236C480.19864907859017 385.46275289480474 468.7783013331841 469.54213840375655 437.4663091093963 478.3495439849322 "></path><path d="M455.9897282143057 365.0589450635318C460.14898299424533 389.09707992989263 451.5837221851908 452.1566190616064 428.09972801735 458.76217324748825C404.6157338495092 465.3677274333701 347.4258109886093 420.80374002212517 343.2665562086697 396.7656051557643C339.10730142873007 372.72747028940347 384.6513109057989 349.9846800748381 408.1353050736397 343.37912588895625C431.6192992414805 336.7735717030745 451.83047343436607 341.02081019717093 455.9897282143057 365.0589450635318C460.14898299424533 389.09707992989263 451.5837221851908 452.1566190616064 428.09972801735 458.76217324748825 "></path><path d="M437.3264803899408 376.7059532031618C440.09931690990055 392.7313764474024 434.3891430371975 434.7710692018783 418.73314692530363 439.1747719924661C403.07715081340973 443.578474783054 364.9505355728099 413.8691498422241 362.17769905285013 397.8437265979835C359.4048625328903 381.818303353743 389.7675355176029 366.65644321069936 405.4235316294968 362.2527404201115C421.0795277413907 357.8490376295236 434.553643869981 360.6805299589212 437.3264803899408 376.7059532031618C440.09931690990055 392.7313764474024 434.3891430371975 434.7710692018783 418.73314692530363 439.1747719924661 "></path><path d="M418.66323256557587 388.3529766015809C420.0496508255558 396.36568822370117 417.19456388920423 417.38553460093914 409.3665658332573 419.5873859962331C401.53856777731033 421.789237391527 382.4752601570104 406.934574921112 381.08884189703053 398.92186329899175C379.70242363705063 390.9091516768715 394.88376012940694 383.32822160534965 402.71175818535386 381.1263702100557C410.5397562413008 378.9245188147618 417.27681430559596 380.34026497946064 418.66323256557587 388.3529766015809C420.0496508255558 396.36568822370117 417.19456388920423 417.38553460093914 409.3665658332573 419.5873859962331 "></path></g></svg>
