<svg xmlns="http://www.w3.org/2000/svg" version="1.1" xmlns:xlink="http://www.w3.org/1999/xlink" xmlns:svgjs="http://svgjs.dev/svgjs" viewBox="0 0 800 800" opacity="0.75"><defs><linearGradient x1="50%" y1="0%" x2="50%" y2="100%" id="uundulate-grad"><stop stop-color="hsl(180, 69%, 40%)" stop-opacity="1" offset="45%"></stop><stop stop-color="hsl(180, 69%, 60%)" stop-opacity="1" offset="100%"></stop></linearGradient></defs><g stroke-width="2" stroke="url(#uundulate-grad)" fill="none"><path d="M1540.5196717529702 583.2496462822032C1450.3228847286605 962.3223298882197 845.3126987224475 1068.8339387602236 493.6233650596364 1236.6021491982683C141.9340313968255 1404.370359636313 94.49842572858279 1440.9941175218878 -147.5891298285229 1388.537056384816C-389.6766853856285 1336.0799952477446 -557.2498154460698 1206.177750149623 -668.3969016144712 984.8082557403268C-779.5439877828725 763.4387613310305 -783.6297258300267 551.4513703277071 -681.0951434368465 325.96348322019685C-578.5605610436662 100.47559611268684 -511.1607157549482 91.82269248486341 -176.23090612720443 -97.53360237572099C158.69890350053947 -286.8898972363055 568.9115723846205 -724.7765755810129 926.5679427763243 -582.9467321106115C1284.224313168028 -441.11688864021016 1630.71645877728 204.1769626761868 1540.5196717529702 583.2496462822032C1450.3228847286605 962.3223298882197 845.3126987224475 1068.8339387602236 493.6233650596364 1236.6021491982683 "></path><path d="M1525.7077299456314 580.8698243426109C1436.6823297657934 955.0194860836141 839.529418902518 1060.14782730793 492.40747918338 1225.7372298182072C145.285539464242 1391.3266323284852 98.46598062285943 1427.4747569947672 -140.47758070623195 1375.6989563919433C-379.4211420353231 1323.9231557891194 -544.817997679395 1195.7079528351287 -654.5216151962586 977.213386924655C-764.2252327131223 758.7188210141808 -768.2579092271965 549.4845130109006 -667.0549447871745 326.9250400216697C-565.8519803471524 104.365567032439 -499.32745772452176 95.82503877640534 -168.74738588415119 -91.07208342365197C161.8326859562194 -277.9692056237094 566.7179175820656 -710.1690439899141 919.729400046604 -570.1811465386088C1272.740882511143 -430.19324908730357 1614.7331301254699 206.72016260160763 1525.7077299456314 580.8698243426109C1436.6823297657934 955.0194860836141 839.529418902518 1060.14782730793 492.40747918338 1225.7372298182072 "></path><path d="M1510.8957576207144 578.4899718854406C1423.0417442853482 947.7166117614304 833.7461085650107 1051.4616853380576 491.1915627895455 1214.8722799205684C148.63701701408036 1378.2828745030797 102.43350499955795 1413.955365950068 -133.36606210151888 1362.860825881492C-369.1656292025957 1311.7662858129156 -532.3862104302983 1185.2381250030567 -640.6463592956243 969.6184875914048C-748.9065081609502 753.9988501797527 -752.8861231419446 547.5176251765156 -653.0147766550807 327.88656630556443C-553.1434301682169 108.25550743461281 -487.4942302116733 99.82735455036914 -161.26389615867618 -84.6105949891612C164.96643789432096 -269.0485445286914 564.5242322619326 -695.5615429163935 912.8908267993061 -557.4155914841842C1261.2574213366797 -419.2696400519751 1598.7497709560812 209.26333200945032 1510.8957576207144 578.4899718854406C1423.0417442853482 947.7166117614304 833.7461085650107 1051.4616853380576 491.1915627895455 1214.8722799205684 "></path><path d="M1496.0838463309542 576.1100278755355C1409.4012198400592 940.4136458865125 827.9628592626593 1042.775451815451 489.97570743086726 1204.0072384701953C151.98855559907474 1365.2390251249399 106.40109041141295 1400.4358833526348 -126.25448246164967 1350.0226038183064C-358.9100553347122 1299.609324283978 -519.9543621460454 1174.7682056182512 -626.7710423598337 962.0234967054205C-733.5877225736219 749.2787877925905 -737.5142760215364 545.5506457893966 -638.9745474878307 328.84800103672455C-540.434818954125 112.14535628405247 -475.66094166366884 103.82957877159879 -153.78034539804491 -78.14919810740457C168.100250867579 -260.1279749864078 562.3306079769559 -680.9541333956072 906.0523145871643 -544.6501279824942C1249.7740211973733 -408.3461225693811 1582.7664728218492 211.80640986455865 1496.0838463309542 576.1100278755355C1409.4012198400592 940.4136458865125 827.9628592626593 1042.775451815451 489.97570743086726 1204.0072384701953 "></path><path d="M1481.2719045236154 573.7303280062558C1395.760664877192 933.1109241522192 822.1795794427301 1034.0894624334699 488.7598215546109 1193.142441160447C155.34006366649123 1352.1954198874246 110.3686453056896 1386.9166448958267 -119.14293333935859 1337.1846258957457C-348.6545119844068 1287.4526068956648 -507.5225443793705 1164.2985303740688 -612.8957559416212 954.4287499600609C-718.2689675038719 744.558969546053 -722.1424594187063 543.5839105429025 -624.9343488381588 329.8096799085097C-527.7262382576114 116.0354492741169 -463.82768363324226 107.83204713345299 -146.29682515499167 -71.68755708502306C171.23403332325915 -251.20716130349922 560.1369531744008 -666.3464797341959 899.2137718574445 -531.884420340179C1238.2905905404878 -397.42236094616203 1566.7831441700391 214.3497318602922 1481.2719045236154 573.7303280062558C1395.760664877192 933.1109241522192 822.1795794427301 1034.0894624334699 488.7598215546109 1193.142441160447 "></path><path d="M1466.4599321986984 571.3503534787726C1382.1200793967469 925.8079277597233 816.3962691052229 1025.4031983932853 487.54390516077615 1182.2773691924958C158.69154121632937 1339.1515399917062 114.33616968238812 1373.3971317808155 -112.03141473464564 1324.3463733149824C-338.3989991516794 1275.2956148491494 -495.0907571302739 1153.8285804716847 -599.0205000409868 946.8337285564987C-702.9502429516997 739.8388766413125 -706.7706733334543 541.6169006382052 -610.8941807060651 330.7710841220917C-515.0176880786757 119.9252676059782 -451.9944561203939 111.8342408371044 -138.81333542951654 -65.22619072084467C174.36778526136072 -242.28662227879386 557.9432678542678 -651.7391007309877 892.3751986101463 -519.118987356067C1226.807129366025 -386.4988739811461 1550.799785000651 216.8927791978224 1466.4599321986984 571.3503534787726C1382.1200793967469 925.8079277597233 816.3962691052229 1025.4031983932853 487.54390516077615 1182.2773691924958 "></path><path d="M1451.648112461672 568.9705010216023C1368.4796465041918 918.5050534375396 810.613111355606 1016.7170564234134 486.32814135483227 1171.412419294857C162.04317135405836 1326.1077821663011 118.30384664697749 1359.8777407361167 -104.91974354204206 1311.5082428045312C-328.1433337310615 1263.1387448729456 -482.6588172932866 1143.3587526396127 -585.1450915524618 939.2388292232488C-687.6313658116371 735.1189058068846 -691.3987346603117 539.6500128038203 -596.8538599860806 331.7326104059862C-502.3089853118495 123.81520800815224 -440.16107601965496 115.8365566110682 -131.3296931161509 -58.76470228635367C177.50168978735314 -233.36596118377577 555.7497351220252 -637.1315996574671 885.536777950739 -506.3534323016424C1215.323820779453 -375.5752649458177 1534.8165784191528 219.4359486056651 1451.648112461672 568.9705010216023C1368.4796465041918 918.5050534375396 810.613111355606 1016.7170564234134 486.32814135483227 1171.412419294857 "></path><path d="M1436.8361706543337 566.5907095995883C1354.8390915413247 911.2022401505121 804.8298315356767 1008.0309754886975 485.11225547857566 1160.5475304323743C165.39467942147485 1313.0640853760515 122.27140154125391 1346.3584107265742 -97.80819441975098 1298.6701733292361C-317.8877903807561 1250.981935931898 -470.22699952661173 1132.8889858426967 -571.2698051342493 931.6439909251549C-672.3126107418868 730.3989960076128 -676.0269180574817 537.6831860045918 -582.8136613364087 332.69419772503716C-489.6004046153357 127.7052094454823 -428.3278179892285 119.83893342018825 -123.84617287309777 -52.30315281670664C180.63547224303284 -224.44523905360165 553.5560803194705 -622.5240375487901 878.6982352210191 -493.5878162120616C1203.840390122568 -364.65159487533305 1518.8332497673423 221.97917904866426 1436.8361706543337 566.5907095995883C1354.8390915413247 911.2022401505121 804.8298315356767 1008.0309754886975 485.11225547857566 1160.5475304323743 "></path><path d="M1422.024228846995 564.2107350721051C1341.1985365784576 903.8992437580162 799.0465517157475 999.3447114485132 483.8963696023193 1149.6824584644232C168.74618748889134 1300.020205480333 126.23895643553078 1332.838897611563 -90.6966452974599 1285.8319207484728C-307.63224703045057 1238.8249438853827 -457.7951817599369 1122.4190359403126 -557.3945187160368 924.0489695215927C-656.9938556721368 725.6789031028725 -660.6551014546515 535.7161760998945 -568.7734626867368 333.6556019386194C-476.89182391882207 131.59502777734383 -416.49455995880203 123.84112712383967 -116.36265263004452 -45.84178645252814C183.76925469871276 -215.52470002889606 551.3624255169154 -607.916658545582 871.8596924912993 -480.82238322794956C1192.3569594656828 -353.72810791031714 1502.8499211155322 224.52222638619423 1422.024228846995 564.2107350721051C1341.1985365784576 903.8992437580162 799.0465517157475 999.3447114485132 483.8963696023193 1149.6824584644232 "></path><path d="M1407.2121039341878 561.8309436500911C1327.5577985101218 896.5964304709887 793.2630887903492 990.6586305137973 482.68030062059415 1138.8175696019407C172.09751245083908 1286.9765086900843 130.2063282243389 1319.3195676020205 -83.58527928063756 1272.9938512731778C-297.3768867856139 1226.6681349443356 -445.3635470987309 1111.9492691433968 -543.5194154032931 916.4541312234987C-641.6752837078553 720.9589933036009 -645.2834679572902 533.7493493006659 -554.7334471425336 334.61718925767013C-464.18342632777706 135.485029214674 -404.6614850338443 127.84350393295972 -108.87931549246014 -39.380236982881115C186.90285404892393 -206.60397789872195 549.1685876088918 -593.3090964369051 865.0209666561104 -468.05676713836874C1180.8733457033295 -342.8044378398324 1486.8664093582533 227.0654568291934 1407.2121039341878 561.8309436500911C1327.5577985101218 896.5964304709887 793.2630887903492 990.6586305137973 482.68030062059415 1138.8175696019407 "></path><path d="M1392.4003147147396 559.4510606753422C1313.9173961351453 889.2935256312269 787.4799615583106 981.9724580263471 481.46456733222817 1127.9525891867236C175.4491731061462 1273.9327203471003 134.17403570650595 1305.8001460397431 -76.47357757045586 1260.1556902451484C-287.1211908474179 1214.5112344505537 -432.93157674416545 1101.4794107937464 -529.64397639719 908.8592013726704C-626.3563760502145 716.2389919515947 -629.9114987665695 531.7824309487032 -540.6930959049711 335.5786850239865C-451.4746930433728 139.3749390992698 -392.8280744155272 131.8457891893454 -101.39564266151638 -32.91877906596824C190.03678909249447 -197.6833473212821 546.9750853942273 -578.7016258809625 858.1825765142812 -455.29124260152236C1169.390067634335 -331.8808593220822 1470.8832332943339 229.60859571945798 1392.4003147147396 559.4510606753422C1313.9173961351453 889.2935256312269 787.4799615583106 981.9724580263471 481.46456733222817 1127.9525891867236 "></path><path d="M1377.5883729074012 557.0712082181719C1300.2768411722782 881.9906513090432 781.6966817383814 973.286316056475 480.2486814559718 1117.0876392890848C178.80068117356245 1260.8889625216943 138.14159060078282 1292.2807549950444 -69.36202844816478 1247.3175597346976C-276.8656474971124 1202.3543644743502 -420.4997589774906 1091.0095829616746 -515.7686899789775 901.2643020394207C-611.0376209804643 711.5190211171669 -614.5396821637394 529.8155431143182 -526.6528972552992 336.540211307881C-438.766112346859 143.26487950144372 -380.99481638510065 135.8481049633093 -93.91212241846324 -26.457290631477463C193.1705715481744 -188.76268622626412 544.7814305916725 -564.0941248074419 851.3440337845614 -442.5256875470978C1157.90663697745 -320.9572502867537 1454.8999046425233 232.15176512730068 1377.5883729074012 557.0712082181719C1300.2768411722782 881.9906513090432 781.6966817383814 973.286316056475 480.2486814559718 1117.0876392890848 "></path><path d="M1362.7763090297494 554.6913252434233C1286.6361641390986 874.6877464692811 775.9132798481394 964.600143569025 479.0326735094029 1106.2226588738677C182.15206717066621 1247.8451741787103 142.1090234247472 1278.761333432767 -62.2506013961862 1234.4793987066678C-266.61022621711936 1190.1974639805685 -408.0680632811284 1080.5397246120244 -501.8935256310775 893.6693721885924C-595.7189879810267 706.7990197651607 -599.1679876312218 527.8486247623555 -512.6128206759397 337.5017070741974C-426.05765372065775 147.1547893860394 -369.1616804249868 139.85039021969487 -86.42872424572238 -19.995832714564585C196.30423193354181 -179.84205564882427 542.5876537188051 -549.4866542514994 844.5053689845288 -429.7601630102514C1146.423084250253 -310.03367176900343 1438.9164539204007 234.69490401756548 1362.7763090297494 554.6913252434233C1286.6361641390986 874.6877464692811 775.9132798481394 964.600143569025 479.0326735094029 1106.2226588738677 "></path><path d="M1347.9644892927236 552.3114117510966C1272.995731246544 867.3848111119416 770.1301220985226 955.9139405639967 477.8169097034588 1095.3576479410729C185.5036973083952 1234.8013553181488 146.07670038933634 1265.241881352912 -55.138930203582504 1221.6412071610607C-256.3545607965016 1178.040532969209 -395.63612344414105 1070.0698357447961 -488.0181171425525 886.0744118201862C-580.4001108409641 702.0789878955766 -583.7960489580792 525.8816758928142 -498.5724999559554 338.46317232293586C-413.3489509538315 151.04466875305707 -357.3283003242477 143.85264495850254 -78.94508193235674 -13.534405315229947C199.43813645953423 -170.92145558896254 540.3941209865627 -534.8792142131349 837.6669483251214 -416.9946689909831C1134.93977566368 -299.1101237688313 1422.9332473389031 237.2380123902517 1347.9644892927236 552.3114117510966C1272.995731246544 867.3848111119416 770.1301220985226 955.9139405639967 477.8169097034588 1095.3576479410729 "></path><path d="M1333.1525474853847 549.9316203290823C1259.3551762836769 860.0819978249142 764.3468422785934 947.227859629281 476.6010238272024 1084.4927590785903C188.8552053758117 1221.7576585278994 150.04425528361298 1251.7225513433698 -48.02738108129154 1208.803137685766C-246.09901744619606 1165.8837240281619 -383.2043056774662 1059.6000689478806 -474.14283072434 878.4795735220928C-565.0813557712138 697.359078096305 -568.424232355249 523.9148490935859 -484.53230130628344 339.4247596419864C-400.64037025731784 154.93467019038724 -345.49504229382126 147.8550217676226 -71.46156168930361 -7.072855845582808C202.57191891521416 -162.00073345878832 538.2004661840078 -520.2716521044581 830.8284055954016 -404.2290529014023C1123.4563450067956 -288.1864536983466 1406.9499186870926 239.78124283325087 1333.1525474853847 549.9316203290823C1259.3551762836769 860.0819978249142 764.3468422785934 947.227859629281 476.6010238272024 1084.4927590785903 "></path><path d="M1318.340605678046 547.551767871912C1245.7146213208098 852.7791235027303 758.5635624586639 938.541717659409 475.38513795094605 1073.6278091809513C192.20671344322818 1208.7139007024937 154.01181017788986 1238.203160298671 -40.91583195900034 1195.9650071753147C-235.84347409589054 1153.726854051958 -370.77248791079137 1049.1302411158083 -460.26754430612755 870.8846741888426C-549.7626007014637 692.6391072618769 -553.0524157524189 521.9479612592008 -470.49210265661156 340.3862859258811C-387.9317895608041 158.82461059256116 -333.6617842633948 151.8573375415864 -63.97804144625036 -0.6113674110919192C205.70570137089408 -153.08007236377034 536.0068113814527 -505.6641510309374 823.9898628656817 -391.46349784697776C1111.9729143499105 -277.2628446630182 1390.966590035283 242.32441224109357 1318.340605678046 547.551767871912C1245.7146213208098 852.7791235027303 758.5635624586639 938.541717659409 475.38513795094605 1073.6278091809513 "></path><path d="M1303.528541800395 545.1718848971634C1232.0739442876297 845.4762186629687 752.7801605684222 929.8555451719587 474.16913000437717 1062.7628287657344C195.55809944033217 1195.6701123595099 157.979243001854 1224.683738736394 -33.80440490702176 1183.1268461472855C-225.58805281589764 1141.5699535581766 -358.34079221442903 1038.6603827661584 -446.39237995822754 863.2897443380145C-534.4439677020259 687.9191059098707 -537.6807212199014 519.9810429072381 -456.4520260772521 341.3477816921975C-375.22333093460287 162.71452047715695 -321.82864830328083 155.85962279797218 -56.49464327350972 5.8500905058208446C208.8393617562615 -144.1594417863305 533.8130345085854 -491.05668047499483 817.1511980656494 -378.6979733101314C1100.489361622713 -266.33926614526786 1374.9831393131599 244.86755113135825 1303.528541800395 545.1718848971634C1232.0739442876297 845.4762186629687 752.7801605684222 929.8555451719587 474.16913000437717 1062.7628287657344 "></path><path d="M1288.7166915457906 542.7920019224148C1218.4334808774975 838.1733138232069 746.9969723012273 921.1693726845087 472.95333568085516 1051.8978483505175C198.90969906048304 1182.6263240165263 161.94688944886502 1211.164317174117 -26.692764231996307 1170.2886851192563C-215.33241791285786 1129.4130530643952 -345.90888289501993 1028.1905244165082 -432.51700198728065 855.6948144871865C-519.1251210795415 683.1991045578648 -522.3088130643368 518.014124555275 -442.4117358748458 342.30927745851386C-362.5146586853548 166.60443036175286 -309.99529872012 159.86190805435785 -49.01103147772221 12.311548422733608C211.97323576467556 -135.23881120889064 531.6194712587649 -476.4492099190523 810.3127468886637 -365.93244877328493C1089.0060225185625 -255.41568762751757 1358.9999022140837 247.41069002162283 1288.7166915457906 542.7920019224148C1218.4334808774975 838.1733138232069 746.9969723012273 921.1693726845087 472.95333568085516 1051.8978483505175 "></path><path d="M1273.9047497384518 540.4121189476662C1204.7929259146304 830.870408983445 741.2136924812978 912.4832001970583 471.73744980459855 1041.0328679353004C202.2612071278993 1169.5825356735425 165.9144443431419 1197.6448956118402 -19.58121510970534 1157.450524091227C-205.07687456255235 1117.2561525706135 -333.4770651283451 1017.7206660668578 -418.6417155690682 848.0998846363582C-503.8063660097913 678.4791032058586 -506.93699646150685 516.0472062033123 -428.37153722517394 343.27077322483046C-349.806077988841 170.49434024634854 -298.1620406896934 163.86419331074353 -41.527511234668964 18.773006339646372C215.10701822035549 -126.31818063145079 529.4258164562098 -461.84173936310975 803.4742041589438 -353.16692423643855C1077.5225918616777 -244.49210910976728 1343.0165735622736 249.9538289118874 1273.9047497384518 540.4121189476662C1204.7929259146304 830.870408983445 741.2136924812978 912.4832001970583 471.73744980459855 1041.0328679353004 "></path><path d="M1259.0926858608009 538.0323275256519C1191.1522488814503 823.5675956964178 735.4302905910563 903.7971192623427 470.5214418580297 1030.1679790728178C205.6125931250033 1156.538838883293 169.88187716710604 1184.1255656022977 -12.469788057726646 1144.612454615932C-194.82145328255956 1105.0993436295664 -321.04536943198275 1007.2508992699422 -404.7665512211682 840.5050463382645C-488.4877330103536 673.759193406587 -491.56530192898924 514.0803794040835 -414.3314606458145 344.2323605438812C-337.0976193626398 174.3843416836787 -286.32890472957956 167.86657011986358 -34.04411306192833 25.234555809293624C218.2406786057229 -117.39745850127656 527.2320395833424 -447.23417725443284 796.6355393589113 -340.40130814685773C1066.0390391344804 -233.56843903928262 1327.033122840151 252.49705935488646 1259.0926858608009 538.0323275256519C1191.1522488814503 823.5675956964178 735.4302905910563 903.7971192623427 470.5214418580297 1030.1679790728178 "></path><path d="M1244.2807135358835 535.6523529981691C1177.5116634010053 816.2645993039214 729.6469802535487 895.1108552221581 469.30552546419517 1019.3029071048663C208.96407067484142 1143.4949589875748 173.84940154380467 1170.6060524872862 -5.3582694530136905 1131.7742020351682C-184.56594044983217 1092.9423515830501 -308.61358218288615 996.7809493675577 -390.89129532053386 832.910024934702C-473.16900845818157 669.0391005018464 -476.19351584373726 512.1133694993864 -400.29129251372075 345.1937647574632C-324.38906918370424 178.27416001554002 -274.4956772167311 171.86876382351488 -26.560623336453318 31.6959221734719C221.37443054382447 -108.47691947657108 525.0383542632094 -432.62679825122467 789.7969661116133 -327.6358751627457C1054.5555779600172 -222.6449520742667 1311.0497636707623 255.04010669241666 1244.2807135358835 535.6523529981691C1177.5116634010053 816.2645993039214 729.6469802535487 895.1108552221581 469.30552546419517 1019.3029071048663 "></path><path d="M1229.4688937988576 533.272592093733C1163.8712305084505 808.9618165344723 723.8638225039319 886.4248048050206 468.0897616582513 1008.4380487599619C212.31570081257053 1130.4512927149037 177.81707850839393 1157.0867529953216 1.75340173958989 1118.9361630774515C-174.31027502921415 1080.7855731595814 -296.1816423458988 986.31121308822 -377.01588683200885 825.3152171541865C-457.8501313181189 664.3192212201529 -460.82157717059465 510.14657321773575 -386.2509717937363 346.1553825940921C-311.680366416878 182.16419197044831 -262.66229711599215 175.87117115021306 -19.07698102308757 38.15750216069728C224.5083350698169 -99.55616682881873 522.8448215309668 -418.01920562496963 782.958545452206 -314.8702285555868C1043.0722693734447 -211.72125148620393 1295.0665570892647 257.58336765299384 1229.4688937988576 533.272592093733C1163.8712305084505 808.9618165344723 723.8638225039319 886.4248048050206 468.0897616582513 1008.4380487599619 "></path><path d="M1214.6569519915188 530.8927091189844C1150.2306755455832 801.6589116947105 718.0805426840027 877.7386323175704 466.8738757819947 997.573068344745C215.66720887998702 1117.40750437192 181.78463340267058 1143.567331433045 8.86495086188097 1106.0980020494223C-164.05473167890875 1068.6286726657997 -283.74982457922397 975.8413547385701 -363.14060041379634 817.7202873033584C-442.53137624836876 659.599219868147 -445.44976056776454 508.17965486577305 -372.21077314406443 347.1168783604086C-298.97178572036427 186.05410185504422 -250.82903908556568 179.87345640659885 -11.59346078003432 44.61896007760993C227.64211752549693 -90.63553625137888 520.6511667284121 -403.4117350690271 776.1200027224861 -302.1047040187404C1031.58883871656 -200.79767296845364 1279.0832284374546 260.1265065432584 1214.6569519915188 530.8927091189844C1150.2306755455832 801.6589116947105 718.0805426840027 877.7386323175704 466.8738757819947 997.573068344745 "></path><path d="M1199.8450101841802 528.5127956266576C1136.5901205827163 794.3559763373705 712.2972628640732 869.052429312542 465.6579899057383 986.70805741195C219.0187169474034 1104.3636855113577 185.75218829694734 1130.0478793531897 15.976499984172051 1093.2598105038148C-153.79918832860335 1056.47174165444 -271.31800681254913 965.3714658713416 -349.2653139955839 810.1253269349522C-427.2126211786186 654.8791879985624 -430.0779439649345 506.21270599623176 -358.1705744943925 348.0783436091468C-286.26320502385056 189.94398122206178 -238.99578105513922 183.8757111454064 -4.109940536981185 51.08038747694468C230.77589998117685 -81.71493619151715 518.457511925857 -388.8042950306627 769.281459992766 -289.3392099994721C1020.105408059675 -189.87412496828148 1263.0998997856443 262.66961491594486 1199.8450101841802 528.5127956266576C1136.5901205827163 794.3559763373705 712.2972628640732 869.052429312542 465.6579899057383 986.70805741195 "></path><path d="M1185.0330683768414 526.1329431694871C1122.9495656198492 787.053102015187 706.513983044144 860.3662873426701 464.4421040294819 975.8431075143112C222.37022501481977 1091.3199276859523 189.7197431912241 1116.528488308491 23.08804910646313 1080.4216799933636C-143.54364497829783 1044.3148716782366 -258.88618904587435 954.9016380392698 -335.39002757737137 802.5304276017021C-411.8938661088684 650.1592171641346 -414.7061273621044 504.2458181618472 -344.1303758447206 349.03986989304144C-273.5546243273368 193.8339216242358 -227.16252302471275 187.8780269193703 3.3735797060719506 57.54187591143557C233.90968243685666 -72.79427509649918 516.2638571233022 -374.196793957142 762.4429172630462 -276.57365494504756C1008.6219774027902 -178.95051593295307 1247.116571133834 265.2127843237877 1185.0330683768414 526.1329431694871C1122.9495656198492 787.053102015187 706.513983044144 860.3662873426701 464.4421040294819 975.8431075143112 "></path><path d="M1170.2211265695028 523.7530296771606C1109.3090106569819 779.7501666578471 700.7307032242147 851.680084337642 463.22621815322555 964.9780965815162C225.72173308223626 1078.2761088253903 193.68729808550086 1103.009036228636 30.199598228754212 1067.5834884477563C-133.28810162799243 1032.157940666877 -246.45437127919956 944.4317491720415 -321.51474115915886 794.9354672332959C-396.5751110391182 645.4391852945505 -399.3343107592743 502.27886929230635 -330.0901771950487 350.0013351417798C-260.8460436308231 197.72380099125348 -215.3292649942863 191.88028165817786 10.857099949125086 64.0033033107702C237.04346489253658 -63.87367503663745 514.0702023207473 -359.58935391877765 755.6043745333261 -263.80816092577925C997.1385467459054 -168.02696793278085 1231.1332424820237 267.7558926964741 1170.2211265695028 523.7530296771606C1109.3090106569819 779.7501666578471 700.7307032242147 851.680084337642 463.22621815322555 964.9780965815162 "></path><path d="M1155.409184762164 521.3731772199901C1095.668455694115 772.4472923356634 694.9474234042855 842.9939423677697 462.01033227696917 954.1131466838772C229.07324114965274 1065.2323509999846 197.6548529797775 1089.489645183937 37.31114735104529 1054.745357937305C-123.03255827768703 1020.0010706906733 -234.02255351252472 933.9619213399694 -307.6394547409464 787.3405679000459C-381.25635596936803 640.7192144601224 -383.96249415644417 500.3119814579213 -316.0499785453768 350.9628614256743C-248.13746293430938 201.6137413934273 -203.49600696385983 195.88259743214167 18.340620192178335 70.4647917452611C240.17724734821638 -54.953013941619474 511.8765475181922 -344.981852845257 748.7658318036065 -251.04260587135468C985.6551160890203 -157.10335889745244 1215.1499138302133 270.29906210431693 1155.409184762164 521.3731772199901C1095.668455694115 772.4472923356634 694.9474234042855 842.9939423677697 462.01033227696917 954.1131466838772 "></path><path d="M1140.597151402091 518.9932942452415C1082.0278091785133 765.1443874959016 689.1640520316216 834.3077698803197 460.7943548479782 943.2481662686603C232.42465766433475 1052.188562657001 201.6223163213199 1075.9702236216601 44.422604920602 1041.9071969092759C-112.77710648011589 1007.8441701968918 -221.59082729858426 923.4920629903193 -293.76425987546827 779.7456380492179C-365.9376924523523 635.9992131081165 -368.5907691063485 498.3450631059584 -302.00987144843924 351.9243571919908C-235.42897379053 205.5036512780232 -191.66284048616762 199.88488268852734 25.82404888249721 76.92624966217386C243.31093825116193 -46.032383364179736 509.68280116290316 -330.37438228931444 741.927197521152 -238.2770813345083C974.1715938794011 -146.17978037970215 1199.1664936256689 272.8422009945816 1140.597151402091 518.9932942452415C1082.0278091785133 765.1443874959016 689.1640520316216 834.3077698803197 460.7943548479782 943.2481662686603 "></path><path d="M1125.7852706299088 516.6135028232272C1068.3873152508024 757.8415742088741 683.3808332468484 825.6216889456039 459.57853000687805 932.3832774061777C235.77622676690737 1039.1448658667514 205.5899322507529 1062.4508936121174 51.53421507804933 1029.0691274339808C-102.52150209465424 995.6873612558445 -209.15894849675323 913.0222961934035 -279.88891242209957 772.1507997511239C-350.61887634744585 631.2793033088446 -353.21889146836213 496.37823630672983 -287.9696117636111 352.88594451104154C-222.72033205886004 209.39365271535326 -179.8295214205849 203.8872594976474 33.307630160706594 83.387799131821C246.4447817419981 -37.11166123400551 507.4892073955043 -315.7668201806375 735.0887158265884 -225.51146524492748C962.6882242576723 -135.2561103092175 1183.183226009015 275.38543143758045 1125.7852706299088 516.6135028232272C1068.3873152508024 757.8415742088741 683.3808332468484 825.6216889456039 459.57853000687805 932.3832774061777 "></path><path d="M1110.97332882257 514.2336503660567C1054.7467602879353 750.5386998866904 677.5975534269194 816.935546975732 458.36264413062145 921.518327508539C239.12773483432386 1026.101108041346 209.55748714502954 1048.9315025674186 58.64576420034041 1016.2309969235298C-92.26595874434884 983.5304912796412 -196.72713073007844 902.5524683613314 -266.01362600388705 764.555900417874C-335.30012127769567 626.5593324744168 -337.847074865532 494.411348472345 -273.9294131139392 353.84747079493616C-210.01175136234633 213.28359311752718 -167.99626339015845 207.8895752716112 40.79115040375973 89.84928756631189C249.57856419767802 -28.191000138987533 505.2955525929492 -301.15931910711686 728.2501730968684 -212.74591019050297C951.2047936007875 -124.33250127388908 1167.1998973572045 277.92860084542326 1110.97332882257 514.2336503660567C1054.7467602879353 750.5386998866904 677.5975534269194 816.935546975732 458.36264413062145 921.518327508539 "></path><path d="M1096.1613870152312 511.8537063561521C1041.1062053250682 743.2357340117726 671.8142736069899 808.2493134531255 457.14675825436507 910.6532860581658C242.47924290174024 1013.0572586632061 213.5250420393063 1035.4120199699855 65.75731332263149 1003.3927748603444C-82.01041539404332 971.3735297507033 -184.2953129634036 892.0825489765252 -252.13833958567454 756.9609095318897C-319.9813662079455 621.8392700872544 -322.4752582627019 492.44436908522584 -259.8892144642673 354.8089055260964C-197.30317066583257 217.17344196696672 -156.16300535973198 211.89179949284073 48.27467064681298 96.31068444806851C252.71234665335783 -19.27043059670393 503.10189779039433 -286.55190958633057 721.4116303671485 -199.98044668881278C939.7213629439027 -113.40898379129504 1151.2165687053941 280.4716787005316 1096.1613870152312 511.8537063561521C1041.1062053250682 743.2357340117726 671.8142736069899 808.2493134531255 457.14675825436507 910.6532860581658 "></path><path d="M1081.3494452078926 509.47391493413784C1027.4656503622011 735.9329207247451 666.0309937870607 799.5632325184097 455.9308723781087 899.788397195683C245.83075096915672 1000.0135618729564 217.49259693358306 1021.8926899604428 72.86886244492257 990.5547053850494C-71.75487204373792 959.216720809656 -171.86349519672882 881.6127821796094 -238.2630531674621 749.366071233796C-304.6626111381953 617.1193602879828 -307.10344165987186 490.4775422859973 -245.84901581459536 355.77049284514715C-184.59458996931886 221.0634434042969 -144.32974732930552 215.89417630196078 55.758190889866114 102.77223391771554C255.84612910903775 -10.349708466529705 500.90824298783946 -271.94434747765365 714.5730876374287 -187.21483059923202C928.2379322870179 -102.48531372081038 1135.233240053584 283.01490914353064 1081.3494452078926 509.47391493413784C1027.4656503622011 735.9329207247451 666.0309937870607 799.5632325184097 455.9308723781087 899.788397195683 "></path><path d="M1066.5374728829756 507.0940319593892C1013.8250648817557 728.6300158849833 660.2476834495533 790.8770600309595 454.7149559842742 888.9234167804661C249.1822285189951 986.9697735299728 221.4601213102817 1008.3732683981661 79.98038104963553 977.7165443570202C-61.49935921101064 947.0598203158745 -159.4317079476321 871.1429238299593 -224.3877972668277 741.7711413829679C-289.3438865860233 612.3993589359766 -291.7316555746199 488.51062393403436 -231.80884768250155 356.73198861146363C-171.88603979038328 224.95335328889269 -132.49651981645718 219.89646155834657 63.24168061534124 109.23369183462842C258.97988104713954 -1.4290778890898537 498.71455766770623 -257.3368769217111 707.7345143901307 -174.44930606238557C916.7544711125547 -91.56173520306004 1119.2498808841958 285.55804803379533 1066.5374728829756 507.0940319593892C1013.8250648817557 728.6300158849833 660.2476834495533 790.8770600309595 454.7149559842742 888.9234167804661 "></path><path d="M1051.725531075637 504.71408794948456C1000.1845099188886 721.3270500100652 654.464403629624 782.1908265083532 453.4990701080178 878.0583753300932C252.53373658641146 973.925924151833 225.42767620455834 994.853785800733 87.0919301719266 964.8783222938348C-51.243815860705126 934.9028587869366 -146.99989018095732 860.6730044451529 -210.5125108486152 734.1761504969836C-274.0251315162731 607.6792965488144 -276.35983897178977 486.5436445469153 -217.76864903282967 357.69342334262376C-159.17745909386952 228.84320213833223 -120.66326178603066 223.898685779576 70.72520085839437 115.69508871638482C262.11366350281946 7.491491653193748 496.5209028651516 -242.72946740092482 700.8959716604106 -161.68384256069544C905.2710404556699 -80.63821772046606 1103.2665522323855 288.10112588890365 1051.725531075637 504.71408794948456C1000.1845099188886 721.3270500100652 654.464403629624 782.1908265083532 453.4990701080178 878.0583753300932 "></path><path d="M1036.9135587507203 502.3342660098921C986.5439244384431 714.0242062054594 648.6810932921167 773.5047150560592 452.2831537141831 867.1934559500323C255.88521413624972 960.8821968440052 229.39520058125697 981.3344252736119 94.20344877663956 952.0402223009617C-40.98830302797785 922.7460193283111 -134.5681029318606 850.2032071306589 -196.63725494798086 726.5812816813116C-258.70640696410106 602.9593562319644 -260.9880528865378 484.5767872301086 -203.72848090073586 358.6549801440964C-146.46890891493393 232.73317305808428 -108.83003427318232 227.90103207111792 78.20869058386938 122.15660766845394C265.24741544092115 16.41218326578985 494.32721754501836 -228.12193580982603 694.0573984131127 -148.91825698869275C893.7875792812067 -69.71457816755947 1087.283193062997 290.6443258143245 1036.9135587507203 502.3342660098921C986.5439244384431 714.0242062054594 648.6810932921167 773.5047150560592 452.2831537141831 867.1934559500323 "></path><path d="M1022.1016474609596 499.95435251756544C972.9033999931544 706.7212708481197 642.8978439897653 764.8185120510311 451.0672983555048 856.3284450172373C259.23675272124433 947.8383779834435 233.36278599311186 967.8149731937569 101.31502841650877 939.2020307553544C-30.73272916009421 910.5890883169516 -122.1362546476077 839.7333182634306 -182.76193801219023 718.9863213129056C-243.38762137677276 598.2393243623803 -245.6162057661296 482.60983836056755 -189.68825173348586 359.61644539283475C-133.7602977008421 236.62305242510195 -96.99674572517768 231.90328680992548 85.69224134450064 128.61803506778858C268.3812284141791 25.332783325651576 492.1335932600416 -213.5144957714616 687.2188862009707 -136.1527629694245C882.3041791419 -58.791030167387305 1071.2998949287648 293.1874341870109 1022.1016474609596 499.95435251756544C972.9033999931544 706.7212708481197 642.8978439897653 764.8185120510311 451.0672983555048 856.3284450172373 "></path><path d="M1007.289705653621 497.5745610955512C959.2628450302873 699.4184575610925 637.1145641698361 756.1324311163153 449.85141247924844 845.4635561547545C262.5882607886608 934.7946811931938 237.3303408873885 954.2956431842144 108.42657753879985 926.3639612800591C-20.477185809788807 898.4322793759043 -109.70443688093286 829.2635514665149 -168.88665159397772 711.3914830148117C-228.06886630702257 593.5194145631085 -230.2443891632995 480.643011561339 -175.64805308381392 360.5780327118855C-121.05171700432834 240.51305386243212 -85.16348769475121 235.90566361904553 93.1757615875539 135.07958453743572C271.515010869859 34.2535054558258 489.93993845748673 -198.9069336627847 680.3803434712509 -123.38714687984367C870.8207484850152 -47.867360096902644 1055.3165662769547 295.73066463000987 1007.289705653621 497.5745610955512C959.2628450302873 699.4184575610925 637.1145641698361 756.1324311163153 449.85141247924844 845.4635561547545 "></path><path d="M992.4777638462822 495.1947086383808C945.62229006742 692.1155832389088 631.3312843499066 747.4462891464432 448.63552660299194 834.5986062571155C265.9397688560771 921.7509233677881 241.29789578166526 940.7762521395157 115.53812666109093 913.5258307696081C-10.221642459483292 886.275409399701 -97.27261911425808 818.7937236344428 -155.01136517576526 703.7965836815615C-212.75011123727245 588.7994437286807 -214.8725725604694 478.6761237269542 -161.60785443414204 361.5395589957801C-108.34313630781463 244.40299426460592 -73.33022966432475 239.90797939300933 100.65928183060714 141.5410729719266C274.6487933255389 43.17416655084378 487.74628365493163 -184.29943258926403 673.541800741531 -110.62159182541916C859.3373178281304 -36.94375106157423 1039.3332376251444 298.2738340378528 992.4777638462822 495.1947086383808C945.62229006742 692.1155832389088 631.3312843499066 747.4462891464432 448.63552660299194 834.5986062571155 "></path><path d="M977.6658220389436 492.81479514605405C931.9817351045529 684.8126478815689 625.5480045299773 738.7600861414148 447.41964072673557 823.7335953243205C269.29127692349357 908.7071045072264 245.26545067594202 927.2568000596605 122.64967578338201 900.6876392240008C0.03390089082211034 874.1184783883411 -84.84080134758324 808.3238347672145 -141.13607875755275 696.2016233131556C-197.43135616752227 584.0794118590966 -199.50075595763929 476.70917485741313 -147.5676557844701 362.5010242445185C-95.63455561130093 248.2928736316237 -61.49697163389828 243.91023413181688 108.14280207366028 148.00250037126125C277.78257578121884 52.094766610705506 485.55262885237676 -169.6919925508996 666.7032580118112 -97.85609780615084C847.8538871712453 -26.02020306140207 1023.3499089733341 300.81694241053924 977.6658220389436 492.81479514605405C931.9817351045529 684.8126478815689 625.5480045299773 738.7600861414148 447.41964072673557 823.7335953243205 "></path><path d="M962.8538802316048 490.4349732064617C918.3411801416858 677.5098040769633 619.7647247100481 730.0739746891213 446.2037548504791 812.8686759442598C272.64278499091006 895.6633771993988 249.23300557021878 913.7374395325398 129.7612249056731 887.8495392311279C10.289444241127512 861.961638929716 -72.40898358090845 797.8540374527206 -127.26079233934024 688.6067544974837C-182.11260109777209 579.3594715422466 -184.12893935480923 474.74231754060656 -133.52745713479823 363.4625810459911C-82.92597491478716 252.18284455137575 -49.66371360347182 247.91258042335892 115.62632231671341 154.46401932333026C280.91635823689876 61.01545822330155 483.3589740498219 -155.08446095980082 659.8647152820911 -85.09051223414815C836.3704565143605 -15.096563508495535 1007.366580321524 303.36014233596006 962.8538802316048 490.4349732064617C918.3411801416858 677.5098040769633 619.7647247100481 730.0739746891213 446.2037548504791 812.8686759442598 "></path><path d="M948.0419689418443 488.05509023171305C904.7006556963968 670.2068992372015 613.981475407697 721.3878022016709 444.9878994918008 802.003695529043C275.99432357590456 882.6195888564152 253.20059098207366 900.2180179702627 136.8728045455423 875.0113782030985C20.545018109011153 849.8047384359343 -59.97713529665549 787.3841791030709 -113.38547540354966 681.0118246466554C-166.79381551044378 574.6394701902406 -168.757092234401 472.77539918864363 -119.48722796754816 364.4240768123076C-70.21736370069533 256.07275443597155 -37.83042505546723 251.9148656797447 123.10987307734467 160.92547724024303C284.0501712101567 69.9360888007414 481.16534976484513 -140.47699040385828 653.0262030699494 -72.32498769730176C824.8870563750538 -4.172984990745249 991.3832821872918 305.90328122622464 948.0419689418443 488.05509023171305C904.7006556963968 670.2068992372015 613.981475407697 721.3878022016709 444.9878994918008 802.003695529043 "></path><path d="M933.2299660993492 485.6752072569644C891.0600396983734 662.9039943974399 608.1981345526115 712.7016297142209 443.7719525803881 791.138715113826C279.3457706081647 869.5758005134312 257.16808484119406 886.6985964079859 143.98429263267712 862.1732171750693C30.800500424160305 837.6478379421528 -47.54537856513696 776.9143207534205 -99.5102500204934 673.4168947958274C-151.47512147584985 569.9194688382344 -153.38533666672714 470.8084808366807 -105.44709035303254 365.38557257862396C-57.50884403933787 259.9626643205672 -25.99722806019696 255.91715093613038 130.5933322852418 167.3869351571558C287.18389263068036 78.8567193781812 478.9716339271339 -125.86951984791574 646.187599305073 -59.55946316045532C813.4035646830125 6.750593527005094 975.3998925003254 308.4464201164893 933.2299660993492 485.6752072569644C891.0600396983734 662.9039943974399 608.1981345526115 712.7016297142209 443.7719525803881 791.138715113826 "></path><path d="M918.4180853271669 483.2953853173723C877.4195457706624 655.6011505928341 602.4149157678385 704.0155182619269 442.55612773928783 780.2737957337654C282.6973397107374 856.5320732056039 261.13570077062695 873.1792358808652 151.09590279012446 849.3351171821962C41.05610480962196 825.4909984835272 -35.11349976330587 766.4445234389264 -85.63490256712464 665.8220259801556C-136.15630537094347 565.1995285213845 -138.01345902874078 468.841623519874 -91.40683066820435 366.3471293800967C-44.80020230766786 263.8526352403193 -14.163908994614246 259.9194972276723 138.07691356345117 173.8484541092248C290.3177361215164 87.7774109907773 476.77804015973527 -111.26198825681695 639.3491176105094 -46.79387758845269C801.920195061284 17.674233079911573 959.4166248836711 310.98962004191026 918.4180853271669 483.2953853173723C877.4195457706624 655.6011505928341 602.4149157678385 704.0155182619269 442.55612773928783 780.2737957337654 "></path><path d="M903.6061435198283 480.91547182504553C863.7789908077953 648.2982152354944 596.631635947909 695.3293152568986 441.34024186303145 769.4087848009704C286.0488477781539 843.4882543450422 265.1032556649038 859.6597838010102 158.20745191241554 836.4969256365889C51.31164815992747 813.3340674721678 -22.681681996631085 755.9746345716985 -71.75961614891219 658.2270656117494C-120.83755030119329 560.4794966518004 -122.64164242591073 466.87467465033296 -77.36663201853241 367.30859462883507C-32.09162161115415 267.74251460733694 -2.3306509641877824 263.92175196647986 145.5604338065043 180.30988150855944C293.45151857719634 96.69801105063902 474.5843853571803 -96.65454821845253 632.5105748807896 -34.02838356918437C790.4367644043991 28.59778108008379 943.433296231861 313.5327284145967 903.6061435198283 480.91547182504553C863.7789908077953 648.2982152354944 596.631635947909 695.3293152568986 441.34024186303145 769.4087848009704 "></path><path d="M888.7942017124897 478.53561936787503C850.1384358449282 640.9953409133107 590.8483561279797 686.6431732870265 440.12435598677496 758.5438349033316C289.4003558455703 830.4444965196362 269.0708105591805 846.1403927563113 165.31900103470662 823.6587951261379C61.567191510232874 801.1771974959643 -10.249864229956245 745.5048067396265 -57.884329730699676 650.6321662784994C-105.51879523144311 555.7595258173725 -107.26982582308062 464.90778681594816 -63.326433368860535 368.27012091272957C-19.383040914640446 271.632455009511 9.502607066238738 267.92406774044366 153.04395404955744 186.77136994305033C296.58530103287626 105.618672145657 472.3907305546253 -82.04704714493187 625.6720321510697 -21.26282851475986C778.9533337475141 39.5213901154122 927.4499675800507 316.0758978224394 888.7942017124897 478.53561936787503C850.1384358449282 640.9953409133107 590.8483561279797 686.6431732870265 440.12435598677496 758.5438349033316 "></path><path d="M873.9822293875727 476.1557363931264C836.4978503644829 633.692436073549 585.0650457904721 677.9570007995765 438.90843959294034 747.6788544881147C292.75183339540854 817.4007081766526 273.0383349358791 832.6209711940342 172.43051963941969 810.8206340981085C71.82270434296015 789.0202970021826 2.181923019140413 735.0349483899763 -44.00907383006529 643.0372364276712C-90.20007067927105 551.0395244653664 -91.89803973782864 462.9408684639852 -49.286265236766724 369.23161667904606C-6.674490735704808 275.52236489410666 21.335834579087077 271.92635299682934 160.52744377503257 193.2328278599632C299.71905297097805 114.53930272309685 470.1970452344923 -67.43957658898933 618.8334589037718 -8.497303977913418C767.4698725730509 50.44496863316249 911.4666084106625 318.619036712704 873.9822293875727 476.1557363931264C836.4978503644829 633.692436073549 585.0650457904721 677.9570007995765 438.90843959294034 747.6788544881147 "></path><path d="M859.1702875802339 473.77591445353414C822.8572954016158 626.3895922689433 579.2817659705429 669.2708893472827 437.69255371668396 736.8139351080538C296.10334146282503 804.3569808688248 277.00588983015587 819.1016106669135 179.54206876171077 797.9825341052356C82.07824769326567 776.8634575435572 14.613740785815253 724.5651510754824 -30.133787411852836 635.4423676119994C-74.88131560952093 546.3195841485166 -76.52622313499853 460.97401114717854 -35.246066587094845 370.1931734805187C6.034089960808899 279.4123358138587 33.16909260951354 275.92869928837126 168.01096401808582 199.6943468120321C302.852835426658 123.45999433569295 468.0033904319373 -52.832044997890534 611.9949161740519 4.268281594089217C755.9864419161663 61.368608186069025 895.4832797588524 321.1622366381249 859.1702875802339 473.77591445353414C822.8572954016158 626.3895922689433 579.2817659705429 669.2708893472827 437.69255371668396 736.8139351080538 "></path><path d="M844.3583457728953 471.3960009612074C809.2167404387487 619.0866569116034 573.4984861506136 660.5846863422544 436.4766678404276 725.9489241752588C299.4548495302415 791.3131620082631 280.9734447244325 805.5821585870585 186.65361788400185 785.1443425596281C92.33379104357107 764.7065265321976 27.045558552490036 714.0952622082541 -16.258500993640325 627.8474072435932C-59.56256053977074 541.5995522789324 -61.15440653216848 459.0070622776375 -21.20586793742291 371.15463872925693C18.742670657322606 283.3022151808764 45.002350639940005 279.9309540271789 175.49448426113895 206.15577421136686C305.9866178823378 132.38059439555468 465.80973562938243 -38.22460495952612 605.1563734443318 17.033775613357534C744.5030112592813 72.29215618624119 879.4999511070419 323.70534501081147 844.3583457728953 471.3960009612074C809.2167404387487 619.0866569116034 573.4984861506136 660.5846863422544 436.4766678404276 725.9489241752588 "></path><path d="M829.5463429304004 469.01611798645877C795.5761244407252 611.7837520718417 567.7151452955281 651.8985138548042 435.26072092901484 715.0839437600416C302.80629656250164 778.2693736652793 284.940938583553 792.0627370247817 193.76510597113668 772.3061815315987C102.58927335872022 752.5496260384161 39.477315284008625 703.6254038586039 -2.3832756105841213 620.2524773927651C-44.24386650517681 536.8795509269263 -45.78265096449462 457.04014392567456 -7.1657303229072795 372.1161344955734C31.45119031868012 287.19212506547217 56.83554763521022 283.9332392835646 182.97794346903584 212.61723212827962C309.12033930286145 141.30122497299453 463.6160197916712 -23.617134403583634 598.3177696794556 29.79930015020392C733.0195195672402 83.21573470399153 863.5165614200755 326.24848390107604 829.5463429304004 469.01611798645877C795.5761244407252 611.7837520718417 567.7151452955281 651.8985138548042 435.26072092901484 715.0839437600416 "></path><path d="M814.7344621582179 466.63632656444463C781.9356305130143 604.4809387848143 561.931926510755 643.2124329200884 434.0448960879147 704.2190548975591C306.15786566507427 765.2256768750299 288.90855451298603 778.5434070152389 200.876716128584 759.4681120563039C112.84487774418199 740.3928170973688 51.90919408583966 693.1556370616881 11.49207184278464 612.6576390946714C-28.92505040027038 532.1596411276546 -30.410773326508263 455.073317126446 6.8745293619209065 373.07772181462417C44.159832050350076 291.08212650280234 68.66886670079299 287.93561609268465 190.46152474724522 219.07878159792676C312.2541827936975 150.22194710316876 461.42242602427245 -9.009572294906718 591.479287984892 42.564916239784736C721.5361499455114 94.13940477447619 847.5332938034214 328.791714344075 814.7344621582179 466.63632656444463C781.9356305130143 604.4809387848143 561.931926510755 643.2124329200884 434.0448960879147 704.2190548975591 "></path><path d="M799.9224593157228 464.256443589696C768.295014514991 597.1780339450524 556.1485856556694 634.5262604326382 432.82894917650196 693.3540744823422C309.5093126973345 752.1818885320461 292.8760483721064 765.023985452962 207.98820421571884 746.6299510282747C123.10036005933114 728.2359166035872 64.34095081735825 682.685778712038 25.3672972258409 605.0627092438433C-13.606356365676447 527.4396397756484 -15.039017758834405 453.10639877448307 20.914666976436536 374.03921758094066C56.86835171170753 294.972036387398 80.5020636960632 291.93790134907044 197.94498395514222 225.54023951483953C315.3879042142212 159.1425776806086 459.22871018656133 5.597898261035823 584.6406842200158 55.33044077663112C710.0526582534703 105.06298329222648 831.5499041164549 331.33485323433956 799.9224593157228 464.256443589696C768.295014514991 597.1780339450524 556.1485856556694 634.5262604326382 432.82894917650196 693.3540744823422 "></path><path d="M785.1105480259623 461.8765606149475C754.6544900697018 589.8751291052907 550.3653363533183 625.8400879451882 431.6130938178237 682.4890940671253C312.8608512823291 739.1381001890622 296.8436337839614 751.5045638906852 215.09978385558804 733.7917900002453C133.35593392721472 716.0790161098057 76.77279910161116 672.2159203623879 39.24261416163148 597.4677793930151C1.712429221651803 522.7196384236424 0.3328293615737721 451.13948042252036 34.9548961436866 375.00071334725703C69.57696292579942 298.86194627199393 92.33535224406779 295.9401866054561 205.42853471577348 232.0016974317523C318.5217171874792 168.06320825804846 457.0350859015846 20.205368816978364 577.802172007874 68.09596531347756C698.5692581141636 115.98656180997676 815.5666059822229 333.87799212460425 785.1105480259623 461.8765606149475C754.6544900697018 589.8751291052907 550.3653363533183 625.8400879451882 431.6130938178237 682.4890940671253 "></path><path d="M770.2986062186237 459.49667764019887C741.0139351068347 582.5722242655289 544.5820565333889 617.153915457738 430.3972079415672 671.6241136519083C316.2123593497455 726.0943118460787 300.81118867823807 737.9851423284082 222.21133297787912 720.953628972216C143.61147727752018 703.922115616024 89.204616868286 661.7460620127378 53.11790057984399 589.872849542187C17.031184291401985 517.9996370716364 15.70464596440388 449.1725620705573 48.995094793358476 375.9622091135735C82.28554362231313 302.7518561565897 104.16861027449431 299.9424718618418 212.91205495882673 238.46315534866505C321.65549964315915 176.98383883548826 454.8414310990297 34.812839372920905 570.9636292781541 80.861489850324C687.0858274572788 126.91014032772705 799.5832773304126 336.42113101486893 770.2986062186237 459.49667764019887C741.0139351068347 582.5722242655289 544.5820565333889 617.153915457738 430.3972079415672 671.6241136519083 "></path><path d="M755.4866033761286 457.11679466545024C727.3733191088113 575.2693194257671 538.7987156783034 608.4677429702879 429.1812610301545 660.7591332366914C319.5638063820056 713.0505235030948 304.77868253735846 724.4657207661312 229.32282106501395 708.1154679441868C153.86695959266933 691.7652151222425 101.63637359980453 651.2762036630876 66.99312596290025 582.2779196913589C32.34987832599592 513.2796357196303 31.07640153207774 447.2056437185944 63.03523240787416 376.92370487989C94.99406328367058 306.6417660411855 116.00180726976453 303.94475711822747 220.39551416672361 244.92461326557782C324.7892210636828 185.9044694129281 452.64771526131835 49.420309928863446 564.1250255132779 93.62701438717039C675.6023357652375 137.83371884547734 783.599887643446 338.9642699051335 755.4866033761286 457.11679466545024C727.3733191088113 575.2693194257671 538.7987156783034 608.4677429702879 429.1812610301545 660.7591332366914 "></path><path d="M740.6747226039463 454.736972725858C713.7328251811005 567.9664756211616 533.0154968935303 599.7816315179939 427.96543618905434 649.8942138566306C322.91537548457836 700.0067961952673 308.7462984667916 710.9463602390105 236.43443122246128 695.2773679513137C164.12256397813104 679.608375663617 114.06825240163562 640.8064063485938 80.86847341626896 574.6830508756871C47.66869443090235 508.55969540278045 46.4482791700641 445.2387864017877 77.07549209270235 377.88526168136264C107.70270501534054 310.53173696093745 127.83512633534724 307.9471034097694 227.879095444933 251.38613221764683C327.9230645545189 194.8251610255242 450.45412149391973 64.02784151996224 557.2865438187143 106.39259995917308C664.1189661435089 148.75735839838387 767.6166200267921 341.5074698305543 740.6747226039463 454.736972725858C713.7328251811005 567.9664756211616 533.0154968935303 599.7816315179939 427.96543618905434 649.8942138566306 "></path><path d="M725.8627197614514 452.3571202686876C700.0922091830771 560.6636012989779 527.2321560384448 591.0954895481219 426.7494892776417 639.0292639589919C326.2668225168386 686.9630383698618 312.713792325912 697.4269691943118 243.54591930959612 682.4392374408627C174.37804629328025 667.4515056874136 126.50000913315415 630.3365785165217 94.74369879932522 567.0881515424371C62.98738846549628 503.8397245683525 61.8200347377379 443.271898567403 91.11562970721798 378.84678796525714C120.41122467669805 314.4216773631115 139.66832333061745 311.9494191837333 235.36255465283 257.8476206521377C331.05678597504254 203.7458221205422 448.2604056562086 78.6353425934829 550.4479400538381 119.1581550135976C652.6354744514678 159.68096743371228 751.6332303398256 344.05063923839714 725.8627197614514 452.3571202686876C700.0922091830771 560.6636012989779 527.2321560384448 591.0954895481219 426.7494892776417 639.0292639589919 "></path><path d="M711.0508389892689 449.97720677636084C686.4517152553663 553.360665941638 521.4489372536717 582.4092865430937 425.53366443654147 628.1642530261968C329.6183916194112 673.9192195092999 316.681408255345 683.9075171144566 250.65752946704345 669.6010458952553C184.63365067874196 655.2945746760539 138.93188793498524 619.8666896492934 108.61904625269392 559.4931911740309C78.30620457040266 499.1196926987683 77.19191237572426 441.30494969786196 105.15588939204616 379.8082532139955C133.119866408368 318.31155673012904 151.50164239620022 315.95167392254086 242.84613593103938 264.3090480514724C334.1906294658786 212.6664221804039 446.06681188880987 93.24278263184732 543.6094583592744 131.9236490328659C641.1521048297391 170.60451543388444 735.6499627231715 346.5937476110836 711.0508389892689 449.97720677636084C686.4517152553663 553.360665941638 521.4489372536717 582.4092865430937 425.53366443654147 628.1642530261968 "></path><path d="M696.238866664352 447.5973238016122C672.8111297749209 546.0577611018763 515.6656269161642 573.7231140556435 424.31774804270685 617.2992726109796C332.9698691692495 660.8754311663159 320.6489326320436 670.3880955521797 257.7690480717564 656.7628848672259C194.8891635114693 643.1376741822723 151.3636751840819 609.3968312996433 122.4943021533283 551.8982613232026C93.62492912257471 494.3996913467622 92.56369846097624 439.338031345899 119.19605752413992 380.769748980312C145.82841658730365 322.20146661472484 163.33486990904856 319.95395917892654 250.3296256565145 270.7705059683852C337.3243814039804 221.58705275784376 443.87312656867675 107.85025318778986 536.7708851119764 144.6891735697123C629.6686436552761 181.5280939516348 719.6666035537831 349.1368865013483 696.238866664352 447.5973238016122C672.8111297749209 546.0577611018763 515.6656269161642 573.7231140556435 424.31774804270685 617.2992726109796 "></path><path d="M681.4269248570133 445.21745608565266C659.1705748120538 538.7548715209035 509.882347096235 565.0369568269825 423.1018621664505 606.4343074545518C336.32137723666597 647.8316580821213 324.61648752632027 656.8686892486918 264.8805971940475 643.9247390979858C205.1447068617747 630.9807889472798 163.79549295075674 598.9269882087822 136.36958857154082 544.3033467311637C108.9436841923249 489.6797052535452 107.93551506380635 437.37112825272516 133.23625617381185 381.7312600054174C158.53699728381736 326.0913917581097 175.16812793947503 323.9562596941014 257.81314589956764 277.231979144087C340.4581638596603 230.50769859407262 441.6794717661219 122.45773900252146 529.9323423822565 157.4547133653478C618.1852129983912 192.45168772817414 703.6832749019729 351.6800406504019 681.4269248570133 445.21745608565266C659.1705748120538 538.7548715209035 509.882347096235 565.0369568269825 423.1018621664505 606.4343074545518 "></path><path d="M666.6149830496746 442.83760362848216C645.5300198491867 531.4519971987199 504.09906727630573 556.3508148571104 421.8859762901941 595.569357556913C339.67288530408234 634.7879002567156 328.58404242059703 643.3492982039929 271.99214631633856 631.0866085875347C215.40025021208015 618.8239189710764 176.22731071743152 588.4571603767102 150.24487498975327 536.7084473979137C124.26243926207508 484.95973441911724 123.3073316666364 435.40424041834035 147.27645482348373 382.6927862893119C171.24557798033106 329.9813321602836 187.0013859699015 327.9585754680652 265.2966661426209 283.6934675785779C343.59194631534024 239.4283596890906 439.485816963567 137.06524007604213 523.0937996525365 170.2202684197723C606.7017823415063 203.37529676350255 687.6999462501627 354.2232100582446 666.6149830496746 442.83760362848216C645.5300198491867 531.4519971987199 504.09906727630573 556.3508148571104 421.8859762901941 595.569357556913 "></path><path d="M651.8030717599141 440.45779694767907C631.8894954038976 524.1491686529034 498.3158179739545 547.6647186636055 420.6701209315157 584.7044534356414C343.02442388907696 621.7441882076773 332.5516278324519 629.8299529356614 279.10372595620777 618.2485238534507C225.65582407996374 606.6670947712402 188.6591590016845 577.9873783210055 164.1201919255439 529.1135938410309C139.58122484940338 480.2398093610565 138.67917878704463 433.43739836032273 161.3166839907338 383.65435834957384C183.9541891944229 333.8713183388247 198.83467451790614 331.9609370183962 272.78021690325215 290.15500178943597C346.72575928859817 248.34906656047576 437.29219267859014 151.67278692592998 516.2552874403948 182.98586925056406C595.2183822021996 214.29895157519815 671.7166481159305 356.7664252424546 651.8030717599141 440.45779694767907C631.8894954038976 524.1491686529034 498.3158179739545 547.6647186636055 420.6701209315157 584.7044534356414 "></path><path d="M636.9911299525754 438.0778834553523C618.2489404410305 516.8462332955635 492.53253815402513 538.9785156585773 419.45423505525923 573.8394425028464C346.37593195649333 608.7003693471154 336.51918272672856 616.3105008558061 286.2152750784989 605.4103323078433C235.91136743026914 594.5101637598804 201.09097676835927 567.5174894537772 177.99547834375642 521.5186334726247C154.8999799191535 475.51977749147227 154.05099538987474 431.4704494907817 175.35688264040567 384.6158235983121C196.66276989093666 337.7611977058424 210.6679325483326 335.96319175720373 280.26373714630535 296.61642918877067C349.8595417442781 257.2696666203375 435.09853787603515 166.2802269642944 509.41674471067495 195.75136326983232C583.7349515453145 225.2224995753703 655.7333194641203 359.30953361514105 636.9911299525754 438.0778834553523C618.2489404410305 516.8462332955635 492.53253815402513 538.9785156585773 419.45423505525923 573.8394425028464 "></path><path d="M622.1791728864476 435.6980004806037C604.6083702193744 509.54332845580166 486.7492430753068 530.2923431711272 418.2383339202138 562.9744620876294C349.72742476512076 595.6565810041316 340.48672236221626 602.7910792935293 293.3268089420009 592.572171279814C246.16689552178553 582.3532632660988 213.52277927624505 557.047631104127 191.8707495031798 513.9237036217967C170.21871973011463 470.7997761394662 169.4227967339158 429.50353113881874 189.39706603128855 385.57731936462847C209.3713353286613 341.6511075904382 222.50117531997 339.96547701358946 287.7472421305695 303.07788710568343C352.99330894116883 266.19029719777734 432.9048678146912 180.88769752023694 502.5781867221659 208.51688780667877C572.2515056296406 236.1460780931206 639.7499755535209 361.85267250540574 622.1791728864476 435.6980004806037C604.6083702193744 509.54332845580166 486.7492430753068 530.2923431711272 418.2383339202138 562.9744620876294 "></path><path d="M607.367246337898 433.31811750585507C590.9678305152962 502.24042361603995 480.96597851416664 521.606170683677 417.0224633027465 552.1094816724124C353.0789480913262 582.6127926611478 344.4542925152821 589.2716577312523 300.43837332308107 579.7340102517848C256.42245413088006 570.1963627723172 225.9546123017089 546.5777727544769 205.74605118018138 506.3287737709685C185.53749005865387 466.0797747874601 184.7946285955349 427.5366127868558 203.4372799397495 386.53881513094484C222.07993128396407 345.541017475034 234.33444860918553 343.96776226997514 295.2307776324117 309.5393450225962C356.1271066556378 275.1109277752172 430.7112282709253 195.49516807617948 495.739659251235 221.28241234352515C560.7680902315448 247.06965661087088 623.7666621604998 364.3958113956703 607.367246337898 433.31811750585507C590.9678305152962 502.24042361603995 480.96597851416664 521.606170683677 417.0224633027465 552.1094816724124 "></path><path d="M592.5552587541921 430.93823453110656C577.3272297760618 494.93751877627824 475.1826529178701 512.919998196227 415.8065316501228 541.2445012571955C356.4304103823755 569.5690043181639 348.42180163319165 575.7522361689754 307.54987666900496 566.8958492237555C266.67795170481827 558.0394622785357 238.38638429201654 536.1079144048267 219.6212918220267 498.7338439201403C200.85619935203687 461.35977343545403 200.16639942199782 425.569694434893 217.47743281305424 387.50031089726133C234.78846620411065 349.4309273596298 246.16766086324486 347.9700475263609 302.7142520990977 316.00080293950896C359.26084333495055 284.03155835265704 428.5175276920032 210.10263863212202 488.901070745148 234.0479368803716C549.2846137982928 257.99323512862117 607.7832877323224 366.93895028593494 592.5552587541921 430.93823453110656C577.3272297760618 494.93751877627824 475.1826529178701 512.919998196227 415.8065316501228 541.2445012571955 "></path><path d="M577.7433169468534 428.55838207393606C563.6866748131947 487.63464445409454 469.3993730979407 504.2338562263549 414.5906457738663 530.3795513595567C359.7819184497919 556.5252464927584 352.3893565274683 562.2328451242765 314.66142579129604 554.0577187133043C276.93349505512373 545.8825923023321 250.81820205869133 525.6380865727547 233.49657824023916 491.1389445868904C216.174954421787 456.6398026010261 215.53821602482793 423.6028066005081 231.51763146272617 388.46183718115594C247.49704690062435 353.3208677618037 258.0009188936713 351.9723633003247 310.19777234215087 322.46229137399985C362.39462579063047 292.952219447675 426.32387288944824 224.7101397056427 482.06252801542803 246.81349193479616C537.8011831414078 268.9168441639496 591.799959080512 369.4821196937777 577.7433169468534 428.55838207393606C563.6866748131947 487.63464445409454 469.3993730979407 504.2338562263549 414.5906457738663 530.3795513595567 "></path><path d="M562.9313751395148 426.1785296167657C550.0461198503276 480.33177013191084 463.6160932780115 495.5477142564828 413.3747598976099 519.5146014619179C363.13342651720836 543.4814886673528 356.35691142174505 548.7134540795778 321.7729749135871 541.2195882028532C287.1890384054292 533.7257223261287 263.25001982536617 515.1682587406827 247.37186465845167 483.54404525364043C231.49370949153717 451.9198317665981 230.91003262765804 421.6359187661234 245.55783011239805 389.42336346505044C260.20562759713806 357.2108081639776 269.8341769240978 355.97467907428853 317.68129258520406 328.92377980849074C365.52840824631033 301.872880542693 424.13021808689336 239.31764077916336 475.22398528570807 259.57904698922067C526.317752484523 279.84045319927804 575.8166304287018 372.02528910162044 562.9313751395148 426.1785296167657C550.0461198503276 480.33177013191084 463.6160932780115 495.5477142564828 413.3747598976099 519.5146014619179 "></path><path d="M548.1194638497541 423.7986771595952C536.4055954050386 473.02889580972715 457.83284397566024 486.8615722866108 412.15890453893155 508.6496515642789C366.48496510220286 530.4377308419471 360.32449683359994 535.1940630348789 328.8845545534563 528.381457692402C297.44461227331277 521.5688523499252 275.6818681096191 504.6984309086107 261.2471815942423 475.9491459203904C246.81249507886548 447.19986093217017 246.28187974806622 419.6690309317386 259.5980592796481 390.38488974894506C272.91423881122995 361.1007485661515 281.6674654721024 359.97699484825233 325.1648433458354 335.3852682429816C368.6622212195683 310.7935416377109 421.9365938019165 253.92514185268396 468.38547307356635 272.34460204364524C514.8343523452162 290.76406223460646 559.8333322944698 374.5684585094632 548.1194638497541 423.7986771595952C536.4055954050386 473.02889580972715 457.83284397566024 486.8615722866108 412.15890453893155 508.6496515642789 "></path><path d="M533.3075220424155 421.41879418484655C522.7650404421715 465.72599096996544 452.049564155731 478.1753997991607 410.9430186626752 497.784671149062C369.8364731696193 517.3939424989633 364.29205172787664 521.6746414726019 335.9961036757474 515.5432966643727C307.70015562361823 509.4119518561437 288.1136858762939 494.22857255896065 275.12246801245476 468.3542160695623C262.13125014861566 442.4798595801641 261.6536963508963 417.70211257977564 273.63825792932 391.34638551526143C285.62281950774366 364.9906584507473 293.5007235025289 363.97928010463806 332.64836358888857 341.8467261598944C371.79600367524824 319.71417221515077 419.7429389993616 268.5326124086265 461.5469303438464 285.1101265804916C503.35092168833125 301.68764075235674 543.8500036426594 377.11159739972777 533.3075220424155 421.41879418484655C522.7650404421715 465.72599096996544 452.049564155731 478.1753997991607 410.9430186626752 497.784671149062 "></path><path d="M518.4955649762877 419.0389569864652C509.12447022051526 458.4231319065708 446.26626907701257 469.48927308807765 409.7271175276296 486.91973651021226C373.18796597824667 504.35019993234675 368.2595913633643 508.15526568669213 343.1076375392494 502.7051814127108C317.95568371513457 497.2550971387293 300.54548838417963 483.75875998567767 288.9977391718782 460.75933199510143C277.4499899595768 437.7599040045252 277.02549769493737 415.7352400041799 287.67844132020286 392.3079270579451C298.3313849454683 368.88061411171026 305.3339662741663 367.9816111373909 340.13186857315264 348.3082298531744C374.92977087213904 328.6348485689578 417.5492689380176 283.14012874093623 454.7083723553375 297.87569689370525C491.86747577265726 312.6112650464742 527.8666597320602 379.6547820663596 518.4955649762877 419.0389569864652C509.12447022051526 458.4231319065708 446.26626907701257 469.48927308807765 409.7271175276296 486.91973651021226 "></path><path d="M503.683623168949 416.65905875292754C495.48391525764805 451.12021180802 440.4829892570833 460.8030853418385 408.51123165137324 476.0547408362062C376.5394740456631 491.3063963305739 372.22714625764104 494.6358288656261 350.2191866615405 489.8670051258923C328.21122706544 485.09818138615856 312.9773061508545 473.28888637723844 302.8730255900907 453.16438688548425C292.7687450293269 433.03988739373006 292.3973142977675 413.7683063934279 301.71863996987474 393.2694075654724C311.03996564198206 372.770508737517 317.16722430459276 371.9838811349876 347.61538881620584 354.7696725112981C378.0635533278189 337.5554638876086 415.35561413546264 297.7475840380897 447.8698296256175 310.6412061717626C480.3840451157723 323.53482830543544 511.88333108024995 382.19790569783515 503.683623168949 416.65905875292754C495.48391525764805 451.12021180802 440.4829892570833 460.8030853418385 408.51123165137324 476.0547408362062 "></path><path d="M488.87165084403216 414.27919103696803C481.8433297772028 443.81732222704727 434.69967891957583 452.11692811317744 407.2953152575386 465.18977567977834C379.8909515955014 478.2626232463792 376.1946706343396 481.11642256213827 357.3307052662535 477.02885935665216C338.46673989816736 472.94129615116606 325.40909339995113 462.81904328637734 316.74828149072505 445.5694722934452C308.08746958149896 428.31990130051304 307.7691003830194 411.80140330025404 315.75880810196855 394.23091859057797C323.74851582091765 376.66043388090185 329.0004518174411 375.98618165016234 355.0988785416809 361.2311456869999C381.1973052659207 346.4761097238375 413.1619288153296 312.3550698528213 441.0312563783195 323.4067459673981C468.9005839413094 334.4584220819748 495.8999719108615 384.74105984688885 488.87165084403216 414.27919103696803C481.8433297772028 443.81732222704727 434.69967891957583 452.11692811317744 407.2953152575386 465.18977567977834 "></path><path d="M474.05970903669345 411.8993385797976C468.2027748143357 436.5144479048636 428.9163990996465 443.4307861433054 406.0794293812822 454.32482578213944C383.24245966291784 465.21886542097354 380.1622255286164 467.59703151743946 364.4422543885446 464.190728846201C348.72228324847276 460.7844261749626 337.840911166626 452.34921545430535 330.62356790893756 437.9745729601952C323.40622465124915 423.5999304660851 323.1409169858495 409.8345154658693 329.79900675164043 395.1924448744725C336.45709651743135 380.55037428307577 340.8337098478676 379.9884974241262 362.5823987847341 367.6926341214908C384.33108772160057 355.3967708188555 410.96827401277466 326.962570926342 434.1927136485996 336.1723010218226C457.4171532844245 345.3820311173032 479.9166432590513 387.2842292547316 474.05970903669345 411.8993385797976C468.2027748143357 436.5144479048636 428.9163990996465 443.4307861433054 406.0794293812822 454.32482578213944 "></path><path d="M459.24778248814386 409.5194708638381C454.56223511025763 429.21155832389087 423.1331345385063 434.7446289146443 404.8635587638148 443.4598606257116C386.59398298912333 452.17509233677885 384.12979568168214 454.07762521395153 371.55381876962474 451.35258307696085C358.9778418575673 448.6275409399701 350.2727441920898 441.8793723634443 344.4988695859391 430.3796583681562C338.7249949797884 418.87994437286807 338.5127488474687 407.8676123726954 343.83922066010143 396.153955899578C349.1656924727342 384.44029942646057 352.66698313708315 383.99079793930093 370.06593428657635 374.15410729719264C387.4648854360695 364.3174166550844 408.7746344690088 341.5700567410736 427.35418617766874 348.9378408174581C445.93373788632863 356.3056248938426 463.9333298660301 389.8273834037853 459.24778248814386 409.5194708638381C454.56223511025763 429.21155832389087 423.1331345385063 434.7446289146443 404.8635587638148 443.4598606257116 "></path><path d="M444.43584068080514 407.1395878890895C440.9216801473905 421.9086534841291 417.349854718577 426.0584564271942 403.6476728875584 432.59488021049464C389.94549105653977 439.1313039937951 388.0973505759589 440.5582036516746 378.6653678919158 438.5144220489316C369.23338520787274 436.4706404461885 362.70456195876466 431.40951401379414 358.3741560041516 422.78472851732806C354.0437500495386 414.159943020862 353.8845654502988 405.9006940207325 357.8794193097733 397.11545166589445C361.8742731692479 388.33020931105636 364.5002411675096 387.99308319568667 377.54945452962954 380.61556521410546C390.5986678917494 373.2380472325242 406.58097966645386 356.1775272970161 420.51564344794883 361.7033653543045C434.45030722944375 367.2292034115929 447.9500012142198 392.3705222940499 444.43584068080514 407.1395878890895C440.9216801473905 421.9086534841291 417.349854718577 426.0584564271942 403.6476728875584 432.59488021049464 "></path><path d="M429.6238836146774 404.759735431919C427.2811099257343 414.60577916194546 411.5665596398586 417.37231445732215 402.4317717525129 421.7299303128558C393.29698386516714 426.0875461683894 392.06489021144654 427.0388126069758 385.77690175541784 425.6762915384804C379.48891329938914 424.31377046998506 375.1363644666504 420.93968618172215 372.24942716357504 415.18982918407806C369.36248986049964 409.43997218643403 369.2563667943398 403.93380618634774 371.9196027006562 398.076977949789C374.58283860697253 392.2201497132303 376.333483939147 391.99539896965047 385.0329595138936 387.07705364859635C393.7324350886402 382.1587083275422 404.38730960510986 370.7850283705368 413.6770854594398 374.46892040872905C422.9668613137698 378.1528124469213 431.9666573036205 394.9136917018926 429.6238836146774 404.759735431919C427.2811099257343 414.60577916194546 411.5665596398586 417.37231445732215 402.4317717525129 421.7299303128558 "></path><path d="M414.8119418073387 402.3798677159595C413.64055496286716 407.3028895809727 405.7832798199293 408.6861572286611 401.21588587625644 410.8649651564279C396.64849193258357 413.0437730841947 396.0324451057233 413.51940630348787 392.8884508777089 412.8381457692402C389.74445664969454 412.1568852349925 387.5681822333252 410.46984309086105 386.1247135817875 407.59491459203906C384.6812449302498 404.719986093217 384.6281833971699 401.96690309317387 385.95980135032806 399.0384889748945C387.2914193034863 396.11007485661514 388.16674196957354 395.99769948482526 392.5164797569468 393.5385268242982C396.86621754432014 391.0793541637711 402.19365480255493 385.3925141852684 406.8385427297199 387.2344602043645C411.4834306568849 389.07640622346065 415.98332865181027 397.4568458509463 414.8119418073387 402.3798677159595C413.64055496286716 407.3028895809727 405.7832798199293 408.6861572286611 401.21588587625644 410.8649651564279 "></path></g></svg>
