<?xml version="1.0" encoding="utf-8"?>
<!-- Uploaded to: SVG Repo, www.svgrepo.com, Generator: SVG Repo Mixer Tools -->
<svg width="800px" height="800px" viewBox="0 -2 72 72" xmlns="http://www.w3.org/2000/svg">
  <g id="Group_4" data-name="Group 4" transform="translate(-274 -118)">
    <g id="Rectangle-1_1_">
      <path id="Path_29" data-name="Path 29" d="M310,146a4,4,0,0,1,4,3.994v28.013a4,4,0,0,1-8,0V149.994A4,4,0,0,1,310,146m0-4a8,8,0,0,0-8,7.994v28.013a8,8,0,0,0,16,0V149.994A8,8,0,0,0,310,142Z" fill="#fff7ed"/>
    </g>
    <g id="Path-17">
      <path id="Path_30" data-name="Path 30" d="M320,138H300a6,6,0,0,1-6-6v-6h32v6A6,6,0,0,1,320,138Zm-22-8v2a2,2,0,0,0,2,2H320a2,2,0,0,0,2-2v-2Z" fill="#fff7ed"/>
    </g>
    <g id="Line_4_">
      <path id="Path_31" data-name="Path 31" d="M310,144a2,2,0,0,1-2-2v-4a2,2,0,0,1,4,0v4A2,2,0,0,1,310,144Z" fill="#fff7ed"/>
    </g>
    <g id="Line-Copy-5_1_">
      <path id="Path_32" data-name="Path 32" d="M310,130a2,2,0,0,1-2-2v-8a2,2,0,0,1,4,0v8A2,2,0,0,1,310,130Z" fill="#fff7ed"/>
    </g>
    <g id="Line-Copy-3_2_">
      <path id="Path_33" data-name="Path 33" d="M286,176a2,2,0,0,1-2-2V159a2,2,0,0,1,4,0v15A2,2,0,0,1,286,176Z" fill="#fff7ed"/>
    </g>
    <g id="Line-Copy-4_2_">
      <path id="Path_34" data-name="Path 34" d="M334,175a2,2,0,0,1-2-2V158a2,2,0,0,1,4,0v15A2,2,0,0,1,334,175Z" fill="#fff7ed"/>
    </g>
    <g id="Line-Copy_2_">
      <path id="Path_35" data-name="Path 35" d="M322,168h-4a2,2,0,0,1,0-4h4a2,2,0,0,1,0,4Z" fill="#fff7ed"/>
    </g>
    <g id="Line-Copy-2_2_">
      <path id="Path_36" data-name="Path 36" d="M302,168h-3a2,2,0,0,1,0-4h3a2,2,0,0,1,0,4Z" fill="#fff7ed"/>
    </g>
    <g id="Rectangle-3">
      <path id="Path_37" data-name="Path 37" d="M342,159v15H326V159h16m0-4H326a4,4,0,0,0-4,4v15a4,4,0,0,0,4,4h16a4,4,0,0,0,4-4V159a4,4,0,0,0-4-4Z" fill="#fff7ed"/>
    </g>
    <g id="Rectangle-3-Copy">
      <path id="Path_38" data-name="Path 38" d="M294,159v15H278V159h16m0-4H278a4,4,0,0,0-4,4v15a4,4,0,0,0,4,4h16a4,4,0,0,0,4-4V159a4,4,0,0,0-4-4Z" fill="#fff7ed"/>
    </g>
  </g>
</svg>
