<svg width="693" height="520" viewBox="0 0 693 520" fill="none" xmlns="http://www.w3.org/2000/svg">
<path d="M262.21 331.783C262.452 331.677 267.303 327.694 267.936 327.747C268.569 327.799 273.213 329.936 274.162 331.045C275.112 332.153 274.32 335.53 274.32 335.53C274.32 335.53 271.015 335.477 268.42 334.712C265.824 333.947 260.416 332.576 262.21 331.784V331.783Z" fill="#FB923C"/>
<path d="M288.885 352.657L286.901 347.571C286.901 347.571 287.46 343.835 289.623 342.98C291.786 342.125 294.161 343.128 294.478 343.867C294.795 344.605 294.425 348.983 294.214 349.67C294.002 350.357 289.781 353.954 288.884 352.657H288.885Z" fill="#FB923C"/>
<path d="M317.872 375.935C317.872 375.935 299.477 379.352 290.198 386.358C280.917 393.363 238.81 440.221 235.96 442.753C233.11 445.285 210.632 445.919 207.782 446.552C204.932 447.185 200.183 443.702 200.183 443.702C200.183 443.702 198.283 445.918 198.706 447.818C199.129 449.717 203.772 453.728 206.938 454.361C210.103 454.994 223.19 458.793 226.778 461.537C230.367 464.281 233.11 469.557 237.543 469.768C241.976 469.98 243.242 456.049 245.142 453.094C247.041 450.138 291.154 421.373 297.698 413.066C304.241 404.759 326.74 400.891 326.74 400.891L317.873 375.934L317.872 375.935Z" fill="#FDBA74"/>
<path d="M369.969 362.04C369.969 362.04 375.561 370.061 377.369 378.925C379.178 387.79 375.131 394.123 360.586 399.187C346.04 404.253 313.34 405.579 313.34 405.579L315.339 390.32L323.888 388.124L316.063 384.791L317.872 375.935L369.969 362.04Z" fill="#F3D9C7"/>
<path d="M318.824 405.633C324.248 403.79 333.42 403.045 352.34 401.516C371.259 399.987 381.075 401.633 381.338 402.574C381.601 403.516 382.786 408.692 381.338 409.476C379.89 410.26 361.553 407.75 345.584 409.476C329.616 411.201 321.72 412.142 320.929 411.75C320.14 411.358 317.555 406.025 318.824 405.634V405.633Z" fill="#FFEDD5"/>
<path d="M323.989 411.603C324.516 413.004 325.667 412.926 326.896 412.848C328.125 412.77 344.093 410.573 354.271 410.653C364.448 410.731 377.96 412.064 378.574 411.201C379.189 410.339 378.97 408.3 378.97 408.3C378.97 408.3 363.572 406.417 348.13 407.829C332.688 409.241 323.99 411.604 323.99 411.604L323.989 411.603Z" fill="#334155"/>
<path d="M322.934 411.981C322.847 411.981 322.769 411.919 322.754 411.83C322.737 411.731 322.803 411.636 322.9 411.618C323.039 411.593 336.936 409.131 353.256 408.762C369.577 408.395 380.071 409.433 380.175 409.443C380.275 409.454 380.348 409.543 380.338 409.644C380.33 409.744 380.24 409.824 380.138 409.807C380.033 409.797 369.549 408.761 353.265 409.127C336.974 409.495 323.104 411.952 322.966 411.977C322.954 411.979 322.943 411.98 322.933 411.98L322.934 411.981Z" fill="#16100D"/>
<path d="M327.491 413.507L322.935 497.552C322.935 497.552 324.751 499.534 327.491 497.552C327.491 497.552 327.861 479.586 329.264 474.088C330.668 468.589 335.011 431.403 335.011 427.172C335.011 422.94 336.651 411.816 336.651 411.816C336.651 411.816 330.892 410.851 327.49 413.507H327.491Z" fill="#FFEDD5"/>
<path d="M365.676 410.514C365.676 410.514 367.65 426.98 367.65 431.381C367.65 435.783 371.599 497.4 371.599 497.4C371.599 497.4 373.836 500.271 376.074 496.444C376.074 496.444 374.758 449.943 374.758 440.375C374.758 430.807 373.968 410.514 373.968 410.514C373.968 410.514 367.143 409.454 365.677 410.514H365.676Z" fill="#FFEDD5"/>
<path d="M327.49 412.97C327.399 412.97 327.319 412.902 327.308 412.809C327.296 412.708 327.367 412.617 327.468 412.606C327.541 412.598 334.715 411.761 336.632 411.568C336.75 411.55 336.822 411.631 336.833 411.732C336.843 411.832 336.77 411.922 336.669 411.932C334.754 412.124 327.583 412.96 327.511 412.968C327.504 412.968 327.497 412.97 327.49 412.97Z" fill="#16100D"/>
<path d="M374.755 411.655H374.754C372.931 411.641 365.465 411.229 365.388 411.226C365.287 411.22 365.209 411.134 365.215 411.033C365.221 410.933 365.309 410.865 365.408 410.86C365.484 410.864 372.942 411.275 374.756 411.289C374.858 411.289 374.939 411.374 374.937 411.474C374.936 411.575 374.854 411.656 374.754 411.656L374.755 411.655Z" fill="#16100D"/>
<path d="M333.67 438.479H326.098C325.996 438.479 325.915 438.397 325.915 438.296C325.915 438.196 325.996 438.113 326.098 438.113H331.168L326.07 437.364C325.976 437.35 325.907 437.265 325.915 437.169C325.921 437.074 326.002 437 326.098 437H328.787L326.227 436.817C326.13 436.81 326.056 436.729 326.057 436.632C326.057 436.535 326.134 436.456 326.231 436.451L330.857 436.236L326.228 435.932C326.126 435.925 326.051 435.838 326.057 435.737C326.063 435.64 326.144 435.566 326.239 435.566C326.243 435.566 326.248 435.566 326.251 435.566L334.136 436.083C334.232 436.089 334.309 436.17 334.307 436.267C334.306 436.364 334.23 436.443 334.133 436.449L329.348 436.672L333.934 437C334.033 437.007 334.107 437.09 334.104 437.189C334.1 437.288 334.02 437.366 333.921 437.366H328.6L333.698 438.115C333.793 438.129 333.862 438.214 333.854 438.31C333.847 438.405 333.767 438.479 333.671 438.479H333.67Z" fill="#16100D"/>
<path d="M333.427 439.546C333.421 439.546 333.416 439.546 333.41 439.546L325.933 438.859C325.833 438.849 325.759 438.76 325.769 438.66C325.779 438.56 325.866 438.482 325.967 438.495L333.444 439.182C333.544 439.192 333.618 439.281 333.608 439.38C333.599 439.475 333.521 439.547 333.427 439.547V439.546Z" fill="#16100D"/>
<path d="M333.277 440.192C333.271 440.192 333.267 440.192 333.261 440.192L325.867 439.546C325.765 439.537 325.691 439.449 325.699 439.348C325.708 439.246 325.804 439.171 325.898 439.182L333.291 439.828C333.393 439.837 333.467 439.925 333.459 440.026C333.45 440.122 333.37 440.193 333.276 440.193L333.277 440.192Z" fill="#16100D"/>
<path d="M368.085 437.639C368.004 437.639 367.927 437.583 367.908 437.5C367.883 437.402 367.942 437.302 368.041 437.279L371.28 436.472L368.034 436.927C367.928 436.928 367.839 436.87 367.826 436.771C367.812 436.67 367.882 436.578 367.982 436.564L374.683 435.626C374.778 435.612 374.869 435.676 374.888 435.772C374.907 435.868 374.847 435.962 374.752 435.985L368.129 437.634C368.114 437.638 368.098 437.639 368.085 437.639Z" fill="#16100D"/>
<path d="M368.007 438.205C367.918 438.205 367.842 438.142 367.827 438.052C367.811 437.952 367.879 437.858 367.977 437.841L374.678 436.742C374.772 436.725 374.87 436.793 374.888 436.893C374.905 436.993 374.836 437.087 374.738 437.104L368.038 438.203C368.028 438.204 368.018 438.205 368.007 438.205Z" fill="#16100D"/>
<path d="M368.213 438.822C368.12 438.822 368.04 438.751 368.031 438.656C368.021 438.556 368.096 438.467 368.195 438.457L374.776 437.84C374.872 437.825 374.965 437.904 374.974 438.006C374.984 438.107 374.91 438.196 374.81 438.205L368.23 438.822C368.224 438.822 368.218 438.822 368.213 438.822Z" fill="#16100D"/>
<path d="M374.708 441.106H374.698L368.415 440.753C368.324 440.747 368.251 440.676 368.242 440.585C368.235 440.494 368.297 440.412 368.385 440.391L372.473 439.466L368.328 439.754C368.232 439.772 368.139 439.686 368.133 439.585C368.126 439.484 368.203 439.396 368.303 439.39L374.827 438.938C374.924 438.934 375.007 438.999 375.022 439.094C375.035 439.188 374.973 439.278 374.88 439.299L369.739 440.461L374.719 440.741C374.821 440.747 374.898 440.833 374.892 440.934C374.886 441.032 374.806 441.107 374.709 441.107L374.708 441.106Z" fill="#16100D"/>
<path d="M368.315 442.106C368.219 442.106 368.139 442.033 368.132 441.936C368.125 441.835 368.2 441.748 368.302 441.741L374.923 441.271C375.036 441.256 375.112 441.339 375.119 441.44C375.126 441.541 375.05 441.628 374.949 441.634L368.327 442.105C368.327 442.105 368.319 442.106 368.315 442.106Z" fill="#16100D"/>
<path d="M327.49 413.726C327.399 413.726 327.32 413.659 327.308 413.566C327.295 413.466 327.366 413.374 327.466 413.363L335.415 412.392C335.531 412.376 335.607 412.451 335.62 412.552C335.632 412.651 335.561 412.743 335.461 412.755L327.513 413.726C327.504 413.726 327.498 413.726 327.491 413.726H327.49Z" fill="#16100D"/>
<path d="M327.34 414.668C327.25 414.668 327.172 414.601 327.158 414.51C327.145 414.41 327.214 414.317 327.314 414.304L334.097 413.364C334.191 413.354 334.29 413.42 334.305 413.52C334.318 413.62 334.249 413.713 334.149 413.726L327.366 414.668C327.357 414.668 327.349 414.669 327.34 414.669V414.668Z" fill="#16100D"/>
<path d="M326.922 415.874C326.832 415.874 326.754 415.807 326.74 415.715C326.728 415.616 326.798 415.523 326.898 415.51L332.213 414.801C332.331 414.793 332.405 414.858 332.419 414.958C332.431 415.058 332.361 415.151 332.261 415.164L326.946 415.873C326.937 415.873 326.929 415.874 326.922 415.874Z" fill="#16100D"/>
<path d="M327.174 416.554C327.084 416.554 327.005 416.488 326.992 416.396C326.977 416.297 327.048 416.204 327.147 416.189L329.893 415.804C329.991 415.795 330.085 415.858 330.1 415.959C330.115 416.059 330.044 416.152 329.944 416.166L327.199 416.553C327.19 416.553 327.183 416.554 327.174 416.554Z" fill="#16100D"/>
<path d="M327.061 417.818C326.977 417.818 326.901 417.759 326.882 417.673C326.861 417.574 326.923 417.477 327.022 417.457L328.507 417.14C328.604 417.118 328.703 417.181 328.724 417.281C328.746 417.38 328.683 417.476 328.585 417.497L327.099 417.814C327.087 417.817 327.074 417.818 327.061 417.818Z" fill="#16100D"/>
<path d="M374.083 412.435H374.073L365.953 412.021C365.853 412.015 365.776 411.93 365.78 411.829C365.786 411.731 365.866 411.655 365.963 411.655H365.973L374.093 412.069C374.192 412.075 374.27 412.16 374.266 412.262C374.26 412.36 374.18 412.435 374.083 412.435Z" fill="#16100D"/>
<path d="M373.221 413.067H373.209L366.067 412.643C365.968 412.637 365.89 412.551 365.896 412.45C365.902 412.353 365.983 412.278 366.079 412.278H366.091L373.233 412.7C373.333 412.707 373.41 412.793 373.404 412.894C373.398 412.991 373.317 413.066 373.221 413.066V413.067Z" fill="#16100D"/>
<path d="M372.344 413.697H372.336L366.213 413.426C366.113 413.421 366.034 413.336 366.039 413.235C366.043 413.134 366.135 413.065 366.231 413.06L372.353 413.331C372.453 413.336 372.532 413.421 372.527 413.522C372.523 413.621 372.441 413.697 372.344 413.697Z" fill="#16100D"/>
<path d="M371.423 414.404C371.423 414.404 371.414 414.404 371.41 414.404L366.321 414.044C366.219 414.038 366.144 413.951 366.151 413.85C366.159 413.749 366.246 413.671 366.346 413.681L371.436 414.04C371.537 414.046 371.613 414.133 371.606 414.234C371.599 414.331 371.519 414.404 371.423 414.404Z" fill="#16100D"/>
<path d="M370.076 415.109C370.076 415.109 370.067 415.109 370.063 415.109L366.468 414.865C366.368 414.858 366.291 414.771 366.297 414.671C366.304 414.57 366.396 414.486 366.493 414.5L370.088 414.744C370.188 414.751 370.264 414.838 370.259 414.939C370.252 415.036 370.172 415.11 370.076 415.11V415.109Z" fill="#16100D"/>
<path d="M369.282 415.658H369.272L366.585 415.519C366.485 415.513 366.408 415.428 366.412 415.326C366.418 415.228 366.498 415.153 366.595 415.153H366.605L369.292 415.292C369.392 415.298 369.469 415.383 369.465 415.485C369.459 415.582 369.379 415.659 369.282 415.659V415.658Z" fill="#16100D"/>
<path d="M368.279 416.952C368.271 416.952 368.262 416.952 368.254 416.951L366.78 416.747C366.68 416.732 366.611 416.64 366.624 416.54C366.639 416.439 366.729 416.371 366.832 416.384L368.306 416.588C368.406 416.603 368.476 416.695 368.461 416.795C368.449 416.886 368.369 416.952 368.279 416.952Z" fill="#16100D"/>
<path d="M320.873 463.399C320.873 463.399 295.878 411.726 296.629 396.212C297.381 380.699 320.81 378.483 320.81 378.483C320.81 378.483 328.314 384.917 328.677 391.039C329.041 397.162 319.701 403.374 319.701 403.374L329.324 456.526C329.324 456.526 336.789 459.511 338.535 463.4C340.281 467.29 336.217 471.881 333.685 473.253C331.152 474.625 324.081 483.068 323.448 484.756C322.815 486.445 322.182 488.555 320.494 490.35C318.805 492.144 313.318 494.571 313.318 494.571C313.318 494.571 311.735 490.244 313.845 488.555C315.955 486.867 315.395 484.862 317.786 478.213C320.177 471.565 320.874 463.401 320.874 463.401L320.873 463.399Z" fill="#FDBA74"/>
<path d="M372.905 364.587C372.905 364.587 378.497 372.607 380.306 381.472C382.115 390.337 378.068 396.668 363.523 401.734C348.977 406.8 320.662 408.682 320.662 408.682L318.276 392.865L326.825 390.67L319 387.337L320.809 378.481L372.905 364.586V364.587Z" fill="#FFEDD5"/>
<path d="M327.976 407.394L342.021 374.683L349.091 376.582L335.558 406.721L327.976 407.394Z" fill="#7FBCC5"/>
<path d="M362.6 372.362L348.494 405.111L356.331 403.682L370.832 372.995L362.6 372.362Z" fill="#7FBCC5"/>
<path d="M378.222 374.683L371.921 398.038C371.921 398.038 378.24 396.045 379.97 389.585C381.701 383.125 378.222 374.683 378.222 374.683Z" fill="#7FBCC5"/>
<path d="M373.41 356.603L381.542 369.943C381.542 369.943 373.253 378.808 360.995 381.129C348.736 383.451 324.798 374.164 324.798 374.164L332.638 356.602L373.41 356.603Z" fill="#172554"/>
<path d="M304.679 274.491C304.679 274.491 302.202 271.735 302.563 271.095C302.924 270.455 306 267.72 306.259 267.67L306.518 267.62C306.518 267.62 307.847 267.076 308.077 267.284C308.307 267.49 310.994 270.268 310.994 270.268L304.679 274.491Z" fill="#FB923C"/>
<path d="M333.802 308.095C333.802 308.095 316.31 288.141 311.65 282.892C306.989 277.643 304.679 274.491 304.679 274.491C304.679 274.491 308.205 271.046 309.115 270.381C310.025 269.716 310.763 270.1 310.994 270.268L311.225 270.435C311.225 270.435 332.918 295.911 335.043 298.443C337.167 300.975 341.144 305.028 341.144 305.028L333.801 308.096L333.802 308.095Z" fill="#305A60"/>
<path d="M310.372 273.44L307.269 273.771L307.004 276.56L309.755 276.455L310.372 273.44Z" fill="#FDBA74"/>
<path d="M313.772 277.109L310.668 277.44L310.404 280.23L313.155 280.123L313.772 277.109Z" fill="#FDBA74"/>
<path d="M317.171 280.778L314.069 281.109L313.804 283.899L316.555 283.792L317.171 280.778Z" fill="#FDBA74"/>
<path d="M320.572 284.447L317.469 284.778L317.204 287.567L319.955 287.461L320.572 284.447Z" fill="#FDBA74"/>
<path d="M323.972 288.116L320.868 288.447L320.603 291.236L323.355 291.131L323.972 288.116Z" fill="#FDBA74"/>
<path d="M327.371 291.785L324.268 292.116L324.004 294.906L326.755 294.799L327.371 291.785Z" fill="#FDBA74"/>
<path d="M330.771 295.454L327.668 295.785L327.404 298.575L330.155 298.468L330.771 295.454Z" fill="#FDBA74"/>
<path d="M334.172 299.123L331.068 299.454L330.803 302.243L333.554 302.137L334.172 299.123Z" fill="#FDBA74"/>
<path d="M299.77 343.845L302.9 344.758C302.9 344.758 312.351 343.323 314.173 343.718C315.994 344.113 325.187 332.913 325.187 332.913C324.633 334.735 326.691 333.625 326.691 333.625L327.172 342.653C325.271 342.653 324.796 343.604 324.796 343.604L322.631 361.302C324.021 362.922 329.56 364.032 329.56 364.032L329.452 364.357C333.522 365.044 337.365 366.675 341.569 366.914C348.258 367.296 349.269 364.464 353.822 359.618C358.441 354.699 367.73 355.998 374.873 356.204C376.112 352.16 374.294 352.524 374.294 352.524C374.294 352.524 375.797 350.068 377.062 345C378.327 339.931 378.878 335.417 379.114 334.546C379.351 333.674 378.717 332.408 379.11 326.469C379.502 320.529 379.022 310.711 376.008 303.586C372.995 296.461 369.644 298.495 369.644 298.495C369.644 298.495 369.749 297.545 369.327 297.229C368.906 296.912 361.195 293.01 360.931 292.957C360.667 292.904 359.876 293.908 359.031 293.698C358.186 293.487 360.296 290.424 361.562 288.734C362.828 287.043 359.658 283.139 359.921 282.241C360.185 281.344 363.98 270.572 357.218 264.241C350.457 257.91 339.715 259.738 334.728 262.828C329.742 265.92 329.309 272.452 329.192 273.68C329.075 274.908 328.639 276.214 328.204 277.046C327.769 277.878 329.276 278.907 329.276 278.907L331.611 280.609L330.029 283.381L329.593 283.58C329.158 283.778 328.247 284.055 328.844 288.767C329.441 293.479 334.193 297.276 337.165 298.661C340.136 300.045 338.155 299.808 338.155 299.808C338.155 299.808 333.484 302.107 333.207 302.622C332.93 303.137 324.934 306.705 321.216 311.855C317.497 317.004 307.21 329.046 306.616 329.244C306.022 329.443 304.754 328.176 304.201 329.682C303.648 331.186 295.016 330.004 295.016 330.004L295.217 336.299L299.771 343.848L299.77 343.845Z" fill="#172554"/>
<path d="M346.458 279.133C345.291 278.274 329.934 277.929 329.458 278.404C328.983 278.88 329.407 281.625 329.671 282.205C329.936 282.785 329.356 284.528 329.356 284.528C329.356 284.528 345.141 283.938 345.774 283.304C346.407 282.67 348.464 280.61 346.458 279.133Z" fill="#FDBA74"/>
<path d="M322.632 361.302L301.882 352.205L303.098 340.37L324.797 343.603L322.632 361.302Z" fill="#F3D9C7"/>
<path d="M353.051 359.795L356.057 355.201C356.057 355.201 366.405 356.884 374.295 352.524C374.295 352.524 377.12 351.968 374.141 358.226C374.141 358.226 365.407 363.483 353.052 359.795H353.051Z" fill="#FB923C"/>
<path d="M360.296 280.979C360.296 280.979 364.56 270.411 374.38 272.306C384.201 274.201 394.073 275.938 405.364 264.739L401.033 260.413C401.033 260.413 393.912 269.234 381.663 267.762C369.414 266.291 365.611 267.183 361.208 273.893C361.208 273.893 361.222 277.192 360.296 280.978V280.979Z" fill="#FB923C"/>
<path d="M359.935 282.564C359.935 282.564 370.213 278.434 375.52 280.568C380.827 282.703 388.012 293.31 388.012 293.31L391.468 289.851C391.468 289.851 383.833 278.796 376.546 276.424C369.26 274.053 361.343 278.096 361.343 278.096C361.343 278.096 359.649 281.786 359.934 282.565L359.935 282.564Z" fill="#FED7AA"/>
<path d="M340.282 343.876C340.247 343.912 340.197 343.931 340.144 343.927L327.158 342.826C327.062 342.818 326.991 342.733 327 342.637C327.007 342.541 327.092 342.471 327.188 342.478L340.063 343.57L361.324 306.322C361.473 306.023 365.139 298.786 368.956 298.743C369.052 298.742 369.132 298.819 369.133 298.915C369.134 299.011 369.056 299.089 368.96 299.091C365.352 299.133 361.666 306.413 361.631 306.487L340.311 343.839C340.303 343.853 340.293 343.866 340.282 343.875V343.876Z" fill="black"/>
<path d="M348.915 364.83C348.553 365.192 348.231 365.475 347.953 365.669C343.814 368.537 330.091 364.376 329.509 364.198C329.417 364.17 329.365 364.073 329.394 363.981C329.423 363.89 329.519 363.836 329.611 363.866C329.753 363.909 343.754 368.156 347.754 365.383C351.789 362.58 366.153 339.29 366.298 339.055C366.379 338.924 374.447 325.933 375.846 319.387C375.867 319.293 375.959 319.232 376.052 319.253C376.146 319.273 376.207 319.365 376.186 319.459C374.775 326.066 366.675 339.107 366.594 339.238C366.043 340.134 353.882 359.858 348.914 364.831L348.915 364.83Z" fill="black"/>
<path d="M375.423 324.177C375.029 324.572 374.694 324.788 374.428 324.817C374.234 324.837 374.134 324.755 374.107 324.729C374.04 324.662 374.039 324.551 374.107 324.483C374.17 324.42 374.268 324.415 374.336 324.467C374.38 324.478 375.016 324.561 376.812 321.781C376.864 321.701 376.973 321.676 377.053 321.729C377.134 321.781 377.158 321.889 377.105 321.97C376.467 322.957 375.902 323.698 375.423 324.178V324.177Z" fill="black"/>
<path d="M359.168 332.722C357.693 334.199 355.951 335.202 355.842 335.264C355.758 335.311 355.652 335.282 355.604 335.199C355.558 335.115 355.585 335.01 355.67 334.961C355.71 334.938 359.666 332.66 360.657 329.981C360.688 329.891 360.79 329.844 360.881 329.878C360.971 329.912 361.017 330.012 360.984 330.102C360.629 331.06 359.934 331.955 359.168 332.722Z" fill="black"/>
<path d="M364.623 369.198C363.148 370.674 361.407 371.677 361.297 371.739C361.213 371.786 361.107 371.757 361.059 371.674C361.013 371.591 361.04 371.485 361.125 371.436C361.165 371.414 365.121 369.135 366.112 366.456C366.143 366.366 366.245 366.319 366.336 366.354C366.426 366.387 366.472 366.488 366.439 366.578C366.084 367.535 365.389 368.431 364.623 369.198Z" fill="black"/>
<path d="M343.021 354.611C342.991 354.64 342.954 354.662 342.906 354.671C342.746 354.706 342.255 354.81 339.465 346.96L339.251 346.832C338.972 347.661 338.516 352.476 338.282 355.488C338.276 355.583 338.192 355.657 338.094 355.648C337.999 355.64 337.927 355.557 337.934 355.46C338.238 351.55 338.68 346.865 339.076 346.468C339.085 346.459 339.094 346.452 339.102 346.448C339.155 346.42 339.249 346.423 339.301 346.454L339.697 346.692C339.733 346.713 339.759 346.745 339.772 346.783C340.898 349.955 342.256 353.411 342.774 354.187C342.774 354.133 342.77 354.066 342.764 353.98C342.638 352.446 341.888 350.406 341.285 348.768C340.596 346.896 340.304 346.056 340.593 345.767C340.843 345.516 341.271 345.855 342.125 346.529C343.709 347.779 346.359 349.872 348.199 348.134C348.269 348.069 348.379 348.072 348.445 348.141C348.509 348.209 348.508 348.317 348.442 348.384L348.438 348.388C346.379 350.331 343.58 348.121 341.908 346.802C341.483 346.466 341.003 346.086 340.827 346.04C340.752 346.314 341.228 347.604 341.612 348.648C342.223 350.306 342.982 352.37 343.111 353.952C343.133 354.221 343.141 354.488 343.02 354.61L343.021 354.611Z" fill="black"/>
<path d="M349.126 297.467C349.126 297.467 349.119 297.474 349.115 297.477C349.064 297.52 343.988 301.72 338.65 299.7C338.56 299.666 338.515 299.566 338.549 299.476C338.58 299.385 338.683 299.341 338.773 299.375C343.924 301.323 348.842 297.253 348.891 297.211C348.964 297.148 349.074 297.158 349.136 297.231C349.195 297.301 349.19 297.404 349.127 297.466L349.126 297.467Z" fill="black"/>
<path d="M337.296 291.347C336.585 292.058 334.909 293.01 334.514 293.229C334.43 293.276 334.324 293.246 334.277 293.162C334.23 293.077 334.258 292.97 334.345 292.925C335.5 292.282 337.173 291.2 337.269 290.817C337.291 290.724 337.387 290.667 337.48 290.689C337.572 290.713 337.63 290.807 337.607 290.9C337.575 291.028 337.462 291.18 337.296 291.347Z" fill="black"/>
<path d="M341.87 281.119C341.835 281.155 341.785 281.174 341.732 281.17C340.05 281.025 339.317 282.295 339.287 282.35C339.238 282.436 339.133 282.464 339.05 282.418C338.966 282.371 338.935 282.265 338.982 282.181C339.016 282.119 339.849 280.658 341.762 280.823C341.858 280.832 341.929 280.916 341.92 281.012C341.916 281.054 341.898 281.092 341.87 281.12V281.119Z" fill="black"/>
<path d="M332.013 282.908C332.013 282.908 332.005 282.915 332 282.919C331.926 282.98 331.816 282.969 331.754 282.895C331.366 282.424 330.2 281.246 329.48 281.449C329.387 281.475 329.291 281.422 329.265 281.329C329.238 281.236 329.294 281.14 329.386 281.114C330.454 280.815 331.867 282.482 332.024 282.674C332.082 282.743 332.076 282.845 332.013 282.908Z" fill="black"/>
<path d="M305.888 354.03C305.857 354.061 305.814 354.08 305.766 354.08C305.67 354.08 305.591 354.004 305.591 353.907L305.484 340.752C305.483 340.656 305.561 340.578 305.657 340.577C305.753 340.577 305.832 340.653 305.832 340.75L305.939 353.905C305.939 353.954 305.919 353.997 305.888 354.03Z" fill="black"/>
<path d="M302.641 352.606C302.605 352.642 302.552 352.663 302.497 352.656C302.401 352.645 302.334 352.558 302.346 352.462L303.78 340.476C303.79 340.38 303.878 340.312 303.974 340.323C304.069 340.334 304.137 340.421 304.125 340.517L302.691 352.503C302.686 352.543 302.667 352.58 302.641 352.606Z" fill="black"/>
<path d="M306.831 354.443C306.793 354.482 306.736 354.502 306.678 354.492C306.583 354.476 306.519 354.385 306.536 354.291L308.831 341.22C308.849 341.127 308.938 341.062 309.033 341.078C309.128 341.095 309.192 341.186 309.175 341.28L306.88 354.35C306.873 354.387 306.857 354.419 306.831 354.443Z" fill="black"/>
<path d="M308.443 355.15C308.399 355.194 308.332 355.213 308.268 355.194C308.176 355.165 308.125 355.069 308.152 354.977L312.162 341.696C312.192 341.605 312.287 341.552 312.379 341.579C312.471 341.608 312.523 341.705 312.496 341.796L308.486 355.077C308.477 355.106 308.461 355.13 308.442 355.15H308.443Z" fill="black"/>
<path d="M311.64 356.552C311.603 356.589 311.548 356.609 311.491 356.601C311.396 356.586 311.331 356.498 311.344 356.402L313.513 341.922C313.529 341.826 313.617 341.76 313.712 341.775C313.807 341.79 313.872 341.878 313.859 341.974L311.69 356.454C311.684 356.492 311.666 356.525 311.641 356.551L311.64 356.552Z" fill="black"/>
<path d="M312.946 357.124C312.905 357.165 312.843 357.185 312.782 357.17C312.689 357.148 312.632 357.054 312.653 356.961L316.154 342.3C316.177 342.206 316.27 342.148 316.363 342.171C316.457 342.194 316.515 342.288 316.492 342.381L312.992 357.041C312.984 357.073 312.967 357.102 312.946 357.124Z" fill="black"/>
<path d="M316.27 358.582C316.226 358.626 316.162 358.644 316.097 358.626C316.005 358.598 315.952 358.503 315.98 358.41L320.531 342.944C320.556 342.853 320.653 342.799 320.747 342.827C320.839 342.854 320.892 342.95 320.864 343.043L316.313 358.508C316.305 358.537 316.291 358.562 316.27 358.582Z" fill="black"/>
<path d="M320.763 360.551C320.728 360.586 320.677 360.607 320.622 360.602C320.526 360.592 320.456 360.506 320.466 360.41L322.22 343.228C322.232 343.134 322.315 343.062 322.412 343.072C322.508 343.082 322.578 343.168 322.568 343.264L320.814 360.446C320.809 360.488 320.79 360.525 320.763 360.552V360.551Z" fill="black"/>
<path d="M302.9 344.758L281.841 338.619L279.032 328.963L299.002 330.298L302.9 344.758Z" fill="#F3D9C7"/>
<path d="M285.928 339.86C285.912 339.888 285.879 339.905 285.838 339.909C285.755 339.915 285.661 339.857 285.629 339.779L281.235 329.132C281.203 329.054 281.246 328.986 281.329 328.979C281.412 328.973 281.506 329.031 281.538 329.109L285.932 339.757C285.949 339.796 285.946 339.833 285.928 339.86Z" fill="black"/>
<path d="M282.633 338.9C282.614 338.932 282.573 338.951 282.524 338.949C282.437 338.946 282.348 338.879 282.328 338.801L279.659 329.01C279.636 328.931 279.69 328.872 279.777 328.875C279.864 328.878 279.953 328.944 279.973 329.022L282.642 338.814C282.651 338.847 282.647 338.876 282.632 338.9H282.633Z" fill="black"/>
<path d="M286.886 340.139C286.865 340.172 286.822 340.192 286.769 340.188C286.681 340.18 286.595 340.111 286.579 340.033L284.306 329.312C284.29 329.236 284.347 329.178 284.436 329.186C284.524 329.194 284.609 329.263 284.626 329.341L286.899 340.062C286.905 340.092 286.901 340.119 286.887 340.14L286.886 340.139Z" fill="black"/>
<path d="M288.522 340.616C288.498 340.654 288.446 340.673 288.385 340.662C288.296 340.644 288.218 340.569 288.212 340.492L287.365 329.501C287.361 329.424 287.428 329.377 287.517 329.393C287.606 329.411 287.683 329.486 287.69 329.562L288.536 340.555C288.537 340.578 288.533 340.599 288.522 340.617V340.616Z" fill="black"/>
<path d="M291.766 341.562C291.745 341.594 291.704 341.614 291.651 341.611C291.563 341.605 291.477 341.537 291.459 341.459L288.616 329.605C288.597 329.525 288.653 329.468 288.741 329.474C288.829 329.48 288.915 329.548 288.934 329.626L291.778 341.481C291.785 341.512 291.781 341.54 291.767 341.562H291.766Z" fill="black"/>
<path d="M293.093 341.948C293.07 341.984 293.023 342.004 292.965 341.995C292.876 341.982 292.795 341.91 292.784 341.833L291.042 329.753C291.031 329.676 291.094 329.623 291.183 329.636C291.272 329.649 291.353 329.721 291.364 329.798L293.106 341.878C293.11 341.905 293.105 341.929 293.093 341.947V341.948Z" fill="black"/>
<path d="M296.466 342.932C296.442 342.97 296.391 342.989 296.33 342.978C296.241 342.962 296.164 342.887 296.157 342.81L295.068 330.016C295.06 329.941 295.127 329.892 295.218 329.909C295.307 329.925 295.385 330 295.392 330.077L296.48 342.871C296.482 342.894 296.478 342.916 296.467 342.933L296.466 342.932Z" fill="black"/>
<path d="M301.026 344.261C301.006 344.292 300.968 344.311 300.919 344.31C300.832 344.308 300.744 344.242 300.721 344.164L296.632 330.147C296.612 330.069 296.661 330.007 296.748 330.009C296.835 330.011 296.923 330.076 296.946 330.154L301.035 344.172C301.044 344.206 301.041 344.236 301.025 344.26L301.026 344.261Z" fill="black"/>
<path d="M341.306 333.517C341.284 333.538 341.256 333.555 341.225 333.563C341.132 333.586 341.037 333.529 341.013 333.435C338.524 323.338 336.888 300.604 336.872 300.376C336.865 300.28 336.938 300.197 337.033 300.19C337.129 300.183 337.212 300.255 337.219 300.351C337.236 300.579 338.869 323.283 341.352 333.352C341.366 333.412 341.347 333.475 341.306 333.516V333.517Z" fill="black"/>
<path d="M339.632 324.284C339.584 324.332 339.512 324.35 339.445 324.323C339.356 324.288 339.312 324.187 339.347 324.097C339.413 323.929 346.133 307.11 360.81 292.832C360.878 292.765 360.989 292.766 361.056 292.836C361.123 292.904 361.122 293.013 361.054 293.08L361.052 293.082C360.756 293.37 360.461 293.662 360.171 293.953C346.153 307.987 339.737 324.061 339.672 324.227C339.663 324.249 339.649 324.27 339.633 324.286L339.632 324.284Z" fill="black"/>
<path d="M332.443 338.609C330.279 340.776 328.735 341.76 327.822 341.553C327.136 341.396 326.798 340.63 326.82 339.275C326.823 339.178 326.901 339.102 326.997 339.104C327.093 339.106 327.17 339.185 327.168 339.281C327.149 340.487 327.413 341.14 327.953 341.223C330.205 341.569 337.176 333.508 347.588 318.518C355.81 306.679 362.863 295.336 363.371 294.251C363.363 294.196 363.388 294.144 363.428 294.093C363.49 294.039 363.604 294.024 363.67 294.072C363.794 294.164 363.727 294.309 363.695 294.379C363.161 295.541 355.671 307.529 347.472 319.293C340.916 328.701 335.892 335.156 332.442 338.609H332.443Z" fill="black"/>
<path d="M212.066 444.522C212.066 444.522 214.323 451.272 211.181 455.698L198.392 448.844L197.431 450.702L242.022 473.258L242.785 471.027L226.711 463.441C226.711 463.441 231.783 453.354 224.739 442.641C224.739 442.641 217.957 444.695 215.9 444.695C213.843 444.695 212.066 444.522 212.066 444.522Z" fill="#FFF7ED"/>
<path d="M314.059 485.633C314.059 485.633 320.5 484.565 324.054 488.051L315.995 498.644L317.539 499.783L344.421 462.657L342.511 461.642L333.314 475.104C333.314 475.104 324.911 469.05 314.189 473.88C314.189 473.88 315.068 480.321 314.771 482.184C314.474 484.048 314.06 485.632 314.06 485.632L314.059 485.633Z" fill="#FFF7ED"/>
<path d="M311.944 415.036C311.896 415.036 311.847 415.028 311.799 415.008C311.612 414.929 311.524 414.712 311.604 414.524L314.136 408.54C314.217 408.354 314.43 408.263 314.621 408.345C314.808 408.424 314.896 408.641 314.816 408.829L312.284 414.812C312.224 414.953 312.087 415.037 311.943 415.037L311.944 415.036Z" fill="black"/>
<path d="M288.831 406.734C288.783 406.734 288.734 406.726 288.687 406.706C288.5 406.627 288.412 406.41 288.491 406.222L291.024 400.238C291.105 400.051 291.319 399.963 291.509 400.043C291.695 400.122 291.784 400.339 291.704 400.527L289.171 406.51C289.111 406.651 288.975 406.734 288.831 406.734Z" fill="black"/>
<path d="M320.809 378.851C320.645 378.851 320.497 378.742 320.453 378.578C320.4 378.38 320.516 378.179 320.714 378.126L329.942 375.664C330.142 375.609 330.342 375.729 330.394 375.926C330.447 376.123 330.331 376.325 330.133 376.378L320.905 378.839C320.872 378.848 320.841 378.852 320.809 378.852V378.851Z" fill="black"/>
<path d="M299.472 411.604C299.33 411.604 299.196 411.522 299.135 411.384C299.086 411.274 294.283 400.221 298.078 389.821C301.908 379.328 317.07 378.687 317.223 378.682C317.408 378.658 317.598 378.833 317.605 379.038C317.612 379.241 317.453 379.412 317.249 379.419C317.102 379.425 302.431 380.051 298.772 390.073C295.081 400.189 299.762 410.977 299.809 411.085C299.892 411.272 299.809 411.489 299.621 411.571C299.573 411.594 299.521 411.603 299.472 411.603V411.604Z" fill="black"/>
<path d="M329.146 465.283C329.135 465.283 329.124 465.283 329.113 465.282C328.91 465.262 328.761 465.084 328.778 464.881C328.78 464.857 328.983 462.587 328.781 461.276C328.645 460.395 326.597 460.055 325.889 460.005C325.686 459.991 325.533 459.815 325.547 459.611C325.561 459.408 325.736 459.243 325.94 459.269C326.28 459.291 329.262 459.547 329.51 461.163C329.725 462.564 329.522 464.85 329.513 464.946C329.496 465.138 329.334 465.282 329.145 465.282L329.146 465.283Z" fill="black"/>
<path d="M235.88 456.497C235.696 456.497 235.537 456.36 235.514 456.174C235.488 455.972 235.632 455.788 235.835 455.763C236.742 455.648 238.305 455.234 238.642 454.608C239.057 453.837 239.037 451.229 238.995 450.289C238.986 450.084 239.143 449.912 239.347 449.902C239.552 449.904 239.722 450.05 239.732 450.254C239.749 450.62 239.878 453.869 239.292 454.957C238.666 456.121 236.204 456.459 235.927 456.493C235.911 456.495 235.895 456.496 235.881 456.496L235.88 456.497Z" fill="black"/>
<path d="M260.152 340.799H170.339C169.407 340.799 168.611 340.126 168.456 339.207L157.392 273.9C157.194 272.734 158.093 271.671 159.276 271.671H249.089C250.021 271.671 250.817 272.343 250.972 273.262L262.036 338.569C262.234 339.735 261.335 340.799 260.153 340.799H260.152Z" fill="#E49C7A"/>
<path d="M258.711 340.799H168.898C167.966 340.799 167.17 340.126 167.014 339.207L155.95 273.9C155.752 272.734 156.651 271.671 157.834 271.671H247.647C248.579 271.671 249.375 272.343 249.531 273.262L260.595 338.569C260.793 339.735 259.894 340.799 258.712 340.799H258.711Z" fill="#A1A1AA"/>
<path d="M216.486 325.501C215.99 324.14 214.695 323.233 213.245 323.233H206.566C204.525 323.233 202.931 324.994 203.134 327.025L206.257 358.367H228.455L216.486 325.501ZM211.354 337.6C209.107 337.6 207.288 335.78 207.288 333.534C207.288 331.289 209.108 329.469 211.354 329.469C213.599 329.469 215.421 331.289 215.421 333.534C215.421 335.78 213.6 337.6 211.354 337.6Z" fill="#E49C7A"/>
<path d="M215.497 325.501C215.001 324.14 213.706 323.233 212.256 323.233H205.577C203.536 323.233 201.942 324.994 202.145 327.025L205.268 358.367H227.467L215.498 325.502L215.497 325.501ZM210.365 337.6C208.119 337.6 206.299 335.78 206.299 333.534C206.299 331.289 208.119 329.469 210.365 329.469C212.61 329.469 214.432 331.289 214.432 333.534C214.432 335.78 212.611 337.6 210.365 337.6Z" fill="#A1A1AA"/>
<path d="M203.642 342.232C203.548 342.232 203.467 342.159 203.46 342.064L202.189 326.27C202.121 325.444 202.406 324.619 202.968 324.009C203.531 323.399 204.33 323.05 205.16 323.05H213.246C213.347 323.05 213.429 323.132 213.429 323.233C213.429 323.333 213.347 323.416 213.246 323.416H205.16C204.42 323.416 203.738 323.714 203.237 324.258C202.737 324.801 202.493 325.505 202.553 326.241L203.823 342.034C203.832 342.135 203.756 342.224 203.656 342.232C203.651 342.232 203.646 342.232 203.642 342.232Z" fill="black"/>
<path d="M210.364 337.783C208.021 337.783 206.115 335.877 206.115 333.534C206.115 331.19 208.022 329.285 210.364 329.285C212.706 329.285 214.614 331.19 214.614 333.534C214.614 335.877 212.707 337.783 210.364 337.783ZM210.364 329.651C208.222 329.651 206.481 331.393 206.481 333.534C206.481 335.676 208.223 337.418 210.364 337.418C212.504 337.418 214.248 335.676 214.248 333.534C214.248 331.393 212.506 329.651 210.364 329.651Z" fill="black"/>
<path d="M203.516 340.982H176.066C175.965 340.982 175.883 340.899 175.883 340.799C175.883 340.698 175.965 340.616 176.066 340.616H203.516C203.617 340.616 203.699 340.698 203.699 340.799C203.699 340.899 203.617 340.982 203.516 340.982Z" fill="black"/>
<path d="M198.969 350.916H164.727C163.647 350.916 162.771 351.792 162.771 352.872V356.786C162.771 357.866 163.647 358.742 164.727 358.742H198.969C200.05 358.742 200.926 357.866 200.926 356.786V352.872C200.926 351.792 200.05 350.916 198.969 350.916Z" fill="#64748B"/>
<path d="M182.536 306.439C182.345 306.439 182.224 306.416 182.212 306.413C182.113 306.395 182.049 306.299 182.067 306.2C182.086 306.1 182.18 306.038 182.281 306.054C182.373 306.072 184.497 306.43 185.103 303.28C185.123 303.181 185.217 303.108 185.316 303.136C185.416 303.154 185.481 303.251 185.461 303.349C185.111 305.173 184.253 305.911 183.594 306.209C183.179 306.397 182.792 306.439 182.534 306.439H182.536Z" fill="black"/>
<path d="M252.108 358.428L252.596 355.927L255.036 355.826L255.578 354.138C255.578 354.138 294.778 357.1 295.266 357.249L295.755 357.398L296.351 358.428H252.108Z" fill="#D4D4D8"/>
<path d="M273.107 356.984H273.097L253.943 356.009C253.842 356.003 253.764 355.918 253.769 355.816C253.774 355.715 253.876 355.642 253.962 355.642L273.117 356.617C273.218 356.623 273.296 356.708 273.291 356.81C273.286 356.908 273.205 356.984 273.108 356.984H273.107Z" fill="black"/>
<path d="M296.35 358.111H296.344L274.71 357.188C274.609 357.184 274.531 357.098 274.535 356.997C274.539 356.897 274.626 356.839 274.725 356.822L296.357 357.745C296.459 357.749 296.537 357.835 296.533 357.936C296.529 358.034 296.447 358.111 296.35 358.111Z" fill="black"/>
<path d="M194.077 352.872H193.099V356.786H194.077V352.872Z" fill="#1E293B"/>
<path d="M197.012 352.872H196.034V356.786H197.012V352.872Z" fill="#1E293B"/>
<path d="M322.61 359.426C322.579 358.998 321.916 358.663 321.092 358.663C304.095 358.648 144.139 358.515 142.713 358.664C141.207 358.821 142.525 362.761 142.713 363.291C142.901 363.821 145.499 363.526 145.499 363.526C145.499 363.526 145.161 365.114 145.951 365.055C146.742 364.997 227.285 365.058 256.881 365.057C286.477 365.055 315.278 365.879 315.826 365.33C316.374 364.782 315.826 363.919 315.826 363.919C315.826 363.919 322.098 364.311 322.549 364.075C322.892 363.897 322.715 360.875 322.609 359.426H322.61Z" fill="#FFEDD5"/>
<path d="M309.769 363.838C309.769 363.838 309.771 386.413 309.769 400.339C309.768 414.265 309.65 495.913 309.71 498.371C309.769 500.829 309.693 506.836 309.693 506.836C309.693 506.836 308.272 507.746 307.794 506.836C307.316 505.927 308.101 446.004 307.573 440.784C307.046 435.566 306.236 419.728 305.832 411.331C305.428 402.934 304.979 382.863 304.62 376.788C304.261 370.712 304.216 364.158 304.216 364.158L309.77 363.839L309.769 363.838Z" fill="#FFEDD5"/>
<path d="M151.791 363.838C151.791 363.838 151.789 386.413 151.791 400.339C151.792 414.265 151.91 495.913 151.851 498.371C151.791 500.829 151.867 506.836 151.867 506.836C151.867 506.836 153.288 507.746 153.766 506.836C154.245 505.927 153.459 446.003 153.987 440.784C154.515 435.566 155.324 419.728 155.728 411.331C156.132 402.934 156.581 382.863 156.94 376.788C157.299 370.712 157.344 364.158 157.344 364.158L151.79 363.839L151.791 363.838Z" fill="#FFEDD5"/>
<path d="M309.769 365.61H309.766L303.985 365.43C303.908 365.428 303.846 365.344 303.849 365.243C303.851 365.143 303.914 365.064 303.989 365.064H303.992L309.773 365.244C309.85 365.246 309.912 365.33 309.909 365.431C309.907 365.531 309.845 365.61 309.769 365.61Z" fill="#1C1612"/>
<path d="M157.524 365.214H150.817C150.74 365.214 150.678 365.132 150.678 365.031C150.678 364.93 150.74 364.848 150.817 364.848H157.524C157.601 364.848 157.664 364.93 157.664 365.031C157.664 365.132 157.601 365.214 157.524 365.214Z" fill="#1C1612"/>
<path d="M309.769 366.237H309.764L304.682 366.031C304.605 366.027 304.544 365.943 304.547 365.842C304.549 365.742 304.611 365.665 304.687 365.665H304.692L309.774 365.87C309.851 365.874 309.912 365.958 309.909 366.059C309.907 366.159 309.845 366.236 309.769 366.236V366.237Z" fill="#1C1612"/>
<path d="M309.769 366.825H309.763L305.512 366.619C305.435 366.615 305.374 366.53 305.377 366.429C305.38 366.326 305.445 366.251 305.522 366.253L309.774 366.458C309.85 366.462 309.912 366.547 309.908 366.648C309.905 366.747 309.844 366.824 309.768 366.824L309.769 366.825Z" fill="#1C1612"/>
<path d="M309.769 367.501H309.763L306.657 367.355C306.581 367.351 306.52 367.265 306.523 367.165C306.526 367.066 306.588 366.989 306.663 366.989H306.669L309.776 367.135C309.852 367.139 309.912 367.224 309.91 367.325C309.907 367.424 309.846 367.501 309.77 367.501H309.769Z" fill="#1C1612"/>
<path d="M309.769 368.266H307.899C307.821 368.266 307.759 368.184 307.759 368.083C307.759 367.983 307.821 367.9 307.899 367.9H309.769C309.846 367.9 309.909 367.983 309.909 368.083C309.909 368.184 309.846 368.266 309.769 368.266Z" fill="#1C1612"/>
<path d="M309.769 369.148C309.769 369.148 309.759 369.148 309.754 369.148L308.915 369.03C308.839 369.02 308.783 368.929 308.792 368.829C308.8 368.728 308.85 368.65 308.945 368.665L309.784 368.783C309.86 368.794 309.916 368.885 309.907 368.984C309.899 369.078 309.84 369.148 309.768 369.148H309.769Z" fill="#1C1612"/>
<path d="M157.324 365.7H152.216C152.139 365.7 152.077 365.618 152.077 365.517C152.077 365.416 152.139 365.334 152.216 365.334H157.324C157.402 365.334 157.464 365.416 157.464 365.517C157.464 365.618 157.402 365.7 157.324 365.7Z" fill="#1C1612"/>
<path d="M157.311 366.385H157.308L152.663 366.267C152.585 366.265 152.524 366.18 152.526 366.08C152.528 365.978 152.581 365.917 152.668 365.901L157.314 366.019C157.391 366.021 157.453 366.105 157.451 366.206C157.449 366.306 157.387 366.385 157.311 366.385Z" fill="#1C1612"/>
<path d="M157.292 367.209H157.285L153.333 366.973C153.255 366.968 153.196 366.883 153.2 366.781C153.204 366.68 153.282 366.608 153.346 366.607L157.299 366.843C157.376 366.848 157.436 366.933 157.432 367.035C157.428 367.132 157.366 367.209 157.292 367.209Z" fill="#1C1612"/>
<path d="M157.277 367.77H157.273L154.165 367.62C154.088 367.616 154.027 367.531 154.03 367.43C154.033 367.328 154.096 367.241 154.175 367.253L157.282 367.403C157.36 367.407 157.42 367.492 157.417 367.593C157.414 367.693 157.353 367.769 157.277 367.769V367.77Z" fill="#1C1612"/>
<path d="M157.256 368.502H155.316C155.239 368.502 155.176 368.42 155.176 368.319C155.176 368.218 155.239 368.136 155.316 368.136H157.256C157.333 368.136 157.396 368.218 157.396 368.319C157.396 368.42 157.333 368.502 157.256 368.502Z" fill="#1C1612"/>
<path d="M157.238 369.094H156.057C155.98 369.094 155.917 369.012 155.917 368.911C155.917 368.81 155.98 368.728 156.057 368.728H157.238C157.316 368.728 157.378 368.81 157.378 368.911C157.378 369.012 157.316 369.094 157.238 369.094Z" fill="#1C1612"/>
<path d="M157.207 369.975H156.647C156.57 369.975 156.507 369.893 156.507 369.793C156.507 369.692 156.57 369.61 156.647 369.61H157.207C157.284 369.61 157.347 369.692 157.347 369.793C157.347 369.893 157.284 369.975 157.207 369.975Z" fill="#1C1612"/>
<path d="M303.098 340.37C303.098 340.37 292.511 337.641 290.197 338.59C287.882 339.54 282.358 347.58 282.358 347.58C282.358 347.58 284.203 348.247 285.533 348.035C286.863 347.824 289.818 344.236 291.04 343.814C292.262 343.391 294.002 346.267 295.427 347.784C296.851 349.301 301.881 352.204 301.881 352.204L303.097 340.369L303.098 340.37Z" fill="#FDBA74"/>
<path d="M291.309 352.363C291.233 352.363 291.164 352.307 291.153 352.228L290.468 347.95C290.454 347.864 290.513 347.783 290.6 347.769C290.683 347.756 290.767 347.813 290.781 347.901L291.466 352.18C291.479 352.266 291.421 352.347 291.334 352.362C291.325 352.362 291.316 352.363 291.309 352.363V352.363Z" fill="black"/>
<path d="M263.951 333.515C263.909 333.515 263.867 333.497 263.836 333.465C263.776 333.401 263.779 333.301 263.842 333.241L266.992 330.265C267.055 330.204 267.156 330.207 267.216 330.271C267.276 330.334 267.273 330.435 267.21 330.495L264.06 333.471C264.03 333.5 263.991 333.515 263.952 333.515H263.951Z" fill="black"/>
<path d="M266.009 334.307C265.967 334.307 265.925 334.29 265.895 334.257C265.835 334.194 265.837 334.093 265.901 334.034L269.051 331.058C269.114 330.998 269.215 331.002 269.275 331.064C269.336 331.128 269.333 331.229 269.269 331.288L266.119 334.264C266.089 334.294 266.049 334.308 266.01 334.308L266.009 334.307Z" fill="black"/>
<path d="M292.942 351.486C292.866 351.486 292.798 351.43 292.785 351.352L292.101 347.074C292.087 346.988 292.146 346.906 292.233 346.893C292.328 346.882 292.4 346.939 292.415 347.025L293.099 351.303C293.113 351.389 293.054 351.47 292.967 351.485C292.959 351.485 292.951 351.487 292.943 351.487L292.942 351.486Z" fill="black"/>
<path d="M279.032 328.963C279.032 328.963 273.002 327.034 269.599 325.768C266.195 324.502 259.151 321.414 259.151 321.414C259.151 321.414 258.677 323.63 260.18 324.58C261.684 325.53 271.42 329.408 272.766 330.753C274.112 332.098 274.292 335.264 273.291 337.481C272.29 339.697 271.895 342.705 272.369 343.813C272.844 344.921 273.635 345.296 273.635 345.296C273.635 345.296 275.535 340.989 277.039 339.908C278.543 338.827 281.841 338.618 281.841 338.618L279.032 328.962V328.963Z" fill="#FDBA74"/>
<path d="M544.36 384.179H471.907C468.674 384.179 466.054 386.519 466.054 389.406V475.392C466.054 478.279 468.674 480.62 471.907 480.62H544.36C547.592 480.62 550.212 478.279 550.212 475.392V389.406C550.212 386.519 547.592 384.179 544.36 384.179Z" fill="#FFEDD5"/>
<path d="M471.907 480.62V494.759H478.072C478.072 489.338 482.993 484.944 489.062 484.944H528.435C534.505 484.944 539.424 489.338 539.424 494.759H545.223V480.62H471.907Z" fill="#A1A1AA"/>
<path d="M543.606 391.648H472.208V407.685H543.606V391.648Z" fill="#D4D4D8"/>
<path d="M543.832 412.095H472.434V428.132H543.832V412.095Z" fill="#D4D4D8"/>
<path d="M543.832 432.563H472.434V448.599H543.832V432.563Z" fill="#D4D4D8" fill-opacity="0.831373"/>
<path d="M544.466 453.188H473.068V469.225H544.466V453.188Z" fill="#D4D4D8"/>
<path d="M511.869 461.048C511.869 462.678 510.39 463.999 508.565 463.999C506.741 463.999 505.262 462.678 505.262 461.048C505.262 459.419 506.741 458.098 508.565 458.098C510.39 458.098 511.869 459.419 511.869 461.048Z" fill="#A1A1AA"/>
<path d="M511.437 440.581C511.437 442.211 509.958 443.532 508.134 443.532C506.31 443.532 504.831 442.211 504.831 440.581C504.831 438.952 506.31 437.631 508.134 437.631C509.958 437.631 511.437 438.952 511.437 440.581Z" fill="#A1A1AA"/>
<path d="M511.21 420.114C511.21 421.744 509.731 423.065 507.907 423.065C506.082 423.065 504.603 421.744 504.603 420.114C504.603 418.485 506.082 417.164 507.907 417.164C509.731 417.164 511.21 418.485 511.21 420.114Z" fill="#A1A1AA"/>
<path d="M511.21 399.666C511.21 401.295 509.731 402.616 507.907 402.616C506.082 402.616 504.603 401.295 504.603 399.666C504.603 398.036 506.082 396.715 507.907 396.715C509.731 396.715 511.21 398.036 511.21 399.666Z" fill="#A1A1AA"/>
<path d="M497.22 435.892H472.434C472.378 435.892 472.333 435.851 472.333 435.801C472.333 435.751 472.378 435.711 472.434 435.711H497.22C497.276 435.711 497.321 435.751 497.321 435.801C497.321 435.851 497.276 435.892 497.22 435.892Z" fill="black"/>
<path d="M543.201 415.669H518.414C518.359 415.669 518.313 415.629 518.313 415.579C518.313 415.529 518.359 415.489 518.414 415.489H543.201C543.257 415.489 543.302 415.529 543.302 415.579C543.302 415.629 543.257 415.669 543.201 415.669Z" fill="black"/>
<path d="M497.22 400.933H472.434C472.378 400.933 472.333 400.893 472.333 400.843C472.333 400.793 472.378 400.753 472.434 400.753H497.22C497.276 400.753 497.321 400.793 497.321 400.843C497.321 400.893 497.276 400.933 497.22 400.933Z" fill="black"/>
<path d="M543.606 440.672H518.01C517.954 440.672 517.909 440.631 517.909 440.581C517.909 440.531 517.954 440.491 518.01 440.491H543.606C543.661 440.491 543.707 440.531 543.707 440.581C543.707 440.631 543.661 440.672 543.606 440.672Z" fill="black"/>
<path d="M544.264 465.674H499.514C499.458 465.674 499.412 465.633 499.412 465.584C499.412 465.534 499.458 465.493 499.514 465.493H544.264C544.32 465.493 544.365 465.534 544.365 465.584C544.365 465.633 544.32 465.674 544.264 465.674Z" fill="black"/>
<path d="M530.808 476.423C530.787 476.423 530.764 476.416 530.747 476.404C530.702 476.374 530.695 476.316 530.729 476.277L534.02 472.484C534.053 472.443 534.117 472.437 534.162 472.467C534.206 472.498 534.214 472.555 534.18 472.594L530.889 476.387C530.87 476.41 530.839 476.423 530.808 476.423Z" fill="black"/>
<path d="M480.5 388.716C480.472 388.716 480.443 388.705 480.423 388.684C480.386 388.645 480.393 388.588 480.436 388.556L482.256 387.194C482.299 387.162 482.363 387.168 482.398 387.206C482.435 387.244 482.428 387.301 482.385 387.333L480.565 388.695C480.546 388.71 480.523 388.716 480.5 388.716Z" fill="black"/>
<path d="M472.866 478.049C472.841 478.049 472.816 478.04 472.796 478.023C472.755 477.989 472.755 477.931 472.793 477.895L474.562 476.27C474.602 476.233 474.665 476.233 474.705 476.267C474.746 476.302 474.746 476.36 474.708 476.395L472.939 478.021C472.92 478.039 472.892 478.049 472.866 478.049Z" fill="black"/>
<path d="M474.635 487.78C474.623 487.78 474.611 487.778 474.599 487.774C474.547 487.757 474.52 487.705 474.54 487.658L476.36 483.285C476.379 483.239 476.437 483.216 476.491 483.233C476.543 483.25 476.57 483.302 476.55 483.349L474.729 487.721C474.714 487.758 474.675 487.78 474.635 487.78Z" fill="black"/>
<path d="M493.04 445.17C493.019 445.17 492.998 445.164 492.98 445.152C492.935 445.122 492.926 445.066 492.96 445.025L495.994 441.412C496.028 441.373 496.091 441.364 496.136 441.395C496.18 441.425 496.189 441.481 496.155 441.521L493.121 445.134C493.102 445.158 493.071 445.17 493.04 445.17Z" fill="black"/>
<path d="M496.074 420.963C496.052 420.963 496.028 420.955 496.01 420.942C495.967 420.91 495.96 420.853 495.996 420.814L499.434 417.105C499.472 417.068 499.535 417.063 499.578 417.093C499.62 417.125 499.627 417.182 499.591 417.221L496.153 420.93C496.133 420.951 496.104 420.963 496.074 420.963Z" fill="black"/>
<path d="M479.287 423.155C479.268 423.155 479.249 423.15 479.233 423.14C479.185 423.113 479.172 423.057 479.202 423.015L481.325 420.065C481.357 420.022 481.419 420.012 481.465 420.038C481.513 420.065 481.526 420.121 481.496 420.163L479.372 423.113C479.353 423.14 479.32 423.155 479.287 423.155Z" fill="black"/>
<path d="M534.908 461.139C534.894 461.139 534.881 461.136 534.867 461.131C534.815 461.111 534.793 461.057 534.815 461.012L536.838 456.965C536.861 456.918 536.922 456.901 536.971 456.919C537.023 456.939 537.046 456.992 537.023 457.038L535.001 461.085C534.984 461.119 534.947 461.138 534.908 461.138V461.139Z" fill="black"/>
<path d="M534.099 404.162C534.082 404.162 534.065 404.158 534.049 404.15C534.001 404.125 533.984 404.07 534.012 404.026L536.844 399.62C536.871 399.576 536.934 399.561 536.982 399.587C537.031 399.612 537.047 399.667 537.019 399.711L534.188 404.116C534.168 404.145 534.135 404.161 534.1 404.161L534.099 404.162Z" fill="black"/>
<path d="M537.74 401.959C537.721 401.959 537.703 401.954 537.687 401.944C537.639 401.918 537.625 401.863 537.655 401.82L540.689 397.497C540.718 397.455 540.781 397.442 540.828 397.469C540.876 397.495 540.89 397.551 540.86 397.593L537.826 401.916C537.807 401.943 537.773 401.959 537.74 401.959Z" fill="black"/>
<path d="M537.934 417.163L534.698 419.829H532.271L531.311 421.004L533.384 422.584L532.423 425.971L535.76 423.172L540.21 422.75L536.95 420.513L537.934 417.163Z" fill="#9CA3AF"/>
<path d="M535.205 422.381C535.763 422.381 536.216 421.977 536.216 421.478C536.216 420.979 535.763 420.574 535.205 420.574C534.646 420.574 534.193 420.979 534.193 421.478C534.193 421.977 534.646 422.381 535.205 422.381Z" fill="#D92C2A"/>
<path d="M492.282 455.642L489.045 458.308H486.618L485.658 459.483L487.731 461.063L486.77 464.45L490.108 461.65L494.557 461.228L491.298 458.992L492.282 455.642Z" fill="#6B7280"/>
<path d="M489.551 460.86C490.11 460.86 490.562 460.455 490.562 459.957C490.562 459.458 490.11 459.053 489.551 459.053C488.993 459.053 488.54 459.458 488.54 459.957C488.54 460.455 488.993 460.86 489.551 460.86Z" fill="#D92C2A"/>
<path d="M518.493 471.229L515.257 473.895H512.83L511.868 475.069L513.942 476.65L512.981 480.037L516.318 477.237L520.768 476.816L517.508 474.579L518.493 471.229Z" fill="#334155" fill-opacity="0.239216"/>
<path d="M515.762 476.447C516.321 476.447 516.774 476.042 516.774 475.543C516.774 475.044 516.321 474.64 515.762 474.64C515.204 474.64 514.751 475.044 514.751 475.543C514.751 476.042 515.204 476.447 515.762 476.447Z" fill="#D92C2A"/>
<path d="M484.495 391.26L481.258 393.925H478.831L477.871 395.1L479.944 396.681L478.983 400.068L482.321 397.267L486.77 396.846L483.511 394.61L484.495 391.26Z" fill="#334155"/>
<path d="M481.764 396.478C482.323 396.478 482.775 396.073 482.775 395.574C482.775 395.076 482.323 394.671 481.764 394.671C481.205 394.671 480.753 395.076 480.753 395.574C480.753 396.073 481.205 396.478 481.764 396.478Z" fill="#D92C2A"/>
<path d="M484.667 460.785C484.646 460.785 484.624 460.779 484.606 460.767C484.562 460.737 484.553 460.681 484.587 460.64L487.621 457.027C487.654 456.988 487.718 456.979 487.762 457.01C487.807 457.039 487.816 457.096 487.782 457.136L484.748 460.749C484.728 460.772 484.698 460.785 484.667 460.785V460.785Z" fill="black"/>
<path d="M510.571 476.684C510.55 476.684 510.528 476.678 510.51 476.666C510.466 476.636 510.457 476.58 510.491 476.539L513.525 472.926C513.559 472.886 513.622 472.878 513.666 472.909C513.711 472.938 513.72 472.995 513.686 473.035L510.652 476.648C510.632 476.671 510.602 476.684 510.571 476.684V476.684Z" fill="black"/>
<path d="M530.081 422.547C530.06 422.547 530.038 422.541 530.02 422.529C529.976 422.5 529.967 422.443 530.001 422.403L533.035 418.79C533.069 418.75 533.132 418.742 533.176 418.772C533.221 418.802 533.23 418.858 533.196 418.899L530.162 422.512C530.142 422.535 530.112 422.548 530.081 422.548V422.547Z" fill="black"/>
<path d="M477.315 395.754C477.294 395.754 477.272 395.749 477.254 395.736C477.21 395.707 477.201 395.65 477.235 395.61L480.269 391.997C480.303 391.958 480.366 391.948 480.41 391.979C480.455 392.009 480.464 392.065 480.43 392.106L477.396 395.719C477.377 395.742 477.346 395.755 477.315 395.755V395.754Z" fill="black"/>
<path d="M497.54 367.094L501.341 383.583C501.471 384.15 501.989 384.552 502.586 384.552H514.361C514.962 384.552 515.481 384.144 515.608 383.573L519.271 367.094H497.54Z" fill="#538189"/>
<path d="M519.271 367.094C519.271 367.707 514.406 368.205 508.405 368.205C502.405 368.205 497.54 367.707 497.54 367.094C497.54 366.48 502.405 365.983 508.405 365.983C514.406 365.983 519.271 366.481 519.271 367.094Z" fill="#334155"/>
<path d="M510.277 359.242C514.538 360.415 520.26 359.345 521.721 356.208C523.182 353.07 521.721 347.499 525.495 345.132C525.495 345.132 515.999 350.606 510.277 359.242Z" fill="#FDBA74"/>
<path d="M515.574 350.226C515.276 350.481 514.814 350.266 514.832 349.88C514.957 347.014 515.395 340.145 519.164 334.455C523.547 327.838 528.782 324.166 529.634 325.113C530.487 326.061 527.565 332.723 526.591 336.085C525.617 339.448 522.573 345.489 519.652 347.266C517.841 348.367 516.405 349.514 515.574 350.227L515.574 350.226Z" fill="#FDBA74"/>
<path d="M522.382 353.595C523.06 350.642 527.751 346.287 529.788 346.303C529.788 346.303 527.012 343.292 524.397 345.812C521.782 348.332 522.382 353.595 522.382 353.595Z" fill="#FB923C"/>
<path d="M506.185 359.374C506.185 359.374 503.155 353.633 498.681 350.336C494.207 347.04 488.455 340.927 486.355 336.219C484.254 331.51 480.085 328.342 480.085 328.342C478.989 328.667 480.816 334.204 482.276 334.931C483.737 335.657 486.659 340.749 488.85 348.213C491.041 355.677 498.711 358.78 502.242 359.242C503.502 359.407 504.438 359.566 505.118 359.702C505.533 359.784 505.922 359.64 506.185 359.374Z" fill="#FB923C"/>
<path d="M486.355 336.219C488.455 340.928 494.207 347.041 498.681 350.337C503.155 353.633 506.185 359.375 506.185 359.375C506.428 359.129 506.564 358.78 506.504 358.403C505.895 354.616 504.024 345.486 499.564 340.609C493.842 334.354 487.755 332.814 486.294 331.274C484.833 329.734 481.18 328.018 480.085 328.343C480.085 328.343 484.254 331.511 486.355 336.22V336.219Z" fill="#FFEDD5"/>
<path d="M511.921 335.598C511.738 328.134 513.747 318.806 512.956 313.913C512.469 314.926 511.373 320.754 509.303 325.717C507.234 330.681 505.042 338.5 505.895 344.541C506.537 349.093 507.87 352.5 508.384 354.588C508.432 354.783 508.549 354.928 508.694 355.028C509.759 352.335 512.103 343.061 511.921 335.598Z" fill="#FB923C"/>
<path d="M509.724 354.885C511.192 353.034 513.7 349.295 515.025 344.014C516.973 336.249 515.634 323.543 515.025 320.005C514.416 316.467 513.442 312.901 512.956 313.914C513.747 318.806 511.738 328.135 511.921 335.598C512.103 343.061 509.759 352.336 508.694 355.029C509.004 355.242 509.455 355.224 509.724 354.886V354.885Z" fill="#FED7AA"/>
<path d="M508.405 367.484C508.286 367.484 508.187 367.389 508.187 367.272C508.186 366.752 508.183 354.503 509.758 350.711C509.804 350.602 509.931 350.549 510.042 350.593C510.154 350.637 510.208 350.761 510.163 350.87C508.619 354.586 508.622 367.145 508.623 367.271C508.623 367.389 508.526 367.484 508.405 367.484Z" fill="black"/>
<path d="M508.502 362.686C508.47 362.686 508.437 362.679 508.407 362.664C508.298 362.613 508.253 362.486 508.305 362.381C508.314 362.363 509.203 360.592 511.729 356.864C511.794 356.765 511.93 356.739 512.03 356.804C512.131 356.868 512.158 357 512.092 357.098C509.586 360.797 508.706 362.549 508.698 362.566C508.66 362.642 508.582 362.686 508.502 362.686Z" fill="black"/>
<path d="M508.405 364.107C508.307 364.107 508.218 364.042 508.193 363.946C507.508 361.195 503.596 355.707 500.263 351.941C500.184 351.853 500.194 351.719 500.285 351.642C500.378 351.567 500.514 351.576 500.592 351.664C503.384 354.818 507.824 360.665 508.617 363.845C508.645 363.959 508.573 364.074 508.456 364.102C508.438 364.106 508.422 364.107 508.405 364.107H508.405Z" fill="black"/>
<path d="M508.738 358.388C508.695 358.388 508.652 358.376 508.614 358.35C508.515 358.284 508.49 358.152 508.559 358.055C508.638 357.943 516.589 346.71 520.674 338.76C520.728 338.656 520.859 338.614 520.966 338.666C521.073 338.718 521.117 338.845 521.063 338.95C516.964 346.926 508.996 358.184 508.916 358.296C508.874 358.356 508.807 358.388 508.738 358.388Z" fill="black"/>
<path d="M510.486 348.728C510.468 348.728 510.448 348.725 510.429 348.72C510.313 348.69 510.245 348.573 510.276 348.46C511.249 344.988 511.435 340.133 511.616 335.437C511.713 332.908 511.804 330.52 512.012 328.352C512.604 322.157 512.89 318.149 512.893 318.11C512.901 317.994 513.001 317.9 513.125 317.913C513.245 317.921 513.336 318.022 513.328 318.139C513.325 318.179 513.039 322.192 512.446 328.391C512.24 330.548 512.149 332.931 512.052 335.453C511.871 340.173 511.683 345.053 510.698 348.572C510.671 348.666 510.583 348.728 510.488 348.728L510.486 348.728Z" fill="black"/>
<path d="M498.681 350.549C498.618 350.549 498.555 350.522 498.513 350.471C495.98 347.458 493.921 345.638 492.267 344.176C490.266 342.406 488.684 341.008 487.306 338.464C484.842 333.913 483.033 331.508 483.016 331.484C482.944 331.39 482.965 331.257 483.061 331.188C483.159 331.118 483.295 331.138 483.366 331.233C483.384 331.257 485.21 333.684 487.691 338.266C489.033 340.744 490.512 342.052 492.56 343.862C494.225 345.333 496.296 347.165 498.849 350.203C498.925 350.293 498.912 350.427 498.819 350.501C498.778 350.533 498.729 350.549 498.68 350.549H498.681Z" fill="black"/>
<path d="M522.309 337.008C522.276 337.008 522.244 337.001 522.212 336.985C522.104 336.933 522.061 336.806 522.114 336.701C522.279 336.378 526.187 328.759 528.25 326.397C528.328 326.308 528.466 326.297 528.558 326.373C528.649 326.449 528.66 326.583 528.582 326.672C526.553 328.994 522.544 336.811 522.503 336.89C522.466 336.964 522.389 337.007 522.309 337.007L522.309 337.008Z" fill="black"/>
<path d="M513.42 355.38C513.37 355.38 513.322 355.364 513.281 355.332C513.188 355.258 513.175 355.124 513.251 355.033C516.601 351.066 522.656 346.727 522.717 346.684C522.813 346.614 522.95 346.634 523.021 346.73C523.092 346.824 523.072 346.958 522.975 347.027C522.915 347.07 516.903 351.378 513.589 355.304C513.545 355.355 513.483 355.381 513.42 355.381L513.42 355.38Z" fill="black"/>
</svg>
