<svg width="1026" height="414" viewBox="0 0 1026 414" fill="none" xmlns="http://www.w3.org/2000/svg">
<path d="M416.333 81.6679C399.667 82.6019 361.867 85.633 342 89.5C324.5 91.465 247 105.5 246.6 116.202C246.232 126.034 251.4 129.668 261.533 140.468C282 160.5 323 182.198 365.5 194C400.167 202.533 415.433 205.066 466.5 206C513.3 206.8 571.4 201.668 665.667 193.935C728 188.822 783.17 188.4 822.5 190C862.9 191.6 875.27 195.402 902.33 200.202C923.4 203.935 962.87 211.135 966.73 211.935C970.33 212.735 969.4 210.468 965.4 209.002C963.27 208.202 958.33 206.335 954.33 204.868C931.53 196.202 906.07 190.068 874.07 185.535C830.2 179.268 817.27 178.868 647.667 178.735C474 183 484 182.433 435 178.735C408.5 176.735 382.5 166 371.5 161.5C349.5 152.5 345.915 148.947 342 146.5C338 144 336.3 142.633 333.5 140.5C322.5 131.5 322.867 127.535 343 119.668C377.667 105.935 411 99.002 451.667 97.135C475.933 96.068 519.667 99.802 543 104.868C591.533 115.535 614.467 123.402 653 142.735C660.733 146.468 669.8 150.335 673.267 151.268C679.133 152.602 718.33 155.935 719.13 155.002C721.53 152.735 678.467 129.002 649.667 116.868C641.533 113.402 613.533 103.268 609 102.068C606.467 101.535 600.2 99.6679 595 98.2019C572.067 91.2679 530.2 84.3349 499 82.0679C481.8 80.8679 435.133 80.6019 416.333 81.6679Z" fill="#737373"/>
<path d="M178 134.5C158.133 138.1 145.8 142.603 133.267 148.336C125.8 151.669 105 163.269 103.667 164.736C103.267 165.136 100.333 167.136 97 169.269C83.533 177.936 66.2 192.736 69.533 192.736C69.8 192.736 77.133 189.136 85.667 184.736C118.467 167.936 145.667 160.336 173.667 160.203C187.8 160.203 193 160.736 201.933 163.269C211.133 165.803 226.5 174.001 231.667 178.069C236.819 182.125 265.133 199.269 279.667 204.603C310.6 215.936 355.133 222.203 403.667 221.936C433.933 221.803 433.667 221.269 400.333 216.203C340.333 207.003 296.067 190.203 260.467 163.003C254.467 158.603 247 152.869 243.8 150.469C236.467 144.869 226.6 140.203 216.333 137.403C208.333 135.269 193.833 132.131 178 134.5Z" fill="#737373"/>
<path d="M290.333 235.935C272.2 241.402 260.067 254.468 258.6 270.335C258.067 275.535 258.6 277.668 261.133 281.402C264.733 286.602 275.4 291.935 286.2 294.068C300.067 296.602 304.867 302.068 297.667 306.868C294.867 308.602 292.333 309.002 284.867 308.335C275.933 307.535 271.533 305.802 262.2 299.135C260.333 297.802 258.333 299.002 250.467 306.068C245.267 310.602 241 315.135 241 316.068C241 317.002 243.267 319.268 246.2 321.268C263.4 333.135 290.867 334.735 310.333 324.735C325 317.268 335.133 297.002 329.8 285.935C326.867 279.802 318.467 274.735 305.533 271.668C299.667 270.202 293.533 268.335 291.933 267.535C288.333 265.535 288.2 261.935 291.667 258.735C295.4 255.402 308.2 256.602 316.467 261.268C319.933 263.135 323.4 264.735 324.2 264.735C327 264.735 342.733 247.802 341.933 245.668C341.533 244.602 337.267 241.802 332.467 239.402C324.867 235.535 321.766 234.4 309.5 234C300.433 233.733 294.333 234.735 290.333 235.935Z" fill="#737373"/>
<path d="M615.933 236.202C596.733 241.268 584.467 255.135 584.333 271.668C584.333 277.935 584.867 279.802 587.667 282.735C591.8 287.135 598.2 290.468 607 292.602C621.933 296.468 626.333 298.468 626.333 301.535C626.333 311.268 603.667 311.135 590.867 301.402C585.8 297.535 585.4 297.535 583.133 299.802C582.2 300.602 578.067 304.335 573.933 307.935C569.8 311.535 566.333 315.002 566.333 315.668C566.333 317.535 571.4 321.668 577.667 325.002C585.667 329.268 595.267 331.402 606.333 331.402C629.933 331.402 647.8 321.135 654.333 303.935C660.333 287.668 655.933 279.802 637.667 273.935C617.533 267.668 615 266.468 614.6 263.935C614.067 259.402 617.5 256.501 623.5 256C629 255.541 632.867 257.002 640.2 260.602C644.867 262.868 649.133 264.735 649.667 264.735C651.267 264.735 667.667 248.335 667.667 246.735C667.667 244.068 657.533 238.202 649.4 236.068C639.933 233.535 625.267 233.668 615.933 236.202Z" fill="#737373"/>
<path d="M84 237C82.9324 238.068 82.333 239.935 81.933 241.402C81.133 245.002 68.067 289.668 66.333 294.868C64.067 301.802 57 327.402 57 328.735C57 329.535 62.467 330.068 70.333 330.068C85.8 330.068 84.2 331.668 89.8 311.135L93.667 296.735H116.6H139.533L142.333 287.802C143.8 282.735 145.4 277.668 145.8 276.335C146.467 274.202 144.867 274.068 123.667 274.068H100.733L102 267.5C102.534 265.5 102.5 262.402 104 260.5C104 258.5 129.667 259.402 129.667 259.402C129.667 259.402 146.233 259.402 154 259.402C155 259.402 157.8 249.332 159.5 240.5C160.897 233.244 145 234.5 122.5 234.5C93.834 234.5 85.5 235.5 84 237Z" fill="#737373"/>
<path d="M190.333 242.068C183 252.468 147 301.935 145.267 304.068C141.533 308.868 127.667 328.468 127.667 329.135C127.667 329.668 134.2 330.068 142.067 330.068H156.6L162.467 321.402L168.333 312.735L186.333 313.002L204.2 313.402L205.667 321.402L207 329.402H221.667C233.933 329.402 236.333 329.135 236.067 327.402C235.933 326.335 233.933 312.468 231.667 296.735C229.267 281.002 226.467 260.868 225.267 252.068L223 235.402H209.5H195L190.333 242.068ZM201.533 282.335C202.467 290.602 202.333 291.402 200.067 291.535C198.733 291.535 194.467 291.802 190.6 292.068C182.067 292.602 182.067 292.602 191.933 278.735C199.8 267.802 200.067 267.802 201.533 282.335Z" fill="#737373"/>
<path d="M352.6 236.335C351.933 237.402 346.333 257.535 346.333 258.735C346.333 259.135 352.6 259.402 360.333 259.402C368.067 259.402 374.333 259.802 374.333 260.335C374.333 261.002 372.467 267.402 370.333 274.735C368.2 282.068 364.733 293.802 362.867 300.735C360.867 307.668 358.2 316.735 356.867 320.735C355.667 324.735 354.867 328.468 355.133 329.002C355.533 329.668 361.8 330.068 369 330.068H382.067L384.067 323.668C385.133 320.202 387.4 312.602 389 306.735C390.6 300.868 393.667 290.335 395.667 283.402C397.8 276.468 400.2 268.202 401 265.002L402.467 259.402H417.4H432.333L434.6 250.335C435.933 245.402 437.267 240.068 437.8 238.335L438.6 235.402H395.933C372.333 235.402 352.867 235.802 352.6 236.335Z" fill="#737373"/>
<path d="M484.333 247.002C482.467 253.535 479.933 262.068 478.867 266.068C476.2 275.268 472.067 289.402 470.067 295.268C468.067 301.535 461 327.802 461 329.002C461 330.468 487.4 330.335 488.2 328.868C488.6 328.202 490.467 322.335 492.2 315.935C498.6 292.735 501.667 283.135 502.867 283.135C503.667 283.135 509.667 293.668 516.2 306.602L528.333 330.068H540.467C551 330.068 552.733 329.802 553.4 327.668C553.8 326.468 557.533 313.668 561.667 299.402C565.933 285.135 570.067 270.735 571 267.402C571.933 264.068 574.2 256.335 576.2 249.935C578.067 243.668 579.667 237.935 579.667 237.002C579.667 235.802 575.667 235.402 565.933 235.402H552.067L550.733 241.002C547.4 254.202 539 282.068 538.333 282.068C537.933 282.068 532.2 271.535 525.667 258.735L513.667 235.402H500.733H487.8L484.333 247.002Z" fill="#737373"/>
<path d="M682.467 245.002C680.867 250.335 678.333 258.602 676.867 263.402C667.267 295.135 665.667 306.602 669.533 315.935C672.067 322.068 680.2 328.335 688.067 330.202C691.933 331.135 699.933 331.535 707.533 331.135C724.33 330.335 736.33 325.268 746.33 314.602C754.87 305.668 757.93 298.735 765.53 272.735C768.87 261.402 772.6 249.002 773.67 245.268C774.73 241.535 775.67 237.802 775.67 237.002C775.67 234.735 749.53 234.868 748.07 237.002C747.53 237.935 745.67 243.268 744.2 248.735C742.6 254.202 739.13 266.202 736.47 275.402C729.27 300.202 723.67 306.735 709.267 306.735C703.267 306.735 701.8 306.202 699.667 303.402C696.333 299.135 696.333 295.002 699.533 283.668C701 278.735 704.6 266.202 707.533 255.802C710.6 245.402 713 236.602 713 236.202C713 235.802 706.733 235.402 699.133 235.402H685.267L682.467 245.002Z" fill="#737373"/>
<path d="M791.27 236.335C790.73 237.268 788.47 244.602 777.67 281.402C769.67 308.735 765 325.535 765 327.802C765 329.935 766.33 330.068 778.47 329.802L792.07 329.402L793.8 323.402C794.6 320.068 796.33 313.935 797.53 309.668L799.8 302.068H805.4H811.13L816.47 315.668L821.8 329.402L837.4 329.802C848.33 330.068 853 329.668 853 328.602C853 327.802 850.6 321.002 847.53 313.668C844.47 306.202 841.8 299.402 841.53 298.602C841.13 297.802 843.8 295.802 847.27 293.935C860.07 287.402 869 273.935 870.07 259.402C870.73 249.935 867.13 244.068 857.67 239.402C851.27 236.202 849.8 236.068 821.53 235.668C805.27 235.402 791.67 235.668 791.27 236.335ZM838.2 261.535C843.53 265.268 839.93 274.468 831.4 278.868C827.67 280.868 808.33 281.535 807.27 279.668C807 279.135 807.93 274.335 809.27 269.002L811.93 259.402H823.53C832.07 259.402 835.93 259.935 838.2 261.535Z" fill="#737373"/>
<path d="M887.27 246.335C885.53 252.468 881.8 265.135 879 274.735C876.33 284.335 872.07 299.002 869.53 307.402C867.13 315.802 864.73 324.335 864.2 326.468L863.4 330.068L903.13 329.802L942.87 329.402L945.93 318.868C947.53 313.002 948.73 308.068 948.47 307.668C948.07 307.402 936.73 307.268 923.13 307.402C895.4 307.535 897 309 899.5 299.5L901.5 292.068H925H948.47L950.6 284.735C955 270.468 956.33 271.402 930.87 271.402H907.286L909.5 263C911 256 912.2 257.935 938.73 258.202C951.8 258.335 962.6 258.202 962.87 257.935C963.4 257.402 969 237.268 969 236.068C969 235.668 951.4 235.402 929.8 235.402H890.6L887.27 246.335Z" fill="#737373"/>
<path d="M456.867 239.802C451.533 243.402 450.2 248.868 453.8 252.868C455.533 254.735 457.933 255.402 462.867 255.402C475.667 255.402 484.333 245.402 477.267 239.002C473.533 235.535 462.467 236.068 456.867 239.802Z" fill="#737373"/>
<path d="M449.667 268.735C446.067 269.402 438.733 269.935 433.533 269.935C426.067 270.068 423.8 270.602 423.133 272.202C421.933 275.402 421.933 275.402 427 275.402C430.867 275.402 431.667 275.935 431.667 278.068C431.667 279.668 425.4 290.202 417.667 301.535C409.533 313.668 403.667 323.535 403.667 325.402C403.667 330.868 408.867 333.135 419.8 332.468C427.267 331.935 430.467 330.868 436.067 327.402C445.267 321.668 454.2 315.002 454.333 313.668C454.467 310.735 449.933 311.668 444.067 315.935C437.4 320.735 430.333 323.402 430.333 321.002C430.333 319.802 446.2 295.668 459.133 277.135C462.333 272.468 465 268.468 465 268.068C465 267.135 457.933 267.535 449.667 268.735Z" fill="#737373"/>
</svg>
