<svg width="1401" height="120" viewBox="0 0 1401 120" fill="none" xmlns="http://www.w3.org/2000/svg">
<path d="M250.333 10.0834C232.2 15.8398 220.067 29.5976 218.6 46.3047C218.067 51.78 218.6 54.0259 221.133 57.9576C224.733 63.4329 235.4 69.0483 246.2 71.2942C260.067 73.9624 264.867 79.7178 257.667 84.7719C254.867 86.5977 252.333 87.0189 244.867 86.3166C235.933 85.4743 231.533 83.6495 222.2 76.6295C220.333 75.2259 218.333 76.4895 210.467 83.9296C205.267 88.7036 201 93.4766 201 94.459C201 95.4425 203.267 97.8284 206.2 99.9343C223.4 112.43 250.867 114.114 270.333 103.585C285 95.7225 295.133 74.3836 289.8 62.7306C286.867 56.2729 278.467 50.9377 265.533 47.7083C259.667 46.1647 253.533 44.1988 251.933 43.3564C248.333 41.2505 248.2 37.4599 251.667 34.0905C255.4 30.581 268.2 31.8446 276.467 36.7576C279.933 38.7235 283.4 40.4082 284.2 40.4082C287 40.4082 302.733 22.5787 301.933 20.3317C301.533 19.2093 297.267 16.261 292.467 13.7339C284.867 9.66218 281.766 8.46694 269.5 8.04576C260.433 7.76462 254.333 8.81984 250.333 10.0834Z" fill="#737373"/>
<path d="M575.933 10.3637C556.733 15.6979 544.467 30.2991 544.333 47.7074C544.333 54.3062 544.867 56.272 547.667 59.3603C551.8 63.9933 558.2 67.5028 567 69.7497C581.933 73.8204 586.333 75.9263 586.333 79.1557C586.333 89.404 563.667 89.264 550.867 79.0157C545.8 74.9439 545.4 74.9439 543.133 77.331C542.2 78.1733 538.067 82.104 533.933 85.8946C529.8 89.6852 526.333 93.3358 526.333 94.037C526.333 96.0029 531.4 100.355 537.667 103.865C545.667 108.357 555.267 110.604 566.333 110.604C589.933 110.604 607.8 99.7934 614.333 81.6828C620.333 64.5545 615.933 56.2721 597.667 50.0944C577.533 43.4956 575 42.2321 574.6 39.565C574.067 34.792 577.5 31.7372 583.5 31.21C589 30.7268 592.867 32.2649 600.2 36.0555C604.867 38.4415 609.133 40.4073 609.667 40.4073C611.267 40.4073 627.667 23.139 627.667 21.4543C627.667 18.6461 617.533 12.4696 609.4 10.2226C599.933 7.55546 585.267 7.69553 575.933 10.3637Z" fill="#737373"/>
<path d="M43.133 11.2068C42.733 12.1892 42.333 14.2951 41.933 15.8397C41.133 19.6303 28.067 66.6612 26.333 72.1365C24.067 79.4376 17 106.393 17 107.797C17 108.639 22.467 109.2 30.333 109.2C45.8 109.2 44.2 110.885 49.8 89.2648L53.667 74.1023H76.6H99.533L102.333 64.6964C103.8 59.3611 105.4 54.0259 105.8 52.6223C106.467 50.3764 104.867 50.2352 83.667 50.2352H60.733L61.533 46.5857C62.067 44.4798 62.867 41.1104 63.267 38.8635L64.067 34.7927H89.667H115.267L118.2 24.5434C122.867 7.83741 126.733 9.52206 82.333 9.52206C52.467 9.52206 43.4 9.94328 43.133 11.2068Z" fill="#737373"/>
<path d="M150.333 16.5404C143 27.4911 107 79.5771 105.267 81.823C101.533 86.8772 87.667 107.515 87.667 108.217C87.667 108.778 94.2 109.2 102.067 109.2H116.6L122.467 100.075L128.333 90.9489L146.333 91.2301L164.2 91.6512L165.667 100.075L167 108.498H181.667C193.933 108.498 196.333 108.217 196.067 106.392C195.933 105.269 193.933 90.6678 191.667 74.1018C189.267 57.5358 186.467 36.3358 185.267 27.0699L183 9.52148H169.5H155L150.333 16.5404ZM161.533 58.9394C162.467 67.6441 162.333 68.4864 160.067 68.6264C158.733 68.6264 154.467 68.9076 150.6 69.1877C142.067 69.75 142.067 69.7499 151.933 55.1488C159.8 43.6369 160.067 43.6369 161.533 58.9394Z" fill="#737373"/>
<path d="M312.6 10.5039C311.933 11.6274 306.333 32.8263 306.333 34.0899C306.333 34.511 312.6 34.7922 320.333 34.7922C328.067 34.7922 334.333 35.2134 334.333 35.7746C334.333 36.4769 332.467 43.2157 330.333 50.937C328.2 58.6582 324.733 71.0135 322.867 78.3135C320.867 85.6136 318.2 95.1607 316.867 99.3724C315.667 103.584 314.867 107.515 315.133 108.077C315.533 108.778 321.8 109.2 329 109.2H342.067L344.067 102.461C345.133 98.8113 347.4 90.8088 349 84.6312C350.6 78.4536 353.667 67.3629 355.667 60.0628C357.8 52.7617 360.2 44.0581 361 40.6887L362.467 34.7922H377.4H392.333L394.6 25.2452C395.933 20.051 397.267 14.4346 397.8 12.6098L398.6 9.52148H355.933C332.333 9.52148 312.867 9.94271 312.6 10.5039Z" fill="#737373"/>
<path d="M444.333 21.7357C442.467 28.6146 439.933 37.5993 438.867 41.8111C436.2 51.4982 432.067 66.3805 430.067 72.5571C428.067 79.1559 421 106.814 421 108.077C421 109.621 447.4 109.481 448.2 107.936C448.6 107.235 450.467 101.057 452.2 94.3183C458.6 69.89 461.667 59.7817 462.867 59.7817C463.667 59.7817 469.667 70.8724 476.2 84.4912L488.333 109.2H500.467C511 109.2 512.733 108.92 513.4 106.673C513.8 105.409 517.533 91.9313 521.667 76.91C525.933 61.8876 530.067 46.7252 531 43.2157C531.933 39.7052 534.2 31.5628 536.2 24.824C538.067 18.2251 539.667 12.1886 539.667 11.2062C539.667 9.9427 535.667 9.52148 525.933 9.52148H512.067L510.733 15.418C507.4 29.3169 499 58.6582 498.333 58.6582C497.933 58.6582 492.2 47.5676 485.667 34.0899L473.667 9.52148H460.733H447.8L444.333 21.7357Z" fill="#737373"/>
<path d="M642.467 19.6305C640.867 25.2458 638.333 33.9505 636.867 39.0046C627.267 72.4177 625.667 84.4919 629.533 94.319C632.067 100.777 640.2 107.376 648.067 109.341C651.933 110.324 659.933 110.745 667.533 110.324C684.33 109.481 696.33 104.146 706.33 92.9154C714.87 83.5084 717.93 76.2083 725.53 48.8318C728.87 36.8987 732.6 23.8422 733.67 19.9105C734.73 15.9799 735.67 12.0493 735.67 11.2069C735.67 8.81987 709.53 8.95992 708.07 11.2069C707.53 12.1893 705.67 17.8046 704.2 23.5611C702.6 29.3175 699.13 41.9529 696.47 51.64C689.27 77.753 683.67 84.6319 669.267 84.6319C663.267 84.6319 661.8 84.0707 659.667 81.1224C656.333 76.6295 656.333 72.2777 659.533 60.3437C661 55.1495 664.6 41.9529 667.533 31.0023C670.6 20.0516 673 10.7857 673 10.3646C673 9.94338 666.733 9.52215 659.133 9.52215H645.267L642.467 19.6305Z" fill="#737373"/>
<path d="M751.27 10.5039C750.73 11.4863 748.47 19.2086 737.67 57.957C729.67 86.7371 725 104.427 725 106.814C725 109.06 726.33 109.2 738.47 108.92L752.07 108.498L753.8 102.181C754.6 98.6701 756.33 92.2125 757.53 87.7196L759.8 79.7171H765.4H771.13L776.47 94.0372L781.8 108.498L797.4 108.92C808.33 109.2 813 108.778 813 107.656C813 106.814 810.6 99.6536 807.53 91.9313C804.47 84.0701 801.8 76.91 801.53 76.0676C801.13 75.2253 803.8 73.1194 807.27 71.1535C820.07 64.2747 829 50.0946 830.07 34.7922C830.73 24.8239 827.13 18.6463 817.67 13.7333C811.27 10.3638 809.8 10.2228 781.53 9.80163C765.27 9.52155 751.67 9.80162 751.27 10.5039ZM798.2 37.0381C803.53 40.9687 799.93 50.6558 791.4 55.2888C787.67 57.3947 768.33 58.0971 767.27 56.1312C767 55.57 767.93 50.5158 769.27 44.9005L771.93 34.7922H783.53C792.07 34.7922 795.93 35.3534 798.2 37.0381Z" fill="#737373"/>
<path d="M847.27 21.0334C845.53 27.4911 841.8 40.8287 839 50.937C836.33 61.0453 832.07 76.4888 829.53 85.3335C827.13 94.1783 824.73 103.163 824.2 105.409L823.4 109.2L863.13 108.92L902.87 108.498L905.93 97.4066C907.53 91.23 908.73 86.0348 908.47 85.6137C908.07 85.3336 896.73 85.1924 883.13 85.3335C855.4 85.4736 856.6 86.0348 860.2 75.5054L861.93 70.5923L885.13 69.89L908.2 69.1877L910.6 61.4664C915 46.4441 916.33 47.4275 890.87 47.4275H868.73L869.67 42.0923C871.13 33.5287 872.2 33.2475 898.73 33.5287C911.8 33.6687 922.6 33.5287 922.87 33.2475C923.4 32.6863 929 11.4863 929 10.2228C929 9.80158 911.4 9.52148 889.8 9.52148H850.6L847.27 21.0334Z" fill="#737373"/>
<path d="M416.867 14.155C411.533 17.9456 410.2 23.701 413.8 27.9128C415.533 29.8786 417.933 30.5809 422.867 30.5809C435.667 30.5809 444.333 20.0515 437.267 13.3127C433.533 9.6621 422.467 10.2233 416.867 14.155Z" fill="#737373"/>
<path d="M409.667 44.619C406.067 45.3214 398.733 45.8826 393.533 45.8826C386.067 46.0226 383.8 46.5849 383.133 48.2696C381.933 51.6391 381.933 51.639 387 51.639C390.867 51.639 391.667 52.2003 391.667 54.4462C391.667 56.1309 385.4 67.2226 377.667 79.1556C369.533 91.931 363.667 102.32 363.667 104.286C363.667 110.042 368.867 112.429 379.8 111.726C387.267 111.165 390.467 110.042 396.067 106.392C405.267 100.355 414.2 93.3357 414.333 91.9311C414.467 88.8428 409.933 89.8251 404.067 94.3181C397.4 99.3722 390.333 102.18 390.333 99.6533C390.333 98.3898 406.2 72.978 419.133 53.4638C422.333 48.5497 425 44.3379 425 43.9167C425 42.9343 417.933 43.3555 409.667 44.619Z" fill="#737373"/>
<path d="M984.448 91.0028L1003.14 18.5579C1005.41 9.73822 1013.36 3.56982 1022.47 3.55374L1310.61 3.04484C1323.55 3.02198 1333.11 15.1071 1330.1 27.6928L1312.67 100.647C1310.52 109.648 1302.47 115.999 1293.22 115.999H1003.81C990.741 115.999 981.183 103.662 984.448 91.0028Z" fill="#737373"/>
<path d="M1032.24 101C1030.51 101 1029.22 100.569 1028.36 99.7085C1027.5 98.8475 1027.07 97.556 1027.07 95.834V28.061H1003.21C1001.49 28.061 1000.19 27.6305 999.333 26.7695C998.472 25.9085 998.041 24.617 998.041 22.895C998.041 21.173 998.472 19.8815 999.333 19.0205C1000.19 18.1595 1001.49 17.729 1003.21 17.729H1061.26C1062.99 17.729 1064.28 18.1595 1065.14 19.0205C1066 19.8815 1066.43 21.173 1066.43 22.895C1066.43 24.617 1066 25.9085 1065.14 26.7695C1064.28 27.6305 1062.99 28.061 1061.26 28.061H1037.4V95.834C1037.4 97.474 1036.95 98.745 1036.05 99.647C1035.19 100.549 1033.92 101 1032.24 101ZM1089.22 101C1085.77 101 1084.05 99.278 1084.05 95.834V22.772C1084.05 19.328 1085.77 17.606 1089.22 17.606H1133.37C1136.82 17.606 1138.54 19.328 1138.54 22.772C1138.54 26.216 1136.82 27.938 1133.37 27.938H1094.38V53.768H1118.86C1122.3 53.768 1124.03 55.49 1124.03 58.934C1124.03 62.378 1122.3 64.1 1118.86 64.1H1094.38V90.668H1133.37C1136.82 90.668 1138.54 92.39 1138.54 95.834C1138.54 99.278 1136.82 101 1133.37 101H1089.22ZM1181.59 101C1172.2 101 1165.25 98.7655 1160.74 94.2965C1156.27 89.7865 1154.04 82.837 1154.04 73.448V45.158C1154.04 35.687 1156.27 28.717 1160.74 24.248C1165.21 19.738 1172.12 17.524 1181.47 17.606H1196.35C1204.06 17.606 1209.94 19.205 1214 22.403C1218.06 25.56 1220.42 30.562 1221.07 37.409C1221.32 39.131 1220.99 40.443 1220.09 41.345C1219.19 42.247 1217.88 42.698 1216.15 42.698C1213.04 42.698 1211.23 40.976 1210.74 37.532C1210.33 33.76 1209.02 31.218 1206.81 29.906C1204.63 28.594 1201.15 27.938 1196.35 27.938H1181.47C1177.12 27.897 1173.7 28.389 1171.2 29.414C1168.74 30.439 1166.97 32.2225 1165.91 34.7645C1164.88 37.2655 1164.37 40.73 1164.37 45.158V73.448C1164.37 77.835 1164.88 81.279 1165.91 83.78C1166.97 86.281 1168.76 88.0645 1171.26 89.1305C1173.76 90.1555 1177.2 90.668 1181.59 90.668H1196.35C1201.15 90.668 1204.63 90.012 1206.81 88.7C1209.02 87.347 1210.33 84.805 1210.74 81.074C1211.23 77.63 1213.04 75.908 1216.15 75.908C1217.88 75.908 1219.19 76.359 1220.09 77.261C1220.99 78.163 1221.32 79.475 1221.07 81.197C1220.42 88.085 1218.06 93.1075 1214 96.2645C1209.94 99.4215 1204.06 101 1196.35 101H1181.59ZM1249.03 101C1247.68 101 1246.47 100.487 1245.4 99.4625C1244.38 98.3965 1243.86 97.187 1243.86 95.834V22.772C1243.86 21.419 1244.38 20.23 1245.4 19.205C1246.47 18.139 1247.68 17.606 1249.03 17.606C1250.38 17.606 1251.57 18.139 1252.6 19.205C1253.66 20.23 1254.2 21.419 1254.2 22.772V53.645H1304.38V22.772C1304.38 21.419 1304.89 20.23 1305.92 19.205C1306.94 18.139 1308.15 17.606 1309.55 17.606C1310.9 17.606 1312.09 18.139 1313.11 19.205C1314.18 20.23 1314.71 21.419 1314.71 22.772V95.834C1314.71 97.187 1314.18 98.3965 1313.11 99.4625C1312.09 100.487 1310.9 101 1309.55 101C1308.15 101 1306.94 100.487 1305.92 99.4625C1304.89 98.3965 1304.38 97.187 1304.38 95.834V63.977H1254.2V95.834C1254.2 97.187 1253.66 98.3965 1252.6 99.4625C1251.57 100.487 1250.38 101 1249.03 101Z" fill="white"/>
</svg>
