<svg width="1401" height="108" viewBox="0 0 1401 108" fill="none" xmlns="http://www.w3.org/2000/svg">
<g clip-path="url(#clip0_873_1525)">
<path d="M977.09 100.313L996.822 8.85825C997.616 5.18002 1000.87 2.55204 1004.63 2.5455L1312.05 2.01144C1315.88 2.00479 1319.17 4.70671 1319.91 8.45901L1338.11 100.448C1339.09 105.393 1335.3 110 1330.26 110H984.91C979.812 110 976.015 105.296 977.09 100.313Z" fill="#838383"/>
<path d="M1067.86 87C1066.8 87 1065.98 86.733 1065.42 86.199C1064.85 85.6353 1064.57 84.8195 1064.57 83.7515V34.223H1046.77C1045.7 34.223 1044.89 33.956 1044.32 33.422C1043.76 32.8583 1043.48 32.0425 1043.48 30.9745C1043.48 29.9065 1043.76 29.0907 1044.32 28.527C1044.89 27.9633 1045.7 27.6815 1046.77 27.6815H1088.96C1090.03 27.6815 1090.83 27.9633 1091.36 28.527C1091.92 29.0907 1092.21 29.9065 1092.21 30.9745C1092.21 32.0425 1091.92 32.8583 1091.36 33.422C1090.83 33.956 1090.03 34.223 1088.96 34.223H1071.11V83.7515C1071.11 84.7602 1070.83 85.5612 1070.27 86.1545C1069.7 86.7182 1068.9 87 1067.86 87ZM1106.72 87C1104.53 87 1103.43 85.9023 1103.43 83.707V30.93C1103.43 28.7347 1104.53 27.637 1106.72 27.637H1139.12C1141.32 27.637 1142.41 28.7347 1142.41 30.93C1142.41 33.0957 1141.32 34.1785 1139.12 34.1785H1109.97V53.7585H1128.62C1130.81 53.7585 1131.91 54.8413 1131.91 57.007C1131.91 59.2023 1130.81 60.3 1128.62 60.3H1109.97V80.4585H1139.12C1141.32 80.4585 1142.41 81.5413 1142.41 83.707C1142.41 85.9023 1141.32 87 1139.12 87H1106.72ZM1171.77 87C1165.09 87 1160.17 85.4277 1157 82.283C1153.85 79.1087 1152.28 74.184 1152.28 67.509V47.128C1152.28 40.3937 1153.85 35.4542 1157 32.3095C1160.14 29.1648 1165.03 27.6073 1171.68 27.637H1182.45C1187.97 27.637 1192.15 28.794 1195 31.108C1197.85 33.3923 1199.48 37.0117 1199.89 41.966C1200.04 43.0637 1199.83 43.9092 1199.27 44.5025C1198.71 45.0662 1197.88 45.348 1196.78 45.348C1194.79 45.348 1193.65 44.2503 1193.35 42.055C1193.08 39.029 1192.12 36.9672 1190.46 35.8695C1188.8 34.7422 1186.13 34.1785 1182.45 34.1785H1171.68C1168.45 34.1785 1165.9 34.579 1164.03 35.38C1162.16 36.1513 1160.82 37.4863 1160.02 39.385C1159.22 41.254 1158.82 43.835 1158.82 47.128V67.509C1158.82 70.7723 1159.22 73.3533 1160.02 75.252C1160.82 77.121 1162.16 78.456 1164.03 79.257C1165.92 80.058 1168.51 80.4585 1171.77 80.4585H1182.45C1186.13 80.4585 1188.8 79.9097 1190.46 78.812C1192.12 77.6847 1193.08 75.608 1193.35 72.582C1193.65 70.3867 1194.79 69.289 1196.78 69.289C1197.88 69.289 1198.71 69.5857 1199.27 70.179C1199.83 70.7427 1200.04 71.5733 1199.89 72.671C1199.48 77.655 1197.85 81.2892 1195 83.5735C1192.15 85.8578 1187.97 87 1182.45 87H1171.77ZM1218.41 87C1217.52 87 1216.75 86.6737 1216.1 86.021C1215.44 85.3683 1215.12 84.597 1215.12 83.707V30.93C1215.12 30.04 1215.44 29.2687 1216.1 28.616C1216.75 27.9633 1217.52 27.637 1218.41 27.637C1219.3 27.637 1220.06 27.9633 1220.68 28.616C1221.33 29.2687 1221.66 30.04 1221.66 30.93V53.6695H1258.33V30.93C1258.33 30.04 1258.64 29.2687 1259.26 28.616C1259.88 27.9633 1260.65 27.637 1261.57 27.637C1262.46 27.637 1263.24 27.9633 1263.89 28.616C1264.54 29.2687 1264.87 30.04 1264.87 30.93V83.707C1264.87 84.597 1264.54 85.3683 1263.89 86.021C1263.24 86.6737 1262.46 87 1261.57 87C1260.65 87 1259.88 86.6737 1259.26 86.021C1258.64 85.3683 1258.33 84.597 1258.33 83.707V60.211H1221.66V83.707C1221.66 84.597 1221.33 85.3683 1220.68 86.021C1220.06 86.6737 1219.3 87 1218.41 87Z" fill="white"/>
<path d="M241.333 4.16053C223.2 9.91698 211.067 23.6748 209.6 40.3819C209.067 45.8572 209.6 48.1031 212.133 52.0347C215.733 57.5101 226.4 63.1254 237.2 65.3714C251.067 68.0395 255.867 73.7949 248.667 78.8491C245.867 80.6749 243.333 81.0961 235.867 80.3938C226.933 79.5514 222.533 77.7266 213.2 70.7067C211.333 69.3031 209.333 70.5666 201.467 78.0067C196.267 82.7808 192 87.5538 192 88.5362C192 89.5196 194.267 91.9056 197.2 94.0115C214.4 106.507 241.867 108.191 261.333 97.662C276 89.7997 286.133 68.4607 280.8 56.8078C277.867 50.3501 269.467 45.0148 256.533 41.7854C250.667 40.2418 244.533 38.2759 242.933 37.4336C239.333 35.3277 239.2 31.5371 242.667 28.1677C246.4 24.6582 259.2 25.9217 267.467 30.8348C270.933 32.8006 274.4 34.4853 275.2 34.4853C278 34.4853 293.733 16.6559 292.933 14.4089C292.533 13.2864 288.267 10.3381 283.467 7.81106C275.867 3.73933 272.766 2.54408 260.5 2.12291C251.433 1.84177 245.333 2.89699 241.333 4.16053Z" fill="#838383"/>
<path d="M566.933 4.44084C547.733 9.77506 535.467 24.3763 535.333 41.7846C535.333 48.3834 535.867 50.3492 538.667 53.4375C542.8 58.0704 549.2 61.5799 558 63.8269C572.933 67.8976 577.333 70.0035 577.333 73.2328C577.333 83.4811 554.667 83.3411 541.867 73.0928C536.8 69.0211 536.4 69.0211 534.133 71.4081C533.2 72.2505 529.067 76.1811 524.933 79.9717C520.8 83.7623 517.333 87.4129 517.333 88.1142C517.333 90.08 522.4 94.4318 528.667 97.9423C536.667 102.434 546.267 104.681 557.333 104.681C580.933 104.681 598.8 93.8706 605.333 75.7599C611.333 58.6317 606.933 50.3492 588.667 44.1716C568.533 37.5728 566 36.3092 565.6 33.6421C565.067 28.8691 568.5 25.8143 574.5 25.2872C580 24.804 583.867 26.3421 591.2 30.1327C595.867 32.5186 600.133 34.4845 600.667 34.4845C602.267 34.4845 618.667 17.2162 618.667 15.5315C618.667 12.7233 608.533 6.5467 600.4 4.29971C590.933 1.63261 576.267 1.77268 566.933 4.44084Z" fill="#838383"/>
<path d="M34.133 5.28396C33.733 6.26636 33.333 8.37221 32.933 9.91688C32.133 13.7075 19.067 60.7383 17.333 66.2136C15.067 73.5148 8 100.47 8 101.874C8 102.716 13.467 103.277 21.333 103.277C36.8 103.277 35.2 104.962 40.8 83.3419L44.667 68.1795H67.6H90.533L93.333 58.7735C94.8 53.4383 96.4 48.103 96.8 46.6995C97.467 44.4535 95.867 44.3124 74.667 44.3124H51.733L52.533 40.6629C53.067 38.557 53.867 35.1876 54.267 32.9406L55.067 28.8699H80.667H106.267L109.2 18.6206C113.867 1.91455 117.733 3.59921 73.333 3.59921C43.467 3.59921 34.4 4.02043 34.133 5.28396Z" fill="#838383"/>
<path d="M141.333 10.6176C134 21.5682 98 73.6542 96.267 75.9002C92.533 80.9543 78.667 101.592 78.667 102.294C78.667 102.856 85.2 103.277 93.067 103.277H107.6L113.467 94.1519L119.333 85.026L137.333 85.3072L155.2 85.7283L156.667 94.1519L158 102.575H172.667C184.933 102.575 187.333 102.294 187.067 100.47C186.933 99.3461 184.933 84.7449 182.667 68.1789C180.267 51.6129 177.467 30.4129 176.267 21.147L174 3.59863H160.5H146L141.333 10.6176ZM152.533 53.0165C153.467 61.7212 153.333 62.5635 151.067 62.7036C149.733 62.7036 145.467 62.9847 141.6 63.2648C133.067 63.8271 133.067 63.8271 142.933 49.2259C150.8 37.7141 151.067 37.7141 152.533 53.0165Z" fill="#838383"/>
<path d="M303.6 4.58108C302.933 5.70457 297.333 26.9035 297.333 28.167C297.333 28.5882 303.6 28.8693 311.333 28.8693C319.067 28.8693 325.333 29.2905 325.333 29.8518C325.333 30.5541 323.467 37.2929 321.333 45.0141C319.2 52.7354 315.733 65.0906 313.867 72.3907C311.867 79.6908 309.2 89.2378 307.867 93.4496C306.667 97.6614 305.867 101.592 306.133 102.154C306.533 102.856 312.8 103.277 320 103.277H333.067L335.067 96.5379C336.133 92.8884 338.4 84.886 340 78.7084C341.6 72.5307 344.667 61.4401 346.667 54.14C348.8 46.8389 351.2 38.1353 352 34.7658L353.467 28.8693H368.4H383.333L385.6 19.3223C386.933 14.1281 388.267 8.51172 388.8 6.68697L389.6 3.59863H346.933C323.333 3.59863 303.867 4.01986 303.6 4.58108Z" fill="#838383"/>
<path d="M435.333 15.8128C433.467 22.6917 430.933 31.6765 429.867 35.8883C427.2 45.5754 423.067 60.4577 421.067 66.6343C419.067 73.2331 412 100.891 412 102.154C412 103.698 438.4 103.558 439.2 102.013C439.6 101.312 441.467 95.1343 443.2 88.3955C449.6 63.9671 452.667 53.8589 453.867 53.8589C454.667 53.8589 460.667 64.9495 467.2 78.5683L479.333 103.277H491.467C502 103.277 503.733 102.997 504.4 100.75C504.8 99.4862 508.533 86.0084 512.667 70.9871C516.933 55.9647 521.067 40.8023 522 37.2929C522.933 33.7824 525.2 25.64 527.2 18.9011C529.067 12.3023 530.667 6.26578 530.667 5.28338C530.667 4.01985 526.667 3.59863 516.933 3.59863H503.067L501.733 9.49516C498.4 23.394 490 52.7354 489.333 52.7354C488.933 52.7354 483.2 41.6447 476.667 28.167L464.667 3.59863H451.733H438.8L435.333 15.8128Z" fill="#838383"/>
<path d="M633.467 13.7076C631.867 19.323 629.333 28.0276 627.867 33.0818C618.267 66.4949 616.667 78.569 620.533 88.3961C623.067 94.8538 631.2 101.453 639.067 103.419C642.933 104.401 650.933 104.822 658.533 104.401C675.33 103.559 687.33 98.2233 697.33 86.9926C705.87 77.5855 708.93 70.2855 716.53 42.9089C719.87 30.9759 723.6 17.9194 724.67 13.9877C725.73 10.057 726.67 6.12641 726.67 5.28405C726.67 2.89702 700.53 3.03706 699.07 5.28405C698.53 6.26645 696.67 11.8818 695.2 17.6382C693.6 23.3947 690.13 36.03 687.47 45.7171C680.27 71.8301 674.67 78.709 660.267 78.709C654.267 78.709 652.8 78.1478 650.667 75.1996C647.333 70.7066 647.333 66.3549 650.533 54.4208C652 49.2266 655.6 36.03 658.533 25.0794C661.6 14.1288 664 4.86288 664 4.44171C664 4.02053 657.733 3.5993 650.133 3.5993H636.267L633.467 13.7076Z" fill="#838383"/>
<path d="M742.27 4.58108C741.73 5.56348 739.47 13.2857 728.67 52.0341C720.67 80.8143 716 98.5038 716 100.891C716 103.137 717.33 103.277 729.47 102.997L743.07 102.575L744.8 96.2578C745.6 92.7473 747.33 86.2896 748.53 81.7967L750.8 73.7943H756.4H762.13L767.47 88.1144L772.8 102.575L788.4 102.997C799.33 103.277 804 102.856 804 101.733C804 100.891 801.6 93.7308 798.53 86.0085C795.47 78.1472 792.8 70.9871 792.53 70.1448C792.13 69.3024 794.8 67.1965 798.27 65.2307C811.07 58.3518 820 44.1718 821.07 28.8693C821.73 18.9011 818.13 12.7235 808.67 7.81042C802.27 4.441 800.8 4.29996 772.53 3.87878C756.27 3.59869 742.67 3.87877 742.27 4.58108ZM789.2 31.1152C794.53 35.0459 790.93 44.733 782.4 49.366C778.67 51.4718 759.33 52.1742 758.27 50.2084C758 49.6471 758.93 44.593 760.27 38.9776L762.93 28.8693H774.53C783.07 28.8693 786.93 29.4305 789.2 31.1152Z" fill="#838383"/>
<path d="M838.27 15.1105C836.53 21.5682 832.8 34.9059 830 45.0141C827.33 55.1224 823.07 70.5659 820.53 79.4107C818.13 88.2554 815.73 97.2402 815.2 99.4862L814.4 103.277L854.13 102.997L893.87 102.575L896.93 91.4837C898.53 85.3072 899.73 80.112 899.47 79.6908C899.07 79.4107 887.73 79.2696 874.13 79.4107C846.4 79.5507 847.6 80.112 851.2 69.5825L852.93 64.6694L876.13 63.9671L899.2 63.2648L901.6 55.5436C906 40.5212 907.33 41.5047 881.87 41.5047H859.73L860.67 36.1694C862.13 27.6058 863.2 27.3247 889.73 27.6058C902.8 27.7459 913.6 27.6058 913.87 27.3247C914.4 26.7634 920 5.56344 920 4.29991C920 3.87873 902.4 3.59863 880.8 3.59863H841.6L838.27 15.1105Z" fill="#838383"/>
<path d="M407.867 8.23215C402.533 12.0228 401.2 17.7781 404.8 21.9899C406.533 23.9558 408.933 24.6581 413.867 24.6581C426.667 24.6581 435.333 14.1287 428.267 7.38981C424.533 3.73925 413.467 4.30046 407.867 8.23215Z" fill="#838383"/>
<path d="M400.667 38.6962C397.067 39.3985 389.733 39.9597 384.533 39.9597C377.067 40.0998 374.8 40.6621 374.133 42.3468C372.933 45.7162 372.933 45.7162 378 45.7162C381.867 45.7162 382.667 46.2774 382.667 48.5233C382.667 50.208 376.4 61.2997 368.667 73.2328C360.533 86.0082 354.667 96.3976 354.667 98.3634C354.667 104.119 359.867 106.506 370.8 105.804C378.267 105.242 381.467 104.119 387.067 100.469C396.267 94.4317 405.2 87.4128 405.333 86.0082C405.467 82.9199 400.933 83.9023 395.067 88.3952C388.4 93.4493 381.333 96.2576 381.333 93.7305C381.333 92.467 397.2 67.0552 410.133 47.541C413.333 42.6269 416 38.4151 416 37.9939C416 37.0115 408.933 37.4327 400.667 38.6962Z" fill="#838383"/>
</g>
<defs>
<clipPath id="clip0_873_1525">
<rect width="1401" height="108" fill="white"/>
</clipPath>
</defs>
</svg>
