<svg width="900" height="141" viewBox="0 0 900 141" fill="none" xmlns="http://www.w3.org/2000/svg">
<path d="M347.217 0.667948C330.551 1.60195 292.751 4.633 272.884 8.5C255.384 10.465 177.884 24.5 177.484 35.2019C177.117 45.0344 182.284 48.6679 192.417 59.4679C212.884 79.5 253.884 101.198 296.384 113C331.051 121.533 346.317 124.066 397.384 125C444.184 125.8 502.284 120.668 596.551 112.935C658.884 107.822 721.884 108.832 751.384 110C780.884 111.168 806.154 114.402 833.214 119.202C854.284 122.935 893.754 130.135 897.614 130.935C901.214 131.735 900.284 129.468 896.284 128.002C894.154 127.202 889.214 125.335 885.214 123.868C862.414 115.202 836.954 109.068 804.954 104.535C739.384 95.2466 683.384 95.1604 578.551 97.7349C404.884 102 414.884 101.433 365.884 97.7349C339.384 95.7349 313.384 85 302.384 80.5C280.384 71.5 276.799 67.947 272.884 65.5C268.884 63 267.184 61.633 264.384 59.5C253.384 50.5 253.751 46.5349 273.884 38.6679C308.551 24.9349 341.884 18.002 382.551 16.135C406.817 15.068 450.551 18.802 473.884 23.868C522.417 34.535 545.351 42.4019 583.884 61.7349C591.617 65.4679 600.684 69.335 604.151 70.268C610.017 71.602 649.214 74.935 650.014 74.002C652.414 71.735 609.351 48.002 580.551 35.868C572.417 32.402 544.417 22.2679 539.884 21.0679C537.351 20.5349 531.084 18.6679 525.884 17.2019C502.951 10.2679 461.084 3.33494 429.884 1.06794C412.684 -0.132058 366.017 -0.398052 347.217 0.667948Z" fill="#083344"/>
<path d="M108.884 53.5C89.017 57.1 76.6841 61.6027 64.1511 67.3357C56.6841 70.6687 35.884 82.2687 34.551 83.7357C34.151 84.1357 31.2171 86.1357 27.8841 88.2687C14.4171 96.9357 -2.91595 111.736 0.417045 111.736C0.684045 111.736 8.01705 108.136 16.551 103.736C49.351 86.9357 76.551 79.3357 104.551 79.2027C118.684 79.2027 123.884 79.7357 132.817 82.2687C142.017 84.8027 157.384 93.0007 162.551 97.0687C167.703 101.125 196.017 118.269 210.551 123.603C241.484 134.936 286.017 141.203 334.551 140.936C364.817 140.803 364.551 140.269 331.217 135.203C271.217 126.003 226.951 109.203 191.351 82.0027C185.351 77.6027 177.884 71.8687 174.684 69.4687C167.351 63.8687 157.484 59.2027 147.217 56.4027C139.217 54.2687 124.717 51.1315 108.884 53.5Z" fill="#083344"/>
</svg>
