<?xml version="1.0" standalone="no"?>
<!DOCTYPE svg PUBLIC "-//W3C//DTD SVG 20010904//EN"
 "http://www.w3.org/TR/2001/REC-SVG-20010904/DTD/svg10.dtd">
<svg version="1.0" xmlns="http://www.w3.org/2000/svg"
 width="685.000000pt" height="191.000000pt" viewBox="0 0 685.000000 191.000000"
 preserveAspectRatio="xMidYMid meet">

<g transform="translate(0.000000,191.000000) scale(0.100000,-0.100000)"
fill="#FFFFFF" stroke="none">
<path d="M2695 1893 c-125 -7 -416 -45 -565 -74 -171 -33 -492 -117 -708 -185
-22 -7 36 -101 112 -182 156 -165 397 -284 746 -370 260 -64 507 -92 890 -99
351 -6 688 10 1395 68 201 16 880 22 1175 10 303 -12 397 -21 600 -57 158 -28
454 -82 483 -88 27 -6 20 11 -10 22 -16 6 -53 20 -83 31 -171 65 -362 111
-602 145 -329 47 -426 50 -1698 51 -1270 0 -1277 0 -1610 50 -188 28 -418 85
-580 142 -39 14 -116 57 -130 73 -3 4 -22 19 -43 35 -84 63 -73 84 78 143 260
103 510 155 815 169 182 8 510 -20 685 -58 364 -80 536 -139 825 -284 58 -28
126 -57 152 -64 44 -10 338 -35 344 -28 18 17 -305 195 -521 286 -61 26 -271
102 -305 111 -19 4 -66 18 -105 29 -172 52 -486 104 -720 121 -129 9 -479 11
-620 3z"/>
<path d="M920 1494 c-149 -27 -254 -58 -348 -101 -56 -25 -212 -112 -222 -123
-3 -3 -25 -18 -50 -34 -101 -65 -231 -176 -206 -176 2 0 57 27 121 60 246 126
450 183 660 184 106 0 145 -4 212 -23 69 -19 205 -87 223 -111 26 -34 251
-159 360 -199 232 -85 566 -132 930 -130 227 1 225 5 -25 43 -450 69 -782 195
-1049 399 -45 33 -101 76 -125 94 -55 42 -129 77 -206 98 -60 16 -228 28 -275
19z"/>
<path d="M1750 736 c-136 -41 -227 -139 -238 -258 -4 -39 0 -55 19 -83 27 -39
107 -79 188 -95 104 -19 140 -60 86 -96 -21 -13 -40 -16 -96 -11 -67 6 -100
19 -170 69 -14 10 -29 1 -88 -52 -39 -34 -71 -68 -71 -75 0 -7 17 -24 39 -39
129 -89 335 -101 481 -26 110 56 186 208 146 291 -22 46 -85 84 -182 107 -44
11 -90 25 -102 31 -27 15 -28 42 -2 66 28 25 124 16 186 -19 26 -14 52 -26 58
-26 21 0 139 127 133 143 -3 8 -35 29 -71 47 -57 29 -76 33 -168 36 -68 2
-118 -1 -148 -10z"/>
<path d="M4192 734 c-144 -38 -236 -142 -237 -266 0 -47 4 -61 25 -83 31 -33
79 -58 145 -74 112 -29 145 -44 145 -67 0 -73 -170 -72 -266 1 -38 29 -41 29
-58 12 -7 -6 -38 -34 -69 -61 -31 -27 -57 -53 -57 -58 0 -14 38 -45 85 -70 60
-32 132 -48 215 -48 177 0 311 77 360 206 45 122 12 181 -125 225 -151 47
-170 56 -173 75 -4 34 14 47 72 52 48 4 65 0 120 -27 35 -17 67 -31 71 -31 12
0 135 123 135 135 0 20 -76 64 -137 80 -71 19 -181 18 -251 -1z"/>
<path d="M196 728 c-3 -7 -6 -22 -9 -33 -6 -27 -104 -362 -117 -401 -17 -52
-70 -244 -70 -254 0 -6 41 -10 100 -10 116 0 104 -12 146 142 l29 108 172 0
172 0 21 67 c11 38 23 76 26 86 5 16 -7 17 -166 17 l-172 0 6 26 c4 15 10 39
13 55 l6 29 192 0 192 0 22 73 c35 119 64 107 -269 107 -224 0 -292 -3 -294
-12z"/>
<path d="M1000 690 c-55 -78 -325 -449 -338 -465 -28 -36 -132 -183 -132 -188
0 -4 49 -7 108 -7 l109 0 44 65 44 65 135 -2 134 -3 11 -60 10 -60 110 0 c92
0 110 2 108 15 -1 8 -16 112 -33 230 -18 118 -39 269 -48 335 l-17 120 -105 2
-105 3 -35 -50z m84 -302 c7 -62 6 -68 -11 -69 -10 0 -42 -2 -71 -4 -64 -4
-64 -4 10 100 59 82 61 82 72 -27z"/>
<path d="M2217 733 c-5 -8 -47 -159 -47 -168 0 -3 47 -5 105 -5 58 0 105 -3
105 -7 0 -5 -14 -53 -30 -108 -16 -55 -42 -143 -56 -195 -15 -52 -35 -120 -45
-150 -9 -30 -15 -58 -13 -62 3 -5 50 -8 104 -8 l98 0 15 48 c8 26 25 83 37
127 12 44 35 123 50 175 16 52 34 114 40 138 l11 42 112 0 112 0 17 68 c10 37
20 77 24 90 l6 22 -320 0 c-177 0 -323 -3 -325 -7z"/>
<path d="M3205 653 c-14 -49 -33 -113 -41 -143 -20 -69 -51 -175 -66 -219 -15
-47 -68 -244 -68 -253 0 -11 198 -10 204 1 3 5 17 49 30 97 48 174 71 246 80
246 6 0 51 -79 100 -176 l91 -176 91 0 c79 0 92 2 97 18 3 9 31 105 62 212 32
107 63 215 70 240 7 25 24 83 39 131 14 47 26 90 26 97 0 9 -30 12 -103 12
l-104 0 -10 -42 c-25 -99 -88 -308 -93 -308 -3 0 -46 79 -95 175 l-90 175 -97
0 -97 0 -26 -87z"/>
<path d="M4691 668 c-12 -40 -31 -102 -42 -138 -72 -238 -84 -324 -55 -394 19
-46 80 -93 139 -107 29 -7 89 -10 146 -7 126 6 216 44 291 124 64 67 87 119
144 314 25 85 53 178 61 206 8 28 15 56 15 62 0 17 -196 16 -207 0 -4 -7 -18
-47 -29 -88 -12 -41 -38 -131 -58 -200 -54 -186 -96 -235 -204 -235 -45 0 -56
4 -72 25 -25 32 -25 63 -1 148 11 37 38 131 60 209 23 78 41 144 41 147 0 3
-47 6 -104 6 l-104 0 -21 -72z"/>
<path d="M5507 733 c-4 -7 -21 -62 -102 -338 -60 -205 -95 -331 -95 -348 0
-16 10 -17 101 -15 l102 3 13 45 c6 25 19 71 28 103 l17 57 42 0 43 0 40 -102
40 -103 117 -3 c82 -2 117 1 117 9 0 6 -18 57 -41 112 -23 56 -43 107 -45 113
-3 6 17 21 43 35 96 49 163 150 171 259 5 71 -22 115 -93 150 -48 24 -59 25
-271 28 -122 2 -224 0 -227 -5z m352 -189 c40 -28 13 -97 -51 -130 -28 -15
-173 -20 -181 -6 -2 4 5 40 15 80 l20 72 87 0 c64 0 93 -4 110 -16z"/>
<path d="M6227 658 c-13 -46 -41 -141 -62 -213 -20 -72 -52 -182 -71 -245 -18
-63 -36 -127 -40 -143 l-6 -27 298 2 298 3 23 79 c12 44 21 81 19 84 -3 2 -88
3 -190 2 -208 -1 -199 -5 -172 70 l13 35 174 5 173 5 18 55 c33 107 43 100
-148 100 l-166 0 7 38 c11 61 19 63 218 61 98 -1 179 0 181 2 4 4 46 155 46
164 0 3 -132 5 -294 5 l-294 0 -25 -82z"/>
<path d="M2999 707 c-40 -27 -50 -68 -23 -98 13 -14 31 -19 68 -19 96 0 161
75 108 123 -28 26 -111 22 -153 -6z"/>
<path d="M2945 490 c-27 -5 -82 -9 -121 -9 -56 -1 -73 -5 -78 -17 -9 -24 -9
-24 29 -24 29 0 35 -4 35 -20 0 -12 -47 -91 -105 -176 -61 -91 -105 -165 -105
-179 0 -41 39 -58 121 -53 56 4 80 12 122 38 69 43 136 93 137 103 1 22 -33
15 -77 -17 -50 -36 -103 -56 -103 -38 0 9 119 190 216 329 24 35 44 65 44 68
0 7 -53 4 -115 -5z"/>
</g>
</svg>
